%TF.GenerationSoftware,KiCad,Pcbnew,(5.1.10)-1*%
%TF.CreationDate,2022-09-07T11:24:22-03:00*%
%TF.ProjectId,OpenBCI_Wifi_Shield,4f70656e-4243-4495-9f57-6966695f5368,v1.0.0*%
%TF.SameCoordinates,Original*%
%TF.FileFunction,Other,User*%
%FSLAX46Y46*%
G04 Gerber Fmt 4.6, Leading zero omitted, Abs format (unit mm)*
G04 Created by KiCad (PCBNEW (5.1.10)-1) date 2022-09-07 11:24:22*
%MOMM*%
%LPD*%
G01*
G04 APERTURE LIST*
%ADD10C,0.050000*%
G04 APERTURE END LIST*
D10*
%TO.C,C1*%
X125554400Y-103112000D02*
X125554400Y-101612000D01*
X122654400Y-103112000D02*
X122654400Y-101612000D01*
X122654400Y-101612000D02*
X125554400Y-101612000D01*
X122654400Y-103112000D02*
X125554400Y-103112000D01*
%TO.C,C2*%
X125554400Y-104686800D02*
X125554400Y-103186800D01*
X122654400Y-104686800D02*
X122654400Y-103186800D01*
X122654400Y-103186800D02*
X125554400Y-103186800D01*
X122654400Y-104686800D02*
X125554400Y-104686800D01*
%TO.C,C3*%
X125554400Y-106261600D02*
X125554400Y-104761600D01*
X122654400Y-106261600D02*
X122654400Y-104761600D01*
X122654400Y-104761600D02*
X125554400Y-104761600D01*
X122654400Y-106261600D02*
X125554400Y-106261600D01*
%TO.C,R2*%
X125656000Y-97676400D02*
X125656000Y-96176400D01*
X122756000Y-97676400D02*
X122756000Y-96176400D01*
X122756000Y-96176400D02*
X125656000Y-96176400D01*
X122756000Y-97676400D02*
X125656000Y-97676400D01*
%TO.C,U2*%
X125955200Y-97718800D02*
X122355200Y-97718800D01*
X125955200Y-101518800D02*
X125955200Y-97718800D01*
X122355200Y-101518800D02*
X125955200Y-101518800D01*
X122355200Y-97718800D02*
X122355200Y-101518800D01*
%TO.C,C4*%
X120218000Y-95871000D02*
X117018000Y-95871000D01*
X120218000Y-100471000D02*
X117018000Y-100471000D01*
X117018000Y-100471000D02*
X117018000Y-95871000D01*
X120218000Y-100471000D02*
X120218000Y-95871000D01*
%TD*%
M02*
