%TF.GenerationSoftware,KiCad,Pcbnew,(5.1.10)-1*%
%TF.CreationDate,2022-09-07T11:24:22-03:00*%
%TF.ProjectId,OpenBCI_Wifi_Shield,4f70656e-4243-4495-9f57-6966695f5368,v1.0.0*%
%TF.SameCoordinates,Original*%
%TF.FileFunction,Soldermask,Top*%
%TF.FilePolarity,Negative*%
%FSLAX46Y46*%
G04 Gerber Fmt 4.6, Leading zero omitted, Abs format (unit mm)*
G04 Created by KiCad (PCBNEW (5.1.10)-1) date 2022-09-07 11:24:22*
%MOMM*%
%LPD*%
G01*
G04 APERTURE LIST*
%ADD10O,2.900000X1.500000*%
%ADD11O,1.500000X2.800000*%
%ADD12O,2.432000X2.127200*%
%ADD13O,2.432000X2.432000*%
%ADD14C,1.300000*%
%ADD15C,1.530000*%
%ADD16O,2.100000X2.100000*%
G04 APERTURE END LIST*
%TO.C,R8*%
G36*
G01*
X122297200Y-107055000D02*
X122297200Y-106305000D01*
G75*
G02*
X122497200Y-106105000I200000J0D01*
G01*
X123297200Y-106105000D01*
G75*
G02*
X123497200Y-106305000I0J-200000D01*
G01*
X123497200Y-107055000D01*
G75*
G02*
X123297200Y-107255000I-200000J0D01*
G01*
X122497200Y-107255000D01*
G75*
G02*
X122297200Y-107055000I0J200000D01*
G01*
G37*
G36*
G01*
X123797200Y-107055000D02*
X123797200Y-106305000D01*
G75*
G02*
X123997200Y-106105000I200000J0D01*
G01*
X124797200Y-106105000D01*
G75*
G02*
X124997200Y-106305000I0J-200000D01*
G01*
X124997200Y-107055000D01*
G75*
G02*
X124797200Y-107255000I-200000J0D01*
G01*
X123997200Y-107255000D01*
G75*
G02*
X123797200Y-107055000I0J200000D01*
G01*
G37*
%TD*%
%TO.C,SW4*%
G36*
G01*
X94449000Y-103932000D02*
X94449000Y-104932000D01*
G75*
G02*
X94249000Y-105132000I-200000J0D01*
G01*
X92649000Y-105132000D01*
G75*
G02*
X92449000Y-104932000I0J200000D01*
G01*
X92449000Y-103932000D01*
G75*
G02*
X92649000Y-103732000I200000J0D01*
G01*
X94249000Y-103732000D01*
G75*
G02*
X94449000Y-103932000I0J-200000D01*
G01*
G37*
G36*
G01*
X92149000Y-105682000D02*
X92149000Y-106682000D01*
G75*
G02*
X91949000Y-106882000I-200000J0D01*
G01*
X90349000Y-106882000D01*
G75*
G02*
X90149000Y-106682000I0J200000D01*
G01*
X90149000Y-105682000D01*
G75*
G02*
X90349000Y-105482000I200000J0D01*
G01*
X91949000Y-105482000D01*
G75*
G02*
X92149000Y-105682000I0J-200000D01*
G01*
G37*
G36*
G01*
X94449000Y-107432000D02*
X94449000Y-108432000D01*
G75*
G02*
X94249000Y-108632000I-200000J0D01*
G01*
X92649000Y-108632000D01*
G75*
G02*
X92449000Y-108432000I0J200000D01*
G01*
X92449000Y-107432000D01*
G75*
G02*
X92649000Y-107232000I200000J0D01*
G01*
X94249000Y-107232000D01*
G75*
G02*
X94449000Y-107432000I0J-200000D01*
G01*
G37*
%TD*%
%TO.C,U1*%
G36*
G01*
X120074000Y-113132000D02*
X120074000Y-114232000D01*
G75*
G02*
X119874000Y-114432000I-200000J0D01*
G01*
X117374000Y-114432000D01*
G75*
G02*
X117174000Y-114232000I0J200000D01*
G01*
X117174000Y-113132000D01*
G75*
G02*
X117374000Y-112932000I200000J0D01*
G01*
X119874000Y-112932000D01*
G75*
G02*
X120074000Y-113132000I0J-200000D01*
G01*
G37*
D10*
X118624000Y-111682000D03*
X118624000Y-109682000D03*
X118624000Y-107682000D03*
X118624000Y-105682000D03*
X118624000Y-103682000D03*
X118624000Y-101682000D03*
X118624000Y-99682000D03*
X103224000Y-99682000D03*
X103324000Y-101682000D03*
X103224000Y-103682000D03*
X103224000Y-105682000D03*
X103224000Y-107682000D03*
X103224000Y-109682000D03*
X103224000Y-111682000D03*
X103224000Y-113682000D03*
D11*
X115934000Y-97932000D03*
X113934000Y-97932000D03*
X111934000Y-97932000D03*
X109934000Y-97932000D03*
X107934000Y-97932000D03*
X105934000Y-97932000D03*
%TD*%
%TO.C,SW2*%
G36*
G01*
X83114200Y-104882600D02*
X83114200Y-104232600D01*
G75*
G02*
X83314200Y-104032600I200000J0D01*
G01*
X84364200Y-104032600D01*
G75*
G02*
X84564200Y-104232600I0J-200000D01*
G01*
X84564200Y-104882600D01*
G75*
G02*
X84364200Y-105082600I-200000J0D01*
G01*
X83314200Y-105082600D01*
G75*
G02*
X83114200Y-104882600I0J200000D01*
G01*
G37*
G36*
G01*
X87264200Y-104882600D02*
X87264200Y-104232600D01*
G75*
G02*
X87464200Y-104032600I200000J0D01*
G01*
X88514200Y-104032600D01*
G75*
G02*
X88714200Y-104232600I0J-200000D01*
G01*
X88714200Y-104882600D01*
G75*
G02*
X88514200Y-105082600I-200000J0D01*
G01*
X87464200Y-105082600D01*
G75*
G02*
X87264200Y-104882600I0J200000D01*
G01*
G37*
G36*
G01*
X83114200Y-107032600D02*
X83114200Y-106382600D01*
G75*
G02*
X83314200Y-106182600I200000J0D01*
G01*
X84364200Y-106182600D01*
G75*
G02*
X84564200Y-106382600I0J-200000D01*
G01*
X84564200Y-107032600D01*
G75*
G02*
X84364200Y-107232600I-200000J0D01*
G01*
X83314200Y-107232600D01*
G75*
G02*
X83114200Y-107032600I0J200000D01*
G01*
G37*
G36*
G01*
X87264200Y-107032600D02*
X87264200Y-106382600D01*
G75*
G02*
X87464200Y-106182600I200000J0D01*
G01*
X88514200Y-106182600D01*
G75*
G02*
X88714200Y-106382600I0J-200000D01*
G01*
X88714200Y-107032600D01*
G75*
G02*
X88514200Y-107232600I-200000J0D01*
G01*
X87464200Y-107232600D01*
G75*
G02*
X87264200Y-107032600I0J200000D01*
G01*
G37*
%TD*%
%TO.C,P8*%
G36*
G01*
X83644901Y-85742142D02*
X85081742Y-84305301D01*
G75*
G02*
X85364584Y-84305301I141421J-141421D01*
G01*
X86585899Y-85526616D01*
G75*
G02*
X86585899Y-85809458I-141421J-141421D01*
G01*
X85149058Y-87246299D01*
G75*
G02*
X84866216Y-87246299I-141421J141421D01*
G01*
X83644901Y-86024984D01*
G75*
G02*
X83644901Y-85742142I141421J141421D01*
G01*
G37*
G36*
G01*
X86051609Y-86927535D02*
X86267135Y-86712009D01*
G75*
G02*
X87771293Y-86712009I752079J-752079D01*
G01*
X87771293Y-86712009D01*
G75*
G02*
X87771293Y-88216167I-752079J-752079D01*
G01*
X87555767Y-88431693D01*
G75*
G02*
X86051609Y-88431693I-752079J752079D01*
G01*
X86051609Y-88431693D01*
G75*
G02*
X86051609Y-86927535I752079J752079D01*
G01*
G37*
G36*
G01*
X87847660Y-88723586D02*
X88063186Y-88508060D01*
G75*
G02*
X89567344Y-88508060I752079J-752079D01*
G01*
X89567344Y-88508060D01*
G75*
G02*
X89567344Y-90012218I-752079J-752079D01*
G01*
X89351818Y-90227744D01*
G75*
G02*
X87847660Y-90227744I-752079J752079D01*
G01*
X87847660Y-90227744D01*
G75*
G02*
X87847660Y-88723586I752079J752079D01*
G01*
G37*
G36*
G01*
X89643712Y-90519638D02*
X89859238Y-90304112D01*
G75*
G02*
X91363396Y-90304112I752079J-752079D01*
G01*
X91363396Y-90304112D01*
G75*
G02*
X91363396Y-91808270I-752079J-752079D01*
G01*
X91147870Y-92023796D01*
G75*
G02*
X89643712Y-92023796I-752079J752079D01*
G01*
X89643712Y-92023796D01*
G75*
G02*
X89643712Y-90519638I752079J752079D01*
G01*
G37*
G36*
G01*
X91439763Y-92315689D02*
X91655289Y-92100163D01*
G75*
G02*
X93159447Y-92100163I752079J-752079D01*
G01*
X93159447Y-92100163D01*
G75*
G02*
X93159447Y-93604321I-752079J-752079D01*
G01*
X92943921Y-93819847D01*
G75*
G02*
X91439763Y-93819847I-752079J752079D01*
G01*
X91439763Y-93819847D01*
G75*
G02*
X91439763Y-92315689I752079J752079D01*
G01*
G37*
G36*
G01*
X93235814Y-94111740D02*
X93451340Y-93896214D01*
G75*
G02*
X94955498Y-93896214I752079J-752079D01*
G01*
X94955498Y-93896214D01*
G75*
G02*
X94955498Y-95400372I-752079J-752079D01*
G01*
X94739972Y-95615898D01*
G75*
G02*
X93235814Y-95615898I-752079J752079D01*
G01*
X93235814Y-95615898D01*
G75*
G02*
X93235814Y-94111740I752079J752079D01*
G01*
G37*
G36*
G01*
X95031865Y-95907791D02*
X95247391Y-95692265D01*
G75*
G02*
X96751549Y-95692265I752079J-752079D01*
G01*
X96751549Y-95692265D01*
G75*
G02*
X96751549Y-97196423I-752079J-752079D01*
G01*
X96536023Y-97411949D01*
G75*
G02*
X95031865Y-97411949I-752079J752079D01*
G01*
X95031865Y-97411949D01*
G75*
G02*
X95031865Y-95907791I752079J752079D01*
G01*
G37*
G36*
G01*
X96827917Y-97703843D02*
X97043443Y-97488317D01*
G75*
G02*
X98547601Y-97488317I752079J-752079D01*
G01*
X98547601Y-97488317D01*
G75*
G02*
X98547601Y-98992475I-752079J-752079D01*
G01*
X98332075Y-99208001D01*
G75*
G02*
X96827917Y-99208001I-752079J752079D01*
G01*
X96827917Y-99208001D01*
G75*
G02*
X96827917Y-97703843I752079J752079D01*
G01*
G37*
%TD*%
%TO.C,P9*%
G36*
G01*
X130082400Y-98555200D02*
X132114400Y-98555200D01*
G75*
G02*
X132314400Y-98755200I0J-200000D01*
G01*
X132314400Y-100482400D01*
G75*
G02*
X132114400Y-100682400I-200000J0D01*
G01*
X130082400Y-100682400D01*
G75*
G02*
X129882400Y-100482400I0J200000D01*
G01*
X129882400Y-98755200D01*
G75*
G02*
X130082400Y-98555200I200000J0D01*
G01*
G37*
D12*
X131098400Y-102158800D03*
X131098400Y-104698800D03*
X131098400Y-107238800D03*
%TD*%
%TO.C,P10*%
G36*
G01*
X128924458Y-109132301D02*
X130361299Y-110569142D01*
G75*
G02*
X130361299Y-110851984I-141421J-141421D01*
G01*
X129139984Y-112073299D01*
G75*
G02*
X128857142Y-112073299I-141421J141421D01*
G01*
X127420301Y-110636458D01*
G75*
G02*
X127420301Y-110353616I141421J141421D01*
G01*
X128641616Y-109132301D01*
G75*
G02*
X128924458Y-109132301I141421J-141421D01*
G01*
G37*
G36*
G01*
X127739065Y-111539009D02*
X127954591Y-111754535D01*
G75*
G02*
X127954591Y-113258693I-752079J-752079D01*
G01*
X127954591Y-113258693D01*
G75*
G02*
X126450433Y-113258693I-752079J752079D01*
G01*
X126234907Y-113043167D01*
G75*
G02*
X126234907Y-111539009I752079J752079D01*
G01*
X126234907Y-111539009D01*
G75*
G02*
X127739065Y-111539009I752079J-752079D01*
G01*
G37*
G36*
G01*
X125943014Y-113335060D02*
X126158540Y-113550586D01*
G75*
G02*
X126158540Y-115054744I-752079J-752079D01*
G01*
X126158540Y-115054744D01*
G75*
G02*
X124654382Y-115054744I-752079J752079D01*
G01*
X124438856Y-114839218D01*
G75*
G02*
X124438856Y-113335060I752079J752079D01*
G01*
X124438856Y-113335060D01*
G75*
G02*
X125943014Y-113335060I752079J-752079D01*
G01*
G37*
G36*
G01*
X124146962Y-115131112D02*
X124362488Y-115346638D01*
G75*
G02*
X124362488Y-116850796I-752079J-752079D01*
G01*
X124362488Y-116850796D01*
G75*
G02*
X122858330Y-116850796I-752079J752079D01*
G01*
X122642804Y-116635270D01*
G75*
G02*
X122642804Y-115131112I752079J752079D01*
G01*
X122642804Y-115131112D01*
G75*
G02*
X124146962Y-115131112I752079J-752079D01*
G01*
G37*
%TD*%
%TO.C,P7*%
G36*
G01*
X85524501Y-83913342D02*
X86961342Y-82476501D01*
G75*
G02*
X87244184Y-82476501I141421J-141421D01*
G01*
X88465499Y-83697816D01*
G75*
G02*
X88465499Y-83980658I-141421J-141421D01*
G01*
X87028658Y-85417499D01*
G75*
G02*
X86745816Y-85417499I-141421J141421D01*
G01*
X85524501Y-84196184D01*
G75*
G02*
X85524501Y-83913342I141421J141421D01*
G01*
G37*
G36*
G01*
X87931209Y-85098735D02*
X88146735Y-84883209D01*
G75*
G02*
X89650893Y-84883209I752079J-752079D01*
G01*
X89650893Y-84883209D01*
G75*
G02*
X89650893Y-86387367I-752079J-752079D01*
G01*
X89435367Y-86602893D01*
G75*
G02*
X87931209Y-86602893I-752079J752079D01*
G01*
X87931209Y-86602893D01*
G75*
G02*
X87931209Y-85098735I752079J752079D01*
G01*
G37*
G36*
G01*
X89727260Y-86894786D02*
X89942786Y-86679260D01*
G75*
G02*
X91446944Y-86679260I752079J-752079D01*
G01*
X91446944Y-86679260D01*
G75*
G02*
X91446944Y-88183418I-752079J-752079D01*
G01*
X91231418Y-88398944D01*
G75*
G02*
X89727260Y-88398944I-752079J752079D01*
G01*
X89727260Y-88398944D01*
G75*
G02*
X89727260Y-86894786I752079J752079D01*
G01*
G37*
G36*
G01*
X91523312Y-88690838D02*
X91738838Y-88475312D01*
G75*
G02*
X93242996Y-88475312I752079J-752079D01*
G01*
X93242996Y-88475312D01*
G75*
G02*
X93242996Y-89979470I-752079J-752079D01*
G01*
X93027470Y-90194996D01*
G75*
G02*
X91523312Y-90194996I-752079J752079D01*
G01*
X91523312Y-90194996D01*
G75*
G02*
X91523312Y-88690838I752079J752079D01*
G01*
G37*
G36*
G01*
X93319363Y-90486889D02*
X93534889Y-90271363D01*
G75*
G02*
X95039047Y-90271363I752079J-752079D01*
G01*
X95039047Y-90271363D01*
G75*
G02*
X95039047Y-91775521I-752079J-752079D01*
G01*
X94823521Y-91991047D01*
G75*
G02*
X93319363Y-91991047I-752079J752079D01*
G01*
X93319363Y-91991047D01*
G75*
G02*
X93319363Y-90486889I752079J752079D01*
G01*
G37*
G36*
G01*
X95115414Y-92282940D02*
X95330940Y-92067414D01*
G75*
G02*
X96835098Y-92067414I752079J-752079D01*
G01*
X96835098Y-92067414D01*
G75*
G02*
X96835098Y-93571572I-752079J-752079D01*
G01*
X96619572Y-93787098D01*
G75*
G02*
X95115414Y-93787098I-752079J752079D01*
G01*
X95115414Y-93787098D01*
G75*
G02*
X95115414Y-92282940I752079J752079D01*
G01*
G37*
G36*
G01*
X96911465Y-94078991D02*
X97126991Y-93863465D01*
G75*
G02*
X98631149Y-93863465I752079J-752079D01*
G01*
X98631149Y-93863465D01*
G75*
G02*
X98631149Y-95367623I-752079J-752079D01*
G01*
X98415623Y-95583149D01*
G75*
G02*
X96911465Y-95583149I-752079J752079D01*
G01*
X96911465Y-95583149D01*
G75*
G02*
X96911465Y-94078991I752079J752079D01*
G01*
G37*
G36*
G01*
X98707517Y-95875043D02*
X98923043Y-95659517D01*
G75*
G02*
X100427201Y-95659517I752079J-752079D01*
G01*
X100427201Y-95659517D01*
G75*
G02*
X100427201Y-97163675I-752079J-752079D01*
G01*
X100211675Y-97379201D01*
G75*
G02*
X98707517Y-97379201I-752079J752079D01*
G01*
X98707517Y-97379201D01*
G75*
G02*
X98707517Y-95875043I752079J752079D01*
G01*
G37*
%TD*%
%TO.C,P4*%
G36*
G01*
X92075000Y-66810000D02*
X94107000Y-66810000D01*
G75*
G02*
X94307000Y-67010000I0J-200000D01*
G01*
X94307000Y-69042000D01*
G75*
G02*
X94107000Y-69242000I-200000J0D01*
G01*
X92075000Y-69242000D01*
G75*
G02*
X91875000Y-69042000I0J200000D01*
G01*
X91875000Y-67010000D01*
G75*
G02*
X92075000Y-66810000I200000J0D01*
G01*
G37*
D13*
X93091000Y-70566000D03*
%TD*%
%TO.C,P6*%
G36*
G01*
X116951000Y-82985000D02*
X118983000Y-82985000D01*
G75*
G02*
X119183000Y-83185000I0J-200000D01*
G01*
X119183000Y-85217000D01*
G75*
G02*
X118983000Y-85417000I-200000J0D01*
G01*
X116951000Y-85417000D01*
G75*
G02*
X116751000Y-85217000I0J200000D01*
G01*
X116751000Y-83185000D01*
G75*
G02*
X116951000Y-82985000I200000J0D01*
G01*
G37*
X117967000Y-86741000D03*
%TD*%
%TO.C,P5*%
G36*
G01*
X122174000Y-66683000D02*
X124206000Y-66683000D01*
G75*
G02*
X124406000Y-66883000I0J-200000D01*
G01*
X124406000Y-68915000D01*
G75*
G02*
X124206000Y-69115000I-200000J0D01*
G01*
X122174000Y-69115000D01*
G75*
G02*
X121974000Y-68915000I0J200000D01*
G01*
X121974000Y-66883000D01*
G75*
G02*
X122174000Y-66683000I200000J0D01*
G01*
G37*
X123190000Y-70439000D03*
%TD*%
%TO.C,P1*%
G36*
G01*
X87853501Y-110248342D02*
X89290342Y-108811501D01*
G75*
G02*
X89573184Y-108811501I141421J-141421D01*
G01*
X90794499Y-110032816D01*
G75*
G02*
X90794499Y-110315658I-141421J-141421D01*
G01*
X89357658Y-111752499D01*
G75*
G02*
X89074816Y-111752499I-141421J141421D01*
G01*
X87853501Y-110531184D01*
G75*
G02*
X87853501Y-110248342I141421J141421D01*
G01*
G37*
G36*
G01*
X90260209Y-111433735D02*
X90475735Y-111218209D01*
G75*
G02*
X91979893Y-111218209I752079J-752079D01*
G01*
X91979893Y-111218209D01*
G75*
G02*
X91979893Y-112722367I-752079J-752079D01*
G01*
X91764367Y-112937893D01*
G75*
G02*
X90260209Y-112937893I-752079J752079D01*
G01*
X90260209Y-112937893D01*
G75*
G02*
X90260209Y-111433735I752079J752079D01*
G01*
G37*
G36*
G01*
X92056260Y-113229786D02*
X92271786Y-113014260D01*
G75*
G02*
X93775944Y-113014260I752079J-752079D01*
G01*
X93775944Y-113014260D01*
G75*
G02*
X93775944Y-114518418I-752079J-752079D01*
G01*
X93560418Y-114733944D01*
G75*
G02*
X92056260Y-114733944I-752079J752079D01*
G01*
X92056260Y-114733944D01*
G75*
G02*
X92056260Y-113229786I752079J752079D01*
G01*
G37*
G36*
G01*
X93852312Y-115025838D02*
X94067838Y-114810312D01*
G75*
G02*
X95571996Y-114810312I752079J-752079D01*
G01*
X95571996Y-114810312D01*
G75*
G02*
X95571996Y-116314470I-752079J-752079D01*
G01*
X95356470Y-116529996D01*
G75*
G02*
X93852312Y-116529996I-752079J752079D01*
G01*
X93852312Y-116529996D01*
G75*
G02*
X93852312Y-115025838I752079J752079D01*
G01*
G37*
%TD*%
%TO.C,R1*%
G36*
G01*
X83188800Y-92081000D02*
X83188800Y-92831000D01*
G75*
G02*
X82988800Y-93031000I-200000J0D01*
G01*
X82188800Y-93031000D01*
G75*
G02*
X81988800Y-92831000I0J200000D01*
G01*
X81988800Y-92081000D01*
G75*
G02*
X82188800Y-91881000I200000J0D01*
G01*
X82988800Y-91881000D01*
G75*
G02*
X83188800Y-92081000I0J-200000D01*
G01*
G37*
G36*
G01*
X81688800Y-92081000D02*
X81688800Y-92831000D01*
G75*
G02*
X81488800Y-93031000I-200000J0D01*
G01*
X80688800Y-93031000D01*
G75*
G02*
X80488800Y-92831000I0J200000D01*
G01*
X80488800Y-92081000D01*
G75*
G02*
X80688800Y-91881000I200000J0D01*
G01*
X81488800Y-91881000D01*
G75*
G02*
X81688800Y-92081000I0J-200000D01*
G01*
G37*
%TD*%
%TO.C,R3*%
G36*
G01*
X93468200Y-110039500D02*
X93468200Y-109289500D01*
G75*
G02*
X93668200Y-109089500I200000J0D01*
G01*
X94468200Y-109089500D01*
G75*
G02*
X94668200Y-109289500I0J-200000D01*
G01*
X94668200Y-110039500D01*
G75*
G02*
X94468200Y-110239500I-200000J0D01*
G01*
X93668200Y-110239500D01*
G75*
G02*
X93468200Y-110039500I0J200000D01*
G01*
G37*
G36*
G01*
X94968200Y-110039500D02*
X94968200Y-109289500D01*
G75*
G02*
X95168200Y-109089500I200000J0D01*
G01*
X95968200Y-109089500D01*
G75*
G02*
X96168200Y-109289500I0J-200000D01*
G01*
X96168200Y-110039500D01*
G75*
G02*
X95968200Y-110239500I-200000J0D01*
G01*
X95168200Y-110239500D01*
G75*
G02*
X94968200Y-110039500I0J200000D01*
G01*
G37*
%TD*%
%TO.C,R4*%
G36*
G01*
X86592400Y-101377400D02*
X86592400Y-102127400D01*
G75*
G02*
X86392400Y-102327400I-200000J0D01*
G01*
X85592400Y-102327400D01*
G75*
G02*
X85392400Y-102127400I0J200000D01*
G01*
X85392400Y-101377400D01*
G75*
G02*
X85592400Y-101177400I200000J0D01*
G01*
X86392400Y-101177400D01*
G75*
G02*
X86592400Y-101377400I0J-200000D01*
G01*
G37*
G36*
G01*
X85092400Y-101377400D02*
X85092400Y-102127400D01*
G75*
G02*
X84892400Y-102327400I-200000J0D01*
G01*
X84092400Y-102327400D01*
G75*
G02*
X83892400Y-102127400I0J200000D01*
G01*
X83892400Y-101377400D01*
G75*
G02*
X84092400Y-101177400I200000J0D01*
G01*
X84892400Y-101177400D01*
G75*
G02*
X85092400Y-101377400I0J-200000D01*
G01*
G37*
%TD*%
%TO.C,SW1*%
G36*
G01*
X85935500Y-95688500D02*
X85935500Y-96338500D01*
G75*
G02*
X85735500Y-96538500I-200000J0D01*
G01*
X84685500Y-96538500D01*
G75*
G02*
X84485500Y-96338500I0J200000D01*
G01*
X84485500Y-95688500D01*
G75*
G02*
X84685500Y-95488500I200000J0D01*
G01*
X85735500Y-95488500D01*
G75*
G02*
X85935500Y-95688500I0J-200000D01*
G01*
G37*
G36*
G01*
X81785500Y-95688500D02*
X81785500Y-96338500D01*
G75*
G02*
X81585500Y-96538500I-200000J0D01*
G01*
X80535500Y-96538500D01*
G75*
G02*
X80335500Y-96338500I0J200000D01*
G01*
X80335500Y-95688500D01*
G75*
G02*
X80535500Y-95488500I200000J0D01*
G01*
X81585500Y-95488500D01*
G75*
G02*
X81785500Y-95688500I0J-200000D01*
G01*
G37*
G36*
G01*
X85935500Y-93538500D02*
X85935500Y-94188500D01*
G75*
G02*
X85735500Y-94388500I-200000J0D01*
G01*
X84685500Y-94388500D01*
G75*
G02*
X84485500Y-94188500I0J200000D01*
G01*
X84485500Y-93538500D01*
G75*
G02*
X84685500Y-93338500I200000J0D01*
G01*
X85735500Y-93338500D01*
G75*
G02*
X85935500Y-93538500I0J-200000D01*
G01*
G37*
G36*
G01*
X81785500Y-93538500D02*
X81785500Y-94188500D01*
G75*
G02*
X81585500Y-94388500I-200000J0D01*
G01*
X80535500Y-94388500D01*
G75*
G02*
X80335500Y-94188500I0J200000D01*
G01*
X80335500Y-93538500D01*
G75*
G02*
X80535500Y-93338500I200000J0D01*
G01*
X81585500Y-93338500D01*
G75*
G02*
X81785500Y-93538500I0J-200000D01*
G01*
G37*
%TD*%
%TO.C,R5*%
G36*
G01*
X124997200Y-107879800D02*
X124997200Y-108629800D01*
G75*
G02*
X124797200Y-108829800I-200000J0D01*
G01*
X123997200Y-108829800D01*
G75*
G02*
X123797200Y-108629800I0J200000D01*
G01*
X123797200Y-107879800D01*
G75*
G02*
X123997200Y-107679800I200000J0D01*
G01*
X124797200Y-107679800D01*
G75*
G02*
X124997200Y-107879800I0J-200000D01*
G01*
G37*
G36*
G01*
X123497200Y-107879800D02*
X123497200Y-108629800D01*
G75*
G02*
X123297200Y-108829800I-200000J0D01*
G01*
X122497200Y-108829800D01*
G75*
G02*
X122297200Y-108629800I0J200000D01*
G01*
X122297200Y-107879800D01*
G75*
G02*
X122497200Y-107679800I200000J0D01*
G01*
X123297200Y-107679800D01*
G75*
G02*
X123497200Y-107879800I0J-200000D01*
G01*
G37*
%TD*%
%TO.C,R6*%
G36*
G01*
X124974000Y-109507000D02*
X124974000Y-110257000D01*
G75*
G02*
X124774000Y-110457000I-200000J0D01*
G01*
X123974000Y-110457000D01*
G75*
G02*
X123774000Y-110257000I0J200000D01*
G01*
X123774000Y-109507000D01*
G75*
G02*
X123974000Y-109307000I200000J0D01*
G01*
X124774000Y-109307000D01*
G75*
G02*
X124974000Y-109507000I0J-200000D01*
G01*
G37*
G36*
G01*
X123474000Y-109507000D02*
X123474000Y-110257000D01*
G75*
G02*
X123274000Y-110457000I-200000J0D01*
G01*
X122474000Y-110457000D01*
G75*
G02*
X122274000Y-110257000I0J200000D01*
G01*
X122274000Y-109507000D01*
G75*
G02*
X122474000Y-109307000I200000J0D01*
G01*
X123274000Y-109307000D01*
G75*
G02*
X123474000Y-109507000I0J-200000D01*
G01*
G37*
%TD*%
%TO.C,R7*%
G36*
G01*
X83892400Y-98876200D02*
X83892400Y-98126200D01*
G75*
G02*
X84092400Y-97926200I200000J0D01*
G01*
X84892400Y-97926200D01*
G75*
G02*
X85092400Y-98126200I0J-200000D01*
G01*
X85092400Y-98876200D01*
G75*
G02*
X84892400Y-99076200I-200000J0D01*
G01*
X84092400Y-99076200D01*
G75*
G02*
X83892400Y-98876200I0J200000D01*
G01*
G37*
G36*
G01*
X85392400Y-98876200D02*
X85392400Y-98126200D01*
G75*
G02*
X85592400Y-97926200I200000J0D01*
G01*
X86392400Y-97926200D01*
G75*
G02*
X86592400Y-98126200I0J-200000D01*
G01*
X86592400Y-98876200D01*
G75*
G02*
X86392400Y-99076200I-200000J0D01*
G01*
X85592400Y-99076200D01*
G75*
G02*
X85392400Y-98876200I0J200000D01*
G01*
G37*
%TD*%
%TO.C,P2*%
G36*
G01*
X130318054Y-92828066D02*
X127136073Y-96010047D01*
G75*
G02*
X126853231Y-96010047I-141421J141421D01*
G01*
X126146124Y-95302940D01*
G75*
G02*
X126146124Y-95020098I141421J141421D01*
G01*
X129328105Y-91838117D01*
G75*
G02*
X129610947Y-91838117I141421J-141421D01*
G01*
X130318054Y-92545224D01*
G75*
G02*
X130318054Y-92828066I-141421J-141421D01*
G01*
G37*
G36*
G01*
X131732268Y-94242279D02*
X128550287Y-97424260D01*
G75*
G02*
X128267445Y-97424260I-141421J141421D01*
G01*
X127560338Y-96717153D01*
G75*
G02*
X127560338Y-96434311I141421J141421D01*
G01*
X130742319Y-93252330D01*
G75*
G02*
X131025161Y-93252330I141421J-141421D01*
G01*
X131732268Y-93959437D01*
G75*
G02*
X131732268Y-94242279I-141421J-141421D01*
G01*
G37*
G36*
G01*
X132792928Y-87524765D02*
X130388765Y-89928928D01*
G75*
G02*
X130105923Y-89928928I-141421J141421D01*
G01*
X128903842Y-88726847D01*
G75*
G02*
X128903842Y-88444005I141421J141421D01*
G01*
X131308005Y-86039842D01*
G75*
G02*
X131590847Y-86039842I141421J-141421D01*
G01*
X132792928Y-87241923D01*
G75*
G02*
X132792928Y-87524765I-141421J-141421D01*
G01*
G37*
G36*
G01*
X137530543Y-92262380D02*
X135126380Y-94666543D01*
G75*
G02*
X134843538Y-94666543I-141421J141421D01*
G01*
X133641457Y-93464462D01*
G75*
G02*
X133641457Y-93181620I141421J141421D01*
G01*
X136045620Y-90777457D01*
G75*
G02*
X136328462Y-90777457I141421J-141421D01*
G01*
X137530543Y-91979538D01*
G75*
G02*
X137530543Y-92262380I-141421J-141421D01*
G01*
G37*
%TD*%
%TO.C,D2*%
G36*
G01*
X99201580Y-109265720D02*
X99201580Y-110063280D01*
G75*
G02*
X99001580Y-110263280I-200000J0D01*
G01*
X98204020Y-110263280D01*
G75*
G02*
X98004020Y-110063280I0J200000D01*
G01*
X98004020Y-109265720D01*
G75*
G02*
X98204020Y-109065720I200000J0D01*
G01*
X99001580Y-109065720D01*
G75*
G02*
X99201580Y-109265720I0J-200000D01*
G01*
G37*
G36*
G01*
X97702980Y-109265720D02*
X97702980Y-110063280D01*
G75*
G02*
X97502980Y-110263280I-200000J0D01*
G01*
X96705420Y-110263280D01*
G75*
G02*
X96505420Y-110063280I0J200000D01*
G01*
X96505420Y-109265720D01*
G75*
G02*
X96705420Y-109065720I200000J0D01*
G01*
X97502980Y-109065720D01*
G75*
G02*
X97702980Y-109265720I0J-200000D01*
G01*
G37*
%TD*%
%TO.C,D3*%
G36*
G01*
X83894320Y-100525580D02*
X83894320Y-99728020D01*
G75*
G02*
X84094320Y-99528020I200000J0D01*
G01*
X84891880Y-99528020D01*
G75*
G02*
X85091880Y-99728020I0J-200000D01*
G01*
X85091880Y-100525580D01*
G75*
G02*
X84891880Y-100725580I-200000J0D01*
G01*
X84094320Y-100725580D01*
G75*
G02*
X83894320Y-100525580I0J200000D01*
G01*
G37*
G36*
G01*
X85392920Y-100525580D02*
X85392920Y-99728020D01*
G75*
G02*
X85592920Y-99528020I200000J0D01*
G01*
X86390480Y-99528020D01*
G75*
G02*
X86590480Y-99728020I0J-200000D01*
G01*
X86590480Y-100525580D01*
G75*
G02*
X86390480Y-100725580I-200000J0D01*
G01*
X85592920Y-100725580D01*
G75*
G02*
X85392920Y-100525580I0J200000D01*
G01*
G37*
%TD*%
D14*
%TO.C,SW3*%
X136956800Y-97639000D03*
X136956800Y-94639000D03*
%TD*%
%TO.C,D4*%
G36*
G01*
X125046080Y-104731820D02*
X125046080Y-105529380D01*
G75*
G02*
X124846080Y-105729380I-200000J0D01*
G01*
X124048520Y-105729380D01*
G75*
G02*
X123848520Y-105529380I0J200000D01*
G01*
X123848520Y-104731820D01*
G75*
G02*
X124048520Y-104531820I200000J0D01*
G01*
X124846080Y-104531820D01*
G75*
G02*
X125046080Y-104731820I0J-200000D01*
G01*
G37*
G36*
G01*
X123547480Y-104731820D02*
X123547480Y-105529380D01*
G75*
G02*
X123347480Y-105729380I-200000J0D01*
G01*
X122549920Y-105729380D01*
G75*
G02*
X122349920Y-105529380I0J200000D01*
G01*
X122349920Y-104731820D01*
G75*
G02*
X122549920Y-104531820I200000J0D01*
G01*
X123347480Y-104531820D01*
G75*
G02*
X123547480Y-104731820I0J-200000D01*
G01*
G37*
%TD*%
%TO.C,IC1*%
G36*
G01*
X113664000Y-75767000D02*
X112136000Y-75767000D01*
G75*
G02*
X111936000Y-75567000I0J200000D01*
G01*
X111936000Y-74917000D01*
G75*
G02*
X112136000Y-74717000I200000J0D01*
G01*
X113664000Y-74717000D01*
G75*
G02*
X113864000Y-74917000I0J-200000D01*
G01*
X113864000Y-75567000D01*
G75*
G02*
X113664000Y-75767000I-200000J0D01*
G01*
G37*
G36*
G01*
X113664000Y-77037000D02*
X112136000Y-77037000D01*
G75*
G02*
X111936000Y-76837000I0J200000D01*
G01*
X111936000Y-76187000D01*
G75*
G02*
X112136000Y-75987000I200000J0D01*
G01*
X113664000Y-75987000D01*
G75*
G02*
X113864000Y-76187000I0J-200000D01*
G01*
X113864000Y-76837000D01*
G75*
G02*
X113664000Y-77037000I-200000J0D01*
G01*
G37*
G36*
G01*
X113664000Y-78307000D02*
X112136000Y-78307000D01*
G75*
G02*
X111936000Y-78107000I0J200000D01*
G01*
X111936000Y-77457000D01*
G75*
G02*
X112136000Y-77257000I200000J0D01*
G01*
X113664000Y-77257000D01*
G75*
G02*
X113864000Y-77457000I0J-200000D01*
G01*
X113864000Y-78107000D01*
G75*
G02*
X113664000Y-78307000I-200000J0D01*
G01*
G37*
G36*
G01*
X113664000Y-79577000D02*
X112136000Y-79577000D01*
G75*
G02*
X111936000Y-79377000I0J200000D01*
G01*
X111936000Y-78727000D01*
G75*
G02*
X112136000Y-78527000I200000J0D01*
G01*
X113664000Y-78527000D01*
G75*
G02*
X113864000Y-78727000I0J-200000D01*
G01*
X113864000Y-79377000D01*
G75*
G02*
X113664000Y-79577000I-200000J0D01*
G01*
G37*
G36*
G01*
X119086000Y-79577000D02*
X117558000Y-79577000D01*
G75*
G02*
X117358000Y-79377000I0J200000D01*
G01*
X117358000Y-78727000D01*
G75*
G02*
X117558000Y-78527000I200000J0D01*
G01*
X119086000Y-78527000D01*
G75*
G02*
X119286000Y-78727000I0J-200000D01*
G01*
X119286000Y-79377000D01*
G75*
G02*
X119086000Y-79577000I-200000J0D01*
G01*
G37*
G36*
G01*
X119086000Y-78307000D02*
X117558000Y-78307000D01*
G75*
G02*
X117358000Y-78107000I0J200000D01*
G01*
X117358000Y-77457000D01*
G75*
G02*
X117558000Y-77257000I200000J0D01*
G01*
X119086000Y-77257000D01*
G75*
G02*
X119286000Y-77457000I0J-200000D01*
G01*
X119286000Y-78107000D01*
G75*
G02*
X119086000Y-78307000I-200000J0D01*
G01*
G37*
G36*
G01*
X119086000Y-77037000D02*
X117558000Y-77037000D01*
G75*
G02*
X117358000Y-76837000I0J200000D01*
G01*
X117358000Y-76187000D01*
G75*
G02*
X117558000Y-75987000I200000J0D01*
G01*
X119086000Y-75987000D01*
G75*
G02*
X119286000Y-76187000I0J-200000D01*
G01*
X119286000Y-76837000D01*
G75*
G02*
X119086000Y-77037000I-200000J0D01*
G01*
G37*
G36*
G01*
X119086000Y-75767000D02*
X117558000Y-75767000D01*
G75*
G02*
X117358000Y-75567000I0J200000D01*
G01*
X117358000Y-74917000D01*
G75*
G02*
X117558000Y-74717000I200000J0D01*
G01*
X119086000Y-74717000D01*
G75*
G02*
X119286000Y-74917000I0J-200000D01*
G01*
X119286000Y-75567000D01*
G75*
G02*
X119086000Y-75767000I-200000J0D01*
G01*
G37*
%TD*%
%TO.C,IC2*%
G36*
G01*
X91774211Y-80906512D02*
X90975180Y-80107481D01*
G75*
G02*
X90975180Y-79824639I141421J141421D01*
G01*
X91774211Y-79025608D01*
G75*
G02*
X92057053Y-79025608I141421J-141421D01*
G01*
X92856084Y-79824639D01*
G75*
G02*
X92856084Y-80107481I-141421J-141421D01*
G01*
X92057053Y-80906512D01*
G75*
G02*
X91774211Y-80906512I-141421J141421D01*
G01*
G37*
D15*
X93711684Y-81762111D03*
X95507735Y-83558163D03*
X97303786Y-85354214D03*
X99099837Y-87150265D03*
X100895889Y-88946316D03*
X102691940Y-90742368D03*
X108306368Y-85127940D03*
X106510316Y-83331889D03*
X104714265Y-81535837D03*
X102918214Y-79739786D03*
X101122163Y-77943735D03*
X99326111Y-76147684D03*
X97530060Y-74351632D03*
%TD*%
D16*
%TO.C,J1*%
X113371000Y-64047000D03*
X110831000Y-64047000D03*
X108291000Y-64047000D03*
X105751000Y-64047000D03*
G36*
G01*
X104061000Y-65097000D02*
X102361000Y-65097000D01*
G75*
G02*
X102161000Y-64897000I0J200000D01*
G01*
X102161000Y-63197000D01*
G75*
G02*
X102361000Y-62997000I200000J0D01*
G01*
X104061000Y-62997000D01*
G75*
G02*
X104261000Y-63197000I0J-200000D01*
G01*
X104261000Y-64897000D01*
G75*
G02*
X104061000Y-65097000I-200000J0D01*
G01*
G37*
%TD*%
%TO.C,J2*%
G36*
G01*
X112511000Y-68597000D02*
X114211000Y-68597000D01*
G75*
G02*
X114411000Y-68797000I0J-200000D01*
G01*
X114411000Y-70497000D01*
G75*
G02*
X114211000Y-70697000I-200000J0D01*
G01*
X112511000Y-70697000D01*
G75*
G02*
X112311000Y-70497000I0J200000D01*
G01*
X112311000Y-68797000D01*
G75*
G02*
X112511000Y-68597000I200000J0D01*
G01*
G37*
X110821000Y-69647000D03*
X108281000Y-69647000D03*
X105741000Y-69647000D03*
X103201000Y-69647000D03*
%TD*%
M02*
