%TF.GenerationSoftware,KiCad,Pcbnew,(5.1.10)-1*%
%TF.CreationDate,2022-09-07T11:24:22-03:00*%
%TF.ProjectId,OpenBCI_Wifi_Shield,4f70656e-4243-4495-9f57-6966695f5368,v1.0.0*%
%TF.SameCoordinates,Original*%
%TF.FileFunction,Other,Comment*%
%FSLAX46Y46*%
G04 Gerber Fmt 4.6, Leading zero omitted, Abs format (unit mm)*
G04 Created by KiCad (PCBNEW (5.1.10)-1) date 2022-09-07 11:24:22*
%MOMM*%
%LPD*%
G01*
G04 APERTURE LIST*
%ADD10C,0.300000*%
%ADD11C,0.200000*%
G04 APERTURE END LIST*
D10*
X149745428Y-68005142D02*
X149745428Y-68148000D01*
X149674000Y-68290857D01*
X149602571Y-68362285D01*
X149459714Y-68433714D01*
X149174000Y-68505142D01*
X148816857Y-68505142D01*
X148531142Y-68433714D01*
X148388285Y-68362285D01*
X148316857Y-68290857D01*
X148245428Y-68148000D01*
X148245428Y-68005142D01*
X148316857Y-67862285D01*
X148388285Y-67790857D01*
X148531142Y-67719428D01*
X148816857Y-67648000D01*
X149174000Y-67648000D01*
X149459714Y-67719428D01*
X149602571Y-67790857D01*
X149674000Y-67862285D01*
X149745428Y-68005142D01*
X148388285Y-69148000D02*
X148316857Y-69219428D01*
X148245428Y-69148000D01*
X148316857Y-69076571D01*
X148388285Y-69148000D01*
X148245428Y-69148000D01*
X149102571Y-70076571D02*
X149174000Y-69933714D01*
X149245428Y-69862285D01*
X149388285Y-69790857D01*
X149459714Y-69790857D01*
X149602571Y-69862285D01*
X149674000Y-69933714D01*
X149745428Y-70076571D01*
X149745428Y-70362285D01*
X149674000Y-70505142D01*
X149602571Y-70576571D01*
X149459714Y-70648000D01*
X149388285Y-70648000D01*
X149245428Y-70576571D01*
X149174000Y-70505142D01*
X149102571Y-70362285D01*
X149102571Y-70076571D01*
X149031142Y-69933714D01*
X148959714Y-69862285D01*
X148816857Y-69790857D01*
X148531142Y-69790857D01*
X148388285Y-69862285D01*
X148316857Y-69933714D01*
X148245428Y-70076571D01*
X148245428Y-70362285D01*
X148316857Y-70505142D01*
X148388285Y-70576571D01*
X148531142Y-70648000D01*
X148816857Y-70648000D01*
X148959714Y-70576571D01*
X149031142Y-70505142D01*
X149102571Y-70362285D01*
X148245428Y-71362285D02*
X148245428Y-71648000D01*
X148316857Y-71790857D01*
X148388285Y-71862285D01*
X148602571Y-72005142D01*
X148888285Y-72076571D01*
X149459714Y-72076571D01*
X149602571Y-72005142D01*
X149674000Y-71933714D01*
X149745428Y-71790857D01*
X149745428Y-71505142D01*
X149674000Y-71362285D01*
X149602571Y-71290857D01*
X149459714Y-71219428D01*
X149102571Y-71219428D01*
X148959714Y-71290857D01*
X148888285Y-71362285D01*
X148816857Y-71505142D01*
X148816857Y-71790857D01*
X148888285Y-71933714D01*
X148959714Y-72005142D01*
X149102571Y-72076571D01*
X149745428Y-73005142D02*
X149745428Y-73148000D01*
X149674000Y-73290857D01*
X149602571Y-73362285D01*
X149459714Y-73433714D01*
X149174000Y-73505142D01*
X148816857Y-73505142D01*
X148531142Y-73433714D01*
X148388285Y-73362285D01*
X148316857Y-73290857D01*
X148245428Y-73148000D01*
X148245428Y-73005142D01*
X148316857Y-72862285D01*
X148388285Y-72790857D01*
X148531142Y-72719428D01*
X148816857Y-72648000D01*
X149174000Y-72648000D01*
X149459714Y-72719428D01*
X149602571Y-72790857D01*
X149674000Y-72862285D01*
X149745428Y-73005142D01*
X149745428Y-74433714D02*
X149745428Y-74576571D01*
X149674000Y-74719428D01*
X149602571Y-74790857D01*
X149459714Y-74862285D01*
X149174000Y-74933714D01*
X148816857Y-74933714D01*
X148531142Y-74862285D01*
X148388285Y-74790857D01*
X148316857Y-74719428D01*
X148245428Y-74576571D01*
X148245428Y-74433714D01*
X148316857Y-74290857D01*
X148388285Y-74219428D01*
X148531142Y-74148000D01*
X148816857Y-74076571D01*
X149174000Y-74076571D01*
X149459714Y-74148000D01*
X149602571Y-74219428D01*
X149674000Y-74290857D01*
X149745428Y-74433714D01*
X148245428Y-76719428D02*
X149245428Y-76719428D01*
X149745428Y-76719428D02*
X149674000Y-76648000D01*
X149602571Y-76719428D01*
X149674000Y-76790857D01*
X149745428Y-76719428D01*
X149602571Y-76719428D01*
X149245428Y-77433714D02*
X148245428Y-77433714D01*
X149102571Y-77433714D02*
X149174000Y-77505142D01*
X149245428Y-77648000D01*
X149245428Y-77862285D01*
X149174000Y-78005142D01*
X149031142Y-78076571D01*
X148245428Y-78076571D01*
X147574000Y-61595000D02*
X147574000Y-84201000D01*
X116967000Y-61595000D02*
X150274000Y-61595000D01*
X116967000Y-84201000D02*
X150274000Y-84201000D01*
X147574000Y-84201000D02*
X146987579Y-83074496D01*
X147574000Y-84201000D02*
X148160421Y-83074496D01*
X147574000Y-61595000D02*
X146987579Y-62721504D01*
X147574000Y-61595000D02*
X148160421Y-62721504D01*
X125501338Y-47238094D02*
X125644192Y-47239121D01*
X125786531Y-47311576D01*
X125857444Y-47383516D01*
X125927843Y-47526884D01*
X125997215Y-47813105D01*
X125994645Y-48170238D01*
X125921163Y-48455431D01*
X125848709Y-48597771D01*
X125776768Y-48668684D01*
X125633401Y-48739083D01*
X125490547Y-48738055D01*
X125348208Y-48665600D01*
X125277295Y-48593660D01*
X125206896Y-48450293D01*
X125137525Y-48164072D01*
X125140094Y-47806938D01*
X125213576Y-47521745D01*
X125286030Y-47379406D01*
X125357971Y-47308493D01*
X125501338Y-47238094D01*
X126634403Y-48603423D02*
X126705315Y-48675364D01*
X126633375Y-48746277D01*
X126562462Y-48674336D01*
X126634403Y-48603423D01*
X126633375Y-48746277D01*
X128001274Y-47256079D02*
X127715567Y-47254023D01*
X127572199Y-47324422D01*
X127500259Y-47395335D01*
X127355864Y-47608588D01*
X127282382Y-47893781D01*
X127278271Y-48465195D01*
X127348670Y-48608562D01*
X127419583Y-48680502D01*
X127561922Y-48752957D01*
X127847629Y-48755012D01*
X127990996Y-48684613D01*
X128062937Y-48613700D01*
X128135391Y-48471361D01*
X128137961Y-48114227D01*
X128067562Y-47970860D01*
X127996649Y-47898919D01*
X127854309Y-47826465D01*
X127568602Y-47824409D01*
X127425235Y-47894808D01*
X127353295Y-47965721D01*
X127280840Y-48108061D01*
X128847603Y-48762206D02*
X129133310Y-48764262D01*
X129276677Y-48693863D01*
X129348618Y-48622950D01*
X129493013Y-48409697D01*
X129566495Y-48124504D01*
X129570606Y-47553091D01*
X129500207Y-47409723D01*
X129429294Y-47337783D01*
X129286955Y-47265328D01*
X129001248Y-47263273D01*
X128857880Y-47333672D01*
X128785940Y-47404585D01*
X128713485Y-47546924D01*
X128710916Y-47904058D01*
X128781315Y-48047425D01*
X128852228Y-48119366D01*
X128994568Y-48191820D01*
X129280275Y-48193876D01*
X129423642Y-48123477D01*
X129495582Y-48052564D01*
X129568037Y-47910224D01*
X130929769Y-47277147D02*
X130215502Y-47272009D01*
X130138937Y-47985762D01*
X130210877Y-47914849D01*
X130354245Y-47844450D01*
X130711378Y-47847019D01*
X130853718Y-47919474D01*
X130924631Y-47991414D01*
X130995030Y-48134782D01*
X130992460Y-48491915D01*
X130920006Y-48634255D01*
X130848065Y-48705168D01*
X130704698Y-48775567D01*
X130347564Y-48772997D01*
X130205225Y-48700543D01*
X130134312Y-48628602D01*
X131929743Y-47284341D02*
X132072597Y-47285369D01*
X132214936Y-47357823D01*
X132285849Y-47429764D01*
X132356248Y-47573131D01*
X132425620Y-47859352D01*
X132423050Y-48216486D01*
X132349568Y-48501679D01*
X132277114Y-48644018D01*
X132205173Y-48714931D01*
X132061806Y-48785330D01*
X131918952Y-48784302D01*
X131776613Y-48711848D01*
X131705700Y-48639907D01*
X131635301Y-48496540D01*
X131565930Y-48210319D01*
X131568499Y-47853186D01*
X131641981Y-47567993D01*
X131714436Y-47425653D01*
X131786376Y-47354740D01*
X131929743Y-47284341D01*
X134204608Y-48800746D02*
X134211802Y-47800772D01*
X134215399Y-47300785D02*
X134143458Y-47371698D01*
X134214371Y-47443638D01*
X134286311Y-47372725D01*
X134215399Y-47300785D01*
X134214371Y-47443638D01*
X134926069Y-47805910D02*
X134918875Y-48805885D01*
X134925041Y-47948764D02*
X134996982Y-47877851D01*
X135140349Y-47807452D01*
X135354629Y-47808994D01*
X135496969Y-47881448D01*
X135567368Y-48024815D01*
X135561715Y-48810509D01*
X139204948Y-49508166D02*
X121551948Y-49381166D01*
X138811000Y-104267000D02*
X139224372Y-46808236D01*
X121158000Y-104140000D02*
X121571372Y-46681236D01*
X121551948Y-49381166D02*
X122682641Y-48802865D01*
X121551948Y-49381166D02*
X122674204Y-49975676D01*
X139204948Y-49508166D02*
X138082692Y-48913656D01*
X139204948Y-49508166D02*
X138074255Y-50086467D01*
X125981042Y-56647220D02*
X126123894Y-56646049D01*
X126267332Y-56716304D01*
X126339344Y-56787145D01*
X126411941Y-56929411D01*
X126485709Y-57214531D01*
X126488636Y-57571662D01*
X126419552Y-57857952D01*
X126349297Y-58001390D01*
X126278456Y-58073401D01*
X126136189Y-58145998D01*
X125993337Y-58147169D01*
X125849899Y-58076914D01*
X125777887Y-58006073D01*
X125705290Y-57863806D01*
X125631522Y-57578687D01*
X125628595Y-57221556D01*
X125697679Y-56935266D01*
X125767934Y-56791828D01*
X125838775Y-56719817D01*
X125981042Y-56647220D01*
X127134984Y-57994949D02*
X127206996Y-58065790D01*
X127136155Y-58137802D01*
X127064144Y-58066961D01*
X127134984Y-57994949D01*
X127136155Y-58137802D01*
X128480958Y-56626728D02*
X128195253Y-56629070D01*
X128052986Y-56701667D01*
X127982146Y-56773679D01*
X127841050Y-56989128D01*
X127771965Y-57275419D01*
X127776649Y-57846828D01*
X127849246Y-57989095D01*
X127921258Y-58059936D01*
X128064696Y-58130191D01*
X128350400Y-58127849D01*
X128492667Y-58055252D01*
X128563508Y-57983240D01*
X128633763Y-57839802D01*
X128630836Y-57482672D01*
X128558239Y-57340405D01*
X128486227Y-57269564D01*
X128342789Y-57199309D01*
X128057085Y-57201651D01*
X127914818Y-57274248D01*
X127843977Y-57346259D01*
X127773722Y-57489697D01*
X130064628Y-58113798D02*
X129207514Y-58120823D01*
X129636071Y-58117311D02*
X129623777Y-56617361D01*
X129482681Y-56832811D01*
X129340999Y-56976834D01*
X129198732Y-57049431D01*
X130980874Y-56606237D02*
X131123726Y-56605066D01*
X131267164Y-56675322D01*
X131339176Y-56746162D01*
X131411773Y-56888429D01*
X131485541Y-57173548D01*
X131488468Y-57530679D01*
X131419384Y-57816969D01*
X131349129Y-57960407D01*
X131278288Y-58032419D01*
X131136021Y-58105016D01*
X130993169Y-58106187D01*
X130849731Y-58035932D01*
X130777719Y-57965091D01*
X130705122Y-57822824D01*
X130631354Y-57537705D01*
X130628427Y-57180574D01*
X130697511Y-56894284D01*
X130767766Y-56750846D01*
X130838607Y-56678834D01*
X130980874Y-56606237D01*
X132409397Y-56594528D02*
X132552250Y-56593357D01*
X132695688Y-56663612D01*
X132767699Y-56734453D01*
X132840296Y-56876720D01*
X132914064Y-57161839D01*
X132916992Y-57518970D01*
X132847907Y-57805260D01*
X132777652Y-57948698D01*
X132706811Y-58020710D01*
X132564544Y-58093307D01*
X132421692Y-58094478D01*
X132278254Y-58024222D01*
X132206243Y-57953382D01*
X132133646Y-57811115D01*
X132059878Y-57525996D01*
X132056950Y-57168865D01*
X132126035Y-56882575D01*
X132196290Y-56739137D01*
X132267131Y-56667125D01*
X132409397Y-56594528D01*
X134707330Y-58075743D02*
X134699133Y-57075777D01*
X134695035Y-56575793D02*
X134624194Y-56647805D01*
X134696206Y-56718646D01*
X134767047Y-56646634D01*
X134695035Y-56575793D01*
X134696206Y-56718646D01*
X135413395Y-57069922D02*
X135421591Y-58069888D01*
X135414566Y-57212774D02*
X135485406Y-57140763D01*
X135627673Y-57068166D01*
X135841952Y-57066409D01*
X135985390Y-57136664D01*
X136057987Y-57278931D01*
X136064427Y-58064619D01*
X138638533Y-58714972D02*
X123144533Y-58841972D01*
X138811000Y-79756000D02*
X138616403Y-56015063D01*
X123317000Y-79883000D02*
X123122403Y-56142063D01*
X123144533Y-58841972D02*
X124266192Y-58246338D01*
X123144533Y-58841972D02*
X124275805Y-59419140D01*
X138638533Y-58714972D02*
X137507261Y-58137804D01*
X138638533Y-58714972D02*
X137516874Y-59310606D01*
D11*
X95504000Y-68199000D02*
X92964000Y-68199000D01*
D10*
X80286732Y-59400411D02*
X80429584Y-59399240D01*
X80573022Y-59469495D01*
X80645034Y-59540336D01*
X80717631Y-59682602D01*
X80791399Y-59967722D01*
X80794326Y-60324853D01*
X80725242Y-60611143D01*
X80654987Y-60754581D01*
X80584146Y-60826592D01*
X80441879Y-60899189D01*
X80299027Y-60900360D01*
X80155589Y-60830105D01*
X80083577Y-60759264D01*
X80010980Y-60616997D01*
X79937212Y-60331878D01*
X79934285Y-59974747D01*
X80003369Y-59688457D01*
X80073624Y-59545019D01*
X80144465Y-59473008D01*
X80286732Y-59400411D01*
X81440674Y-60748140D02*
X81512686Y-60818981D01*
X81441845Y-60890993D01*
X81369834Y-60820152D01*
X81440674Y-60748140D01*
X81441845Y-60890993D01*
X82786648Y-59379919D02*
X82500943Y-59382261D01*
X82358676Y-59454858D01*
X82287836Y-59526870D01*
X82146740Y-59742319D01*
X82077655Y-60028610D01*
X82082339Y-60600019D01*
X82154936Y-60742286D01*
X82226948Y-60813127D01*
X82370386Y-60883382D01*
X82656090Y-60881040D01*
X82798357Y-60808443D01*
X82869198Y-60736431D01*
X82939453Y-60592993D01*
X82936526Y-60235863D01*
X82863929Y-60093596D01*
X82791917Y-60022755D01*
X82648479Y-59952500D01*
X82362775Y-59954842D01*
X82220508Y-60027439D01*
X82149667Y-60099450D01*
X82079412Y-60242888D01*
X84370318Y-60866989D02*
X83513204Y-60874014D01*
X83941761Y-60870502D02*
X83929467Y-59370552D01*
X83788371Y-59586002D01*
X83646689Y-59730025D01*
X83504422Y-59802622D01*
X85286564Y-59359428D02*
X85429416Y-59358257D01*
X85572854Y-59428513D01*
X85644866Y-59499353D01*
X85717463Y-59641620D01*
X85791231Y-59926739D01*
X85794158Y-60283870D01*
X85725074Y-60570160D01*
X85654819Y-60713598D01*
X85583978Y-60785610D01*
X85441711Y-60858207D01*
X85298859Y-60859378D01*
X85155421Y-60789123D01*
X85083409Y-60718282D01*
X85010812Y-60576015D01*
X84937044Y-60290896D01*
X84934117Y-59933765D01*
X85003201Y-59647475D01*
X85073456Y-59504037D01*
X85144297Y-59432025D01*
X85286564Y-59359428D01*
X86715087Y-59347719D02*
X86857940Y-59346548D01*
X87001378Y-59416803D01*
X87073389Y-59487644D01*
X87145986Y-59629911D01*
X87219754Y-59915030D01*
X87222682Y-60272161D01*
X87153597Y-60558451D01*
X87083342Y-60701889D01*
X87012501Y-60773901D01*
X86870234Y-60846498D01*
X86727382Y-60847669D01*
X86583944Y-60777413D01*
X86511933Y-60706573D01*
X86439336Y-60564306D01*
X86365568Y-60279187D01*
X86362640Y-59922056D01*
X86431725Y-59635766D01*
X86501980Y-59492328D01*
X86572821Y-59420316D01*
X86715087Y-59347719D01*
X89013020Y-60828934D02*
X89004823Y-59828968D01*
X89000725Y-59328984D02*
X88929884Y-59400996D01*
X89001896Y-59471837D01*
X89072737Y-59399825D01*
X89000725Y-59328984D01*
X89001896Y-59471837D01*
X89719085Y-59823113D02*
X89727281Y-60823079D01*
X89720256Y-59965965D02*
X89791096Y-59893954D01*
X89933363Y-59821357D01*
X90147642Y-59819600D01*
X90291080Y-59889855D01*
X90363677Y-60032122D01*
X90370117Y-60817810D01*
X77450223Y-61595163D02*
X92944223Y-61468163D01*
X77597000Y-79502000D02*
X77428093Y-58895254D01*
X93091000Y-79375000D02*
X92922093Y-58768254D01*
X92944223Y-61468163D02*
X91822564Y-62063797D01*
X92944223Y-61468163D02*
X91812951Y-60890995D01*
X77450223Y-61595163D02*
X78581495Y-62172331D01*
X77450223Y-61595163D02*
X78571882Y-60999529D01*
X139839428Y-59940642D02*
X139839428Y-60083500D01*
X139768000Y-60226357D01*
X139696571Y-60297785D01*
X139553714Y-60369214D01*
X139268000Y-60440642D01*
X138910857Y-60440642D01*
X138625142Y-60369214D01*
X138482285Y-60297785D01*
X138410857Y-60226357D01*
X138339428Y-60083500D01*
X138339428Y-59940642D01*
X138410857Y-59797785D01*
X138482285Y-59726357D01*
X138625142Y-59654928D01*
X138910857Y-59583500D01*
X139268000Y-59583500D01*
X139553714Y-59654928D01*
X139696571Y-59726357D01*
X139768000Y-59797785D01*
X139839428Y-59940642D01*
X138482285Y-61083500D02*
X138410857Y-61154928D01*
X138339428Y-61083500D01*
X138410857Y-61012071D01*
X138482285Y-61083500D01*
X138339428Y-61083500D01*
X139696571Y-61726357D02*
X139768000Y-61797785D01*
X139839428Y-61940642D01*
X139839428Y-62297785D01*
X139768000Y-62440642D01*
X139696571Y-62512071D01*
X139553714Y-62583500D01*
X139410857Y-62583500D01*
X139196571Y-62512071D01*
X138339428Y-61654928D01*
X138339428Y-62583500D01*
X139839428Y-63869214D02*
X139839428Y-63583500D01*
X139768000Y-63440642D01*
X139696571Y-63369214D01*
X139482285Y-63226357D01*
X139196571Y-63154928D01*
X138625142Y-63154928D01*
X138482285Y-63226357D01*
X138410857Y-63297785D01*
X138339428Y-63440642D01*
X138339428Y-63726357D01*
X138410857Y-63869214D01*
X138482285Y-63940642D01*
X138625142Y-64012071D01*
X138982285Y-64012071D01*
X139125142Y-63940642D01*
X139196571Y-63869214D01*
X139268000Y-63726357D01*
X139268000Y-63440642D01*
X139196571Y-63297785D01*
X139125142Y-63226357D01*
X138982285Y-63154928D01*
X139839428Y-65369214D02*
X139839428Y-64654928D01*
X139125142Y-64583500D01*
X139196571Y-64654928D01*
X139268000Y-64797785D01*
X139268000Y-65154928D01*
X139196571Y-65297785D01*
X139125142Y-65369214D01*
X138982285Y-65440642D01*
X138625142Y-65440642D01*
X138482285Y-65369214D01*
X138410857Y-65297785D01*
X138339428Y-65154928D01*
X138339428Y-64797785D01*
X138410857Y-64654928D01*
X138482285Y-64583500D01*
X139839428Y-66369214D02*
X139839428Y-66512071D01*
X139768000Y-66654928D01*
X139696571Y-66726357D01*
X139553714Y-66797785D01*
X139268000Y-66869214D01*
X138910857Y-66869214D01*
X138625142Y-66797785D01*
X138482285Y-66726357D01*
X138410857Y-66654928D01*
X138339428Y-66512071D01*
X138339428Y-66369214D01*
X138410857Y-66226357D01*
X138482285Y-66154928D01*
X138625142Y-66083500D01*
X138910857Y-66012071D01*
X139268000Y-66012071D01*
X139553714Y-66083500D01*
X139696571Y-66154928D01*
X139768000Y-66226357D01*
X139839428Y-66369214D01*
X138339428Y-68654928D02*
X139339428Y-68654928D01*
X139839428Y-68654928D02*
X139768000Y-68583500D01*
X139696571Y-68654928D01*
X139768000Y-68726357D01*
X139839428Y-68654928D01*
X139696571Y-68654928D01*
X139339428Y-69369214D02*
X138339428Y-69369214D01*
X139196571Y-69369214D02*
X139268000Y-69440642D01*
X139339428Y-69583500D01*
X139339428Y-69797785D01*
X139268000Y-69940642D01*
X139125142Y-70012071D01*
X138339428Y-70012071D01*
X137668000Y-61468000D02*
X137668000Y-68199000D01*
X95504000Y-61468000D02*
X140368000Y-61468000D01*
X95504000Y-68199000D02*
X140368000Y-68199000D01*
X137668000Y-68199000D02*
X137081579Y-67072496D01*
X137668000Y-68199000D02*
X138254421Y-67072496D01*
X137668000Y-61468000D02*
X137081579Y-62594504D01*
X137668000Y-61468000D02*
X138254421Y-62594504D01*
M02*
