%TF.GenerationSoftware,KiCad,Pcbnew,(5.1.10)-1*%
%TF.CreationDate,2022-09-07T11:24:22-03:00*%
%TF.ProjectId,OpenBCI_Wifi_Shield,4f70656e-4243-4495-9f57-6966695f5368,v1.0.0*%
%TF.SameCoordinates,Original*%
%TF.FileFunction,Paste,Top*%
%TF.FilePolarity,Positive*%
%FSLAX46Y46*%
G04 Gerber Fmt 4.6, Leading zero omitted, Abs format (unit mm)*
G04 Created by KiCad (PCBNEW (5.1.10)-1) date 2022-09-07 11:24:22*
%MOMM*%
%LPD*%
G01*
G04 APERTURE LIST*
%ADD10R,0.800000X0.750000*%
%ADD11R,1.600000X1.000000*%
%ADD12R,2.500000X1.100000*%
%ADD13O,2.500000X1.100000*%
%ADD14O,1.100000X2.400000*%
%ADD15R,1.050000X0.650000*%
%ADD16C,0.100000*%
%ADD17R,0.797560X0.797560*%
%ADD18R,1.528000X0.650000*%
G04 APERTURE END LIST*
D10*
%TO.C,R8*%
X122897200Y-106680000D03*
X124397200Y-106680000D03*
%TD*%
D11*
%TO.C,SW4*%
X93449000Y-104432000D03*
X91149000Y-106182000D03*
X93449000Y-107932000D03*
%TD*%
D12*
%TO.C,U1*%
X118624000Y-113682000D03*
D13*
X118624000Y-111682000D03*
X118624000Y-109682000D03*
X118624000Y-107682000D03*
X118624000Y-105682000D03*
X118624000Y-103682000D03*
X118624000Y-101682000D03*
X118624000Y-99682000D03*
X103224000Y-99682000D03*
X103324000Y-101682000D03*
X103224000Y-103682000D03*
X103224000Y-105682000D03*
X103224000Y-107682000D03*
X103224000Y-109682000D03*
X103224000Y-111682000D03*
X103224000Y-113682000D03*
D14*
X115934000Y-97932000D03*
X113934000Y-97932000D03*
X111934000Y-97932000D03*
X109934000Y-97932000D03*
X107934000Y-97932000D03*
X105934000Y-97932000D03*
%TD*%
D15*
%TO.C,SW2*%
X83839200Y-104557600D03*
X87989200Y-104557600D03*
X83839200Y-106707600D03*
X87989200Y-106707600D03*
%TD*%
D10*
%TO.C,R1*%
X82588800Y-92456000D03*
X81088800Y-92456000D03*
%TD*%
%TO.C,R3*%
X94068200Y-109664500D03*
X95568200Y-109664500D03*
%TD*%
%TO.C,R4*%
X85992400Y-101752400D03*
X84492400Y-101752400D03*
%TD*%
D15*
%TO.C,SW1*%
X85210500Y-96013500D03*
X81060500Y-96013500D03*
X85210500Y-93863500D03*
X81060500Y-93863500D03*
%TD*%
D10*
%TO.C,R5*%
X124397200Y-108254800D03*
X122897200Y-108254800D03*
%TD*%
%TO.C,R6*%
X124374000Y-109882000D03*
X122874000Y-109882000D03*
%TD*%
%TO.C,R7*%
X84492400Y-98501200D03*
X85992400Y-98501200D03*
%TD*%
D16*
%TO.C,P2*%
G36*
X130176633Y-92686645D02*
G01*
X126994652Y-95868626D01*
X126287545Y-95161519D01*
X129469526Y-91979538D01*
X130176633Y-92686645D01*
G37*
G36*
X131590847Y-94100858D02*
G01*
X128408866Y-97282839D01*
X127701759Y-96575732D01*
X130883740Y-93393751D01*
X131590847Y-94100858D01*
G37*
G36*
X132651507Y-87383344D02*
G01*
X130247344Y-89787507D01*
X129045263Y-88585426D01*
X131449426Y-86181263D01*
X132651507Y-87383344D01*
G37*
G36*
X137389122Y-92120959D02*
G01*
X134984959Y-94525122D01*
X133782878Y-93323041D01*
X136187041Y-90918878D01*
X137389122Y-92120959D01*
G37*
%TD*%
D17*
%TO.C,D2*%
X98602800Y-109664500D03*
X97104200Y-109664500D03*
%TD*%
%TO.C,D3*%
X84493100Y-100126800D03*
X85991700Y-100126800D03*
%TD*%
%TO.C,D4*%
X124447300Y-105130600D03*
X122948700Y-105130600D03*
%TD*%
D18*
%TO.C,IC1*%
X112900000Y-75242000D03*
X112900000Y-76512000D03*
X112900000Y-77782000D03*
X112900000Y-79052000D03*
X118322000Y-79052000D03*
X118322000Y-77782000D03*
X118322000Y-76512000D03*
X118322000Y-75242000D03*
%TD*%
M02*
