%TF.GenerationSoftware,KiCad,Pcbnew,(5.1.10)-1*%
%TF.CreationDate,2022-09-07T11:24:22-03:00*%
%TF.ProjectId,OpenBCI_Wifi_Shield,4f70656e-4243-4495-9f57-6966695f5368,v1.0.0*%
%TF.SameCoordinates,Original*%
%TF.FileFunction,Other,Fab,Bot*%
%FSLAX46Y46*%
G04 Gerber Fmt 4.6, Leading zero omitted, Abs format (unit mm)*
G04 Created by KiCad (PCBNEW (5.1.10)-1) date 2022-09-07 11:24:22*
%MOMM*%
%LPD*%
G01*
G04 APERTURE LIST*
%ADD10C,0.100000*%
G04 APERTURE END LIST*
D10*
%TO.C,C1*%
X123304400Y-102762000D02*
X124904400Y-102762000D01*
X124904400Y-102762000D02*
X124904400Y-101962000D01*
X124904400Y-101962000D02*
X123304400Y-101962000D01*
X123304400Y-101962000D02*
X123304400Y-102762000D01*
%TO.C,C2*%
X123304400Y-104336800D02*
X124904400Y-104336800D01*
X124904400Y-104336800D02*
X124904400Y-103536800D01*
X124904400Y-103536800D02*
X123304400Y-103536800D01*
X123304400Y-103536800D02*
X123304400Y-104336800D01*
%TO.C,C3*%
X123304400Y-105911600D02*
X124904400Y-105911600D01*
X124904400Y-105911600D02*
X124904400Y-105111600D01*
X124904400Y-105111600D02*
X123304400Y-105111600D01*
X123304400Y-105111600D02*
X123304400Y-105911600D01*
%TO.C,R2*%
X123406000Y-97326400D02*
X125006000Y-97326400D01*
X125006000Y-97326400D02*
X125006000Y-96526400D01*
X125006000Y-96526400D02*
X123406000Y-96526400D01*
X123406000Y-96526400D02*
X123406000Y-97326400D01*
%TO.C,U2*%
X122605200Y-100518800D02*
X125705200Y-100518800D01*
X125705200Y-100518800D02*
X125705200Y-98718800D01*
X123105200Y-98718800D02*
X125705200Y-98718800D01*
X122605200Y-100518800D02*
X122605200Y-99218800D01*
X122605200Y-99218800D02*
X123105200Y-98718800D01*
%TO.C,C4*%
X119868000Y-99771000D02*
X119868000Y-96571000D01*
X119868000Y-96571000D02*
X117368000Y-96571000D01*
X117368000Y-96571000D02*
X117368000Y-99771000D01*
X117368000Y-99771000D02*
X119868000Y-99771000D01*
%TD*%
M02*
