%TF.GenerationSoftware,KiCad,Pcbnew,(5.1.10)-1*%
%TF.CreationDate,2022-09-07T11:24:22-03:00*%
%TF.ProjectId,OpenBCI_Wifi_Shield,4f70656e-4243-4495-9f57-6966695f5368,v1.0.0*%
%TF.SameCoordinates,Original*%
%TF.FileFunction,Legend,Top*%
%TF.FilePolarity,Positive*%
%FSLAX46Y46*%
G04 Gerber Fmt 4.6, Leading zero omitted, Abs format (unit mm)*
G04 Created by KiCad (PCBNEW (5.1.10)-1) date 2022-09-07 11:24:22*
%MOMM*%
%LPD*%
G01*
G04 APERTURE LIST*
%ADD10C,0.250000*%
%ADD11C,0.100000*%
%ADD12C,0.125000*%
%ADD13C,0.150000*%
%ADD14C,0.200000*%
%ADD15C,0.300000*%
%ADD16C,0.120000*%
%ADD17C,0.152400*%
%ADD18C,0.254000*%
G04 APERTURE END LIST*
D10*
X95033619Y-107399380D02*
X95224095Y-107399380D01*
X95319333Y-107447000D01*
X95414571Y-107542238D01*
X95462190Y-107732714D01*
X95462190Y-108066047D01*
X95414571Y-108256523D01*
X95319333Y-108351761D01*
X95224095Y-108399380D01*
X95033619Y-108399380D01*
X94938380Y-108351761D01*
X94843142Y-108256523D01*
X94795523Y-108066047D01*
X94795523Y-107732714D01*
X94843142Y-107542238D01*
X94938380Y-107447000D01*
X95033619Y-107399380D01*
X96224095Y-107875571D02*
X95890761Y-107875571D01*
X95890761Y-108399380D02*
X95890761Y-107399380D01*
X96366952Y-107399380D01*
X97081238Y-107875571D02*
X96747904Y-107875571D01*
X96747904Y-108399380D02*
X96747904Y-107399380D01*
X97224095Y-107399380D01*
X94487190Y-106100571D02*
X94820523Y-106100571D01*
X94963380Y-106624380D02*
X94487190Y-106624380D01*
X94487190Y-105624380D01*
X94963380Y-105624380D01*
X95296714Y-105624380D02*
X95963380Y-106624380D01*
X95963380Y-105624380D02*
X95296714Y-106624380D01*
X96201476Y-105624380D02*
X96772904Y-105624380D01*
X96487190Y-106624380D02*
X96487190Y-105624380D01*
X97868142Y-106624380D02*
X97868142Y-105624380D01*
X98249095Y-105624380D01*
X98344333Y-105672000D01*
X98391952Y-105719619D01*
X98439571Y-105814857D01*
X98439571Y-105957714D01*
X98391952Y-106052952D01*
X98344333Y-106100571D01*
X98249095Y-106148190D01*
X97868142Y-106148190D01*
X98772904Y-105624380D02*
X99011000Y-106624380D01*
X99201476Y-105910095D01*
X99391952Y-106624380D01*
X99630047Y-105624380D01*
X100582428Y-106624380D02*
X100249095Y-106148190D01*
X100011000Y-106624380D02*
X100011000Y-105624380D01*
X100391952Y-105624380D01*
X100487190Y-105672000D01*
X100534809Y-105719619D01*
X100582428Y-105814857D01*
X100582428Y-105957714D01*
X100534809Y-106052952D01*
X100487190Y-106100571D01*
X100391952Y-106148190D01*
X100011000Y-106148190D01*
X95141952Y-103874380D02*
X95332428Y-103874380D01*
X95427666Y-103922000D01*
X95522904Y-104017238D01*
X95570523Y-104207714D01*
X95570523Y-104541047D01*
X95522904Y-104731523D01*
X95427666Y-104826761D01*
X95332428Y-104874380D01*
X95141952Y-104874380D01*
X95046714Y-104826761D01*
X94951476Y-104731523D01*
X94903857Y-104541047D01*
X94903857Y-104207714D01*
X94951476Y-104017238D01*
X95046714Y-103922000D01*
X95141952Y-103874380D01*
X95999095Y-104874380D02*
X95999095Y-103874380D01*
X96570523Y-104874380D01*
X96570523Y-103874380D01*
D11*
X133035828Y-107248352D02*
X133112019Y-107248352D01*
X133150114Y-107267400D01*
X133188209Y-107305495D01*
X133207257Y-107381685D01*
X133207257Y-107515019D01*
X133188209Y-107591209D01*
X133150114Y-107629304D01*
X133112019Y-107648352D01*
X133035828Y-107648352D01*
X132997733Y-107629304D01*
X132959638Y-107591209D01*
X132940590Y-107515019D01*
X132940590Y-107381685D01*
X132959638Y-107305495D01*
X132997733Y-107267400D01*
X133035828Y-107248352D01*
X133512019Y-107438828D02*
X133569161Y-107457876D01*
X133588209Y-107476923D01*
X133607257Y-107515019D01*
X133607257Y-107572161D01*
X133588209Y-107610257D01*
X133569161Y-107629304D01*
X133531066Y-107648352D01*
X133378685Y-107648352D01*
X133378685Y-107248352D01*
X133512019Y-107248352D01*
X133550114Y-107267400D01*
X133569161Y-107286447D01*
X133588209Y-107324542D01*
X133588209Y-107362638D01*
X133569161Y-107400733D01*
X133550114Y-107419780D01*
X133512019Y-107438828D01*
X133378685Y-107438828D01*
X134007257Y-107610257D02*
X133988209Y-107629304D01*
X133931066Y-107648352D01*
X133892971Y-107648352D01*
X133835828Y-107629304D01*
X133797733Y-107591209D01*
X133778685Y-107553114D01*
X133759638Y-107476923D01*
X133759638Y-107419780D01*
X133778685Y-107343590D01*
X133797733Y-107305495D01*
X133835828Y-107267400D01*
X133892971Y-107248352D01*
X133931066Y-107248352D01*
X133988209Y-107267400D01*
X134007257Y-107286447D01*
X134178685Y-107648352D02*
X134178685Y-107248352D01*
X134273923Y-107686447D02*
X134578685Y-107686447D01*
X134864400Y-107648352D02*
X134673923Y-107648352D01*
X134673923Y-107248352D01*
X134997733Y-107438828D02*
X135131066Y-107438828D01*
X135188209Y-107648352D02*
X134997733Y-107648352D01*
X134997733Y-107248352D01*
X135188209Y-107248352D01*
X135359638Y-107648352D02*
X135359638Y-107248352D01*
X135454876Y-107248352D01*
X135512019Y-107267400D01*
X135550114Y-107305495D01*
X135569161Y-107343590D01*
X135588209Y-107419780D01*
X135588209Y-107476923D01*
X135569161Y-107553114D01*
X135550114Y-107591209D01*
X135512019Y-107629304D01*
X135454876Y-107648352D01*
X135359638Y-107648352D01*
D12*
X121183447Y-114227800D02*
X121135828Y-114203990D01*
X121064400Y-114203990D01*
X120992971Y-114227800D01*
X120945352Y-114275419D01*
X120921542Y-114323038D01*
X120897733Y-114418276D01*
X120897733Y-114489704D01*
X120921542Y-114584942D01*
X120945352Y-114632561D01*
X120992971Y-114680180D01*
X121064400Y-114703990D01*
X121112019Y-114703990D01*
X121183447Y-114680180D01*
X121207257Y-114656371D01*
X121207257Y-114489704D01*
X121112019Y-114489704D01*
X121421542Y-114703990D02*
X121421542Y-114203990D01*
X121707257Y-114703990D01*
X121707257Y-114203990D01*
X121945352Y-114703990D02*
X121945352Y-114203990D01*
X122064400Y-114203990D01*
X122135828Y-114227800D01*
X122183447Y-114275419D01*
X122207257Y-114323038D01*
X122231066Y-114418276D01*
X122231066Y-114489704D01*
X122207257Y-114584942D01*
X122183447Y-114632561D01*
X122135828Y-114680180D01*
X122064400Y-114703990D01*
X121945352Y-114703990D01*
X122334447Y-112375190D02*
X122667780Y-112875190D01*
X122667780Y-112375190D02*
X122334447Y-112875190D01*
X122786828Y-112375190D02*
X122953495Y-112875190D01*
X123120161Y-112375190D01*
X123286828Y-112875190D02*
X123286828Y-112375190D01*
X123405876Y-112375190D01*
X123477304Y-112399000D01*
X123524923Y-112446619D01*
X123548733Y-112494238D01*
X123572542Y-112589476D01*
X123572542Y-112660904D01*
X123548733Y-112756142D01*
X123524923Y-112803761D01*
X123477304Y-112851380D01*
X123405876Y-112875190D01*
X123286828Y-112875190D01*
X123786828Y-112875190D02*
X123786828Y-112375190D01*
X123905876Y-112375190D01*
X123977304Y-112399000D01*
X124024923Y-112446619D01*
X124048733Y-112494238D01*
X124072542Y-112589476D01*
X124072542Y-112660904D01*
X124048733Y-112756142D01*
X124024923Y-112803761D01*
X123977304Y-112851380D01*
X123905876Y-112875190D01*
X123786828Y-112875190D01*
X130665695Y-109412885D02*
X130832361Y-109412885D01*
X130903790Y-109674790D02*
X130665695Y-109674790D01*
X130665695Y-109174790D01*
X130903790Y-109174790D01*
X131094266Y-109650980D02*
X131165695Y-109674790D01*
X131284742Y-109674790D01*
X131332361Y-109650980D01*
X131356171Y-109627171D01*
X131379980Y-109579552D01*
X131379980Y-109531933D01*
X131356171Y-109484314D01*
X131332361Y-109460504D01*
X131284742Y-109436695D01*
X131189504Y-109412885D01*
X131141885Y-109389076D01*
X131118076Y-109365266D01*
X131094266Y-109317647D01*
X131094266Y-109270028D01*
X131118076Y-109222409D01*
X131141885Y-109198600D01*
X131189504Y-109174790D01*
X131308552Y-109174790D01*
X131379980Y-109198600D01*
X131594266Y-109674790D02*
X131594266Y-109174790D01*
X131784742Y-109174790D01*
X131832361Y-109198600D01*
X131856171Y-109222409D01*
X131879980Y-109270028D01*
X131879980Y-109341457D01*
X131856171Y-109389076D01*
X131832361Y-109412885D01*
X131784742Y-109436695D01*
X131594266Y-109436695D01*
X131975219Y-109722409D02*
X132356171Y-109722409D01*
X132451409Y-109650980D02*
X132522838Y-109674790D01*
X132641885Y-109674790D01*
X132689504Y-109650980D01*
X132713314Y-109627171D01*
X132737123Y-109579552D01*
X132737123Y-109531933D01*
X132713314Y-109484314D01*
X132689504Y-109460504D01*
X132641885Y-109436695D01*
X132546647Y-109412885D01*
X132499028Y-109389076D01*
X132475219Y-109365266D01*
X132451409Y-109317647D01*
X132451409Y-109270028D01*
X132475219Y-109222409D01*
X132499028Y-109198600D01*
X132546647Y-109174790D01*
X132665695Y-109174790D01*
X132737123Y-109198600D01*
X132927600Y-109650980D02*
X132999028Y-109674790D01*
X133118076Y-109674790D01*
X133165695Y-109650980D01*
X133189504Y-109627171D01*
X133213314Y-109579552D01*
X133213314Y-109531933D01*
X133189504Y-109484314D01*
X133165695Y-109460504D01*
X133118076Y-109436695D01*
X133022838Y-109412885D01*
X132975219Y-109389076D01*
X132951409Y-109365266D01*
X132927600Y-109317647D01*
X132927600Y-109270028D01*
X132951409Y-109222409D01*
X132975219Y-109198600D01*
X133022838Y-109174790D01*
X133141885Y-109174790D01*
X133213314Y-109198600D01*
D13*
X81242023Y-86937904D02*
X81737261Y-86937904D01*
X81470595Y-87242666D01*
X81584880Y-87242666D01*
X81661071Y-87280761D01*
X81699166Y-87318857D01*
X81737261Y-87395047D01*
X81737261Y-87585523D01*
X81699166Y-87661714D01*
X81661071Y-87699809D01*
X81584880Y-87737904D01*
X81356309Y-87737904D01*
X81280119Y-87699809D01*
X81242023Y-87661714D01*
X81965833Y-86937904D02*
X82232500Y-87737904D01*
X82499166Y-86937904D01*
X82689642Y-86937904D02*
X83184880Y-86937904D01*
X82918214Y-87242666D01*
X83032500Y-87242666D01*
X83108690Y-87280761D01*
X83146785Y-87318857D01*
X83184880Y-87395047D01*
X83184880Y-87585523D01*
X83146785Y-87661714D01*
X83108690Y-87699809D01*
X83032500Y-87737904D01*
X82803928Y-87737904D01*
X82727738Y-87699809D01*
X82689642Y-87661714D01*
X83464476Y-88754000D02*
X83388285Y-88715904D01*
X83274000Y-88715904D01*
X83159714Y-88754000D01*
X83083523Y-88830190D01*
X83045428Y-88906380D01*
X83007333Y-89058761D01*
X83007333Y-89173047D01*
X83045428Y-89325428D01*
X83083523Y-89401619D01*
X83159714Y-89477809D01*
X83274000Y-89515904D01*
X83350190Y-89515904D01*
X83464476Y-89477809D01*
X83502571Y-89439714D01*
X83502571Y-89173047D01*
X83350190Y-89173047D01*
X83845428Y-89515904D02*
X83845428Y-88715904D01*
X84302571Y-89515904D01*
X84302571Y-88715904D01*
X84683523Y-89515904D02*
X84683523Y-88715904D01*
X84874000Y-88715904D01*
X84988285Y-88754000D01*
X85064476Y-88830190D01*
X85102571Y-88906380D01*
X85140666Y-89058761D01*
X85140666Y-89173047D01*
X85102571Y-89325428D01*
X85064476Y-89401619D01*
X84988285Y-89477809D01*
X84874000Y-89515904D01*
X84683523Y-89515904D01*
X84721857Y-91420904D02*
X84721857Y-90620904D01*
X84988523Y-91192333D01*
X85255190Y-90620904D01*
X85255190Y-91420904D01*
X85636142Y-91420904D02*
X85636142Y-90620904D01*
X85979000Y-91382809D02*
X86093285Y-91420904D01*
X86283761Y-91420904D01*
X86359952Y-91382809D01*
X86398047Y-91344714D01*
X86436142Y-91268523D01*
X86436142Y-91192333D01*
X86398047Y-91116142D01*
X86359952Y-91078047D01*
X86283761Y-91039952D01*
X86131380Y-91001857D01*
X86055190Y-90963761D01*
X86017095Y-90925666D01*
X85979000Y-90849476D01*
X85979000Y-90773285D01*
X86017095Y-90697095D01*
X86055190Y-90659000D01*
X86131380Y-90620904D01*
X86321857Y-90620904D01*
X86436142Y-90659000D01*
X86931380Y-90620904D02*
X87083761Y-90620904D01*
X87159952Y-90659000D01*
X87236142Y-90735190D01*
X87274238Y-90887571D01*
X87274238Y-91154238D01*
X87236142Y-91306619D01*
X87159952Y-91382809D01*
X87083761Y-91420904D01*
X86931380Y-91420904D01*
X86855190Y-91382809D01*
X86779000Y-91306619D01*
X86740904Y-91154238D01*
X86740904Y-90887571D01*
X86779000Y-90735190D01*
X86855190Y-90659000D01*
X86931380Y-90620904D01*
X86791928Y-93224309D02*
X86906214Y-93262404D01*
X87096690Y-93262404D01*
X87172880Y-93224309D01*
X87210976Y-93186214D01*
X87249071Y-93110023D01*
X87249071Y-93033833D01*
X87210976Y-92957642D01*
X87172880Y-92919547D01*
X87096690Y-92881452D01*
X86944309Y-92843357D01*
X86868119Y-92805261D01*
X86830023Y-92767166D01*
X86791928Y-92690976D01*
X86791928Y-92614785D01*
X86830023Y-92538595D01*
X86868119Y-92500500D01*
X86944309Y-92462404D01*
X87134785Y-92462404D01*
X87249071Y-92500500D01*
X88049071Y-93186214D02*
X88010976Y-93224309D01*
X87896690Y-93262404D01*
X87820500Y-93262404D01*
X87706214Y-93224309D01*
X87630023Y-93148119D01*
X87591928Y-93071928D01*
X87553833Y-92919547D01*
X87553833Y-92805261D01*
X87591928Y-92652880D01*
X87630023Y-92576690D01*
X87706214Y-92500500D01*
X87820500Y-92462404D01*
X87896690Y-92462404D01*
X88010976Y-92500500D01*
X88049071Y-92538595D01*
X88391928Y-93262404D02*
X88391928Y-92462404D01*
X88849071Y-93262404D02*
X88506214Y-92805261D01*
X88849071Y-92462404D02*
X88391928Y-92919547D01*
D14*
X84150285Y-108474380D02*
X84150285Y-107474380D01*
X84531238Y-107474380D01*
X84626476Y-107522000D01*
X84674095Y-107569619D01*
X84721714Y-107664857D01*
X84721714Y-107807714D01*
X84674095Y-107902952D01*
X84626476Y-107950571D01*
X84531238Y-107998190D01*
X84150285Y-107998190D01*
X85721714Y-108474380D02*
X85388380Y-107998190D01*
X85150285Y-108474380D02*
X85150285Y-107474380D01*
X85531238Y-107474380D01*
X85626476Y-107522000D01*
X85674095Y-107569619D01*
X85721714Y-107664857D01*
X85721714Y-107807714D01*
X85674095Y-107902952D01*
X85626476Y-107950571D01*
X85531238Y-107998190D01*
X85150285Y-107998190D01*
X86340761Y-107474380D02*
X86531238Y-107474380D01*
X86626476Y-107522000D01*
X86721714Y-107617238D01*
X86769333Y-107807714D01*
X86769333Y-108141047D01*
X86721714Y-108331523D01*
X86626476Y-108426761D01*
X86531238Y-108474380D01*
X86340761Y-108474380D01*
X86245523Y-108426761D01*
X86150285Y-108331523D01*
X86102666Y-108141047D01*
X86102666Y-107807714D01*
X86150285Y-107617238D01*
X86245523Y-107522000D01*
X86340761Y-107474380D01*
X87721714Y-107522000D02*
X87626476Y-107474380D01*
X87483619Y-107474380D01*
X87340761Y-107522000D01*
X87245523Y-107617238D01*
X87197904Y-107712476D01*
X87150285Y-107902952D01*
X87150285Y-108045809D01*
X87197904Y-108236285D01*
X87245523Y-108331523D01*
X87340761Y-108426761D01*
X87483619Y-108474380D01*
X87578857Y-108474380D01*
X87721714Y-108426761D01*
X87769333Y-108379142D01*
X87769333Y-108045809D01*
X87578857Y-108045809D01*
D13*
X91897357Y-98532904D02*
X91897357Y-97732904D01*
X92164023Y-98304333D01*
X92430690Y-97732904D01*
X92430690Y-98532904D01*
X92964023Y-97732904D02*
X93116404Y-97732904D01*
X93192595Y-97771000D01*
X93268785Y-97847190D01*
X93306880Y-97999571D01*
X93306880Y-98266238D01*
X93268785Y-98418619D01*
X93192595Y-98494809D01*
X93116404Y-98532904D01*
X92964023Y-98532904D01*
X92887833Y-98494809D01*
X92811642Y-98418619D01*
X92773547Y-98266238D01*
X92773547Y-97999571D01*
X92811642Y-97847190D01*
X92887833Y-97771000D01*
X92964023Y-97732904D01*
X93611642Y-98494809D02*
X93725928Y-98532904D01*
X93916404Y-98532904D01*
X93992595Y-98494809D01*
X94030690Y-98456714D01*
X94068785Y-98380523D01*
X94068785Y-98304333D01*
X94030690Y-98228142D01*
X93992595Y-98190047D01*
X93916404Y-98151952D01*
X93764023Y-98113857D01*
X93687833Y-98075761D01*
X93649738Y-98037666D01*
X93611642Y-97961476D01*
X93611642Y-97885285D01*
X93649738Y-97809095D01*
X93687833Y-97771000D01*
X93764023Y-97732904D01*
X93954500Y-97732904D01*
X94068785Y-97771000D01*
X94411642Y-98532904D02*
X94411642Y-97732904D01*
X91559378Y-118196561D02*
X91882627Y-117873312D01*
X92286688Y-118600622D02*
X91721003Y-118034936D01*
X92017314Y-117738625D02*
X92960123Y-117927187D01*
X92394438Y-117361501D02*
X92583000Y-118304310D01*
X93175622Y-117711687D02*
X92609937Y-117146002D01*
X92744624Y-117011315D01*
X92852374Y-116957440D01*
X92960123Y-116957440D01*
X93040935Y-116984377D01*
X93175622Y-117065190D01*
X93256435Y-117146002D01*
X93337247Y-117280689D01*
X93364184Y-117361501D01*
X93364184Y-117469251D01*
X93310309Y-117577000D01*
X93175622Y-117711687D01*
X90683781Y-116647528D02*
X90225845Y-116566716D01*
X90360532Y-116970777D02*
X89794847Y-116405092D01*
X90010346Y-116189593D01*
X90091158Y-116162655D01*
X90145033Y-116162655D01*
X90225845Y-116189593D01*
X90306658Y-116270405D01*
X90333595Y-116351217D01*
X90333595Y-116405092D01*
X90306658Y-116485904D01*
X90091158Y-116701403D01*
X90306658Y-115893281D02*
X91249467Y-116081843D01*
X90683781Y-115516158D02*
X90872343Y-116458967D01*
X91464966Y-115866344D02*
X90899280Y-115300658D01*
X91033967Y-115165971D01*
X91141717Y-115112097D01*
X91249467Y-115112097D01*
X91330279Y-115139034D01*
X91464966Y-115219846D01*
X91545778Y-115300658D01*
X91626590Y-115435345D01*
X91653528Y-115516158D01*
X91653528Y-115623907D01*
X91599653Y-115731657D01*
X91464966Y-115866344D01*
X88186158Y-114194155D02*
X88105346Y-114221093D01*
X88024534Y-114301905D01*
X87970659Y-114409654D01*
X87970659Y-114517404D01*
X87997597Y-114598216D01*
X88078409Y-114732903D01*
X88159221Y-114813715D01*
X88293908Y-114894528D01*
X88374720Y-114921465D01*
X88482470Y-114921465D01*
X88590219Y-114867590D01*
X88644094Y-114813715D01*
X88697969Y-114705966D01*
X88697969Y-114652091D01*
X88509407Y-114463529D01*
X88401658Y-114571279D01*
X88994280Y-114463529D02*
X88428595Y-113897844D01*
X89317529Y-114140280D01*
X88751844Y-113574595D01*
X89586903Y-113870906D02*
X89021218Y-113305221D01*
X89155905Y-113170534D01*
X89263654Y-113116659D01*
X89371404Y-113116659D01*
X89452216Y-113143597D01*
X89586903Y-113224409D01*
X89667715Y-113305221D01*
X89748528Y-113439908D01*
X89775465Y-113520720D01*
X89775465Y-113628470D01*
X89721590Y-113736219D01*
X89586903Y-113870906D01*
X86302347Y-112785592D02*
X86652533Y-112435406D01*
X86679471Y-112839467D01*
X86760283Y-112758654D01*
X86841095Y-112731717D01*
X86894970Y-112731717D01*
X86975782Y-112758654D01*
X87110469Y-112893341D01*
X87137406Y-112974154D01*
X87137406Y-113028028D01*
X87110469Y-113108841D01*
X86948845Y-113270465D01*
X86868032Y-113297402D01*
X86814158Y-113297402D01*
X86814158Y-112273781D02*
X87568405Y-112650905D01*
X87191281Y-111896658D01*
X87325968Y-111761971D02*
X87676154Y-111411784D01*
X87703092Y-111815845D01*
X87783904Y-111735033D01*
X87864716Y-111708096D01*
X87918591Y-111708096D01*
X87999403Y-111735033D01*
X88134090Y-111869720D01*
X88161028Y-111950532D01*
X88161028Y-112004407D01*
X88134090Y-112085219D01*
X87972466Y-112246844D01*
X87891654Y-112273781D01*
X87837779Y-112273781D01*
D15*
X135698028Y-89754971D02*
X135983742Y-89754971D01*
X136126600Y-89826400D01*
X136269457Y-89969257D01*
X136340885Y-90254971D01*
X136340885Y-90754971D01*
X136269457Y-91040685D01*
X136126600Y-91183542D01*
X135983742Y-91254971D01*
X135698028Y-91254971D01*
X135555171Y-91183542D01*
X135412314Y-91040685D01*
X135340885Y-90754971D01*
X135340885Y-90254971D01*
X135412314Y-89969257D01*
X135555171Y-89826400D01*
X135698028Y-89754971D01*
X136983742Y-91254971D02*
X136983742Y-89754971D01*
X137840885Y-91254971D01*
X137840885Y-89754971D01*
X135198028Y-100651571D02*
X135483742Y-100651571D01*
X135626600Y-100723000D01*
X135769457Y-100865857D01*
X135840885Y-101151571D01*
X135840885Y-101651571D01*
X135769457Y-101937285D01*
X135626600Y-102080142D01*
X135483742Y-102151571D01*
X135198028Y-102151571D01*
X135055171Y-102080142D01*
X134912314Y-101937285D01*
X134840885Y-101651571D01*
X134840885Y-101151571D01*
X134912314Y-100865857D01*
X135055171Y-100723000D01*
X135198028Y-100651571D01*
X136983742Y-101365857D02*
X136483742Y-101365857D01*
X136483742Y-102151571D02*
X136483742Y-100651571D01*
X137198028Y-100651571D01*
X138269457Y-101365857D02*
X137769457Y-101365857D01*
X137769457Y-102151571D02*
X137769457Y-100651571D01*
X138483742Y-100651571D01*
D14*
X79858619Y-97849380D02*
X79525285Y-97373190D01*
X79287190Y-97849380D02*
X79287190Y-96849380D01*
X79668142Y-96849380D01*
X79763380Y-96897000D01*
X79811000Y-96944619D01*
X79858619Y-97039857D01*
X79858619Y-97182714D01*
X79811000Y-97277952D01*
X79763380Y-97325571D01*
X79668142Y-97373190D01*
X79287190Y-97373190D01*
X80287190Y-97325571D02*
X80620523Y-97325571D01*
X80763380Y-97849380D02*
X80287190Y-97849380D01*
X80287190Y-96849380D01*
X80763380Y-96849380D01*
X81144333Y-97801761D02*
X81287190Y-97849380D01*
X81525285Y-97849380D01*
X81620523Y-97801761D01*
X81668142Y-97754142D01*
X81715761Y-97658904D01*
X81715761Y-97563666D01*
X81668142Y-97468428D01*
X81620523Y-97420809D01*
X81525285Y-97373190D01*
X81334809Y-97325571D01*
X81239571Y-97277952D01*
X81191952Y-97230333D01*
X81144333Y-97135095D01*
X81144333Y-97039857D01*
X81191952Y-96944619D01*
X81239571Y-96897000D01*
X81334809Y-96849380D01*
X81572904Y-96849380D01*
X81715761Y-96897000D01*
X82144333Y-97325571D02*
X82477666Y-97325571D01*
X82620523Y-97849380D02*
X82144333Y-97849380D01*
X82144333Y-96849380D01*
X82620523Y-96849380D01*
X82906238Y-96849380D02*
X83477666Y-96849380D01*
X83191952Y-97849380D02*
X83191952Y-96849380D01*
D16*
%TO.C,R8*%
X123997200Y-107280000D02*
X123297200Y-107280000D01*
X123297200Y-106080000D02*
X123997200Y-106080000D01*
D13*
%TO.C,SW4*%
X90949000Y-108932000D02*
X90949000Y-103432000D01*
X93949000Y-108932000D02*
X90949000Y-108932000D01*
X93949000Y-103432000D02*
X90949000Y-103432000D01*
X93949000Y-108932000D02*
X93949000Y-103432000D01*
D17*
%TO.C,U1*%
X102938000Y-98061000D02*
X102938000Y-98823000D01*
X118940000Y-98061000D02*
X102938000Y-98061000D01*
X118940000Y-98823000D02*
X118940000Y-98061000D01*
D13*
%TO.C,P8*%
X85115400Y-83583769D02*
X82923369Y-85775800D01*
X86211416Y-84679784D02*
X85115400Y-83583769D01*
X85115400Y-87571851D02*
X86911451Y-85775800D01*
X82923369Y-85775800D02*
X84019384Y-86871816D01*
X99483810Y-98348159D02*
X86911451Y-85775800D01*
X97687759Y-100144210D02*
X99483810Y-98348159D01*
X85115400Y-87571851D02*
X97687759Y-100144210D01*
%TO.C,P9*%
X132648400Y-98068800D02*
X129548400Y-98068800D01*
X132648400Y-99618800D02*
X132648400Y-98068800D01*
X129828400Y-100888800D02*
X132368400Y-100888800D01*
X132368400Y-108508800D02*
X129828400Y-108508800D01*
X129548400Y-98068800D02*
X129548400Y-99618800D01*
X129828400Y-100888800D02*
X129828400Y-108508800D01*
X132368400Y-100888800D02*
X132368400Y-108508800D01*
%TO.C,P10*%
X131082831Y-110602800D02*
X128890800Y-108410769D01*
X129986816Y-111698816D02*
X131082831Y-110602800D01*
X127094749Y-110602800D02*
X128890800Y-112398851D01*
X123502646Y-117787005D02*
X121706595Y-115990954D01*
X128890800Y-108410769D02*
X127794784Y-109506784D01*
X127094749Y-110602800D02*
X121706595Y-115990954D01*
X128890800Y-112398851D02*
X123502646Y-117787005D01*
%TO.C,P7*%
X86995000Y-81754969D02*
X84802969Y-83947000D01*
X88091016Y-82850984D02*
X86995000Y-81754969D01*
X86995000Y-85743051D02*
X88791051Y-83947000D01*
X84802969Y-83947000D02*
X85898984Y-85043016D01*
X101363410Y-96519359D02*
X88791051Y-83947000D01*
X99567359Y-98315410D02*
X101363410Y-96519359D01*
X86995000Y-85743051D02*
X99567359Y-98315410D01*
%TO.C,P4*%
X94361000Y-71836000D02*
X91821000Y-71836000D01*
X94361000Y-69296000D02*
X94361000Y-71836000D01*
X94641000Y-66476000D02*
X91541000Y-66476000D01*
X94641000Y-68026000D02*
X94641000Y-66476000D01*
X91821000Y-69296000D02*
X94361000Y-69296000D01*
X91821000Y-71836000D02*
X91821000Y-69296000D01*
X91541000Y-66476000D02*
X91541000Y-68026000D01*
%TO.C,P6*%
X119237000Y-88011000D02*
X116697000Y-88011000D01*
X119237000Y-85471000D02*
X119237000Y-88011000D01*
X119517000Y-82651000D02*
X116417000Y-82651000D01*
X119517000Y-84201000D02*
X119517000Y-82651000D01*
X116697000Y-85471000D02*
X119237000Y-85471000D01*
X116697000Y-88011000D02*
X116697000Y-85471000D01*
X116417000Y-82651000D02*
X116417000Y-84201000D01*
%TO.C,P5*%
X124460000Y-71709000D02*
X121920000Y-71709000D01*
X124460000Y-69169000D02*
X124460000Y-71709000D01*
X124740000Y-66349000D02*
X121640000Y-66349000D01*
X124740000Y-67899000D02*
X124740000Y-66349000D01*
X121920000Y-69169000D02*
X124460000Y-69169000D01*
X121920000Y-71709000D02*
X121920000Y-69169000D01*
X121640000Y-66349000D02*
X121640000Y-67899000D01*
%TO.C,P1*%
X89324000Y-108089969D02*
X87131969Y-110282000D01*
X90420016Y-109185984D02*
X89324000Y-108089969D01*
X89324000Y-112078051D02*
X91120051Y-110282000D01*
X96508205Y-115670154D02*
X94712154Y-117466205D01*
X87131969Y-110282000D02*
X88227984Y-111378016D01*
X89324000Y-112078051D02*
X94712154Y-117466205D01*
X91120051Y-110282000D02*
X96508205Y-115670154D01*
D16*
%TO.C,R1*%
X81488800Y-91856000D02*
X82188800Y-91856000D01*
X82188800Y-93056000D02*
X81488800Y-93056000D01*
%TO.C,R3*%
X95168200Y-110264500D02*
X94468200Y-110264500D01*
X94468200Y-109064500D02*
X95168200Y-109064500D01*
%TO.C,R4*%
X84892400Y-101152400D02*
X85592400Y-101152400D01*
X85592400Y-102352400D02*
X84892400Y-102352400D01*
%TO.C,R5*%
X123297200Y-107654800D02*
X123997200Y-107654800D01*
X123997200Y-108854800D02*
X123297200Y-108854800D01*
%TO.C,R6*%
X123274000Y-109282000D02*
X123974000Y-109282000D01*
X123974000Y-110482000D02*
X123274000Y-110482000D01*
%TO.C,R7*%
X85592400Y-99101200D02*
X84892400Y-99101200D01*
X84892400Y-97901200D02*
X85592400Y-97901200D01*
D13*
%TO.C,P2*%
X131455082Y-86579505D02*
X137040801Y-92129303D01*
X137040801Y-92129303D02*
X131652648Y-97517457D01*
X131634687Y-97535417D02*
X126031007Y-91931737D01*
X126048968Y-91913777D02*
X131437122Y-86525623D01*
%TO.C,D2*%
X97853500Y-109914500D02*
X97603500Y-109664500D01*
X97853500Y-109414500D02*
X97853500Y-109914500D01*
X97603500Y-109664500D02*
X97853500Y-109414500D01*
X97603500Y-109414500D02*
X97603500Y-109914500D01*
X97653500Y-109664500D02*
X98103500Y-109664500D01*
X96753500Y-109114500D02*
X98653500Y-109114500D01*
X96753500Y-110214500D02*
X98653500Y-110214500D01*
%TO.C,D3*%
X85242400Y-99876800D02*
X85492400Y-100126800D01*
X85242400Y-100376800D02*
X85242400Y-99876800D01*
X85492400Y-100126800D02*
X85242400Y-100376800D01*
X85492400Y-100376800D02*
X85492400Y-99876800D01*
X85442400Y-100126800D02*
X84992400Y-100126800D01*
X86342400Y-100676800D02*
X84442400Y-100676800D01*
X86342400Y-99576800D02*
X84442400Y-99576800D01*
%TO.C,D4*%
X123698000Y-105380600D02*
X123448000Y-105130600D01*
X123698000Y-104880600D02*
X123698000Y-105380600D01*
X123448000Y-105130600D02*
X123698000Y-104880600D01*
X123448000Y-104880600D02*
X123448000Y-105380600D01*
X123498000Y-105130600D02*
X123948000Y-105130600D01*
X122598000Y-104580600D02*
X124498000Y-104580600D01*
X122598000Y-105680600D02*
X124498000Y-105680600D01*
D14*
%TO.C,IC1*%
X114013000Y-74695000D02*
X117209000Y-74695000D01*
X117209000Y-74695000D02*
X117209000Y-79599000D01*
X117209000Y-79599000D02*
X114013000Y-79599000D01*
X114013000Y-79599000D02*
X114013000Y-74695000D01*
X112136000Y-74567000D02*
X113663000Y-74567000D01*
%TO.C,IC2*%
X89942804Y-78792263D02*
X95482986Y-73252081D01*
X104739014Y-91841919D02*
X109405919Y-87175014D01*
D16*
%TO.C,J1*%
X101881000Y-65377000D02*
X101881000Y-64047000D01*
X103211000Y-65377000D02*
X101881000Y-65377000D01*
X104481000Y-65377000D02*
X104481000Y-62717000D01*
X104481000Y-62717000D02*
X114701000Y-62717000D01*
X104481000Y-65377000D02*
X114701000Y-65377000D01*
X114701000Y-65377000D02*
X114701000Y-62717000D01*
%TO.C,J2*%
X101871000Y-68317000D02*
X101871000Y-70977000D01*
X112091000Y-68317000D02*
X101871000Y-68317000D01*
X112091000Y-70977000D02*
X101871000Y-70977000D01*
X112091000Y-68317000D02*
X112091000Y-70977000D01*
X113361000Y-68317000D02*
X114691000Y-68317000D01*
X114691000Y-68317000D02*
X114691000Y-69647000D01*
%TO.C,R8*%
D13*
X121016733Y-107106980D02*
X120683400Y-106630790D01*
X120445304Y-107106980D02*
X120445304Y-106106980D01*
X120826257Y-106106980D01*
X120921495Y-106154600D01*
X120969114Y-106202219D01*
X121016733Y-106297457D01*
X121016733Y-106440314D01*
X120969114Y-106535552D01*
X120921495Y-106583171D01*
X120826257Y-106630790D01*
X120445304Y-106630790D01*
X121588161Y-106535552D02*
X121492923Y-106487933D01*
X121445304Y-106440314D01*
X121397685Y-106345076D01*
X121397685Y-106297457D01*
X121445304Y-106202219D01*
X121492923Y-106154600D01*
X121588161Y-106106980D01*
X121778638Y-106106980D01*
X121873876Y-106154600D01*
X121921495Y-106202219D01*
X121969114Y-106297457D01*
X121969114Y-106345076D01*
X121921495Y-106440314D01*
X121873876Y-106487933D01*
X121778638Y-106535552D01*
X121588161Y-106535552D01*
X121492923Y-106583171D01*
X121445304Y-106630790D01*
X121397685Y-106726028D01*
X121397685Y-106916504D01*
X121445304Y-107011742D01*
X121492923Y-107059361D01*
X121588161Y-107106980D01*
X121778638Y-107106980D01*
X121873876Y-107059361D01*
X121921495Y-107011742D01*
X121969114Y-106916504D01*
X121969114Y-106726028D01*
X121921495Y-106630790D01*
X121873876Y-106583171D01*
X121778638Y-106535552D01*
%TO.C,SW4*%
X91236000Y-109875571D02*
X91343142Y-109911285D01*
X91521714Y-109911285D01*
X91593142Y-109875571D01*
X91628857Y-109839857D01*
X91664571Y-109768428D01*
X91664571Y-109697000D01*
X91628857Y-109625571D01*
X91593142Y-109589857D01*
X91521714Y-109554142D01*
X91378857Y-109518428D01*
X91307428Y-109482714D01*
X91271714Y-109447000D01*
X91236000Y-109375571D01*
X91236000Y-109304142D01*
X91271714Y-109232714D01*
X91307428Y-109197000D01*
X91378857Y-109161285D01*
X91557428Y-109161285D01*
X91664571Y-109197000D01*
X91914571Y-109161285D02*
X92093142Y-109911285D01*
X92236000Y-109375571D01*
X92378857Y-109911285D01*
X92557428Y-109161285D01*
X93164571Y-109411285D02*
X93164571Y-109911285D01*
X92986000Y-109125571D02*
X92807428Y-109661285D01*
X93271714Y-109661285D01*
%TO.C,U1*%
X120459595Y-112482380D02*
X120459595Y-113291904D01*
X120507214Y-113387142D01*
X120554833Y-113434761D01*
X120650071Y-113482380D01*
X120840547Y-113482380D01*
X120935785Y-113434761D01*
X120983404Y-113387142D01*
X121031023Y-113291904D01*
X121031023Y-112482380D01*
X122031023Y-113482380D02*
X121459595Y-113482380D01*
X121745309Y-113482380D02*
X121745309Y-112482380D01*
X121650071Y-112625238D01*
X121554833Y-112720476D01*
X121459595Y-112768095D01*
%TO.C,SW2*%
X80721333Y-104870209D02*
X80835619Y-104908304D01*
X81026095Y-104908304D01*
X81102285Y-104870209D01*
X81140380Y-104832114D01*
X81178476Y-104755923D01*
X81178476Y-104679733D01*
X81140380Y-104603542D01*
X81102285Y-104565447D01*
X81026095Y-104527352D01*
X80873714Y-104489257D01*
X80797523Y-104451161D01*
X80759428Y-104413066D01*
X80721333Y-104336876D01*
X80721333Y-104260685D01*
X80759428Y-104184495D01*
X80797523Y-104146400D01*
X80873714Y-104108304D01*
X81064190Y-104108304D01*
X81178476Y-104146400D01*
X81445142Y-104108304D02*
X81635619Y-104908304D01*
X81788000Y-104336876D01*
X81940380Y-104908304D01*
X82130857Y-104108304D01*
X82397523Y-104184495D02*
X82435619Y-104146400D01*
X82511809Y-104108304D01*
X82702285Y-104108304D01*
X82778476Y-104146400D01*
X82816571Y-104184495D01*
X82854666Y-104260685D01*
X82854666Y-104336876D01*
X82816571Y-104451161D01*
X82359428Y-104908304D01*
X82854666Y-104908304D01*
%TO.C,P8*%
X83439877Y-84819645D02*
X82909547Y-84289315D01*
X83111577Y-84087284D01*
X83187338Y-84062030D01*
X83237846Y-84062030D01*
X83313608Y-84087284D01*
X83389369Y-84163046D01*
X83414623Y-84238807D01*
X83414623Y-84289315D01*
X83389369Y-84365076D01*
X83187338Y-84567107D01*
X83742922Y-83910508D02*
X83667161Y-83935761D01*
X83616653Y-83935761D01*
X83540892Y-83910508D01*
X83515638Y-83885254D01*
X83490384Y-83809492D01*
X83490384Y-83758985D01*
X83515638Y-83683223D01*
X83616653Y-83582208D01*
X83692415Y-83556954D01*
X83742922Y-83556954D01*
X83818684Y-83582208D01*
X83843938Y-83607462D01*
X83869191Y-83683223D01*
X83869191Y-83733731D01*
X83843938Y-83809492D01*
X83742922Y-83910508D01*
X83717669Y-83986269D01*
X83717669Y-84036777D01*
X83742922Y-84112538D01*
X83843938Y-84213553D01*
X83919699Y-84238807D01*
X83970207Y-84238807D01*
X84045968Y-84213553D01*
X84146983Y-84112538D01*
X84172237Y-84036777D01*
X84172237Y-83986269D01*
X84146983Y-83910508D01*
X84045968Y-83809492D01*
X83970207Y-83784238D01*
X83919699Y-83784238D01*
X83843938Y-83809492D01*
%TO.C,P9*%
X133761785Y-100185071D02*
X133011785Y-100185071D01*
X133011785Y-99899357D01*
X133047500Y-99827928D01*
X133083214Y-99792214D01*
X133154642Y-99756500D01*
X133261785Y-99756500D01*
X133333214Y-99792214D01*
X133368928Y-99827928D01*
X133404642Y-99899357D01*
X133404642Y-100185071D01*
X133761785Y-99399357D02*
X133761785Y-99256500D01*
X133726071Y-99185071D01*
X133690357Y-99149357D01*
X133583214Y-99077928D01*
X133440357Y-99042214D01*
X133154642Y-99042214D01*
X133083214Y-99077928D01*
X133047500Y-99113642D01*
X133011785Y-99185071D01*
X133011785Y-99327928D01*
X133047500Y-99399357D01*
X133083214Y-99435071D01*
X133154642Y-99470785D01*
X133333214Y-99470785D01*
X133404642Y-99435071D01*
X133440357Y-99399357D01*
X133476071Y-99327928D01*
X133476071Y-99185071D01*
X133440357Y-99113642D01*
X133404642Y-99077928D01*
X133333214Y-99042214D01*
%TO.C,P10*%
X128207338Y-108540283D02*
X127677008Y-108009953D01*
X127879039Y-107807922D01*
X127954800Y-107782669D01*
X128005308Y-107782669D01*
X128081069Y-107807922D01*
X128156831Y-107883684D01*
X128182085Y-107959445D01*
X128182085Y-108009953D01*
X128156831Y-108085714D01*
X127954800Y-108287745D01*
X129015461Y-107732161D02*
X128712415Y-108035207D01*
X128863938Y-107883684D02*
X128333608Y-107353354D01*
X128358861Y-107479623D01*
X128358861Y-107580638D01*
X128333608Y-107656400D01*
X128813430Y-106873531D02*
X128863938Y-106823024D01*
X128939699Y-106797770D01*
X128990207Y-106797770D01*
X129065968Y-106823024D01*
X129192237Y-106898785D01*
X129318506Y-107025054D01*
X129394268Y-107151323D01*
X129419522Y-107227085D01*
X129419522Y-107277592D01*
X129394268Y-107353354D01*
X129343760Y-107403861D01*
X129267999Y-107429115D01*
X129217491Y-107429115D01*
X129141730Y-107403861D01*
X129015461Y-107328100D01*
X128889191Y-107201831D01*
X128813430Y-107075562D01*
X128788176Y-106999800D01*
X128788176Y-106949293D01*
X128813430Y-106873531D01*
%TO.C,P7*%
X85319477Y-82940045D02*
X84789147Y-82409715D01*
X84991177Y-82207684D01*
X85066938Y-82182430D01*
X85117446Y-82182430D01*
X85193208Y-82207684D01*
X85268969Y-82283446D01*
X85294223Y-82359207D01*
X85294223Y-82409715D01*
X85268969Y-82485476D01*
X85066938Y-82687507D01*
X85268969Y-81929892D02*
X85622522Y-81576339D01*
X85925568Y-82333953D01*
%TO.C,P4*%
X92352904Y-73685380D02*
X92352904Y-72685380D01*
X92733857Y-72685380D01*
X92829095Y-72733000D01*
X92876714Y-72780619D01*
X92924333Y-72875857D01*
X92924333Y-73018714D01*
X92876714Y-73113952D01*
X92829095Y-73161571D01*
X92733857Y-73209190D01*
X92352904Y-73209190D01*
X93781476Y-73018714D02*
X93781476Y-73685380D01*
X93543380Y-72637761D02*
X93305285Y-73352047D01*
X93924333Y-73352047D01*
%TO.C,P6*%
X117228904Y-89987380D02*
X117228904Y-88987380D01*
X117609857Y-88987380D01*
X117705095Y-89035000D01*
X117752714Y-89082619D01*
X117800333Y-89177857D01*
X117800333Y-89320714D01*
X117752714Y-89415952D01*
X117705095Y-89463571D01*
X117609857Y-89511190D01*
X117228904Y-89511190D01*
X118657476Y-88987380D02*
X118467000Y-88987380D01*
X118371761Y-89035000D01*
X118324142Y-89082619D01*
X118228904Y-89225476D01*
X118181285Y-89415952D01*
X118181285Y-89796904D01*
X118228904Y-89892142D01*
X118276523Y-89939761D01*
X118371761Y-89987380D01*
X118562238Y-89987380D01*
X118657476Y-89939761D01*
X118705095Y-89892142D01*
X118752714Y-89796904D01*
X118752714Y-89558809D01*
X118705095Y-89463571D01*
X118657476Y-89415952D01*
X118562238Y-89368333D01*
X118371761Y-89368333D01*
X118276523Y-89415952D01*
X118228904Y-89463571D01*
X118181285Y-89558809D01*
%TO.C,P5*%
X122578904Y-73685380D02*
X122578904Y-72685380D01*
X122959857Y-72685380D01*
X123055095Y-72733000D01*
X123102714Y-72780619D01*
X123150333Y-72875857D01*
X123150333Y-73018714D01*
X123102714Y-73113952D01*
X123055095Y-73161571D01*
X122959857Y-73209190D01*
X122578904Y-73209190D01*
X124055095Y-72685380D02*
X123578904Y-72685380D01*
X123531285Y-73161571D01*
X123578904Y-73113952D01*
X123674142Y-73066333D01*
X123912238Y-73066333D01*
X124007476Y-73113952D01*
X124055095Y-73161571D01*
X124102714Y-73256809D01*
X124102714Y-73494904D01*
X124055095Y-73590142D01*
X124007476Y-73637761D01*
X123912238Y-73685380D01*
X123674142Y-73685380D01*
X123578904Y-73637761D01*
X123531285Y-73590142D01*
%TO.C,P1*%
X85721406Y-110668968D02*
X86428512Y-109961861D01*
X86697887Y-110231235D01*
X86731558Y-110332250D01*
X86731558Y-110399594D01*
X86697887Y-110500609D01*
X86596871Y-110601624D01*
X86495856Y-110635296D01*
X86428512Y-110635296D01*
X86327497Y-110601624D01*
X86058123Y-110332250D01*
X86798902Y-111746464D02*
X86394841Y-111342403D01*
X86596871Y-111544434D02*
X87303978Y-110837327D01*
X87135619Y-110870999D01*
X87000932Y-110870999D01*
X86899917Y-110837327D01*
%TO.C,R1*%
X84085133Y-93035380D02*
X83751800Y-92559190D01*
X83513704Y-93035380D02*
X83513704Y-92035380D01*
X83894657Y-92035380D01*
X83989895Y-92083000D01*
X84037514Y-92130619D01*
X84085133Y-92225857D01*
X84085133Y-92368714D01*
X84037514Y-92463952D01*
X83989895Y-92511571D01*
X83894657Y-92559190D01*
X83513704Y-92559190D01*
X85037514Y-93035380D02*
X84466085Y-93035380D01*
X84751800Y-93035380D02*
X84751800Y-92035380D01*
X84656561Y-92178238D01*
X84561323Y-92273476D01*
X84466085Y-92321095D01*
%TO.C,R3*%
X93944333Y-111649380D02*
X93611000Y-111173190D01*
X93372904Y-111649380D02*
X93372904Y-110649380D01*
X93753857Y-110649380D01*
X93849095Y-110697000D01*
X93896714Y-110744619D01*
X93944333Y-110839857D01*
X93944333Y-110982714D01*
X93896714Y-111077952D01*
X93849095Y-111125571D01*
X93753857Y-111173190D01*
X93372904Y-111173190D01*
X94277666Y-110649380D02*
X94896714Y-110649380D01*
X94563380Y-111030333D01*
X94706238Y-111030333D01*
X94801476Y-111077952D01*
X94849095Y-111125571D01*
X94896714Y-111220809D01*
X94896714Y-111458904D01*
X94849095Y-111554142D01*
X94801476Y-111601761D01*
X94706238Y-111649380D01*
X94420523Y-111649380D01*
X94325285Y-111601761D01*
X94277666Y-111554142D01*
%TO.C,R4*%
X87564933Y-102153980D02*
X87231600Y-101677790D01*
X86993504Y-102153980D02*
X86993504Y-101153980D01*
X87374457Y-101153980D01*
X87469695Y-101201600D01*
X87517314Y-101249219D01*
X87564933Y-101344457D01*
X87564933Y-101487314D01*
X87517314Y-101582552D01*
X87469695Y-101630171D01*
X87374457Y-101677790D01*
X86993504Y-101677790D01*
X88422076Y-101487314D02*
X88422076Y-102153980D01*
X88183980Y-101106361D02*
X87945885Y-101820647D01*
X88564933Y-101820647D01*
%TO.C,SW1*%
X86309333Y-96335809D02*
X86423619Y-96373904D01*
X86614095Y-96373904D01*
X86690285Y-96335809D01*
X86728380Y-96297714D01*
X86766476Y-96221523D01*
X86766476Y-96145333D01*
X86728380Y-96069142D01*
X86690285Y-96031047D01*
X86614095Y-95992952D01*
X86461714Y-95954857D01*
X86385523Y-95916761D01*
X86347428Y-95878666D01*
X86309333Y-95802476D01*
X86309333Y-95726285D01*
X86347428Y-95650095D01*
X86385523Y-95612000D01*
X86461714Y-95573904D01*
X86652190Y-95573904D01*
X86766476Y-95612000D01*
X87033142Y-95573904D02*
X87223619Y-96373904D01*
X87376000Y-95802476D01*
X87528380Y-96373904D01*
X87718857Y-95573904D01*
X88442666Y-96373904D02*
X87985523Y-96373904D01*
X88214095Y-96373904D02*
X88214095Y-95573904D01*
X88137904Y-95688190D01*
X88061714Y-95764380D01*
X87985523Y-95802476D01*
%TO.C,R5*%
X125969733Y-108681780D02*
X125636400Y-108205590D01*
X125398304Y-108681780D02*
X125398304Y-107681780D01*
X125779257Y-107681780D01*
X125874495Y-107729400D01*
X125922114Y-107777019D01*
X125969733Y-107872257D01*
X125969733Y-108015114D01*
X125922114Y-108110352D01*
X125874495Y-108157971D01*
X125779257Y-108205590D01*
X125398304Y-108205590D01*
X126874495Y-107681780D02*
X126398304Y-107681780D01*
X126350685Y-108157971D01*
X126398304Y-108110352D01*
X126493542Y-108062733D01*
X126731638Y-108062733D01*
X126826876Y-108110352D01*
X126874495Y-108157971D01*
X126922114Y-108253209D01*
X126922114Y-108491304D01*
X126874495Y-108586542D01*
X126826876Y-108634161D01*
X126731638Y-108681780D01*
X126493542Y-108681780D01*
X126398304Y-108634161D01*
X126350685Y-108586542D01*
%TO.C,R6*%
X125599000Y-109553428D02*
X125399000Y-109267714D01*
X125256142Y-109553428D02*
X125256142Y-108953428D01*
X125484714Y-108953428D01*
X125541857Y-108982000D01*
X125570428Y-109010571D01*
X125599000Y-109067714D01*
X125599000Y-109153428D01*
X125570428Y-109210571D01*
X125541857Y-109239142D01*
X125484714Y-109267714D01*
X125256142Y-109267714D01*
X126113285Y-108953428D02*
X125999000Y-108953428D01*
X125941857Y-108982000D01*
X125913285Y-109010571D01*
X125856142Y-109096285D01*
X125827571Y-109210571D01*
X125827571Y-109439142D01*
X125856142Y-109496285D01*
X125884714Y-109524857D01*
X125941857Y-109553428D01*
X126056142Y-109553428D01*
X126113285Y-109524857D01*
X126141857Y-109496285D01*
X126170428Y-109439142D01*
X126170428Y-109296285D01*
X126141857Y-109239142D01*
X126113285Y-109210571D01*
X126056142Y-109182000D01*
X125941857Y-109182000D01*
X125884714Y-109210571D01*
X125856142Y-109239142D01*
X125827571Y-109296285D01*
%TO.C,R7*%
X82469333Y-99299380D02*
X82136000Y-98823190D01*
X81897904Y-99299380D02*
X81897904Y-98299380D01*
X82278857Y-98299380D01*
X82374095Y-98347000D01*
X82421714Y-98394619D01*
X82469333Y-98489857D01*
X82469333Y-98632714D01*
X82421714Y-98727952D01*
X82374095Y-98775571D01*
X82278857Y-98823190D01*
X81897904Y-98823190D01*
X82802666Y-98299380D02*
X83469333Y-98299380D01*
X83040761Y-99299380D01*
%TO.C,P2*%
X129512678Y-97933586D02*
X128805571Y-97226480D01*
X129074945Y-96957105D01*
X129175960Y-96923434D01*
X129243304Y-96923434D01*
X129344319Y-96957105D01*
X129445334Y-97058121D01*
X129479006Y-97159136D01*
X129479006Y-97226480D01*
X129445334Y-97327495D01*
X129175960Y-97596869D01*
X129546350Y-96620388D02*
X129546350Y-96553044D01*
X129580021Y-96452029D01*
X129748380Y-96283670D01*
X129849396Y-96249999D01*
X129916739Y-96249999D01*
X130017754Y-96283670D01*
X130085098Y-96351014D01*
X130152441Y-96485701D01*
X130152441Y-97293823D01*
X130590174Y-96856090D01*
%TO.C,D2*%
X96467704Y-111526580D02*
X96467704Y-110526580D01*
X96705800Y-110526580D01*
X96848657Y-110574200D01*
X96943895Y-110669438D01*
X96991514Y-110764676D01*
X97039133Y-110955152D01*
X97039133Y-111098009D01*
X96991514Y-111288485D01*
X96943895Y-111383723D01*
X96848657Y-111478961D01*
X96705800Y-111526580D01*
X96467704Y-111526580D01*
X97420085Y-110621819D02*
X97467704Y-110574200D01*
X97562942Y-110526580D01*
X97801038Y-110526580D01*
X97896276Y-110574200D01*
X97943895Y-110621819D01*
X97991514Y-110717057D01*
X97991514Y-110812295D01*
X97943895Y-110955152D01*
X97372466Y-111526580D01*
X97991514Y-111526580D01*
%TO.C,D3*%
X86764904Y-100604580D02*
X86764904Y-99604580D01*
X87003000Y-99604580D01*
X87145857Y-99652200D01*
X87241095Y-99747438D01*
X87288714Y-99842676D01*
X87336333Y-100033152D01*
X87336333Y-100176009D01*
X87288714Y-100366485D01*
X87241095Y-100461723D01*
X87145857Y-100556961D01*
X87003000Y-100604580D01*
X86764904Y-100604580D01*
X87669666Y-99604580D02*
X88288714Y-99604580D01*
X87955380Y-99985533D01*
X88098238Y-99985533D01*
X88193476Y-100033152D01*
X88241095Y-100080771D01*
X88288714Y-100176009D01*
X88288714Y-100414104D01*
X88241095Y-100509342D01*
X88193476Y-100556961D01*
X88098238Y-100604580D01*
X87812523Y-100604580D01*
X87717285Y-100556961D01*
X87669666Y-100509342D01*
%TO.C,D4*%
X122350304Y-104236780D02*
X122350304Y-103236780D01*
X122588400Y-103236780D01*
X122731257Y-103284400D01*
X122826495Y-103379638D01*
X122874114Y-103474876D01*
X122921733Y-103665352D01*
X122921733Y-103808209D01*
X122874114Y-103998685D01*
X122826495Y-104093923D01*
X122731257Y-104189161D01*
X122588400Y-104236780D01*
X122350304Y-104236780D01*
X123778876Y-103570114D02*
X123778876Y-104236780D01*
X123540780Y-103189161D02*
X123302685Y-103903447D01*
X123921733Y-103903447D01*
%TO.C,IC1*%
D18*
X114371238Y-77721523D02*
X114371238Y-76451523D01*
X115701714Y-77600571D02*
X115641238Y-77661047D01*
X115459809Y-77721523D01*
X115338857Y-77721523D01*
X115157428Y-77661047D01*
X115036476Y-77540095D01*
X114976000Y-77419142D01*
X114915523Y-77177238D01*
X114915523Y-76995809D01*
X114976000Y-76753904D01*
X115036476Y-76632952D01*
X115157428Y-76512000D01*
X115338857Y-76451523D01*
X115459809Y-76451523D01*
X115641238Y-76512000D01*
X115701714Y-76572476D01*
X116911238Y-77721523D02*
X116185523Y-77721523D01*
X116548380Y-77721523D02*
X116548380Y-76451523D01*
X116427428Y-76632952D01*
X116306476Y-76753904D01*
X116185523Y-76814380D01*
%TO.C,IC2*%
X99640605Y-83829893D02*
X98742580Y-82931868D01*
X100495868Y-82803578D02*
X100495868Y-82889104D01*
X100410341Y-83060157D01*
X100324815Y-83145683D01*
X100153763Y-83231209D01*
X99982710Y-83231209D01*
X99854421Y-83188446D01*
X99640605Y-83060157D01*
X99512316Y-82931868D01*
X99384026Y-82718052D01*
X99341263Y-82589763D01*
X99341263Y-82418710D01*
X99426790Y-82247658D01*
X99512316Y-82162131D01*
X99683368Y-82076605D01*
X99768895Y-82076605D01*
X100111000Y-81734500D02*
X100111000Y-81648974D01*
X100153763Y-81520685D01*
X100367578Y-81306869D01*
X100495868Y-81264106D01*
X100581394Y-81264106D01*
X100709683Y-81306869D01*
X100795209Y-81392395D01*
X100880736Y-81563448D01*
X100880736Y-82589763D01*
X101436656Y-82033842D01*
%TO.C,J1*%
D13*
X100333380Y-64380333D02*
X101047666Y-64380333D01*
X101190523Y-64427952D01*
X101285761Y-64523190D01*
X101333380Y-64666047D01*
X101333380Y-64761285D01*
X101333380Y-63380333D02*
X101333380Y-63951761D01*
X101333380Y-63666047D02*
X100333380Y-63666047D01*
X100476238Y-63761285D01*
X100571476Y-63856523D01*
X100619095Y-63951761D01*
%TO.C,J2*%
X115143380Y-69980333D02*
X115857666Y-69980333D01*
X116000523Y-70027952D01*
X116095761Y-70123190D01*
X116143380Y-70266047D01*
X116143380Y-70361285D01*
X115238619Y-69551761D02*
X115191000Y-69504142D01*
X115143380Y-69408904D01*
X115143380Y-69170809D01*
X115191000Y-69075571D01*
X115238619Y-69027952D01*
X115333857Y-68980333D01*
X115429095Y-68980333D01*
X115571952Y-69027952D01*
X116143380Y-69599380D01*
X116143380Y-68980333D01*
%TD*%
M02*
