%TF.GenerationSoftware,KiCad,Pcbnew,(5.1.10)-1*%
%TF.CreationDate,2022-09-07T09:41:17-03:00*%
%TF.ProjectId,OpenBCI_Wifi_Shield,4f70656e-4243-4495-9f57-6966695f5368,v1.0.0*%
%TF.SameCoordinates,Original*%
%TF.FileFunction,Other,User*%
%FSLAX46Y46*%
G04 Gerber Fmt 4.6, Leading zero omitted, Abs format (unit mm)*
G04 Created by KiCad (PCBNEW (5.1.10)-1) date 2022-09-07 09:41:17*
%MOMM*%
%LPD*%
G01*
G04 APERTURE LIST*
%ADD10C,0.050000*%
%ADD11C,0.152400*%
%ADD12C,0.150000*%
G04 APERTURE END LIST*
D10*
%TO.C,R8*%
X122197200Y-105930000D02*
X125097200Y-105930000D01*
X122197200Y-107430000D02*
X125097200Y-107430000D01*
X122197200Y-105930000D02*
X122197200Y-107430000D01*
X125097200Y-105930000D02*
X125097200Y-107430000D01*
%TO.C,U1*%
X120174000Y-114182000D02*
X120174000Y-122432000D01*
X120174000Y-122432000D02*
X102674000Y-122432000D01*
X102674000Y-122432000D02*
X101674000Y-122432000D01*
X101674000Y-122432000D02*
X101674000Y-97682000D01*
X101674000Y-97682000D02*
X120174000Y-97682000D01*
X120174000Y-97682000D02*
X120174000Y-114182000D01*
D11*
X118940000Y-122064000D02*
X102938000Y-122064000D01*
X102938000Y-122064000D02*
X102938000Y-114571000D01*
X118940000Y-122064000D02*
X118940000Y-114698000D01*
X102932000Y-122082000D02*
X118932000Y-116282000D01*
X118932000Y-122082000D02*
X102932000Y-116282000D01*
X118932000Y-116282000D02*
X102932000Y-116282000D01*
D10*
%TO.C,P8*%
X85115400Y-83300926D02*
X82640526Y-85775800D01*
X100176774Y-98362301D02*
X97701901Y-100837174D01*
X85115400Y-83300926D02*
X100176774Y-98362301D01*
X82640526Y-85775800D02*
X97701901Y-100837174D01*
%TO.C,P9*%
X132848400Y-97868800D02*
X129348400Y-97868800D01*
X132848400Y-109018800D02*
X129348400Y-109018800D01*
X132848400Y-97868800D02*
X132848400Y-109018800D01*
X129348400Y-97868800D02*
X129348400Y-109018800D01*
%TO.C,P10*%
X131365674Y-110602800D02*
X128890800Y-108127926D01*
X123481433Y-118487041D02*
X121006559Y-116012167D01*
X131365674Y-110602800D02*
X123481433Y-118487041D01*
X128890800Y-108127926D02*
X121006559Y-116012167D01*
%TO.C,P7*%
X86995000Y-81472126D02*
X84520126Y-83947000D01*
X102056374Y-96533501D02*
X99581501Y-99008374D01*
X86995000Y-81472126D02*
X102056374Y-96533501D01*
X84520126Y-83947000D02*
X99581501Y-99008374D01*
%TO.C,P4*%
X94841000Y-66276000D02*
X91341000Y-66276000D01*
X94841000Y-72326000D02*
X91341000Y-72326000D01*
X94841000Y-66276000D02*
X94841000Y-72326000D01*
X91341000Y-66276000D02*
X91341000Y-72326000D01*
%TO.C,P6*%
X119717000Y-82451000D02*
X116217000Y-82451000D01*
X119717000Y-88501000D02*
X116217000Y-88501000D01*
X119717000Y-82451000D02*
X119717000Y-88501000D01*
X116217000Y-82451000D02*
X116217000Y-88501000D01*
%TO.C,P5*%
X124940000Y-66149000D02*
X121440000Y-66149000D01*
X124940000Y-72199000D02*
X121440000Y-72199000D01*
X124940000Y-66149000D02*
X124940000Y-72199000D01*
X121440000Y-66149000D02*
X121440000Y-72199000D01*
%TO.C,P1*%
X89324000Y-107807126D02*
X86849126Y-110282000D01*
X97208241Y-115691367D02*
X94733367Y-118166241D01*
X89324000Y-107807126D02*
X97208241Y-115691367D01*
X86849126Y-110282000D02*
X94733367Y-118166241D01*
%TO.C,R1*%
X83288800Y-93206000D02*
X80388800Y-93206000D01*
X83288800Y-91706000D02*
X80388800Y-91706000D01*
X83288800Y-93206000D02*
X83288800Y-91706000D01*
X80388800Y-93206000D02*
X80388800Y-91706000D01*
%TO.C,R3*%
X93368200Y-108914500D02*
X96268200Y-108914500D01*
X93368200Y-110414500D02*
X96268200Y-110414500D01*
X93368200Y-108914500D02*
X93368200Y-110414500D01*
X96268200Y-108914500D02*
X96268200Y-110414500D01*
%TO.C,R4*%
X86692400Y-102502400D02*
X83792400Y-102502400D01*
X86692400Y-101002400D02*
X83792400Y-101002400D01*
X86692400Y-102502400D02*
X86692400Y-101002400D01*
X83792400Y-102502400D02*
X83792400Y-101002400D01*
%TO.C,R5*%
X125097200Y-109004800D02*
X122197200Y-109004800D01*
X125097200Y-107504800D02*
X122197200Y-107504800D01*
X125097200Y-109004800D02*
X125097200Y-107504800D01*
X122197200Y-109004800D02*
X122197200Y-107504800D01*
%TO.C,R6*%
X125074000Y-110632000D02*
X122174000Y-110632000D01*
X125074000Y-109132000D02*
X122174000Y-109132000D01*
X125074000Y-110632000D02*
X125074000Y-109132000D01*
X122174000Y-110632000D02*
X122174000Y-109132000D01*
%TO.C,R7*%
X83792400Y-97751200D02*
X86692400Y-97751200D01*
X83792400Y-99251200D02*
X86692400Y-99251200D01*
X83792400Y-97751200D02*
X83792400Y-99251200D01*
X86692400Y-97751200D02*
X86692400Y-99251200D01*
%TO.C,D2*%
X99253500Y-108914500D02*
X99253500Y-110414500D01*
X99253500Y-110414500D02*
X96453500Y-110414500D01*
X96453500Y-110414500D02*
X96453500Y-108914500D01*
X96453500Y-108914500D02*
X99253500Y-108914500D01*
%TO.C,D3*%
X83842400Y-100876800D02*
X83842400Y-99376800D01*
X83842400Y-99376800D02*
X86642400Y-99376800D01*
X86642400Y-99376800D02*
X86642400Y-100876800D01*
X86642400Y-100876800D02*
X83842400Y-100876800D01*
%TO.C,D4*%
X125098000Y-104380600D02*
X125098000Y-105880600D01*
X125098000Y-105880600D02*
X122298000Y-105880600D01*
X122298000Y-105880600D02*
X122298000Y-104380600D01*
X122298000Y-104380600D02*
X125098000Y-104380600D01*
%TO.C,IC1*%
X111886000Y-79897000D02*
X111886000Y-74397000D01*
X119336000Y-79897000D02*
X111886000Y-79897000D01*
X119336000Y-74397000D02*
X119336000Y-79897000D01*
X111886000Y-74397000D02*
X119336000Y-74397000D01*
%TO.C,IC2*%
X103752600Y-93181886D02*
X89476114Y-78905400D01*
X110745886Y-86188600D02*
X103752600Y-93181886D01*
X96469400Y-71912114D02*
X110745886Y-86188600D01*
X89476114Y-78905400D02*
X96469400Y-71912114D01*
%TO.C,J1*%
X101411000Y-65847000D02*
X115161000Y-65847000D01*
X115161000Y-65847000D02*
X115161000Y-62247000D01*
X115161000Y-62247000D02*
X101411000Y-62247000D01*
X101411000Y-62247000D02*
X101411000Y-65847000D01*
%TO.C,J2*%
X115161000Y-71447000D02*
X115161000Y-67847000D01*
X101411000Y-71447000D02*
X115161000Y-71447000D01*
X101411000Y-67847000D02*
X101411000Y-71447000D01*
X115161000Y-67847000D02*
X101411000Y-67847000D01*
%TD*%
%TO.C,U1*%
D12*
X107317714Y-119534380D02*
X107317714Y-118534380D01*
X107889142Y-119534380D01*
X107889142Y-118534380D01*
X108508190Y-119534380D02*
X108412952Y-119486761D01*
X108365333Y-119439142D01*
X108317714Y-119343904D01*
X108317714Y-119058190D01*
X108365333Y-118962952D01*
X108412952Y-118915333D01*
X108508190Y-118867714D01*
X108651047Y-118867714D01*
X108746285Y-118915333D01*
X108793904Y-118962952D01*
X108841523Y-119058190D01*
X108841523Y-119343904D01*
X108793904Y-119439142D01*
X108746285Y-119486761D01*
X108651047Y-119534380D01*
X108508190Y-119534380D01*
X110603428Y-119439142D02*
X110555809Y-119486761D01*
X110412952Y-119534380D01*
X110317714Y-119534380D01*
X110174857Y-119486761D01*
X110079619Y-119391523D01*
X110032000Y-119296285D01*
X109984380Y-119105809D01*
X109984380Y-118962952D01*
X110032000Y-118772476D01*
X110079619Y-118677238D01*
X110174857Y-118582000D01*
X110317714Y-118534380D01*
X110412952Y-118534380D01*
X110555809Y-118582000D01*
X110603428Y-118629619D01*
X111174857Y-119534380D02*
X111079619Y-119486761D01*
X111032000Y-119439142D01*
X110984380Y-119343904D01*
X110984380Y-119058190D01*
X111032000Y-118962952D01*
X111079619Y-118915333D01*
X111174857Y-118867714D01*
X111317714Y-118867714D01*
X111412952Y-118915333D01*
X111460571Y-118962952D01*
X111508190Y-119058190D01*
X111508190Y-119343904D01*
X111460571Y-119439142D01*
X111412952Y-119486761D01*
X111317714Y-119534380D01*
X111174857Y-119534380D01*
X111936761Y-118867714D02*
X111936761Y-119867714D01*
X111936761Y-118915333D02*
X112032000Y-118867714D01*
X112222476Y-118867714D01*
X112317714Y-118915333D01*
X112365333Y-118962952D01*
X112412952Y-119058190D01*
X112412952Y-119343904D01*
X112365333Y-119439142D01*
X112317714Y-119486761D01*
X112222476Y-119534380D01*
X112032000Y-119534380D01*
X111936761Y-119486761D01*
X112841523Y-118867714D02*
X112841523Y-119867714D01*
X112841523Y-118915333D02*
X112936761Y-118867714D01*
X113127238Y-118867714D01*
X113222476Y-118915333D01*
X113270095Y-118962952D01*
X113317714Y-119058190D01*
X113317714Y-119343904D01*
X113270095Y-119439142D01*
X113222476Y-119486761D01*
X113127238Y-119534380D01*
X112936761Y-119534380D01*
X112841523Y-119486761D01*
X114127238Y-119486761D02*
X114032000Y-119534380D01*
X113841523Y-119534380D01*
X113746285Y-119486761D01*
X113698666Y-119391523D01*
X113698666Y-119010571D01*
X113746285Y-118915333D01*
X113841523Y-118867714D01*
X114032000Y-118867714D01*
X114127238Y-118915333D01*
X114174857Y-119010571D01*
X114174857Y-119105809D01*
X113698666Y-119201047D01*
X114603428Y-119534380D02*
X114603428Y-118867714D01*
X114603428Y-119058190D02*
X114651047Y-118962952D01*
X114698666Y-118915333D01*
X114793904Y-118867714D01*
X114889142Y-118867714D01*
%TD*%
M02*
