%TF.GenerationSoftware,KiCad,Pcbnew,(5.1.10)-1*%
%TF.CreationDate,2022-09-07T09:41:17-03:00*%
%TF.ProjectId,OpenBCI_Wifi_Shield,4f70656e-4243-4495-9f57-6966695f5368,v1.0.0*%
%TF.SameCoordinates,Original*%
%TF.FileFunction,Soldermask,Bot*%
%TF.FilePolarity,Negative*%
%FSLAX46Y46*%
G04 Gerber Fmt 4.6, Leading zero omitted, Abs format (unit mm)*
G04 Created by KiCad (PCBNEW (5.1.10)-1) date 2022-09-07 09:41:17*
%MOMM*%
%LPD*%
G01*
G04 APERTURE LIST*
%ADD10O,2.432000X2.127200*%
%ADD11O,2.432000X2.432000*%
%ADD12C,1.300000*%
%ADD13C,1.530000*%
%ADD14O,2.100000X2.100000*%
G04 APERTURE END LIST*
%TO.C,P8*%
G36*
G01*
X83644901Y-85742142D02*
X85081742Y-84305301D01*
G75*
G02*
X85364584Y-84305301I141421J-141421D01*
G01*
X86585899Y-85526616D01*
G75*
G02*
X86585899Y-85809458I-141421J-141421D01*
G01*
X85149058Y-87246299D01*
G75*
G02*
X84866216Y-87246299I-141421J141421D01*
G01*
X83644901Y-86024984D01*
G75*
G02*
X83644901Y-85742142I141421J141421D01*
G01*
G37*
G36*
G01*
X86051609Y-86927535D02*
X86267135Y-86712009D01*
G75*
G02*
X87771293Y-86712009I752079J-752079D01*
G01*
X87771293Y-86712009D01*
G75*
G02*
X87771293Y-88216167I-752079J-752079D01*
G01*
X87555767Y-88431693D01*
G75*
G02*
X86051609Y-88431693I-752079J752079D01*
G01*
X86051609Y-88431693D01*
G75*
G02*
X86051609Y-86927535I752079J752079D01*
G01*
G37*
G36*
G01*
X87847660Y-88723586D02*
X88063186Y-88508060D01*
G75*
G02*
X89567344Y-88508060I752079J-752079D01*
G01*
X89567344Y-88508060D01*
G75*
G02*
X89567344Y-90012218I-752079J-752079D01*
G01*
X89351818Y-90227744D01*
G75*
G02*
X87847660Y-90227744I-752079J752079D01*
G01*
X87847660Y-90227744D01*
G75*
G02*
X87847660Y-88723586I752079J752079D01*
G01*
G37*
G36*
G01*
X89643712Y-90519638D02*
X89859238Y-90304112D01*
G75*
G02*
X91363396Y-90304112I752079J-752079D01*
G01*
X91363396Y-90304112D01*
G75*
G02*
X91363396Y-91808270I-752079J-752079D01*
G01*
X91147870Y-92023796D01*
G75*
G02*
X89643712Y-92023796I-752079J752079D01*
G01*
X89643712Y-92023796D01*
G75*
G02*
X89643712Y-90519638I752079J752079D01*
G01*
G37*
G36*
G01*
X91439763Y-92315689D02*
X91655289Y-92100163D01*
G75*
G02*
X93159447Y-92100163I752079J-752079D01*
G01*
X93159447Y-92100163D01*
G75*
G02*
X93159447Y-93604321I-752079J-752079D01*
G01*
X92943921Y-93819847D01*
G75*
G02*
X91439763Y-93819847I-752079J752079D01*
G01*
X91439763Y-93819847D01*
G75*
G02*
X91439763Y-92315689I752079J752079D01*
G01*
G37*
G36*
G01*
X93235814Y-94111740D02*
X93451340Y-93896214D01*
G75*
G02*
X94955498Y-93896214I752079J-752079D01*
G01*
X94955498Y-93896214D01*
G75*
G02*
X94955498Y-95400372I-752079J-752079D01*
G01*
X94739972Y-95615898D01*
G75*
G02*
X93235814Y-95615898I-752079J752079D01*
G01*
X93235814Y-95615898D01*
G75*
G02*
X93235814Y-94111740I752079J752079D01*
G01*
G37*
G36*
G01*
X95031865Y-95907791D02*
X95247391Y-95692265D01*
G75*
G02*
X96751549Y-95692265I752079J-752079D01*
G01*
X96751549Y-95692265D01*
G75*
G02*
X96751549Y-97196423I-752079J-752079D01*
G01*
X96536023Y-97411949D01*
G75*
G02*
X95031865Y-97411949I-752079J752079D01*
G01*
X95031865Y-97411949D01*
G75*
G02*
X95031865Y-95907791I752079J752079D01*
G01*
G37*
G36*
G01*
X96827917Y-97703843D02*
X97043443Y-97488317D01*
G75*
G02*
X98547601Y-97488317I752079J-752079D01*
G01*
X98547601Y-97488317D01*
G75*
G02*
X98547601Y-98992475I-752079J-752079D01*
G01*
X98332075Y-99208001D01*
G75*
G02*
X96827917Y-99208001I-752079J752079D01*
G01*
X96827917Y-99208001D01*
G75*
G02*
X96827917Y-97703843I752079J752079D01*
G01*
G37*
%TD*%
%TO.C,P9*%
G36*
G01*
X130082400Y-98555200D02*
X132114400Y-98555200D01*
G75*
G02*
X132314400Y-98755200I0J-200000D01*
G01*
X132314400Y-100482400D01*
G75*
G02*
X132114400Y-100682400I-200000J0D01*
G01*
X130082400Y-100682400D01*
G75*
G02*
X129882400Y-100482400I0J200000D01*
G01*
X129882400Y-98755200D01*
G75*
G02*
X130082400Y-98555200I200000J0D01*
G01*
G37*
D10*
X131098400Y-102158800D03*
X131098400Y-104698800D03*
X131098400Y-107238800D03*
%TD*%
%TO.C,P10*%
G36*
G01*
X128924458Y-109132301D02*
X130361299Y-110569142D01*
G75*
G02*
X130361299Y-110851984I-141421J-141421D01*
G01*
X129139984Y-112073299D01*
G75*
G02*
X128857142Y-112073299I-141421J141421D01*
G01*
X127420301Y-110636458D01*
G75*
G02*
X127420301Y-110353616I141421J141421D01*
G01*
X128641616Y-109132301D01*
G75*
G02*
X128924458Y-109132301I141421J-141421D01*
G01*
G37*
G36*
G01*
X127739065Y-111539009D02*
X127954591Y-111754535D01*
G75*
G02*
X127954591Y-113258693I-752079J-752079D01*
G01*
X127954591Y-113258693D01*
G75*
G02*
X126450433Y-113258693I-752079J752079D01*
G01*
X126234907Y-113043167D01*
G75*
G02*
X126234907Y-111539009I752079J752079D01*
G01*
X126234907Y-111539009D01*
G75*
G02*
X127739065Y-111539009I752079J-752079D01*
G01*
G37*
G36*
G01*
X125943014Y-113335060D02*
X126158540Y-113550586D01*
G75*
G02*
X126158540Y-115054744I-752079J-752079D01*
G01*
X126158540Y-115054744D01*
G75*
G02*
X124654382Y-115054744I-752079J752079D01*
G01*
X124438856Y-114839218D01*
G75*
G02*
X124438856Y-113335060I752079J752079D01*
G01*
X124438856Y-113335060D01*
G75*
G02*
X125943014Y-113335060I752079J-752079D01*
G01*
G37*
G36*
G01*
X124146962Y-115131112D02*
X124362488Y-115346638D01*
G75*
G02*
X124362488Y-116850796I-752079J-752079D01*
G01*
X124362488Y-116850796D01*
G75*
G02*
X122858330Y-116850796I-752079J752079D01*
G01*
X122642804Y-116635270D01*
G75*
G02*
X122642804Y-115131112I752079J752079D01*
G01*
X122642804Y-115131112D01*
G75*
G02*
X124146962Y-115131112I752079J-752079D01*
G01*
G37*
%TD*%
%TO.C,P7*%
G36*
G01*
X85524501Y-83913342D02*
X86961342Y-82476501D01*
G75*
G02*
X87244184Y-82476501I141421J-141421D01*
G01*
X88465499Y-83697816D01*
G75*
G02*
X88465499Y-83980658I-141421J-141421D01*
G01*
X87028658Y-85417499D01*
G75*
G02*
X86745816Y-85417499I-141421J141421D01*
G01*
X85524501Y-84196184D01*
G75*
G02*
X85524501Y-83913342I141421J141421D01*
G01*
G37*
G36*
G01*
X87931209Y-85098735D02*
X88146735Y-84883209D01*
G75*
G02*
X89650893Y-84883209I752079J-752079D01*
G01*
X89650893Y-84883209D01*
G75*
G02*
X89650893Y-86387367I-752079J-752079D01*
G01*
X89435367Y-86602893D01*
G75*
G02*
X87931209Y-86602893I-752079J752079D01*
G01*
X87931209Y-86602893D01*
G75*
G02*
X87931209Y-85098735I752079J752079D01*
G01*
G37*
G36*
G01*
X89727260Y-86894786D02*
X89942786Y-86679260D01*
G75*
G02*
X91446944Y-86679260I752079J-752079D01*
G01*
X91446944Y-86679260D01*
G75*
G02*
X91446944Y-88183418I-752079J-752079D01*
G01*
X91231418Y-88398944D01*
G75*
G02*
X89727260Y-88398944I-752079J752079D01*
G01*
X89727260Y-88398944D01*
G75*
G02*
X89727260Y-86894786I752079J752079D01*
G01*
G37*
G36*
G01*
X91523312Y-88690838D02*
X91738838Y-88475312D01*
G75*
G02*
X93242996Y-88475312I752079J-752079D01*
G01*
X93242996Y-88475312D01*
G75*
G02*
X93242996Y-89979470I-752079J-752079D01*
G01*
X93027470Y-90194996D01*
G75*
G02*
X91523312Y-90194996I-752079J752079D01*
G01*
X91523312Y-90194996D01*
G75*
G02*
X91523312Y-88690838I752079J752079D01*
G01*
G37*
G36*
G01*
X93319363Y-90486889D02*
X93534889Y-90271363D01*
G75*
G02*
X95039047Y-90271363I752079J-752079D01*
G01*
X95039047Y-90271363D01*
G75*
G02*
X95039047Y-91775521I-752079J-752079D01*
G01*
X94823521Y-91991047D01*
G75*
G02*
X93319363Y-91991047I-752079J752079D01*
G01*
X93319363Y-91991047D01*
G75*
G02*
X93319363Y-90486889I752079J752079D01*
G01*
G37*
G36*
G01*
X95115414Y-92282940D02*
X95330940Y-92067414D01*
G75*
G02*
X96835098Y-92067414I752079J-752079D01*
G01*
X96835098Y-92067414D01*
G75*
G02*
X96835098Y-93571572I-752079J-752079D01*
G01*
X96619572Y-93787098D01*
G75*
G02*
X95115414Y-93787098I-752079J752079D01*
G01*
X95115414Y-93787098D01*
G75*
G02*
X95115414Y-92282940I752079J752079D01*
G01*
G37*
G36*
G01*
X96911465Y-94078991D02*
X97126991Y-93863465D01*
G75*
G02*
X98631149Y-93863465I752079J-752079D01*
G01*
X98631149Y-93863465D01*
G75*
G02*
X98631149Y-95367623I-752079J-752079D01*
G01*
X98415623Y-95583149D01*
G75*
G02*
X96911465Y-95583149I-752079J752079D01*
G01*
X96911465Y-95583149D01*
G75*
G02*
X96911465Y-94078991I752079J752079D01*
G01*
G37*
G36*
G01*
X98707517Y-95875043D02*
X98923043Y-95659517D01*
G75*
G02*
X100427201Y-95659517I752079J-752079D01*
G01*
X100427201Y-95659517D01*
G75*
G02*
X100427201Y-97163675I-752079J-752079D01*
G01*
X100211675Y-97379201D01*
G75*
G02*
X98707517Y-97379201I-752079J752079D01*
G01*
X98707517Y-97379201D01*
G75*
G02*
X98707517Y-95875043I752079J752079D01*
G01*
G37*
%TD*%
%TO.C,P4*%
G36*
G01*
X92075000Y-66810000D02*
X94107000Y-66810000D01*
G75*
G02*
X94307000Y-67010000I0J-200000D01*
G01*
X94307000Y-69042000D01*
G75*
G02*
X94107000Y-69242000I-200000J0D01*
G01*
X92075000Y-69242000D01*
G75*
G02*
X91875000Y-69042000I0J200000D01*
G01*
X91875000Y-67010000D01*
G75*
G02*
X92075000Y-66810000I200000J0D01*
G01*
G37*
D11*
X93091000Y-70566000D03*
%TD*%
%TO.C,P6*%
G36*
G01*
X116951000Y-82985000D02*
X118983000Y-82985000D01*
G75*
G02*
X119183000Y-83185000I0J-200000D01*
G01*
X119183000Y-85217000D01*
G75*
G02*
X118983000Y-85417000I-200000J0D01*
G01*
X116951000Y-85417000D01*
G75*
G02*
X116751000Y-85217000I0J200000D01*
G01*
X116751000Y-83185000D01*
G75*
G02*
X116951000Y-82985000I200000J0D01*
G01*
G37*
X117967000Y-86741000D03*
%TD*%
%TO.C,P5*%
G36*
G01*
X122174000Y-66683000D02*
X124206000Y-66683000D01*
G75*
G02*
X124406000Y-66883000I0J-200000D01*
G01*
X124406000Y-68915000D01*
G75*
G02*
X124206000Y-69115000I-200000J0D01*
G01*
X122174000Y-69115000D01*
G75*
G02*
X121974000Y-68915000I0J200000D01*
G01*
X121974000Y-66883000D01*
G75*
G02*
X122174000Y-66683000I200000J0D01*
G01*
G37*
X123190000Y-70439000D03*
%TD*%
%TO.C,C1*%
G36*
G01*
X122754400Y-102737000D02*
X122754400Y-101987000D01*
G75*
G02*
X122954400Y-101787000I200000J0D01*
G01*
X123754400Y-101787000D01*
G75*
G02*
X123954400Y-101987000I0J-200000D01*
G01*
X123954400Y-102737000D01*
G75*
G02*
X123754400Y-102937000I-200000J0D01*
G01*
X122954400Y-102937000D01*
G75*
G02*
X122754400Y-102737000I0J200000D01*
G01*
G37*
G36*
G01*
X124254400Y-102737000D02*
X124254400Y-101987000D01*
G75*
G02*
X124454400Y-101787000I200000J0D01*
G01*
X125254400Y-101787000D01*
G75*
G02*
X125454400Y-101987000I0J-200000D01*
G01*
X125454400Y-102737000D01*
G75*
G02*
X125254400Y-102937000I-200000J0D01*
G01*
X124454400Y-102937000D01*
G75*
G02*
X124254400Y-102737000I0J200000D01*
G01*
G37*
%TD*%
%TO.C,C2*%
G36*
G01*
X122754400Y-104311800D02*
X122754400Y-103561800D01*
G75*
G02*
X122954400Y-103361800I200000J0D01*
G01*
X123754400Y-103361800D01*
G75*
G02*
X123954400Y-103561800I0J-200000D01*
G01*
X123954400Y-104311800D01*
G75*
G02*
X123754400Y-104511800I-200000J0D01*
G01*
X122954400Y-104511800D01*
G75*
G02*
X122754400Y-104311800I0J200000D01*
G01*
G37*
G36*
G01*
X124254400Y-104311800D02*
X124254400Y-103561800D01*
G75*
G02*
X124454400Y-103361800I200000J0D01*
G01*
X125254400Y-103361800D01*
G75*
G02*
X125454400Y-103561800I0J-200000D01*
G01*
X125454400Y-104311800D01*
G75*
G02*
X125254400Y-104511800I-200000J0D01*
G01*
X124454400Y-104511800D01*
G75*
G02*
X124254400Y-104311800I0J200000D01*
G01*
G37*
%TD*%
%TO.C,C3*%
G36*
G01*
X122754400Y-105886600D02*
X122754400Y-105136600D01*
G75*
G02*
X122954400Y-104936600I200000J0D01*
G01*
X123754400Y-104936600D01*
G75*
G02*
X123954400Y-105136600I0J-200000D01*
G01*
X123954400Y-105886600D01*
G75*
G02*
X123754400Y-106086600I-200000J0D01*
G01*
X122954400Y-106086600D01*
G75*
G02*
X122754400Y-105886600I0J200000D01*
G01*
G37*
G36*
G01*
X124254400Y-105886600D02*
X124254400Y-105136600D01*
G75*
G02*
X124454400Y-104936600I200000J0D01*
G01*
X125254400Y-104936600D01*
G75*
G02*
X125454400Y-105136600I0J-200000D01*
G01*
X125454400Y-105886600D01*
G75*
G02*
X125254400Y-106086600I-200000J0D01*
G01*
X124454400Y-106086600D01*
G75*
G02*
X124254400Y-105886600I0J200000D01*
G01*
G37*
%TD*%
%TO.C,P1*%
G36*
G01*
X87853501Y-110248342D02*
X89290342Y-108811501D01*
G75*
G02*
X89573184Y-108811501I141421J-141421D01*
G01*
X90794499Y-110032816D01*
G75*
G02*
X90794499Y-110315658I-141421J-141421D01*
G01*
X89357658Y-111752499D01*
G75*
G02*
X89074816Y-111752499I-141421J141421D01*
G01*
X87853501Y-110531184D01*
G75*
G02*
X87853501Y-110248342I141421J141421D01*
G01*
G37*
G36*
G01*
X90260209Y-111433735D02*
X90475735Y-111218209D01*
G75*
G02*
X91979893Y-111218209I752079J-752079D01*
G01*
X91979893Y-111218209D01*
G75*
G02*
X91979893Y-112722367I-752079J-752079D01*
G01*
X91764367Y-112937893D01*
G75*
G02*
X90260209Y-112937893I-752079J752079D01*
G01*
X90260209Y-112937893D01*
G75*
G02*
X90260209Y-111433735I752079J752079D01*
G01*
G37*
G36*
G01*
X92056260Y-113229786D02*
X92271786Y-113014260D01*
G75*
G02*
X93775944Y-113014260I752079J-752079D01*
G01*
X93775944Y-113014260D01*
G75*
G02*
X93775944Y-114518418I-752079J-752079D01*
G01*
X93560418Y-114733944D01*
G75*
G02*
X92056260Y-114733944I-752079J752079D01*
G01*
X92056260Y-114733944D01*
G75*
G02*
X92056260Y-113229786I752079J752079D01*
G01*
G37*
G36*
G01*
X93852312Y-115025838D02*
X94067838Y-114810312D01*
G75*
G02*
X95571996Y-114810312I752079J-752079D01*
G01*
X95571996Y-114810312D01*
G75*
G02*
X95571996Y-116314470I-752079J-752079D01*
G01*
X95356470Y-116529996D01*
G75*
G02*
X93852312Y-116529996I-752079J752079D01*
G01*
X93852312Y-116529996D01*
G75*
G02*
X93852312Y-115025838I752079J752079D01*
G01*
G37*
%TD*%
%TO.C,R2*%
G36*
G01*
X122856000Y-97301400D02*
X122856000Y-96551400D01*
G75*
G02*
X123056000Y-96351400I200000J0D01*
G01*
X123856000Y-96351400D01*
G75*
G02*
X124056000Y-96551400I0J-200000D01*
G01*
X124056000Y-97301400D01*
G75*
G02*
X123856000Y-97501400I-200000J0D01*
G01*
X123056000Y-97501400D01*
G75*
G02*
X122856000Y-97301400I0J200000D01*
G01*
G37*
G36*
G01*
X124356000Y-97301400D02*
X124356000Y-96551400D01*
G75*
G02*
X124556000Y-96351400I200000J0D01*
G01*
X125356000Y-96351400D01*
G75*
G02*
X125556000Y-96551400I0J-200000D01*
G01*
X125556000Y-97301400D01*
G75*
G02*
X125356000Y-97501400I-200000J0D01*
G01*
X124556000Y-97501400D01*
G75*
G02*
X124356000Y-97301400I0J200000D01*
G01*
G37*
%TD*%
%TO.C,U2*%
G36*
G01*
X122880200Y-97788800D02*
X123530200Y-97788800D01*
G75*
G02*
X123730200Y-97988800I0J-200000D01*
G01*
X123730200Y-99048800D01*
G75*
G02*
X123530200Y-99248800I-200000J0D01*
G01*
X122880200Y-99248800D01*
G75*
G02*
X122680200Y-99048800I0J200000D01*
G01*
X122680200Y-97988800D01*
G75*
G02*
X122880200Y-97788800I200000J0D01*
G01*
G37*
G36*
G01*
X123830200Y-97788800D02*
X124480200Y-97788800D01*
G75*
G02*
X124680200Y-97988800I0J-200000D01*
G01*
X124680200Y-99048800D01*
G75*
G02*
X124480200Y-99248800I-200000J0D01*
G01*
X123830200Y-99248800D01*
G75*
G02*
X123630200Y-99048800I0J200000D01*
G01*
X123630200Y-97988800D01*
G75*
G02*
X123830200Y-97788800I200000J0D01*
G01*
G37*
G36*
G01*
X124780200Y-97788800D02*
X125430200Y-97788800D01*
G75*
G02*
X125630200Y-97988800I0J-200000D01*
G01*
X125630200Y-99048800D01*
G75*
G02*
X125430200Y-99248800I-200000J0D01*
G01*
X124780200Y-99248800D01*
G75*
G02*
X124580200Y-99048800I0J200000D01*
G01*
X124580200Y-97988800D01*
G75*
G02*
X124780200Y-97788800I200000J0D01*
G01*
G37*
G36*
G01*
X124780200Y-99988800D02*
X125430200Y-99988800D01*
G75*
G02*
X125630200Y-100188800I0J-200000D01*
G01*
X125630200Y-101248800D01*
G75*
G02*
X125430200Y-101448800I-200000J0D01*
G01*
X124780200Y-101448800D01*
G75*
G02*
X124580200Y-101248800I0J200000D01*
G01*
X124580200Y-100188800D01*
G75*
G02*
X124780200Y-99988800I200000J0D01*
G01*
G37*
G36*
G01*
X122880200Y-99988800D02*
X123530200Y-99988800D01*
G75*
G02*
X123730200Y-100188800I0J-200000D01*
G01*
X123730200Y-101248800D01*
G75*
G02*
X123530200Y-101448800I-200000J0D01*
G01*
X122880200Y-101448800D01*
G75*
G02*
X122680200Y-101248800I0J200000D01*
G01*
X122680200Y-100188800D01*
G75*
G02*
X122880200Y-99988800I200000J0D01*
G01*
G37*
%TD*%
%TO.C,C4*%
G36*
G01*
X119868000Y-100371000D02*
X117368000Y-100371000D01*
G75*
G02*
X117168000Y-100171000I0J200000D01*
G01*
X117168000Y-99171000D01*
G75*
G02*
X117368000Y-98971000I200000J0D01*
G01*
X119868000Y-98971000D01*
G75*
G02*
X120068000Y-99171000I0J-200000D01*
G01*
X120068000Y-100171000D01*
G75*
G02*
X119868000Y-100371000I-200000J0D01*
G01*
G37*
G36*
G01*
X119868000Y-97371000D02*
X117368000Y-97371000D01*
G75*
G02*
X117168000Y-97171000I0J200000D01*
G01*
X117168000Y-96171000D01*
G75*
G02*
X117368000Y-95971000I200000J0D01*
G01*
X119868000Y-95971000D01*
G75*
G02*
X120068000Y-96171000I0J-200000D01*
G01*
X120068000Y-97171000D01*
G75*
G02*
X119868000Y-97371000I-200000J0D01*
G01*
G37*
%TD*%
%TO.C,D1*%
G36*
G01*
X129606700Y-97485200D02*
X129606700Y-96266000D01*
G75*
G02*
X129806700Y-96066000I200000J0D01*
G01*
X130721100Y-96066000D01*
G75*
G02*
X130921100Y-96266000I0J-200000D01*
G01*
X130921100Y-97485200D01*
G75*
G02*
X130721100Y-97685200I-200000J0D01*
G01*
X129806700Y-97685200D01*
G75*
G02*
X129606700Y-97485200I0J200000D01*
G01*
G37*
G36*
G01*
X132883300Y-97485200D02*
X132883300Y-96266000D01*
G75*
G02*
X133083300Y-96066000I200000J0D01*
G01*
X133997700Y-96066000D01*
G75*
G02*
X134197700Y-96266000I0J-200000D01*
G01*
X134197700Y-97485200D01*
G75*
G02*
X133997700Y-97685200I-200000J0D01*
G01*
X133083300Y-97685200D01*
G75*
G02*
X132883300Y-97485200I0J200000D01*
G01*
G37*
%TD*%
%TO.C,SW3*%
G36*
G01*
X135591800Y-99089000D02*
X136391800Y-99089000D01*
G75*
G02*
X136591800Y-99289000I0J-200000D01*
G01*
X136591800Y-100289000D01*
G75*
G02*
X136391800Y-100489000I-200000J0D01*
G01*
X135591800Y-100489000D01*
G75*
G02*
X135391800Y-100289000I0J200000D01*
G01*
X135391800Y-99289000D01*
G75*
G02*
X135591800Y-99089000I200000J0D01*
G01*
G37*
G36*
G01*
X137521800Y-99089000D02*
X138321800Y-99089000D01*
G75*
G02*
X138521800Y-99289000I0J-200000D01*
G01*
X138521800Y-100289000D01*
G75*
G02*
X138321800Y-100489000I-200000J0D01*
G01*
X137521800Y-100489000D01*
G75*
G02*
X137321800Y-100289000I0J200000D01*
G01*
X137321800Y-99289000D01*
G75*
G02*
X137521800Y-99089000I200000J0D01*
G01*
G37*
G36*
G01*
X137521800Y-91789000D02*
X138321800Y-91789000D01*
G75*
G02*
X138521800Y-91989000I0J-200000D01*
G01*
X138521800Y-92989000D01*
G75*
G02*
X138321800Y-93189000I-200000J0D01*
G01*
X137521800Y-93189000D01*
G75*
G02*
X137321800Y-92989000I0J200000D01*
G01*
X137321800Y-91989000D01*
G75*
G02*
X137521800Y-91789000I200000J0D01*
G01*
G37*
D12*
X136956800Y-97639000D03*
G36*
G01*
X136156800Y-98039000D02*
X136156800Y-98739000D01*
G75*
G02*
X135956800Y-98939000I-200000J0D01*
G01*
X134456800Y-98939000D01*
G75*
G02*
X134256800Y-98739000I0J200000D01*
G01*
X134256800Y-98039000D01*
G75*
G02*
X134456800Y-97839000I200000J0D01*
G01*
X135956800Y-97839000D01*
G75*
G02*
X136156800Y-98039000I0J-200000D01*
G01*
G37*
G36*
G01*
X136156800Y-96539000D02*
X136156800Y-97239000D01*
G75*
G02*
X135956800Y-97439000I-200000J0D01*
G01*
X134456800Y-97439000D01*
G75*
G02*
X134256800Y-97239000I0J200000D01*
G01*
X134256800Y-96539000D01*
G75*
G02*
X134456800Y-96339000I200000J0D01*
G01*
X135956800Y-96339000D01*
G75*
G02*
X136156800Y-96539000I0J-200000D01*
G01*
G37*
G36*
G01*
X136156800Y-93539000D02*
X136156800Y-94239000D01*
G75*
G02*
X135956800Y-94439000I-200000J0D01*
G01*
X134456800Y-94439000D01*
G75*
G02*
X134256800Y-94239000I0J200000D01*
G01*
X134256800Y-93539000D01*
G75*
G02*
X134456800Y-93339000I200000J0D01*
G01*
X135956800Y-93339000D01*
G75*
G02*
X136156800Y-93539000I0J-200000D01*
G01*
G37*
X136956800Y-94639000D03*
G36*
G01*
X135591800Y-91789000D02*
X136391800Y-91789000D01*
G75*
G02*
X136591800Y-91989000I0J-200000D01*
G01*
X136591800Y-92989000D01*
G75*
G02*
X136391800Y-93189000I-200000J0D01*
G01*
X135591800Y-93189000D01*
G75*
G02*
X135391800Y-92989000I0J200000D01*
G01*
X135391800Y-91989000D01*
G75*
G02*
X135591800Y-91789000I200000J0D01*
G01*
G37*
%TD*%
%TO.C,IC2*%
G36*
G01*
X91774211Y-80906512D02*
X90975180Y-80107481D01*
G75*
G02*
X90975180Y-79824639I141421J141421D01*
G01*
X91774211Y-79025608D01*
G75*
G02*
X92057053Y-79025608I141421J-141421D01*
G01*
X92856084Y-79824639D01*
G75*
G02*
X92856084Y-80107481I-141421J-141421D01*
G01*
X92057053Y-80906512D01*
G75*
G02*
X91774211Y-80906512I-141421J141421D01*
G01*
G37*
D13*
X93711684Y-81762111D03*
X95507735Y-83558163D03*
X97303786Y-85354214D03*
X99099837Y-87150265D03*
X100895889Y-88946316D03*
X102691940Y-90742368D03*
X108306368Y-85127940D03*
X106510316Y-83331889D03*
X104714265Y-81535837D03*
X102918214Y-79739786D03*
X101122163Y-77943735D03*
X99326111Y-76147684D03*
X97530060Y-74351632D03*
%TD*%
D14*
%TO.C,J1*%
X113371000Y-64047000D03*
X110831000Y-64047000D03*
X108291000Y-64047000D03*
X105751000Y-64047000D03*
G36*
G01*
X104061000Y-65097000D02*
X102361000Y-65097000D01*
G75*
G02*
X102161000Y-64897000I0J200000D01*
G01*
X102161000Y-63197000D01*
G75*
G02*
X102361000Y-62997000I200000J0D01*
G01*
X104061000Y-62997000D01*
G75*
G02*
X104261000Y-63197000I0J-200000D01*
G01*
X104261000Y-64897000D01*
G75*
G02*
X104061000Y-65097000I-200000J0D01*
G01*
G37*
%TD*%
%TO.C,J2*%
G36*
G01*
X112511000Y-68597000D02*
X114211000Y-68597000D01*
G75*
G02*
X114411000Y-68797000I0J-200000D01*
G01*
X114411000Y-70497000D01*
G75*
G02*
X114211000Y-70697000I-200000J0D01*
G01*
X112511000Y-70697000D01*
G75*
G02*
X112311000Y-70497000I0J200000D01*
G01*
X112311000Y-68797000D01*
G75*
G02*
X112511000Y-68597000I200000J0D01*
G01*
G37*
X110821000Y-69647000D03*
X108281000Y-69647000D03*
X105741000Y-69647000D03*
X103201000Y-69647000D03*
%TD*%
M02*
