%TF.GenerationSoftware,KiCad,Pcbnew,(5.1.10)-1*%
%TF.CreationDate,2022-09-07T09:41:17-03:00*%
%TF.ProjectId,OpenBCI_Wifi_Shield,4f70656e-4243-4495-9f57-6966695f5368,v1.0.0*%
%TF.SameCoordinates,Original*%
%TF.FileFunction,Copper,L1,Top*%
%TF.FilePolarity,Positive*%
%FSLAX46Y46*%
G04 Gerber Fmt 4.6, Leading zero omitted, Abs format (unit mm)*
G04 Created by KiCad (PCBNEW (5.1.10)-1) date 2022-09-07 09:41:17*
%MOMM*%
%LPD*%
G01*
G04 APERTURE LIST*
%TA.AperFunction,SMDPad,CuDef*%
%ADD10R,0.800000X0.750000*%
%TD*%
%TA.AperFunction,SMDPad,CuDef*%
%ADD11R,1.600000X1.000000*%
%TD*%
%TA.AperFunction,SMDPad,CuDef*%
%ADD12R,2.500000X1.100000*%
%TD*%
%TA.AperFunction,SMDPad,CuDef*%
%ADD13O,2.500000X1.100000*%
%TD*%
%TA.AperFunction,SMDPad,CuDef*%
%ADD14O,1.100000X2.400000*%
%TD*%
%TA.AperFunction,SMDPad,CuDef*%
%ADD15R,1.050000X0.650000*%
%TD*%
%TA.AperFunction,ComponentPad*%
%ADD16C,0.100000*%
%TD*%
%TA.AperFunction,ComponentPad*%
%ADD17R,2.032000X1.727200*%
%TD*%
%TA.AperFunction,ComponentPad*%
%ADD18O,2.032000X1.727200*%
%TD*%
%TA.AperFunction,ComponentPad*%
%ADD19R,2.032000X2.032000*%
%TD*%
%TA.AperFunction,ComponentPad*%
%ADD20O,2.032000X2.032000*%
%TD*%
%TA.AperFunction,SMDPad,CuDef*%
%ADD21C,0.100000*%
%TD*%
%TA.AperFunction,SMDPad,CuDef*%
%ADD22R,0.797560X0.797560*%
%TD*%
%TA.AperFunction,SMDPad,CuDef*%
%ADD23R,1.528000X0.650000*%
%TD*%
%TA.AperFunction,ComponentPad*%
%ADD24C,1.130000*%
%TD*%
%TA.AperFunction,ComponentPad*%
%ADD25O,1.700000X1.700000*%
%TD*%
%TA.AperFunction,ComponentPad*%
%ADD26R,1.700000X1.700000*%
%TD*%
%TA.AperFunction,ViaPad*%
%ADD27C,0.600000*%
%TD*%
%TA.AperFunction,Conductor*%
%ADD28C,0.381000*%
%TD*%
%TA.AperFunction,Conductor*%
%ADD29C,0.250000*%
%TD*%
%TA.AperFunction,Conductor*%
%ADD30C,0.203200*%
%TD*%
%TA.AperFunction,Conductor*%
%ADD31C,0.254000*%
%TD*%
%TA.AperFunction,Conductor*%
%ADD32C,0.100000*%
%TD*%
G04 APERTURE END LIST*
D10*
%TO.P,R8,1*%
%TO.N,GND*%
X122897200Y-106680000D03*
%TO.P,R8,2*%
%TO.N,Net-(D4-Pad1)*%
X124397200Y-106680000D03*
%TD*%
D11*
%TO.P,SW4,3*%
%TO.N,/XVDD*%
X93449000Y-104432000D03*
%TO.P,SW4,2*%
%TO.N,+3V3*%
X91149000Y-106182000D03*
%TO.P,SW4,1*%
X93449000Y-107932000D03*
%TD*%
D12*
%TO.P,U1,1*%
%TO.N,/RESET*%
X118624000Y-113682000D03*
D13*
%TO.P,U1,2*%
%TO.N,Net-(U1-Pad2)*%
X118624000Y-111682000D03*
%TO.P,U1,3*%
%TO.N,Net-(R5-Pad2)*%
X118624000Y-109682000D03*
%TO.P,U1,4*%
%TO.N,Net-(U1-Pad4)*%
X118624000Y-107682000D03*
%TO.P,U1,5*%
%TO.N,SCLK*%
X118624000Y-105682000D03*
%TO.P,U1,6*%
%TO.N,MISO*%
X118624000Y-103682000D03*
%TO.P,U1,7*%
%TO.N,MOSI*%
X118624000Y-101682000D03*
%TO.P,U1,8*%
%TO.N,+3V3*%
X118624000Y-99682000D03*
%TO.P,U1,9*%
%TO.N,GND*%
X103224000Y-99682000D03*
%TO.P,U1,10*%
%TO.N,ESP_SS*%
X103324000Y-101682000D03*
%TO.P,U1,11*%
%TO.N,Net-(R7-Pad2)*%
X103224000Y-103682000D03*
%TO.P,U1,12*%
%TO.N,Net-(R4-Pad2)*%
X103224000Y-105682000D03*
%TO.P,U1,13*%
%TO.N,/C_C*%
X103224000Y-107682000D03*
%TO.P,U1,14*%
%TO.N,Net-(D2-Pad2)*%
X103224000Y-109682000D03*
%TO.P,U1,15*%
%TO.N,RXD*%
X103224000Y-111682000D03*
%TO.P,U1,16*%
%TO.N,TXD*%
X103224000Y-113682000D03*
D14*
%TO.P,U1,17*%
%TO.N,Net-(U1-Pad17)*%
X115934000Y-97932000D03*
%TO.P,U1,18*%
%TO.N,Net-(U1-Pad18)*%
X113934000Y-97932000D03*
%TO.P,U1,19*%
%TO.N,/C_A*%
X111934000Y-97932000D03*
%TO.P,U1,20*%
%TO.N,/C_B*%
X109934000Y-97932000D03*
%TO.P,U1,21*%
%TO.N,Net-(U1-Pad21)*%
X107934000Y-97932000D03*
%TO.P,U1,22*%
%TO.N,Net-(U1-Pad22)*%
X105934000Y-97932000D03*
%TD*%
D15*
%TO.P,SW2,1*%
%TO.N,Net-(R4-Pad2)*%
X83839200Y-104557600D03*
%TO.P,SW2,2*%
X87989200Y-104557600D03*
%TO.P,SW2,3*%
%TO.N,GND*%
X83839200Y-106707600D03*
%TO.P,SW2,4*%
X87989200Y-106707600D03*
%TD*%
%TA.AperFunction,ComponentPad*%
D16*
%TO.P,P8,1*%
%TO.N,/XVDD*%
G36*
X83786322Y-85883563D02*
G01*
X85223163Y-84446722D01*
X86444478Y-85668037D01*
X85007637Y-87104878D01*
X83786322Y-85883563D01*
G37*
%TD.AperFunction*%
%TO.P,P8,2*%
%TO.N,GND*%
%TA.AperFunction,ComponentPad*%
G36*
G01*
X86193031Y-87068957D02*
X86408557Y-86853431D01*
G75*
G02*
X87629871Y-86853431I610657J-610657D01*
G01*
X87629871Y-86853431D01*
G75*
G02*
X87629871Y-88074745I-610657J-610657D01*
G01*
X87414345Y-88290271D01*
G75*
G02*
X86193031Y-88290271I-610657J610657D01*
G01*
X86193031Y-88290271D01*
G75*
G02*
X86193031Y-87068957I610657J610657D01*
G01*
G37*
%TD.AperFunction*%
%TO.P,P8,3*%
%TO.N,MISO*%
%TA.AperFunction,ComponentPad*%
G36*
G01*
X87989082Y-88865008D02*
X88204608Y-88649482D01*
G75*
G02*
X89425922Y-88649482I610657J-610657D01*
G01*
X89425922Y-88649482D01*
G75*
G02*
X89425922Y-89870796I-610657J-610657D01*
G01*
X89210396Y-90086322D01*
G75*
G02*
X87989082Y-90086322I-610657J610657D01*
G01*
X87989082Y-90086322D01*
G75*
G02*
X87989082Y-88865008I610657J610657D01*
G01*
G37*
%TD.AperFunction*%
%TO.P,P8,4*%
%TO.N,SCLK*%
%TA.AperFunction,ComponentPad*%
G36*
G01*
X89785134Y-90661060D02*
X90000660Y-90445534D01*
G75*
G02*
X91221974Y-90445534I610657J-610657D01*
G01*
X91221974Y-90445534D01*
G75*
G02*
X91221974Y-91666848I-610657J-610657D01*
G01*
X91006448Y-91882374D01*
G75*
G02*
X89785134Y-91882374I-610657J610657D01*
G01*
X89785134Y-91882374D01*
G75*
G02*
X89785134Y-90661060I610657J610657D01*
G01*
G37*
%TD.AperFunction*%
%TO.P,P8,5*%
%TO.N,Net-(P8-Pad5)*%
%TA.AperFunction,ComponentPad*%
G36*
G01*
X91581185Y-92457111D02*
X91796711Y-92241585D01*
G75*
G02*
X93018025Y-92241585I610657J-610657D01*
G01*
X93018025Y-92241585D01*
G75*
G02*
X93018025Y-93462899I-610657J-610657D01*
G01*
X92802499Y-93678425D01*
G75*
G02*
X91581185Y-93678425I-610657J610657D01*
G01*
X91581185Y-93678425D01*
G75*
G02*
X91581185Y-92457111I610657J610657D01*
G01*
G37*
%TD.AperFunction*%
%TO.P,P8,6*%
%TO.N,Net-(P8-Pad6)*%
%TA.AperFunction,ComponentPad*%
G36*
G01*
X93377236Y-94253162D02*
X93592762Y-94037636D01*
G75*
G02*
X94814076Y-94037636I610657J-610657D01*
G01*
X94814076Y-94037636D01*
G75*
G02*
X94814076Y-95258950I-610657J-610657D01*
G01*
X94598550Y-95474476D01*
G75*
G02*
X93377236Y-95474476I-610657J610657D01*
G01*
X93377236Y-95474476D01*
G75*
G02*
X93377236Y-94253162I610657J610657D01*
G01*
G37*
%TD.AperFunction*%
%TO.P,P8,7*%
%TO.N,MOSI*%
%TA.AperFunction,ComponentPad*%
G36*
G01*
X95173287Y-96049213D02*
X95388813Y-95833687D01*
G75*
G02*
X96610127Y-95833687I610657J-610657D01*
G01*
X96610127Y-95833687D01*
G75*
G02*
X96610127Y-97055001I-610657J-610657D01*
G01*
X96394601Y-97270527D01*
G75*
G02*
X95173287Y-97270527I-610657J610657D01*
G01*
X95173287Y-97270527D01*
G75*
G02*
X95173287Y-96049213I610657J610657D01*
G01*
G37*
%TD.AperFunction*%
%TO.P,P8,8*%
%TO.N,Net-(P8-Pad8)*%
%TA.AperFunction,ComponentPad*%
G36*
G01*
X96969339Y-97845265D02*
X97184865Y-97629739D01*
G75*
G02*
X98406179Y-97629739I610657J-610657D01*
G01*
X98406179Y-97629739D01*
G75*
G02*
X98406179Y-98851053I-610657J-610657D01*
G01*
X98190653Y-99066579D01*
G75*
G02*
X96969339Y-99066579I-610657J610657D01*
G01*
X96969339Y-99066579D01*
G75*
G02*
X96969339Y-97845265I610657J610657D01*
G01*
G37*
%TD.AperFunction*%
%TD*%
D17*
%TO.P,P9,1*%
%TO.N,Net-(P9-Pad1)*%
X131098400Y-99618800D03*
D18*
%TO.P,P9,2*%
%TO.N,Net-(P9-Pad2)*%
X131098400Y-102158800D03*
%TO.P,P9,3*%
%TO.N,/RESET*%
X131098400Y-104698800D03*
%TO.P,P9,4*%
%TO.N,/OBCI_LED*%
X131098400Y-107238800D03*
%TD*%
%TA.AperFunction,ComponentPad*%
D16*
%TO.P,P10,1*%
%TO.N,ESP_SS*%
G36*
X128783037Y-109273722D02*
G01*
X130219878Y-110710563D01*
X128998563Y-111931878D01*
X127561722Y-110495037D01*
X128783037Y-109273722D01*
G37*
%TD.AperFunction*%
%TO.P,P10,2*%
%TO.N,Net-(P10-Pad2)*%
%TA.AperFunction,ComponentPad*%
G36*
G01*
X127597643Y-111680431D02*
X127813169Y-111895957D01*
G75*
G02*
X127813169Y-113117271I-610657J-610657D01*
G01*
X127813169Y-113117271D01*
G75*
G02*
X126591855Y-113117271I-610657J610657D01*
G01*
X126376329Y-112901745D01*
G75*
G02*
X126376329Y-111680431I610657J610657D01*
G01*
X126376329Y-111680431D01*
G75*
G02*
X127597643Y-111680431I610657J-610657D01*
G01*
G37*
%TD.AperFunction*%
%TO.P,P10,3*%
%TO.N,/XVDD*%
%TA.AperFunction,ComponentPad*%
G36*
G01*
X125801592Y-113476482D02*
X126017118Y-113692008D01*
G75*
G02*
X126017118Y-114913322I-610657J-610657D01*
G01*
X126017118Y-114913322D01*
G75*
G02*
X124795804Y-114913322I-610657J610657D01*
G01*
X124580278Y-114697796D01*
G75*
G02*
X124580278Y-113476482I610657J610657D01*
G01*
X124580278Y-113476482D01*
G75*
G02*
X125801592Y-113476482I610657J-610657D01*
G01*
G37*
%TD.AperFunction*%
%TO.P,P10,4*%
%TO.N,GND*%
%TA.AperFunction,ComponentPad*%
G36*
G01*
X124005540Y-115272534D02*
X124221066Y-115488060D01*
G75*
G02*
X124221066Y-116709374I-610657J-610657D01*
G01*
X124221066Y-116709374D01*
G75*
G02*
X122999752Y-116709374I-610657J610657D01*
G01*
X122784226Y-116493848D01*
G75*
G02*
X122784226Y-115272534I610657J610657D01*
G01*
X122784226Y-115272534D01*
G75*
G02*
X124005540Y-115272534I610657J-610657D01*
G01*
G37*
%TD.AperFunction*%
%TD*%
%TA.AperFunction,ComponentPad*%
%TO.P,P7,1*%
%TO.N,Net-(P7-Pad1)*%
G36*
X85665922Y-84054763D02*
G01*
X87102763Y-82617922D01*
X88324078Y-83839237D01*
X86887237Y-85276078D01*
X85665922Y-84054763D01*
G37*
%TD.AperFunction*%
%TO.P,P7,2*%
%TO.N,Net-(P7-Pad2)*%
%TA.AperFunction,ComponentPad*%
G36*
G01*
X88072631Y-85240157D02*
X88288157Y-85024631D01*
G75*
G02*
X89509471Y-85024631I610657J-610657D01*
G01*
X89509471Y-85024631D01*
G75*
G02*
X89509471Y-86245945I-610657J-610657D01*
G01*
X89293945Y-86461471D01*
G75*
G02*
X88072631Y-86461471I-610657J610657D01*
G01*
X88072631Y-86461471D01*
G75*
G02*
X88072631Y-85240157I610657J610657D01*
G01*
G37*
%TD.AperFunction*%
%TO.P,P7,3*%
%TO.N,Net-(P7-Pad3)*%
%TA.AperFunction,ComponentPad*%
G36*
G01*
X89868682Y-87036208D02*
X90084208Y-86820682D01*
G75*
G02*
X91305522Y-86820682I610657J-610657D01*
G01*
X91305522Y-86820682D01*
G75*
G02*
X91305522Y-88041996I-610657J-610657D01*
G01*
X91089996Y-88257522D01*
G75*
G02*
X89868682Y-88257522I-610657J610657D01*
G01*
X89868682Y-88257522D01*
G75*
G02*
X89868682Y-87036208I610657J610657D01*
G01*
G37*
%TD.AperFunction*%
%TO.P,P7,4*%
%TO.N,Net-(P7-Pad4)*%
%TA.AperFunction,ComponentPad*%
G36*
G01*
X91664734Y-88832260D02*
X91880260Y-88616734D01*
G75*
G02*
X93101574Y-88616734I610657J-610657D01*
G01*
X93101574Y-88616734D01*
G75*
G02*
X93101574Y-89838048I-610657J-610657D01*
G01*
X92886048Y-90053574D01*
G75*
G02*
X91664734Y-90053574I-610657J610657D01*
G01*
X91664734Y-90053574D01*
G75*
G02*
X91664734Y-88832260I610657J610657D01*
G01*
G37*
%TD.AperFunction*%
%TO.P,P7,5*%
%TO.N,Net-(P7-Pad5)*%
%TA.AperFunction,ComponentPad*%
G36*
G01*
X93460785Y-90628311D02*
X93676311Y-90412785D01*
G75*
G02*
X94897625Y-90412785I610657J-610657D01*
G01*
X94897625Y-90412785D01*
G75*
G02*
X94897625Y-91634099I-610657J-610657D01*
G01*
X94682099Y-91849625D01*
G75*
G02*
X93460785Y-91849625I-610657J610657D01*
G01*
X93460785Y-91849625D01*
G75*
G02*
X93460785Y-90628311I610657J610657D01*
G01*
G37*
%TD.AperFunction*%
%TO.P,P7,6*%
%TO.N,Net-(P7-Pad6)*%
%TA.AperFunction,ComponentPad*%
G36*
G01*
X95256836Y-92424362D02*
X95472362Y-92208836D01*
G75*
G02*
X96693676Y-92208836I610657J-610657D01*
G01*
X96693676Y-92208836D01*
G75*
G02*
X96693676Y-93430150I-610657J-610657D01*
G01*
X96478150Y-93645676D01*
G75*
G02*
X95256836Y-93645676I-610657J610657D01*
G01*
X95256836Y-93645676D01*
G75*
G02*
X95256836Y-92424362I610657J610657D01*
G01*
G37*
%TD.AperFunction*%
%TO.P,P7,7*%
%TO.N,Net-(P7-Pad7)*%
%TA.AperFunction,ComponentPad*%
G36*
G01*
X97052887Y-94220413D02*
X97268413Y-94004887D01*
G75*
G02*
X98489727Y-94004887I610657J-610657D01*
G01*
X98489727Y-94004887D01*
G75*
G02*
X98489727Y-95226201I-610657J-610657D01*
G01*
X98274201Y-95441727D01*
G75*
G02*
X97052887Y-95441727I-610657J610657D01*
G01*
X97052887Y-95441727D01*
G75*
G02*
X97052887Y-94220413I610657J610657D01*
G01*
G37*
%TD.AperFunction*%
%TO.P,P7,8*%
%TO.N,Net-(P7-Pad8)*%
%TA.AperFunction,ComponentPad*%
G36*
G01*
X98848939Y-96016465D02*
X99064465Y-95800939D01*
G75*
G02*
X100285779Y-95800939I610657J-610657D01*
G01*
X100285779Y-95800939D01*
G75*
G02*
X100285779Y-97022253I-610657J-610657D01*
G01*
X100070253Y-97237779D01*
G75*
G02*
X98848939Y-97237779I-610657J610657D01*
G01*
X98848939Y-97237779D01*
G75*
G02*
X98848939Y-96016465I610657J610657D01*
G01*
G37*
%TD.AperFunction*%
%TD*%
D19*
%TO.P,P4,1*%
%TO.N,Net-(P4-Pad1)*%
X93091000Y-68026000D03*
D20*
%TO.P,P4,2*%
%TO.N,Net-(P4-Pad2)*%
X93091000Y-70566000D03*
%TD*%
D19*
%TO.P,P6,1*%
%TO.N,Net-(P6-Pad1)*%
X117967000Y-84201000D03*
D20*
%TO.P,P6,2*%
%TO.N,Net-(P6-Pad2)*%
X117967000Y-86741000D03*
%TD*%
D19*
%TO.P,P5,1*%
%TO.N,Net-(P5-Pad1)*%
X123190000Y-67899000D03*
D20*
%TO.P,P5,2*%
%TO.N,Net-(P5-Pad2)*%
X123190000Y-70439000D03*
%TD*%
%TA.AperFunction,ComponentPad*%
D16*
%TO.P,P1,1*%
%TO.N,+3V3*%
G36*
X87994922Y-110389763D02*
G01*
X89431763Y-108952922D01*
X90653078Y-110174237D01*
X89216237Y-111611078D01*
X87994922Y-110389763D01*
G37*
%TD.AperFunction*%
%TO.P,P1,2*%
%TO.N,GND*%
%TA.AperFunction,ComponentPad*%
G36*
G01*
X90401631Y-111575157D02*
X90617157Y-111359631D01*
G75*
G02*
X91838471Y-111359631I610657J-610657D01*
G01*
X91838471Y-111359631D01*
G75*
G02*
X91838471Y-112580945I-610657J-610657D01*
G01*
X91622945Y-112796471D01*
G75*
G02*
X90401631Y-112796471I-610657J610657D01*
G01*
X90401631Y-112796471D01*
G75*
G02*
X90401631Y-111575157I610657J610657D01*
G01*
G37*
%TD.AperFunction*%
%TO.P,P1,3*%
%TO.N,RXD*%
%TA.AperFunction,ComponentPad*%
G36*
G01*
X92197682Y-113371208D02*
X92413208Y-113155682D01*
G75*
G02*
X93634522Y-113155682I610657J-610657D01*
G01*
X93634522Y-113155682D01*
G75*
G02*
X93634522Y-114376996I-610657J-610657D01*
G01*
X93418996Y-114592522D01*
G75*
G02*
X92197682Y-114592522I-610657J610657D01*
G01*
X92197682Y-114592522D01*
G75*
G02*
X92197682Y-113371208I610657J610657D01*
G01*
G37*
%TD.AperFunction*%
%TO.P,P1,4*%
%TO.N,TXD*%
%TA.AperFunction,ComponentPad*%
G36*
G01*
X93993734Y-115167260D02*
X94209260Y-114951734D01*
G75*
G02*
X95430574Y-114951734I610657J-610657D01*
G01*
X95430574Y-114951734D01*
G75*
G02*
X95430574Y-116173048I-610657J-610657D01*
G01*
X95215048Y-116388574D01*
G75*
G02*
X93993734Y-116388574I-610657J610657D01*
G01*
X93993734Y-116388574D01*
G75*
G02*
X93993734Y-115167260I610657J610657D01*
G01*
G37*
%TD.AperFunction*%
%TD*%
D10*
%TO.P,R1,1*%
%TO.N,+3V3*%
X82588800Y-92456000D03*
%TO.P,R1,2*%
%TO.N,/RESET*%
X81088800Y-92456000D03*
%TD*%
%TO.P,R3,1*%
%TO.N,GND*%
X94068200Y-109664500D03*
%TO.P,R3,2*%
%TO.N,Net-(D2-Pad1)*%
X95568200Y-109664500D03*
%TD*%
%TO.P,R4,1*%
%TO.N,Net-(D3-Pad1)*%
X85992400Y-101752400D03*
%TO.P,R4,2*%
%TO.N,Net-(R4-Pad2)*%
X84492400Y-101752400D03*
%TD*%
D15*
%TO.P,SW1,1*%
%TO.N,GND*%
X85210500Y-96013500D03*
%TO.P,SW1,2*%
X81060500Y-96013500D03*
%TO.P,SW1,3*%
%TO.N,/RESET*%
X85210500Y-93863500D03*
%TO.P,SW1,4*%
X81060500Y-93863500D03*
%TD*%
D10*
%TO.P,R5,1*%
%TO.N,+3V3*%
X124397200Y-108254800D03*
%TO.P,R5,2*%
%TO.N,Net-(R5-Pad2)*%
X122897200Y-108254800D03*
%TD*%
%TO.P,R6,1*%
%TO.N,ESP_SS*%
X124374000Y-109882000D03*
%TO.P,R6,2*%
%TO.N,GND*%
X122874000Y-109882000D03*
%TD*%
%TO.P,R7,1*%
%TO.N,+3V3*%
X84492400Y-98501200D03*
%TO.P,R7,2*%
%TO.N,Net-(R7-Pad2)*%
X85992400Y-98501200D03*
%TD*%
%TA.AperFunction,SMDPad,CuDef*%
D21*
%TO.P,P2,2*%
%TO.N,GND*%
G36*
X130176633Y-92686645D02*
G01*
X126994652Y-95868626D01*
X126287545Y-95161519D01*
X129469526Y-91979538D01*
X130176633Y-92686645D01*
G37*
%TD.AperFunction*%
%TA.AperFunction,SMDPad,CuDef*%
%TO.P,P2,1*%
%TO.N,+BATT*%
G36*
X131590847Y-94100858D02*
G01*
X128408866Y-97282839D01*
X127701759Y-96575732D01*
X130883740Y-93393751D01*
X131590847Y-94100858D01*
G37*
%TD.AperFunction*%
%TA.AperFunction,SMDPad,CuDef*%
%TO.P,P2,4*%
%TO.N,GND*%
G36*
X132651507Y-87383344D02*
G01*
X130247344Y-89787507D01*
X129045263Y-88585426D01*
X131449426Y-86181263D01*
X132651507Y-87383344D01*
G37*
%TD.AperFunction*%
%TA.AperFunction,SMDPad,CuDef*%
%TO.P,P2,3*%
G36*
X137389122Y-92120959D02*
G01*
X134984959Y-94525122D01*
X133782878Y-93323041D01*
X136187041Y-90918878D01*
X137389122Y-92120959D01*
G37*
%TD.AperFunction*%
%TD*%
D22*
%TO.P,D2,2*%
%TO.N,Net-(D2-Pad2)*%
X98602800Y-109664500D03*
%TO.P,D2,1*%
%TO.N,Net-(D2-Pad1)*%
X97104200Y-109664500D03*
%TD*%
%TO.P,D3,2*%
%TO.N,+3V3*%
X84493100Y-100126800D03*
%TO.P,D3,1*%
%TO.N,Net-(D3-Pad1)*%
X85991700Y-100126800D03*
%TD*%
%TO.P,D4,2*%
%TO.N,/OBCI_LED*%
X124447300Y-105130600D03*
%TO.P,D4,1*%
%TO.N,Net-(D4-Pad1)*%
X122948700Y-105130600D03*
%TD*%
D23*
%TO.P,IC1,1*%
%TO.N,/I1*%
X112900000Y-75242000D03*
%TO.P,IC1,2*%
%TO.N,/I2*%
X112900000Y-76512000D03*
%TO.P,IC1,3*%
%TO.N,/A_OUT*%
X112900000Y-77782000D03*
%TO.P,IC1,4*%
%TO.N,/6V*%
X112900000Y-79052000D03*
%TO.P,IC1,5*%
%TO.N,/B_OUT*%
X118322000Y-79052000D03*
%TO.P,IC1,6*%
%TO.N,Net-(IC1-Pad6)*%
X118322000Y-77782000D03*
%TO.P,IC1,7*%
%TO.N,/6V*%
X118322000Y-76512000D03*
%TO.P,IC1,8*%
X118322000Y-75242000D03*
%TD*%
%TA.AperFunction,ComponentPad*%
D16*
%TO.P,IC2,1*%
%TO.N,/I1*%
G36*
X91915632Y-80765091D02*
G01*
X91116601Y-79966060D01*
X91915632Y-79167029D01*
X92714663Y-79966060D01*
X91915632Y-80765091D01*
G37*
%TD.AperFunction*%
D24*
%TO.P,IC2,2*%
%TO.N,/A_OUT*%
X93711684Y-81762111D03*
%TO.P,IC2,3*%
%TO.N,/I2*%
X95507735Y-83558163D03*
%TO.P,IC2,4*%
%TO.N,/B_OUT*%
X97303786Y-85354214D03*
%TO.P,IC2,5*%
%TO.N,/C_B*%
X99099837Y-87150265D03*
%TO.P,IC2,6*%
%TO.N,/C_C*%
X100895889Y-88946316D03*
%TO.P,IC2,7*%
%TO.N,GND*%
X102691940Y-90742368D03*
%TO.P,IC2,8*%
%TO.N,/B_OUT*%
X108306368Y-85127940D03*
%TO.P,IC2,9*%
%TO.N,/I1*%
X106510316Y-83331889D03*
%TO.P,IC2,10*%
%TO.N,Net-(IC2-Pad10)*%
X104714265Y-81535837D03*
%TO.P,IC2,11*%
%TO.N,Net-(IC2-Pad11)*%
X102918214Y-79739786D03*
%TO.P,IC2,12*%
%TO.N,Net-(IC2-Pad12)*%
X101122163Y-77943735D03*
%TO.P,IC2,13*%
%TO.N,/C_A*%
X99326111Y-76147684D03*
%TO.P,IC2,14*%
%TO.N,/6V*%
X97530060Y-74351632D03*
%TD*%
D25*
%TO.P,J1,5*%
%TO.N,GND*%
X113371000Y-64047000D03*
%TO.P,J1,4*%
X110831000Y-64047000D03*
%TO.P,J1,3*%
X108291000Y-64047000D03*
%TO.P,J1,2*%
X105751000Y-64047000D03*
D26*
%TO.P,J1,1*%
%TO.N,/A_OUT*%
X103211000Y-64047000D03*
%TD*%
%TO.P,J2,1*%
%TO.N,GND*%
X113361000Y-69647000D03*
D25*
%TO.P,J2,2*%
%TO.N,/A_OUT*%
X110821000Y-69647000D03*
%TO.P,J2,3*%
X108281000Y-69647000D03*
%TO.P,J2,4*%
X105741000Y-69647000D03*
%TO.P,J2,5*%
X103201000Y-69647000D03*
%TD*%
D27*
%TO.N,/6V*%
X124711000Y-81547000D03*
%TO.N,/C_B*%
X110011000Y-91247000D03*
%TO.N,/6V*%
X112711000Y-80747000D03*
X120411000Y-74047000D03*
%TO.N,/I1*%
X116511000Y-73147000D03*
%TO.N,/I2*%
X110211000Y-74447000D03*
%TO.N,/C_A*%
X112111000Y-91147000D03*
%TO.N,+3V3*%
X120786000Y-99647000D03*
X123199000Y-99632000D03*
X116395500Y-99695000D03*
%TO.N,GND*%
X121461000Y-108947000D03*
X132636000Y-86197000D03*
X132161000Y-92647000D03*
X121259600Y-106680000D03*
X83312000Y-96012000D03*
X94074000Y-110982000D03*
X101249000Y-99757000D03*
X103899000Y-98482000D03*
X105199000Y-99682000D03*
X86124000Y-106707000D03*
%TO.N,+BATT*%
X127685800Y-97967800D03*
%TO.N,MISO*%
X114699000Y-102407000D03*
%TO.N,SCLK*%
X116324000Y-105157000D03*
%TO.N,MOSI*%
X116549000Y-101657000D03*
%TO.N,ESP_SS*%
X105174000Y-103232000D03*
X115949000Y-105882000D03*
X116814600Y-111912400D03*
X125552200Y-109855000D03*
%TO.N,Net-(R4-Pad2)*%
X105199000Y-105657000D03*
X87699000Y-95907000D03*
%TO.N,/6V*%
X123444000Y-95758000D03*
X127508000Y-92735400D03*
%TO.N,Net-(R7-Pad2)*%
X105199000Y-104807000D03*
X86674000Y-93907000D03*
%TO.N,/XVDD*%
X86614000Y-90576400D03*
X116024000Y-106957000D03*
X116024000Y-112657000D03*
X93424000Y-99632000D03*
%TO.N,/RESET*%
X120954800Y-111099600D03*
X120999000Y-113357000D03*
X115999000Y-113532000D03*
X85774000Y-94882000D03*
X115224000Y-107232000D03*
%TO.N,/I1*%
X113111000Y-73347000D03*
%TD*%
D28*
%TO.N,+3V3*%
X116395500Y-99695000D02*
X116408500Y-99682000D01*
X116408500Y-99682000D02*
X117924000Y-99682000D01*
X89974000Y-109632000D02*
X89324000Y-110282000D01*
D29*
%TO.N,GND*%
X122874000Y-109882000D02*
X122396000Y-109882000D01*
X122396000Y-109882000D02*
X121461000Y-108947000D01*
D28*
X130848385Y-87984385D02*
X130848385Y-91307786D01*
X130848385Y-91307786D02*
X128232089Y-93924082D01*
X130848385Y-87984385D02*
X135586000Y-92722000D01*
X130848385Y-87984385D02*
X132635770Y-86197000D01*
X132635770Y-86197000D02*
X132636000Y-86197000D01*
X128232089Y-93924082D02*
X129509171Y-92647000D01*
X129509171Y-92647000D02*
X132161000Y-92647000D01*
D29*
X122897200Y-106680000D02*
X121259600Y-106680000D01*
X81060500Y-96013500D02*
X83310500Y-96013500D01*
X83313500Y-96013500D02*
X83312000Y-96012000D01*
X83313500Y-96013500D02*
X85210500Y-96013500D01*
X83310500Y-96013500D02*
X83312000Y-96012000D01*
D28*
X86911451Y-87571851D02*
X86824549Y-87571851D01*
X94068200Y-109664500D02*
X94068200Y-110976200D01*
X94068200Y-110976200D02*
X94074000Y-110982000D01*
X103924000Y-99682000D02*
X101324000Y-99682000D01*
X101324000Y-99682000D02*
X101249000Y-99757000D01*
X103924000Y-99682000D02*
X103924000Y-98507000D01*
X103924000Y-98507000D02*
X103899000Y-98482000D01*
X103924000Y-99682000D02*
X105199000Y-99682000D01*
X83839200Y-106707600D02*
X86123400Y-106707600D01*
X86124600Y-106707600D02*
X86124000Y-106707000D01*
X86124600Y-106707600D02*
X87989200Y-106707600D01*
X86123400Y-106707600D02*
X86124000Y-106707000D01*
X103924000Y-99682000D02*
X103987200Y-99618800D01*
X113361000Y-64057000D02*
X113371000Y-64047000D01*
X113361000Y-69647000D02*
X113361000Y-64057000D01*
X105751000Y-64047000D02*
X108291000Y-64047000D01*
X110831000Y-64047000D02*
X108291000Y-64047000D01*
X110831000Y-64047000D02*
X113371000Y-64047000D01*
X113361000Y-69647000D02*
X117911000Y-69647000D01*
X117911000Y-69647000D02*
X123311000Y-75047000D01*
X123311000Y-75047000D02*
X123311000Y-86747000D01*
X123311000Y-86747000D02*
X120211000Y-89847000D01*
X103587308Y-89847000D02*
X102691940Y-90742368D01*
X120211000Y-89847000D02*
X103587308Y-89847000D01*
X102691940Y-97274940D02*
X103899000Y-98482000D01*
X102691940Y-90742368D02*
X102691940Y-97274940D01*
%TO.N,+BATT*%
X129646303Y-95338295D02*
X129646303Y-95346897D01*
X129646303Y-95346897D02*
X127685800Y-97307400D01*
X127685800Y-97307400D02*
X127685800Y-97967800D01*
D29*
%TO.N,Net-(D2-Pad1)*%
X97103500Y-109664500D02*
X95568200Y-109664500D01*
%TO.N,Net-(D2-Pad2)*%
X98603500Y-109664500D02*
X103906500Y-109664500D01*
X103906500Y-109664500D02*
X103924000Y-109682000D01*
D30*
X103868400Y-109626400D02*
X103924000Y-109682000D01*
D29*
%TO.N,RXD*%
X103924000Y-111682000D02*
X101725200Y-111682000D01*
X99263200Y-110845600D02*
X95300800Y-110845600D01*
X95300800Y-110845600D02*
X94132400Y-112014000D01*
X94132400Y-112014000D02*
X94132400Y-112657804D01*
X94132400Y-112657804D02*
X92916102Y-113874102D01*
X100888800Y-110845600D02*
X99263200Y-110845600D01*
X101725200Y-111682000D02*
X100888800Y-110845600D01*
%TO.N,TXD*%
X100717755Y-111375755D02*
X96040645Y-111375755D01*
D30*
X103024000Y-113682000D02*
X100717755Y-111375755D01*
D29*
X95758000Y-114624308D02*
X94712154Y-115670154D01*
X95758000Y-113995200D02*
X95758000Y-114624308D01*
X95148400Y-113385600D02*
X95758000Y-113995200D01*
X95148400Y-112268000D02*
X95148400Y-113385600D01*
X96040645Y-111375755D02*
X95148400Y-112268000D01*
X103924000Y-113682000D02*
X103024000Y-113682000D01*
X94774000Y-115608308D02*
X94712154Y-115670154D01*
D30*
X103924000Y-113682000D02*
X102887000Y-113682000D01*
D29*
%TO.N,MISO*%
X117924000Y-103682000D02*
X115974000Y-103682000D01*
X115974000Y-103682000D02*
X114699000Y-102407000D01*
%TO.N,SCLK*%
X117924000Y-105682000D02*
X116849000Y-105682000D01*
X116849000Y-105682000D02*
X116324000Y-105157000D01*
%TO.N,MOSI*%
X117924000Y-101682000D02*
X116574000Y-101682000D01*
X116574000Y-101682000D02*
X116549000Y-101657000D01*
D30*
X95891707Y-96552107D02*
X95853893Y-96552107D01*
D29*
%TO.N,ESP_SS*%
X105174000Y-102932000D02*
X103924000Y-101682000D01*
X105174000Y-103232000D02*
X105174000Y-102932000D01*
X116814600Y-106747600D02*
X115949000Y-105882000D01*
X116814600Y-111912400D02*
X116814600Y-106747600D01*
X125552200Y-109855000D02*
X125525200Y-109882000D01*
X125525200Y-109882000D02*
X124374000Y-109882000D01*
X104324000Y-101682000D02*
X103924000Y-101682000D01*
D30*
X104124000Y-101882000D02*
X103924000Y-101682000D01*
D29*
%TO.N,Net-(R4-Pad2)*%
X103924000Y-105682000D02*
X105174000Y-105682000D01*
X105174000Y-105682000D02*
X105199000Y-105657000D01*
X87699000Y-95907000D02*
X87149000Y-96457000D01*
X87149000Y-96457000D02*
X87149000Y-102632000D01*
X87149000Y-102632000D02*
X86899000Y-102882000D01*
X86899000Y-102882000D02*
X84492400Y-102882000D01*
X83839200Y-104557600D02*
X87989200Y-104557600D01*
X84492400Y-101752400D02*
X84492400Y-102882000D01*
X84492400Y-102882000D02*
X84492400Y-103904400D01*
X84492400Y-103904400D02*
X83839200Y-104557600D01*
D30*
X103924000Y-105682000D02*
X102661500Y-105682000D01*
D28*
%TO.N,/6V*%
X123444000Y-94564200D02*
X123444000Y-95758000D01*
X125272800Y-92735400D02*
X123444000Y-94564200D01*
X127508000Y-92735400D02*
X125272800Y-92735400D01*
D29*
%TO.N,Net-(D3-Pad1)*%
X85992400Y-100126800D02*
X85992400Y-101752400D01*
%TO.N,Net-(R5-Pad2)*%
X122897200Y-108254800D02*
X121153200Y-108254800D01*
X121153200Y-108254800D02*
X119726000Y-109682000D01*
X119726000Y-109682000D02*
X117924000Y-109682000D01*
%TO.N,Net-(R7-Pad2)*%
X103924000Y-103682000D02*
X104074000Y-103682000D01*
X104074000Y-103682000D02*
X105199000Y-104807000D01*
X86674000Y-93907000D02*
X86649000Y-93932000D01*
X86649000Y-93932000D02*
X86649000Y-96407000D01*
X86649000Y-96407000D02*
X85992400Y-97063600D01*
X85992400Y-97063600D02*
X85992400Y-98501200D01*
D28*
%TO.N,/XVDD*%
X84201000Y-86690200D02*
X85115400Y-85775800D01*
X84201000Y-88163400D02*
X84201000Y-86690200D01*
X86614000Y-90576400D02*
X84201000Y-88163400D01*
X116024000Y-112657000D02*
X116024000Y-106957000D01*
X93424000Y-99632000D02*
X93449000Y-99632000D01*
X93449000Y-99632000D02*
X93424000Y-99632000D01*
X93424000Y-99632000D02*
X93449000Y-99632000D01*
X93449000Y-104432000D02*
X93449000Y-99632000D01*
D29*
%TO.N,/OBCI_LED*%
X131098400Y-107238800D02*
X129819400Y-107238800D01*
X127685800Y-105105200D02*
X124397200Y-105105200D01*
X129819400Y-107238800D02*
X127685800Y-105105200D01*
%TO.N,/RESET*%
X120999000Y-111143800D02*
X120999000Y-113357000D01*
X120954800Y-111099600D02*
X120999000Y-111143800D01*
X115999000Y-113532000D02*
X115949000Y-113532000D01*
X120674000Y-113682000D02*
X120999000Y-113357000D01*
X117924000Y-113682000D02*
X120674000Y-113682000D01*
X85210500Y-94318500D02*
X85210500Y-93863500D01*
X85774000Y-94882000D02*
X85210500Y-94318500D01*
X115224000Y-112807000D02*
X115224000Y-107232000D01*
X115949000Y-113532000D02*
X115224000Y-112807000D01*
X81060500Y-93863500D02*
X85210500Y-93863500D01*
X81088800Y-92456000D02*
X81088800Y-93835200D01*
X81088800Y-93835200D02*
X81060500Y-93863500D01*
%TO.N,Net-(D4-Pad1)*%
X122897200Y-105105200D02*
X122897200Y-105180000D01*
X122897200Y-105180000D02*
X124397200Y-106680000D01*
D28*
%TO.N,/I1*%
X91915632Y-79966060D02*
X97630060Y-79966060D01*
X100995889Y-83331889D02*
X106510316Y-83331889D01*
X97630060Y-79966060D02*
X100995889Y-83331889D01*
X106510316Y-83331889D02*
X111626111Y-83331889D01*
X111626111Y-83331889D02*
X116511000Y-78447000D01*
X116511000Y-78447000D02*
X116511000Y-73147000D01*
X112900000Y-73558000D02*
X113111000Y-73347000D01*
X112900000Y-75242000D02*
X112900000Y-73558000D01*
%TO.N,/I2*%
X112276000Y-76512000D02*
X112900000Y-76512000D01*
X110211000Y-74447000D02*
X112276000Y-76512000D01*
%TO.N,/A_OUT*%
X103201000Y-64057000D02*
X103211000Y-64047000D01*
X103201000Y-69647000D02*
X103201000Y-64057000D01*
X103201000Y-69647000D02*
X105741000Y-69647000D01*
X105741000Y-69647000D02*
X108281000Y-69647000D01*
X110821000Y-69647000D02*
X108281000Y-69647000D01*
X110821000Y-69647000D02*
X115711000Y-74537000D01*
X115711000Y-74537000D02*
X115711000Y-76847000D01*
X114776000Y-77782000D02*
X112900000Y-77782000D01*
X115711000Y-76847000D02*
X114776000Y-77782000D01*
%TO.N,/6V*%
X97530060Y-74351632D02*
X106815632Y-74351632D01*
X111516000Y-79052000D02*
X112900000Y-79052000D01*
X106815632Y-74351632D02*
X111516000Y-79052000D01*
X118322000Y-76512000D02*
X118322000Y-75242000D01*
X112900000Y-80558000D02*
X112711000Y-80747000D01*
X112900000Y-79052000D02*
X112900000Y-80558000D01*
X119216000Y-75242000D02*
X120411000Y-74047000D01*
X118322000Y-75242000D02*
X119216000Y-75242000D01*
X127508000Y-84344000D02*
X124711000Y-81547000D01*
X127508000Y-92735400D02*
X127508000Y-84344000D01*
%TO.N,/B_OUT*%
X112246060Y-85127940D02*
X118322000Y-79052000D01*
X108306368Y-85127940D02*
X112246060Y-85127940D01*
X108080094Y-85354214D02*
X108306368Y-85127940D01*
X97303786Y-85354214D02*
X108080094Y-85354214D01*
%TO.N,/C_B*%
X110011000Y-97855000D02*
X109934000Y-97932000D01*
X110011000Y-91247000D02*
X110011000Y-97855000D01*
%TO.N,/C_C*%
X100895889Y-88946316D02*
X100895889Y-93931889D01*
X100895889Y-93931889D02*
X101811000Y-94847000D01*
X101811000Y-94847000D02*
X101811000Y-97647000D01*
X101811000Y-97647000D02*
X99911000Y-99547000D01*
X103193919Y-107682000D02*
X103924000Y-107682000D01*
X99911000Y-104399081D02*
X103193919Y-107682000D01*
X99911000Y-99547000D02*
X99911000Y-104399081D01*
%TO.N,/C_A*%
X112111000Y-97755000D02*
X111934000Y-97932000D01*
X112111000Y-91147000D02*
X112111000Y-97755000D01*
%TD*%
D31*
%TO.N,GND*%
X100070389Y-91782298D02*
X100070390Y-93891329D01*
X100066395Y-93931889D01*
X100082334Y-94093715D01*
X100129536Y-94249322D01*
X100206190Y-94392731D01*
X100226930Y-94418002D01*
X100309349Y-94518430D01*
X100340850Y-94544282D01*
X100985500Y-95188933D01*
X100985500Y-95684080D01*
X100927191Y-95574991D01*
X100739919Y-95346799D01*
X100511727Y-95159527D01*
X100251386Y-95020372D01*
X99968898Y-94934680D01*
X99675122Y-94905746D01*
X99381346Y-94934680D01*
X99344943Y-94945723D01*
X99355986Y-94909320D01*
X99384920Y-94615544D01*
X99355986Y-94321768D01*
X99270294Y-94039280D01*
X99131139Y-93778939D01*
X98943867Y-93550747D01*
X98715675Y-93363475D01*
X98455334Y-93224320D01*
X98172846Y-93138628D01*
X97879070Y-93109694D01*
X97585294Y-93138628D01*
X97548893Y-93149670D01*
X97559935Y-93113269D01*
X97588869Y-92819493D01*
X97559935Y-92525717D01*
X97474243Y-92243229D01*
X97335088Y-91982888D01*
X97147816Y-91754696D01*
X96919624Y-91567424D01*
X96659283Y-91428269D01*
X96376795Y-91342577D01*
X96083019Y-91313643D01*
X95789243Y-91342577D01*
X95752842Y-91353619D01*
X95763884Y-91317218D01*
X95792818Y-91023442D01*
X95763884Y-90729666D01*
X95678192Y-90447178D01*
X95539037Y-90186837D01*
X95351765Y-89958645D01*
X95123573Y-89771373D01*
X94863232Y-89632218D01*
X94580744Y-89546526D01*
X94286968Y-89517592D01*
X93993192Y-89546526D01*
X93956791Y-89557568D01*
X93967833Y-89521167D01*
X93996767Y-89227391D01*
X93967833Y-88933615D01*
X93882141Y-88651127D01*
X93742986Y-88390786D01*
X93555714Y-88162594D01*
X93327522Y-87975322D01*
X93067181Y-87836167D01*
X92784693Y-87750475D01*
X92490917Y-87721541D01*
X92197141Y-87750475D01*
X92160738Y-87761518D01*
X92171781Y-87725115D01*
X92200715Y-87431339D01*
X92171781Y-87137563D01*
X92086089Y-86855075D01*
X91946934Y-86594734D01*
X91759662Y-86366542D01*
X91531470Y-86179270D01*
X91271129Y-86040115D01*
X90988641Y-85954423D01*
X90694865Y-85925489D01*
X90401089Y-85954423D01*
X90364688Y-85965465D01*
X90375730Y-85929064D01*
X90404664Y-85635288D01*
X90375730Y-85341512D01*
X90290038Y-85059024D01*
X90150883Y-84798683D01*
X89963611Y-84570491D01*
X89735419Y-84383219D01*
X89475078Y-84244064D01*
X89192590Y-84158372D01*
X88898814Y-84129438D01*
X88888434Y-84130460D01*
X88913580Y-84083417D01*
X88949890Y-83963719D01*
X88962150Y-83839237D01*
X88949890Y-83714755D01*
X88913580Y-83595057D01*
X88854615Y-83484743D01*
X88775263Y-83388052D01*
X87553948Y-82166737D01*
X87457257Y-82087385D01*
X87346943Y-82028420D01*
X87227245Y-81992110D01*
X87102763Y-81979850D01*
X86978281Y-81992110D01*
X86858583Y-82028420D01*
X86748269Y-82087385D01*
X86651578Y-82166737D01*
X85214737Y-83603578D01*
X85135385Y-83700269D01*
X85076420Y-83810583D01*
X85070714Y-83829394D01*
X84978983Y-83857220D01*
X84868669Y-83916185D01*
X84771978Y-83995537D01*
X83335137Y-85432378D01*
X83255785Y-85529069D01*
X83196820Y-85639383D01*
X83160510Y-85759081D01*
X83148250Y-85883563D01*
X83160510Y-86008045D01*
X83196820Y-86127743D01*
X83255785Y-86238057D01*
X83335137Y-86334748D01*
X83420336Y-86419947D01*
X83387445Y-86528374D01*
X83371506Y-86690200D01*
X83375501Y-86730760D01*
X83375500Y-88122849D01*
X83371506Y-88163400D01*
X83375500Y-88203950D01*
X83375500Y-88203952D01*
X83387444Y-88325225D01*
X83426676Y-88454555D01*
X83434647Y-88480833D01*
X83511301Y-88624242D01*
X83523462Y-88639060D01*
X83614459Y-88749941D01*
X83645966Y-88775798D01*
X85713848Y-90843681D01*
X85714932Y-90849129D01*
X85785414Y-91019289D01*
X85887738Y-91172428D01*
X86017972Y-91302662D01*
X86171111Y-91404986D01*
X86341271Y-91475468D01*
X86521911Y-91511400D01*
X86706089Y-91511400D01*
X86886729Y-91475468D01*
X87056889Y-91404986D01*
X87210028Y-91302662D01*
X87340262Y-91172428D01*
X87442586Y-91019289D01*
X87513068Y-90849129D01*
X87549000Y-90668489D01*
X87549000Y-90551999D01*
X87763134Y-90727734D01*
X88023475Y-90866889D01*
X88305963Y-90952581D01*
X88599739Y-90981515D01*
X88893515Y-90952581D01*
X88929918Y-90941538D01*
X88918875Y-90977941D01*
X88889941Y-91271717D01*
X88918875Y-91565493D01*
X89004567Y-91847981D01*
X89143722Y-92108322D01*
X89330994Y-92336514D01*
X89559186Y-92523786D01*
X89819527Y-92662941D01*
X90102015Y-92748633D01*
X90395791Y-92777567D01*
X90689567Y-92748633D01*
X90725968Y-92737591D01*
X90714926Y-92773992D01*
X90685992Y-93067768D01*
X90714926Y-93361544D01*
X90800618Y-93644032D01*
X90939773Y-93904373D01*
X91127045Y-94132565D01*
X91355237Y-94319837D01*
X91615578Y-94458992D01*
X91898066Y-94544684D01*
X92191842Y-94573618D01*
X92485618Y-94544684D01*
X92522019Y-94533642D01*
X92510977Y-94570043D01*
X92482043Y-94863819D01*
X92510977Y-95157595D01*
X92596669Y-95440083D01*
X92735824Y-95700424D01*
X92923096Y-95928616D01*
X93151288Y-96115888D01*
X93411629Y-96255043D01*
X93694117Y-96340735D01*
X93987893Y-96369669D01*
X94281669Y-96340735D01*
X94318070Y-96329693D01*
X94307028Y-96366094D01*
X94278094Y-96659870D01*
X94307028Y-96953646D01*
X94392720Y-97236134D01*
X94531875Y-97496475D01*
X94719147Y-97724667D01*
X94947339Y-97911939D01*
X95207680Y-98051094D01*
X95490168Y-98136786D01*
X95783944Y-98165720D01*
X96077720Y-98136786D01*
X96114123Y-98125743D01*
X96103080Y-98162146D01*
X96074146Y-98455922D01*
X96103080Y-98749698D01*
X96188772Y-99032186D01*
X96327927Y-99292527D01*
X96515199Y-99520719D01*
X96743391Y-99707991D01*
X97003732Y-99847146D01*
X97286220Y-99932838D01*
X97579996Y-99961772D01*
X97873772Y-99932838D01*
X98156260Y-99847146D01*
X98416601Y-99707991D01*
X98587609Y-99567648D01*
X98907248Y-99248009D01*
X99047591Y-99077001D01*
X99186746Y-98816660D01*
X99272438Y-98534172D01*
X99301372Y-98240396D01*
X99289138Y-98116184D01*
X99459596Y-98132972D01*
X99753372Y-98104038D01*
X100035860Y-98018346D01*
X100296201Y-97879191D01*
X100467209Y-97738848D01*
X100786848Y-97419209D01*
X100927191Y-97248201D01*
X100985501Y-97139111D01*
X100985501Y-97305065D01*
X99355966Y-98934602D01*
X99324459Y-98960459D01*
X99275215Y-99020464D01*
X99221301Y-99086158D01*
X99166271Y-99189111D01*
X99144647Y-99229567D01*
X99097444Y-99385175D01*
X99089513Y-99465702D01*
X99081506Y-99547000D01*
X99085500Y-99587551D01*
X99085501Y-104358521D01*
X99081506Y-104399081D01*
X99097445Y-104560907D01*
X99144647Y-104716514D01*
X99221301Y-104859923D01*
X99260756Y-104907998D01*
X99324460Y-104985622D01*
X99355961Y-105011474D01*
X101475077Y-107130592D01*
X101423906Y-107226326D01*
X101356147Y-107449700D01*
X101333267Y-107682000D01*
X101356147Y-107914300D01*
X101423906Y-108137674D01*
X101533942Y-108343536D01*
X101682025Y-108523975D01*
X101862464Y-108672058D01*
X101881064Y-108682000D01*
X101862464Y-108691942D01*
X101682025Y-108840025D01*
X101629112Y-108904500D01*
X99526597Y-108904500D01*
X99452765Y-108814535D01*
X99356074Y-108735183D01*
X99245760Y-108676218D01*
X99126062Y-108639908D01*
X99001580Y-108627648D01*
X98204020Y-108627648D01*
X98079538Y-108639908D01*
X97959840Y-108676218D01*
X97853500Y-108733059D01*
X97747160Y-108676218D01*
X97627462Y-108639908D01*
X97502980Y-108627648D01*
X96705420Y-108627648D01*
X96580938Y-108639908D01*
X96461240Y-108676218D01*
X96350926Y-108735183D01*
X96322243Y-108758722D01*
X96212380Y-108699998D01*
X96092682Y-108663688D01*
X95968200Y-108651428D01*
X95168200Y-108651428D01*
X95043718Y-108663688D01*
X94924020Y-108699998D01*
X94818200Y-108756561D01*
X94800573Y-108747139D01*
X94838502Y-108676180D01*
X94874812Y-108556482D01*
X94887072Y-108432000D01*
X94887072Y-107432000D01*
X94874812Y-107307518D01*
X94838502Y-107187820D01*
X94779537Y-107077506D01*
X94700185Y-106980815D01*
X94603494Y-106901463D01*
X94493180Y-106842498D01*
X94373482Y-106806188D01*
X94249000Y-106793928D01*
X92649000Y-106793928D01*
X92575334Y-106801183D01*
X92587072Y-106682000D01*
X92587072Y-105682000D01*
X92575334Y-105562817D01*
X92649000Y-105570072D01*
X94249000Y-105570072D01*
X94373482Y-105557812D01*
X94493180Y-105521502D01*
X94603494Y-105462537D01*
X94700185Y-105383185D01*
X94779537Y-105286494D01*
X94838502Y-105176180D01*
X94874812Y-105056482D01*
X94887072Y-104932000D01*
X94887072Y-103932000D01*
X94874812Y-103807518D01*
X94838502Y-103687820D01*
X94779537Y-103577506D01*
X94700185Y-103480815D01*
X94603494Y-103401463D01*
X94493180Y-103342498D01*
X94373482Y-103306188D01*
X94274500Y-103296439D01*
X94274500Y-100021983D01*
X94323068Y-99904729D01*
X94359000Y-99724089D01*
X94359000Y-99539911D01*
X94323068Y-99359271D01*
X94252586Y-99189111D01*
X94150262Y-99035972D01*
X94020028Y-98905738D01*
X93866889Y-98803414D01*
X93696729Y-98732932D01*
X93516089Y-98697000D01*
X93331911Y-98697000D01*
X93151271Y-98732932D01*
X92981111Y-98803414D01*
X92827972Y-98905738D01*
X92697738Y-99035972D01*
X92595414Y-99189111D01*
X92524932Y-99359271D01*
X92489000Y-99539911D01*
X92489000Y-99724089D01*
X92524932Y-99904729D01*
X92595414Y-100074889D01*
X92623501Y-100116924D01*
X92623500Y-103296439D01*
X92524518Y-103306188D01*
X92404820Y-103342498D01*
X92294506Y-103401463D01*
X92197815Y-103480815D01*
X92118463Y-103577506D01*
X92059498Y-103687820D01*
X92023188Y-103807518D01*
X92010928Y-103932000D01*
X92010928Y-104932000D01*
X92022666Y-105051183D01*
X91949000Y-105043928D01*
X90349000Y-105043928D01*
X90224518Y-105056188D01*
X90104820Y-105092498D01*
X89994506Y-105151463D01*
X89897815Y-105230815D01*
X89818463Y-105327506D01*
X89759498Y-105437820D01*
X89723188Y-105557518D01*
X89710928Y-105682000D01*
X89710928Y-106682000D01*
X89723188Y-106806482D01*
X89759498Y-106926180D01*
X89818463Y-107036494D01*
X89897815Y-107133185D01*
X89994506Y-107212537D01*
X90104820Y-107271502D01*
X90224518Y-107307812D01*
X90349000Y-107320072D01*
X91949000Y-107320072D01*
X92022666Y-107312817D01*
X92010928Y-107432000D01*
X92010928Y-108432000D01*
X92023188Y-108556482D01*
X92059498Y-108676180D01*
X92118463Y-108786494D01*
X92197815Y-108883185D01*
X92294506Y-108962537D01*
X92404820Y-109021502D01*
X92524518Y-109057812D01*
X92649000Y-109070072D01*
X93071190Y-109070072D01*
X93042388Y-109165018D01*
X93030128Y-109289500D01*
X93033200Y-109378750D01*
X93191950Y-109537500D01*
X93941200Y-109537500D01*
X93941200Y-109517500D01*
X94195200Y-109517500D01*
X94195200Y-109537500D01*
X94215200Y-109537500D01*
X94215200Y-109791500D01*
X94195200Y-109791500D01*
X94195200Y-110515750D01*
X94353950Y-110674500D01*
X94395969Y-110675630D01*
X93621403Y-111450196D01*
X93592399Y-111473999D01*
X93543968Y-111533013D01*
X93497426Y-111589724D01*
X93440819Y-111695628D01*
X93426854Y-111721754D01*
X93383397Y-111865015D01*
X93372400Y-111976668D01*
X93372400Y-111976678D01*
X93368724Y-112014000D01*
X93372400Y-112051322D01*
X93372400Y-112306034D01*
X93317641Y-112289423D01*
X93023865Y-112260489D01*
X92730089Y-112289423D01*
X92686737Y-112302574D01*
X92725335Y-112054545D01*
X92712999Y-111760774D01*
X92643587Y-111475054D01*
X92519767Y-111208366D01*
X92510494Y-111195347D01*
X92260768Y-111116939D01*
X91299656Y-112078051D01*
X91313799Y-112092194D01*
X91134194Y-112271799D01*
X91120051Y-112257656D01*
X90158939Y-113218768D01*
X90237347Y-113468494D01*
X90250366Y-113477767D01*
X90517054Y-113601587D01*
X90802774Y-113670999D01*
X91096545Y-113683335D01*
X91344574Y-113644737D01*
X91331423Y-113688089D01*
X91302489Y-113981865D01*
X91331423Y-114275641D01*
X91417115Y-114558129D01*
X91556270Y-114818470D01*
X91743542Y-115046662D01*
X91971734Y-115233934D01*
X92232075Y-115373089D01*
X92514563Y-115458781D01*
X92808339Y-115487715D01*
X93102115Y-115458781D01*
X93138518Y-115447738D01*
X93127475Y-115484141D01*
X93098541Y-115777917D01*
X93127475Y-116071693D01*
X93213167Y-116354181D01*
X93352322Y-116614522D01*
X93539594Y-116842714D01*
X93767786Y-117029986D01*
X94028127Y-117169141D01*
X94310615Y-117254833D01*
X94604391Y-117283767D01*
X94898167Y-117254833D01*
X95180655Y-117169141D01*
X95440996Y-117029986D01*
X95612004Y-116889643D01*
X95931643Y-116570004D01*
X96071986Y-116398996D01*
X96211141Y-116138655D01*
X96296833Y-115856167D01*
X96325767Y-115562391D01*
X96296833Y-115268615D01*
X96271732Y-115185868D01*
X96298001Y-115164309D01*
X96392974Y-115048584D01*
X96463546Y-114916555D01*
X96507003Y-114773294D01*
X96518000Y-114661641D01*
X96521677Y-114624308D01*
X96518000Y-114586975D01*
X96518000Y-114032533D01*
X96521677Y-113995200D01*
X96507003Y-113846214D01*
X96463546Y-113702953D01*
X96392974Y-113570924D01*
X96321799Y-113484197D01*
X96298001Y-113455199D01*
X96269004Y-113431402D01*
X95908400Y-113070799D01*
X95908400Y-112582801D01*
X96355447Y-112135755D01*
X100436046Y-112135755D01*
X101459683Y-113159392D01*
X101423906Y-113226326D01*
X101356147Y-113449700D01*
X101333267Y-113682000D01*
X101356147Y-113914300D01*
X101423906Y-114137674D01*
X101533942Y-114343536D01*
X101682025Y-114523975D01*
X101862464Y-114672058D01*
X102068326Y-114782094D01*
X102291700Y-114849853D01*
X102465793Y-114867000D01*
X103982207Y-114867000D01*
X104156300Y-114849853D01*
X104379674Y-114782094D01*
X104585536Y-114672058D01*
X104765975Y-114523975D01*
X104914058Y-114343536D01*
X105024094Y-114137674D01*
X105091853Y-113914300D01*
X105114733Y-113682000D01*
X105091853Y-113449700D01*
X105024094Y-113226326D01*
X104914058Y-113020464D01*
X104765975Y-112840025D01*
X104585536Y-112691942D01*
X104566936Y-112682000D01*
X104585536Y-112672058D01*
X104765975Y-112523975D01*
X104914058Y-112343536D01*
X105024094Y-112137674D01*
X105091853Y-111914300D01*
X105114733Y-111682000D01*
X105091853Y-111449700D01*
X105024094Y-111226326D01*
X104914058Y-111020464D01*
X104765975Y-110840025D01*
X104585536Y-110691942D01*
X104566936Y-110682000D01*
X104585536Y-110672058D01*
X104765975Y-110523975D01*
X104914058Y-110343536D01*
X105024094Y-110137674D01*
X105091853Y-109914300D01*
X105114733Y-109682000D01*
X105091853Y-109449700D01*
X105024094Y-109226326D01*
X104914058Y-109020464D01*
X104765975Y-108840025D01*
X104585536Y-108691942D01*
X104566936Y-108682000D01*
X104585536Y-108672058D01*
X104765975Y-108523975D01*
X104914058Y-108343536D01*
X105024094Y-108137674D01*
X105091853Y-107914300D01*
X105114733Y-107682000D01*
X105091853Y-107449700D01*
X105024094Y-107226326D01*
X104914058Y-107020464D01*
X104765975Y-106840025D01*
X104585536Y-106691942D01*
X104566936Y-106682000D01*
X104585536Y-106672058D01*
X104765975Y-106523975D01*
X104786985Y-106498374D01*
X104926271Y-106556068D01*
X105106911Y-106592000D01*
X105291089Y-106592000D01*
X105471729Y-106556068D01*
X105641889Y-106485586D01*
X105795028Y-106383262D01*
X105925262Y-106253028D01*
X106027586Y-106099889D01*
X106098068Y-105929729D01*
X106134000Y-105749089D01*
X106134000Y-105564911D01*
X106098068Y-105384271D01*
X106034996Y-105232000D01*
X106098068Y-105079729D01*
X106134000Y-104899089D01*
X106134000Y-104714911D01*
X106098068Y-104534271D01*
X106027586Y-104364111D01*
X105925262Y-104210972D01*
X105795028Y-104080738D01*
X105690879Y-104011148D01*
X105770028Y-103958262D01*
X105900262Y-103828028D01*
X106002586Y-103674889D01*
X106073068Y-103504729D01*
X106109000Y-103324089D01*
X106109000Y-103139911D01*
X106073068Y-102959271D01*
X106002586Y-102789111D01*
X105900262Y-102635972D01*
X105851416Y-102587126D01*
X105808974Y-102507723D01*
X105737799Y-102420997D01*
X105714001Y-102391999D01*
X105685003Y-102368201D01*
X105195372Y-101878571D01*
X105214733Y-101682000D01*
X105191853Y-101449700D01*
X105124094Y-101226326D01*
X105014058Y-101020464D01*
X104865975Y-100840025D01*
X104685536Y-100691942D01*
X104608539Y-100650786D01*
X104687948Y-100596734D01*
X104851725Y-100430119D01*
X104979850Y-100234754D01*
X105067399Y-100018147D01*
X105067803Y-99991744D01*
X104942361Y-99809000D01*
X103351000Y-99809000D01*
X103351000Y-99829000D01*
X103097000Y-99829000D01*
X103097000Y-99809000D01*
X101505639Y-99809000D01*
X101380197Y-99991744D01*
X101380601Y-100018147D01*
X101468150Y-100234754D01*
X101596275Y-100430119D01*
X101760052Y-100596734D01*
X101934111Y-100715211D01*
X101782025Y-100840025D01*
X101633942Y-101020464D01*
X101523906Y-101226326D01*
X101456147Y-101449700D01*
X101433267Y-101682000D01*
X101456147Y-101914300D01*
X101523906Y-102137674D01*
X101633942Y-102343536D01*
X101782025Y-102523975D01*
X101937695Y-102651730D01*
X101862464Y-102691942D01*
X101682025Y-102840025D01*
X101533942Y-103020464D01*
X101423906Y-103226326D01*
X101356147Y-103449700D01*
X101333267Y-103682000D01*
X101356147Y-103914300D01*
X101423906Y-104137674D01*
X101533942Y-104343536D01*
X101682025Y-104523975D01*
X101862464Y-104672058D01*
X101881064Y-104682000D01*
X101862464Y-104691942D01*
X101682025Y-104840025D01*
X101608710Y-104929359D01*
X100736500Y-104057149D01*
X100736500Y-99888932D01*
X101449131Y-99176302D01*
X101380601Y-99345853D01*
X101380197Y-99372256D01*
X101505639Y-99555000D01*
X103097000Y-99555000D01*
X103097000Y-98497000D01*
X102397000Y-98497000D01*
X102168258Y-98544546D01*
X102016490Y-98608944D01*
X102366045Y-98259389D01*
X102397541Y-98233541D01*
X102423389Y-98202045D01*
X102423392Y-98202042D01*
X102500699Y-98107843D01*
X102577353Y-97964434D01*
X102587192Y-97932000D01*
X102624556Y-97808826D01*
X102636500Y-97687553D01*
X102636500Y-97687551D01*
X102640494Y-97647000D01*
X102636500Y-97606450D01*
X102636500Y-94887542D01*
X102640493Y-94846999D01*
X102636500Y-94806456D01*
X102636500Y-94806447D01*
X102624556Y-94685174D01*
X102577353Y-94529566D01*
X102500699Y-94386158D01*
X102397541Y-94260459D01*
X102366040Y-94234607D01*
X101721389Y-93589957D01*
X101721389Y-92460883D01*
X109185500Y-92353227D01*
X109185501Y-96363312D01*
X109092026Y-96440025D01*
X108943943Y-96620464D01*
X108934000Y-96639065D01*
X108924058Y-96620464D01*
X108775975Y-96440025D01*
X108595536Y-96291942D01*
X108389674Y-96181906D01*
X108166300Y-96114147D01*
X107934000Y-96091267D01*
X107701701Y-96114147D01*
X107478327Y-96181906D01*
X107272465Y-96291942D01*
X107092026Y-96440025D01*
X106943943Y-96620464D01*
X106934000Y-96639065D01*
X106924058Y-96620464D01*
X106775975Y-96440025D01*
X106595536Y-96291942D01*
X106389674Y-96181906D01*
X106166300Y-96114147D01*
X105934000Y-96091267D01*
X105701701Y-96114147D01*
X105478327Y-96181906D01*
X105272465Y-96291942D01*
X105092026Y-96440025D01*
X104943943Y-96620464D01*
X104833906Y-96826326D01*
X104766147Y-97049700D01*
X104749000Y-97223793D01*
X104749000Y-98640206D01*
X104766147Y-98814299D01*
X104780415Y-98861336D01*
X104687948Y-98767266D01*
X104494813Y-98635804D01*
X104279742Y-98544546D01*
X104051000Y-98497000D01*
X103351000Y-98497000D01*
X103351000Y-99555000D01*
X104942361Y-99555000D01*
X105059503Y-99384347D01*
X105092025Y-99423975D01*
X105272464Y-99572058D01*
X105478326Y-99682094D01*
X105701700Y-99749853D01*
X105934000Y-99772733D01*
X106166299Y-99749853D01*
X106389673Y-99682094D01*
X106595535Y-99572058D01*
X106775975Y-99423975D01*
X106924058Y-99243536D01*
X106934000Y-99224935D01*
X106943942Y-99243535D01*
X107092025Y-99423975D01*
X107272464Y-99572058D01*
X107478326Y-99682094D01*
X107701700Y-99749853D01*
X107934000Y-99772733D01*
X108166299Y-99749853D01*
X108389673Y-99682094D01*
X108595535Y-99572058D01*
X108775975Y-99423975D01*
X108924058Y-99243536D01*
X108934000Y-99224935D01*
X108943942Y-99243535D01*
X109092025Y-99423975D01*
X109272464Y-99572058D01*
X109478326Y-99682094D01*
X109701700Y-99749853D01*
X109934000Y-99772733D01*
X110166299Y-99749853D01*
X110389673Y-99682094D01*
X110595535Y-99572058D01*
X110775975Y-99423975D01*
X110924058Y-99243536D01*
X110934000Y-99224935D01*
X110943942Y-99243535D01*
X111092025Y-99423975D01*
X111272464Y-99572058D01*
X111478326Y-99682094D01*
X111701700Y-99749853D01*
X111934000Y-99772733D01*
X112166299Y-99749853D01*
X112389673Y-99682094D01*
X112595535Y-99572058D01*
X112775975Y-99423975D01*
X112924058Y-99243536D01*
X112934000Y-99224935D01*
X112943942Y-99243535D01*
X113092025Y-99423975D01*
X113272464Y-99572058D01*
X113478326Y-99682094D01*
X113701700Y-99749853D01*
X113934000Y-99772733D01*
X114166299Y-99749853D01*
X114389673Y-99682094D01*
X114595535Y-99572058D01*
X114775975Y-99423975D01*
X114924058Y-99243536D01*
X114934000Y-99224935D01*
X114943942Y-99243535D01*
X115092025Y-99423975D01*
X115272464Y-99572058D01*
X115460500Y-99672566D01*
X115460500Y-99787089D01*
X115496432Y-99967729D01*
X115566914Y-100137889D01*
X115669238Y-100291028D01*
X115799472Y-100421262D01*
X115952611Y-100523586D01*
X116122771Y-100594068D01*
X116303411Y-100630000D01*
X116487589Y-100630000D01*
X116668229Y-100594068D01*
X116838389Y-100523586D01*
X116862463Y-100507500D01*
X117068504Y-100507500D01*
X117082025Y-100523975D01*
X117262464Y-100672058D01*
X117281064Y-100682000D01*
X117262464Y-100691942D01*
X117082025Y-100840025D01*
X117056257Y-100871423D01*
X116991889Y-100828414D01*
X116821729Y-100757932D01*
X116641089Y-100722000D01*
X116456911Y-100722000D01*
X116276271Y-100757932D01*
X116106111Y-100828414D01*
X115952972Y-100930738D01*
X115822738Y-101060972D01*
X115720414Y-101214111D01*
X115649932Y-101384271D01*
X115614000Y-101564911D01*
X115614000Y-101749089D01*
X115649932Y-101929729D01*
X115720414Y-102099889D01*
X115822738Y-102253028D01*
X115952972Y-102383262D01*
X116106111Y-102485586D01*
X116276271Y-102556068D01*
X116456911Y-102592000D01*
X116641089Y-102592000D01*
X116821729Y-102556068D01*
X116991889Y-102485586D01*
X117029755Y-102460285D01*
X117082025Y-102523975D01*
X117262464Y-102672058D01*
X117281064Y-102682000D01*
X117262464Y-102691942D01*
X117082025Y-102840025D01*
X117014750Y-102922000D01*
X116288802Y-102922000D01*
X115622153Y-102255351D01*
X115598068Y-102134271D01*
X115527586Y-101964111D01*
X115425262Y-101810972D01*
X115295028Y-101680738D01*
X115141889Y-101578414D01*
X114971729Y-101507932D01*
X114791089Y-101472000D01*
X114606911Y-101472000D01*
X114426271Y-101507932D01*
X114256111Y-101578414D01*
X114102972Y-101680738D01*
X113972738Y-101810972D01*
X113870414Y-101964111D01*
X113799932Y-102134271D01*
X113764000Y-102314911D01*
X113764000Y-102499089D01*
X113799932Y-102679729D01*
X113870414Y-102849889D01*
X113972738Y-103003028D01*
X114102972Y-103133262D01*
X114256111Y-103235586D01*
X114426271Y-103306068D01*
X114547351Y-103330153D01*
X115410200Y-104193002D01*
X115433999Y-104222001D01*
X115549724Y-104316974D01*
X115681753Y-104387546D01*
X115757999Y-104410675D01*
X115727972Y-104430738D01*
X115597738Y-104560972D01*
X115495414Y-104714111D01*
X115424932Y-104884271D01*
X115389000Y-105064911D01*
X115389000Y-105131665D01*
X115352972Y-105155738D01*
X115222738Y-105285972D01*
X115120414Y-105439111D01*
X115049932Y-105609271D01*
X115014000Y-105789911D01*
X115014000Y-105974089D01*
X115049932Y-106154729D01*
X115110617Y-106301236D01*
X114951271Y-106332932D01*
X114781111Y-106403414D01*
X114627972Y-106505738D01*
X114497738Y-106635972D01*
X114395414Y-106789111D01*
X114324932Y-106959271D01*
X114289000Y-107139911D01*
X114289000Y-107324089D01*
X114324932Y-107504729D01*
X114395414Y-107674889D01*
X114464001Y-107777537D01*
X114464000Y-112769677D01*
X114460324Y-112807000D01*
X114464000Y-112844322D01*
X114464000Y-112844332D01*
X114474997Y-112955985D01*
X114515380Y-113089111D01*
X114518454Y-113099246D01*
X114589026Y-113231276D01*
X114616630Y-113264911D01*
X114683999Y-113347001D01*
X114713002Y-113370803D01*
X115088263Y-113746064D01*
X115099932Y-113804729D01*
X115170414Y-113974889D01*
X115272738Y-114128028D01*
X115402972Y-114258262D01*
X115556111Y-114360586D01*
X115726271Y-114431068D01*
X115906911Y-114467000D01*
X116091089Y-114467000D01*
X116271729Y-114431068D01*
X116441889Y-114360586D01*
X116595028Y-114258262D01*
X116725262Y-114128028D01*
X116735928Y-114112065D01*
X116735928Y-114232000D01*
X116748188Y-114356482D01*
X116784498Y-114476180D01*
X116843463Y-114586494D01*
X116922815Y-114683185D01*
X117019506Y-114762537D01*
X117129820Y-114821502D01*
X117249518Y-114857812D01*
X117374000Y-114870072D01*
X119874000Y-114870072D01*
X119998482Y-114857812D01*
X120023453Y-114850237D01*
X122541534Y-114850237D01*
X123502646Y-115811349D01*
X123516789Y-115797207D01*
X123696394Y-115976812D01*
X123682251Y-115990954D01*
X124643363Y-116952066D01*
X124893089Y-116873658D01*
X124902362Y-116860639D01*
X125026182Y-116593951D01*
X125095594Y-116308231D01*
X125107930Y-116014460D01*
X125069332Y-115766430D01*
X125112685Y-115779581D01*
X125406461Y-115808515D01*
X125700237Y-115779581D01*
X125982725Y-115693889D01*
X126243066Y-115554734D01*
X126471258Y-115367462D01*
X126658530Y-115139270D01*
X126797685Y-114878929D01*
X126883377Y-114596441D01*
X126912311Y-114302665D01*
X126883377Y-114008889D01*
X126872335Y-113972488D01*
X126908736Y-113983530D01*
X127202512Y-114012464D01*
X127496288Y-113983530D01*
X127778776Y-113897838D01*
X128039117Y-113758683D01*
X128267309Y-113571411D01*
X128454581Y-113343219D01*
X128593736Y-113082878D01*
X128679428Y-112800390D01*
X128708362Y-112506614D01*
X128707340Y-112496234D01*
X128754383Y-112521380D01*
X128874081Y-112557690D01*
X128998563Y-112569950D01*
X129123045Y-112557690D01*
X129242743Y-112521380D01*
X129353057Y-112462415D01*
X129449748Y-112383063D01*
X130671063Y-111161748D01*
X130750415Y-111065057D01*
X130809380Y-110954743D01*
X130845690Y-110835045D01*
X130857950Y-110710563D01*
X130845690Y-110586081D01*
X130809380Y-110466383D01*
X130750415Y-110356069D01*
X130671063Y-110259378D01*
X129234222Y-108822537D01*
X129137531Y-108743185D01*
X129027217Y-108684220D01*
X128907519Y-108647910D01*
X128783037Y-108635650D01*
X128658555Y-108647910D01*
X128538857Y-108684220D01*
X128428543Y-108743185D01*
X128331852Y-108822537D01*
X127110537Y-110043852D01*
X127031185Y-110140543D01*
X126972220Y-110250857D01*
X126935910Y-110370555D01*
X126923650Y-110495037D01*
X126935910Y-110619519D01*
X126972220Y-110739217D01*
X126997366Y-110786260D01*
X126986986Y-110785238D01*
X126693210Y-110814172D01*
X126410722Y-110899864D01*
X126150381Y-111039019D01*
X125922189Y-111226291D01*
X125734917Y-111454483D01*
X125595762Y-111714824D01*
X125510070Y-111997312D01*
X125481136Y-112291088D01*
X125510070Y-112584864D01*
X125521112Y-112621265D01*
X125484711Y-112610223D01*
X125190935Y-112581289D01*
X124897159Y-112610223D01*
X124614671Y-112695915D01*
X124354330Y-112835070D01*
X124126138Y-113022342D01*
X123938866Y-113250534D01*
X123799711Y-113510875D01*
X123714019Y-113793363D01*
X123685085Y-114087139D01*
X123714019Y-114380915D01*
X123727170Y-114424268D01*
X123479140Y-114385670D01*
X123185369Y-114398006D01*
X122899649Y-114467418D01*
X122632961Y-114591238D01*
X122619942Y-114600511D01*
X122541534Y-114850237D01*
X120023453Y-114850237D01*
X120118180Y-114821502D01*
X120228494Y-114762537D01*
X120325185Y-114683185D01*
X120404537Y-114586494D01*
X120463502Y-114476180D01*
X120473870Y-114442000D01*
X120636678Y-114442000D01*
X120674000Y-114445676D01*
X120711322Y-114442000D01*
X120711333Y-114442000D01*
X120822986Y-114431003D01*
X120966247Y-114387546D01*
X121098276Y-114316974D01*
X121140742Y-114282123D01*
X121271729Y-114256068D01*
X121441889Y-114185586D01*
X121595028Y-114083262D01*
X121725262Y-113953028D01*
X121827586Y-113799889D01*
X121898068Y-113629729D01*
X121934000Y-113449089D01*
X121934000Y-113264911D01*
X121898068Y-113084271D01*
X121827586Y-112914111D01*
X121759000Y-112811465D01*
X121759000Y-111578985D01*
X121783386Y-111542489D01*
X121853868Y-111372329D01*
X121889800Y-111191689D01*
X121889800Y-111007511D01*
X121853868Y-110826871D01*
X121783386Y-110656711D01*
X121681062Y-110503572D01*
X121550828Y-110373338D01*
X121397689Y-110271014D01*
X121363856Y-110257000D01*
X121835928Y-110257000D01*
X121848188Y-110381482D01*
X121884498Y-110501180D01*
X121943463Y-110611494D01*
X122022815Y-110708185D01*
X122119506Y-110787537D01*
X122229820Y-110846502D01*
X122349518Y-110882812D01*
X122474000Y-110895072D01*
X122588250Y-110892000D01*
X122747000Y-110733250D01*
X122747000Y-110009000D01*
X121997750Y-110009000D01*
X121839000Y-110167750D01*
X121835928Y-110257000D01*
X121363856Y-110257000D01*
X121227529Y-110200532D01*
X121046889Y-110164600D01*
X120862711Y-110164600D01*
X120682071Y-110200532D01*
X120511911Y-110271014D01*
X120358772Y-110373338D01*
X120228538Y-110503572D01*
X120126214Y-110656711D01*
X120079634Y-110769166D01*
X119985536Y-110691942D01*
X119966936Y-110682000D01*
X119985536Y-110672058D01*
X120165975Y-110523975D01*
X120314058Y-110343536D01*
X120424094Y-110137674D01*
X120458478Y-110024323D01*
X121468002Y-109014800D01*
X121991699Y-109014800D01*
X122024335Y-109054568D01*
X122022815Y-109055815D01*
X121943463Y-109152506D01*
X121884498Y-109262820D01*
X121848188Y-109382518D01*
X121835928Y-109507000D01*
X121839000Y-109596250D01*
X121997750Y-109755000D01*
X122747000Y-109755000D01*
X122747000Y-109735000D01*
X123001000Y-109735000D01*
X123001000Y-109755000D01*
X123021000Y-109755000D01*
X123021000Y-110009000D01*
X123001000Y-110009000D01*
X123001000Y-110733250D01*
X123159750Y-110892000D01*
X123274000Y-110895072D01*
X123398482Y-110882812D01*
X123518180Y-110846502D01*
X123624000Y-110789939D01*
X123729820Y-110846502D01*
X123849518Y-110882812D01*
X123974000Y-110895072D01*
X124774000Y-110895072D01*
X124898482Y-110882812D01*
X125018180Y-110846502D01*
X125128494Y-110787537D01*
X125206238Y-110723734D01*
X125279471Y-110754068D01*
X125460111Y-110790000D01*
X125644289Y-110790000D01*
X125824929Y-110754068D01*
X125995089Y-110683586D01*
X126148228Y-110581262D01*
X126278462Y-110451028D01*
X126380786Y-110297889D01*
X126451268Y-110127729D01*
X126487200Y-109947089D01*
X126487200Y-109762911D01*
X126451268Y-109582271D01*
X126380786Y-109412111D01*
X126278462Y-109258972D01*
X126148228Y-109128738D01*
X125995089Y-109026414D01*
X125824929Y-108955932D01*
X125644289Y-108920000D01*
X125460111Y-108920000D01*
X125350443Y-108941815D01*
X125386702Y-108873980D01*
X125423012Y-108754282D01*
X125435272Y-108629800D01*
X125435272Y-107879800D01*
X125423012Y-107755318D01*
X125386702Y-107635620D01*
X125327737Y-107525306D01*
X125280215Y-107467400D01*
X125327737Y-107409494D01*
X125386702Y-107299180D01*
X125423012Y-107179482D01*
X125435272Y-107055000D01*
X125435272Y-106305000D01*
X125423012Y-106180518D01*
X125386702Y-106060820D01*
X125327737Y-105950506D01*
X125324835Y-105946970D01*
X125376617Y-105883874D01*
X125386599Y-105865200D01*
X127370999Y-105865200D01*
X129255601Y-107749803D01*
X129279399Y-107778801D01*
X129308397Y-107802599D01*
X129395123Y-107873774D01*
X129527153Y-107944346D01*
X129642596Y-107979365D01*
X129693931Y-108075406D01*
X129881203Y-108303597D01*
X130109394Y-108490869D01*
X130369736Y-108630025D01*
X130652223Y-108715716D01*
X130872381Y-108737400D01*
X131324419Y-108737400D01*
X131544577Y-108715716D01*
X131827064Y-108630025D01*
X132087406Y-108490869D01*
X132315597Y-108303597D01*
X132502869Y-108075406D01*
X132642025Y-107815064D01*
X132727716Y-107532577D01*
X132756651Y-107238800D01*
X132727716Y-106945023D01*
X132642025Y-106662536D01*
X132502869Y-106402194D01*
X132315597Y-106174003D01*
X132087406Y-105986731D01*
X132053860Y-105968800D01*
X132087406Y-105950869D01*
X132315597Y-105763597D01*
X132502869Y-105535406D01*
X132642025Y-105275064D01*
X132727716Y-104992577D01*
X132756651Y-104698800D01*
X132727716Y-104405023D01*
X132642025Y-104122536D01*
X132502869Y-103862194D01*
X132315597Y-103634003D01*
X132087406Y-103446731D01*
X132053860Y-103428800D01*
X132087406Y-103410869D01*
X132315597Y-103223597D01*
X132502869Y-102995406D01*
X132642025Y-102735064D01*
X132727716Y-102452577D01*
X132756651Y-102158800D01*
X132727716Y-101865023D01*
X132642025Y-101582536D01*
X132502869Y-101322194D01*
X132315597Y-101094003D01*
X132307535Y-101087386D01*
X132358580Y-101071902D01*
X132468894Y-101012937D01*
X132565585Y-100933585D01*
X132644937Y-100836894D01*
X132703902Y-100726580D01*
X132740212Y-100606882D01*
X132752472Y-100482400D01*
X132752472Y-98755200D01*
X132740212Y-98630718D01*
X132703902Y-98511020D01*
X132644937Y-98400706D01*
X132565585Y-98304015D01*
X132468894Y-98224663D01*
X132358580Y-98165698D01*
X132238882Y-98129388D01*
X132114400Y-98117128D01*
X130082400Y-98117128D01*
X129957918Y-98129388D01*
X129838220Y-98165698D01*
X129727906Y-98224663D01*
X129631215Y-98304015D01*
X129551863Y-98400706D01*
X129492898Y-98511020D01*
X129456588Y-98630718D01*
X129444328Y-98755200D01*
X129444328Y-100482400D01*
X129456588Y-100606882D01*
X129492898Y-100726580D01*
X129551863Y-100836894D01*
X129631215Y-100933585D01*
X129727906Y-101012937D01*
X129838220Y-101071902D01*
X129889265Y-101087386D01*
X129881203Y-101094003D01*
X129693931Y-101322194D01*
X129554775Y-101582536D01*
X129469084Y-101865023D01*
X129440149Y-102158800D01*
X129469084Y-102452577D01*
X129554775Y-102735064D01*
X129693931Y-102995406D01*
X129881203Y-103223597D01*
X130109394Y-103410869D01*
X130142940Y-103428800D01*
X130109394Y-103446731D01*
X129881203Y-103634003D01*
X129693931Y-103862194D01*
X129554775Y-104122536D01*
X129469084Y-104405023D01*
X129440149Y-104698800D01*
X129469084Y-104992577D01*
X129554775Y-105275064D01*
X129693931Y-105535406D01*
X129881203Y-105763597D01*
X130109394Y-105950869D01*
X130142940Y-105968800D01*
X130109394Y-105986731D01*
X129881203Y-106174003D01*
X129857855Y-106202453D01*
X128249604Y-104594203D01*
X128225801Y-104565199D01*
X128110076Y-104470226D01*
X127978047Y-104399654D01*
X127834786Y-104356197D01*
X127723133Y-104345200D01*
X127723122Y-104345200D01*
X127685800Y-104341524D01*
X127648478Y-104345200D01*
X125350252Y-104345200D01*
X125297265Y-104280635D01*
X125200574Y-104201283D01*
X125090260Y-104142318D01*
X124970562Y-104106008D01*
X124846080Y-104093748D01*
X124048520Y-104093748D01*
X123924038Y-104106008D01*
X123804340Y-104142318D01*
X123698000Y-104199159D01*
X123591660Y-104142318D01*
X123471962Y-104106008D01*
X123347480Y-104093748D01*
X122549920Y-104093748D01*
X122425438Y-104106008D01*
X122305740Y-104142318D01*
X122195426Y-104201283D01*
X122098735Y-104280635D01*
X122019383Y-104377326D01*
X121960418Y-104487640D01*
X121924108Y-104607338D01*
X121911848Y-104731820D01*
X121911848Y-105529380D01*
X121924108Y-105653862D01*
X121960418Y-105773560D01*
X122019383Y-105883874D01*
X122020365Y-105885070D01*
X121966663Y-105950506D01*
X121907698Y-106060820D01*
X121871388Y-106180518D01*
X121859128Y-106305000D01*
X121862200Y-106394250D01*
X122020950Y-106553000D01*
X122770200Y-106553000D01*
X122770200Y-106533000D01*
X123024200Y-106533000D01*
X123024200Y-106553000D01*
X123044200Y-106553000D01*
X123044200Y-106807000D01*
X123024200Y-106807000D01*
X123024200Y-106827000D01*
X122770200Y-106827000D01*
X122770200Y-106807000D01*
X122020950Y-106807000D01*
X121862200Y-106965750D01*
X121859128Y-107055000D01*
X121871388Y-107179482D01*
X121907698Y-107299180D01*
X121966663Y-107409494D01*
X122014185Y-107467400D01*
X121991699Y-107494800D01*
X121190533Y-107494800D01*
X121153200Y-107491123D01*
X121115867Y-107494800D01*
X121004214Y-107505797D01*
X120860953Y-107549254D01*
X120728924Y-107619826D01*
X120613199Y-107714799D01*
X120589401Y-107743797D01*
X120499824Y-107833374D01*
X120514733Y-107682000D01*
X120491853Y-107449700D01*
X120424094Y-107226326D01*
X120314058Y-107020464D01*
X120165975Y-106840025D01*
X119985536Y-106691942D01*
X119966936Y-106682000D01*
X119985536Y-106672058D01*
X120165975Y-106523975D01*
X120314058Y-106343536D01*
X120424094Y-106137674D01*
X120491853Y-105914300D01*
X120514733Y-105682000D01*
X120491853Y-105449700D01*
X120424094Y-105226326D01*
X120314058Y-105020464D01*
X120165975Y-104840025D01*
X119985536Y-104691942D01*
X119966936Y-104682000D01*
X119985536Y-104672058D01*
X120165975Y-104523975D01*
X120314058Y-104343536D01*
X120424094Y-104137674D01*
X120491853Y-103914300D01*
X120514733Y-103682000D01*
X120491853Y-103449700D01*
X120424094Y-103226326D01*
X120314058Y-103020464D01*
X120165975Y-102840025D01*
X119985536Y-102691942D01*
X119966936Y-102682000D01*
X119985536Y-102672058D01*
X120165975Y-102523975D01*
X120314058Y-102343536D01*
X120424094Y-102137674D01*
X120491853Y-101914300D01*
X120514733Y-101682000D01*
X120491853Y-101449700D01*
X120424094Y-101226326D01*
X120314058Y-101020464D01*
X120165975Y-100840025D01*
X119985536Y-100691942D01*
X119966936Y-100682000D01*
X119985536Y-100672058D01*
X120165975Y-100523975D01*
X120254356Y-100416282D01*
X120343111Y-100475586D01*
X120513271Y-100546068D01*
X120693911Y-100582000D01*
X120878089Y-100582000D01*
X121058729Y-100546068D01*
X121228889Y-100475586D01*
X121382028Y-100373262D01*
X121512262Y-100243028D01*
X121614586Y-100089889D01*
X121685068Y-99919729D01*
X121721000Y-99739089D01*
X121721000Y-99554911D01*
X121718017Y-99539911D01*
X122264000Y-99539911D01*
X122264000Y-99724089D01*
X122299932Y-99904729D01*
X122370414Y-100074889D01*
X122472738Y-100228028D01*
X122602972Y-100358262D01*
X122756111Y-100460586D01*
X122926271Y-100531068D01*
X123106911Y-100567000D01*
X123291089Y-100567000D01*
X123471729Y-100531068D01*
X123641889Y-100460586D01*
X123795028Y-100358262D01*
X123925262Y-100228028D01*
X124027586Y-100074889D01*
X124098068Y-99904729D01*
X124134000Y-99724089D01*
X124134000Y-99539911D01*
X124098068Y-99359271D01*
X124027586Y-99189111D01*
X123925262Y-99035972D01*
X123795028Y-98905738D01*
X123641889Y-98803414D01*
X123471729Y-98732932D01*
X123291089Y-98697000D01*
X123106911Y-98697000D01*
X122926271Y-98732932D01*
X122756111Y-98803414D01*
X122602972Y-98905738D01*
X122472738Y-99035972D01*
X122370414Y-99189111D01*
X122299932Y-99359271D01*
X122264000Y-99539911D01*
X121718017Y-99539911D01*
X121685068Y-99374271D01*
X121614586Y-99204111D01*
X121512262Y-99050972D01*
X121382028Y-98920738D01*
X121228889Y-98818414D01*
X121058729Y-98747932D01*
X120878089Y-98712000D01*
X120693911Y-98712000D01*
X120513271Y-98747932D01*
X120343111Y-98818414D01*
X120217254Y-98902509D01*
X120165975Y-98840025D01*
X119985536Y-98691942D01*
X119779674Y-98581906D01*
X119556300Y-98514147D01*
X119382207Y-98497000D01*
X117865793Y-98497000D01*
X117691700Y-98514147D01*
X117468326Y-98581906D01*
X117262464Y-98691942D01*
X117098035Y-98826886D01*
X117101853Y-98814300D01*
X117119000Y-98640207D01*
X117119000Y-97223793D01*
X117101853Y-97049700D01*
X117034094Y-96826326D01*
X116924058Y-96620464D01*
X116775975Y-96440025D01*
X116595536Y-96291942D01*
X116389674Y-96181906D01*
X116166300Y-96114147D01*
X115934000Y-96091267D01*
X115701701Y-96114147D01*
X115478327Y-96181906D01*
X115272465Y-96291942D01*
X115092026Y-96440025D01*
X114943943Y-96620464D01*
X114934000Y-96639065D01*
X114924058Y-96620464D01*
X114775975Y-96440025D01*
X114595536Y-96291942D01*
X114389674Y-96181906D01*
X114166300Y-96114147D01*
X113934000Y-96091267D01*
X113701701Y-96114147D01*
X113478327Y-96181906D01*
X113272465Y-96291942D01*
X113092026Y-96440025D01*
X112943943Y-96620464D01*
X112936500Y-96634389D01*
X112936500Y-92299126D01*
X121612832Y-92173987D01*
X121637570Y-92171189D01*
X121661288Y-92163620D01*
X121683073Y-92151568D01*
X121700498Y-92137106D01*
X126682501Y-87188766D01*
X126682500Y-91909900D01*
X125313350Y-91909900D01*
X125272800Y-91905906D01*
X125232249Y-91909900D01*
X125232247Y-91909900D01*
X125110974Y-91921844D01*
X124996669Y-91956518D01*
X124955366Y-91969047D01*
X124811957Y-92045701D01*
X124717758Y-92123008D01*
X124717755Y-92123011D01*
X124686259Y-92148859D01*
X124660411Y-92180355D01*
X122888966Y-93951802D01*
X122857459Y-93977659D01*
X122806889Y-94039280D01*
X122754301Y-94103358D01*
X122703048Y-94199246D01*
X122677647Y-94246767D01*
X122630444Y-94402375D01*
X122619654Y-94511935D01*
X122614506Y-94564200D01*
X122618500Y-94604751D01*
X122618501Y-95310492D01*
X122615414Y-95315111D01*
X122544932Y-95485271D01*
X122509000Y-95665911D01*
X122509000Y-95850089D01*
X122544932Y-96030729D01*
X122615414Y-96200889D01*
X122717738Y-96354028D01*
X122847972Y-96484262D01*
X123001111Y-96586586D01*
X123171271Y-96657068D01*
X123351911Y-96693000D01*
X123536089Y-96693000D01*
X123716729Y-96657068D01*
X123886889Y-96586586D01*
X124040028Y-96484262D01*
X124170262Y-96354028D01*
X124272586Y-96200889D01*
X124343068Y-96030729D01*
X124360790Y-95941634D01*
X126394142Y-95941634D01*
X126394142Y-96166141D01*
X126543467Y-96319811D01*
X126640158Y-96399164D01*
X126750473Y-96458128D01*
X126870171Y-96494437D01*
X126994652Y-96506698D01*
X127071229Y-96499155D01*
X127063687Y-96575732D01*
X127075947Y-96700214D01*
X127086811Y-96736027D01*
X127042776Y-96789685D01*
X126996101Y-96846558D01*
X126933690Y-96963320D01*
X126919447Y-96989967D01*
X126872244Y-97145575D01*
X126862137Y-97248201D01*
X126856306Y-97307400D01*
X126860300Y-97347950D01*
X126860300Y-97520292D01*
X126857214Y-97524911D01*
X126786732Y-97695071D01*
X126750800Y-97875711D01*
X126750800Y-98059889D01*
X126786732Y-98240529D01*
X126857214Y-98410689D01*
X126959538Y-98563828D01*
X127089772Y-98694062D01*
X127242911Y-98796386D01*
X127413071Y-98866868D01*
X127593711Y-98902800D01*
X127777889Y-98902800D01*
X127958529Y-98866868D01*
X128128689Y-98796386D01*
X128281828Y-98694062D01*
X128412062Y-98563828D01*
X128514386Y-98410689D01*
X128584868Y-98240529D01*
X128620800Y-98059889D01*
X128620800Y-97882123D01*
X128653046Y-97872341D01*
X128763360Y-97813376D01*
X128860051Y-97734024D01*
X129061938Y-97532137D01*
X135871800Y-97532137D01*
X135871800Y-97745863D01*
X135913496Y-97955483D01*
X135995285Y-98152940D01*
X136114025Y-98330647D01*
X136265153Y-98481775D01*
X136442860Y-98600515D01*
X136640317Y-98682304D01*
X136849937Y-98724000D01*
X137063663Y-98724000D01*
X137273283Y-98682304D01*
X137470740Y-98600515D01*
X137648447Y-98481775D01*
X137799575Y-98330647D01*
X137918315Y-98152940D01*
X138000104Y-97955483D01*
X138041800Y-97745863D01*
X138041800Y-97532137D01*
X138000104Y-97322517D01*
X137918315Y-97125060D01*
X137799575Y-96947353D01*
X137648447Y-96796225D01*
X137470740Y-96677485D01*
X137273283Y-96595696D01*
X137063663Y-96554000D01*
X136849937Y-96554000D01*
X136640317Y-96595696D01*
X136442860Y-96677485D01*
X136265153Y-96796225D01*
X136114025Y-96947353D01*
X135995285Y-97125060D01*
X135913496Y-97322517D01*
X135871800Y-97532137D01*
X129061938Y-97532137D01*
X132042032Y-94552043D01*
X132121384Y-94455352D01*
X132177352Y-94350644D01*
X134136961Y-94350644D01*
X134136961Y-94575150D01*
X134533774Y-94976307D01*
X134630465Y-95055660D01*
X134740780Y-95114624D01*
X134860478Y-95150934D01*
X134984959Y-95163194D01*
X135109440Y-95150934D01*
X135229139Y-95114624D01*
X135339453Y-95055660D01*
X135436144Y-94976307D01*
X135871800Y-94538754D01*
X135871800Y-94745863D01*
X135913496Y-94955483D01*
X135995285Y-95152940D01*
X136114025Y-95330647D01*
X136265153Y-95481775D01*
X136442860Y-95600515D01*
X136640317Y-95682304D01*
X136849937Y-95724000D01*
X137063663Y-95724000D01*
X137273283Y-95682304D01*
X137470740Y-95600515D01*
X137648447Y-95481775D01*
X137799575Y-95330647D01*
X137918315Y-95152940D01*
X138000104Y-94955483D01*
X138041800Y-94745863D01*
X138041800Y-94532137D01*
X138000104Y-94322517D01*
X137918315Y-94125060D01*
X137799575Y-93947353D01*
X137648447Y-93796225D01*
X137470740Y-93677485D01*
X137273283Y-93595696D01*
X137063663Y-93554000D01*
X136854177Y-93554000D01*
X137840307Y-92572144D01*
X137919660Y-92475453D01*
X137978624Y-92365139D01*
X138014934Y-92245440D01*
X138027194Y-92120959D01*
X138014934Y-91996478D01*
X137978624Y-91876780D01*
X137919660Y-91766465D01*
X137840307Y-91669774D01*
X137439150Y-91272961D01*
X137214644Y-91272961D01*
X135765605Y-92722000D01*
X135779748Y-92736143D01*
X135600143Y-92915748D01*
X135586000Y-92901605D01*
X134136961Y-94350644D01*
X132177352Y-94350644D01*
X132180349Y-94345038D01*
X132216659Y-94225340D01*
X132228919Y-94100858D01*
X132216659Y-93976376D01*
X132180349Y-93856678D01*
X132121384Y-93746364D01*
X132042032Y-93649673D01*
X131715400Y-93323041D01*
X133144806Y-93323041D01*
X133157066Y-93447522D01*
X133193376Y-93567220D01*
X133252340Y-93677535D01*
X133331693Y-93774226D01*
X133732850Y-94171039D01*
X133957356Y-94171039D01*
X135406395Y-92722000D01*
X134558397Y-91874002D01*
X134333891Y-91874002D01*
X133331693Y-92871856D01*
X133252340Y-92968547D01*
X133193376Y-93078861D01*
X133157066Y-93198560D01*
X133144806Y-93323041D01*
X131715400Y-93323041D01*
X131334925Y-92942566D01*
X131238234Y-92863214D01*
X131127920Y-92804249D01*
X131008222Y-92767939D01*
X130883740Y-92755679D01*
X130807162Y-92763221D01*
X130814705Y-92686645D01*
X130802444Y-92562164D01*
X130766135Y-92442466D01*
X130707171Y-92332151D01*
X130627818Y-92235460D01*
X130474148Y-92086135D01*
X130249641Y-92086135D01*
X128411694Y-93924082D01*
X128425837Y-93938224D01*
X128246231Y-94117830D01*
X128232089Y-94103687D01*
X126394142Y-95941634D01*
X124360790Y-95941634D01*
X124379000Y-95850089D01*
X124379000Y-95665911D01*
X124343068Y-95485271D01*
X124272586Y-95315111D01*
X124269500Y-95310492D01*
X124269500Y-94906132D01*
X125614734Y-93560900D01*
X126989395Y-93560900D01*
X125836360Y-94710334D01*
X125757007Y-94807025D01*
X125698043Y-94917339D01*
X125661734Y-95037038D01*
X125649473Y-95161519D01*
X125661734Y-95286000D01*
X125698043Y-95405698D01*
X125757007Y-95516013D01*
X125836360Y-95612704D01*
X125990030Y-95762029D01*
X126214537Y-95762029D01*
X128052484Y-93924082D01*
X128038342Y-93909940D01*
X128217947Y-93730335D01*
X128232089Y-93744477D01*
X130070036Y-91906530D01*
X130070036Y-91682023D01*
X129920711Y-91528353D01*
X129849476Y-91469891D01*
X134738002Y-91469891D01*
X134738002Y-91694397D01*
X135586000Y-92542395D01*
X137035039Y-91093356D01*
X137035039Y-90868850D01*
X136638226Y-90467693D01*
X136541535Y-90388340D01*
X136431220Y-90329376D01*
X136311522Y-90293066D01*
X136187041Y-90280806D01*
X136062560Y-90293066D01*
X135942861Y-90329376D01*
X135832547Y-90388340D01*
X135735856Y-90467693D01*
X134738002Y-91469891D01*
X129849476Y-91469891D01*
X129824020Y-91449000D01*
X129713705Y-91390036D01*
X129594007Y-91353727D01*
X129469526Y-91341466D01*
X129345045Y-91353727D01*
X129225346Y-91390036D01*
X129115032Y-91449000D01*
X129018341Y-91528353D01*
X128333500Y-92215340D01*
X128333500Y-89613029D01*
X129399346Y-89613029D01*
X129399346Y-89837535D01*
X129796159Y-90238692D01*
X129892850Y-90318045D01*
X130003165Y-90377009D01*
X130122863Y-90413319D01*
X130247344Y-90425579D01*
X130371825Y-90413319D01*
X130491524Y-90377009D01*
X130601838Y-90318045D01*
X130698529Y-90238692D01*
X131696383Y-89236494D01*
X131696383Y-89011988D01*
X130848385Y-88163990D01*
X129399346Y-89613029D01*
X128333500Y-89613029D01*
X128333500Y-88585426D01*
X128407191Y-88585426D01*
X128419451Y-88709907D01*
X128455761Y-88829605D01*
X128514725Y-88939920D01*
X128594078Y-89036611D01*
X128995235Y-89433424D01*
X129219741Y-89433424D01*
X130668780Y-87984385D01*
X131027990Y-87984385D01*
X131875988Y-88832383D01*
X132100494Y-88832383D01*
X133102692Y-87834529D01*
X133182045Y-87737838D01*
X133241009Y-87627524D01*
X133277319Y-87507825D01*
X133289579Y-87383344D01*
X133277319Y-87258863D01*
X133241009Y-87139165D01*
X133182045Y-87028850D01*
X133102692Y-86932159D01*
X132701535Y-86535346D01*
X132477029Y-86535346D01*
X131027990Y-87984385D01*
X130668780Y-87984385D01*
X129820782Y-87136387D01*
X129596276Y-87136387D01*
X128594078Y-88134241D01*
X128514725Y-88230932D01*
X128455761Y-88341246D01*
X128419451Y-88460945D01*
X128407191Y-88585426D01*
X128333500Y-88585426D01*
X128333500Y-86732276D01*
X130000387Y-86732276D01*
X130000387Y-86956782D01*
X130848385Y-87804780D01*
X132297424Y-86355741D01*
X132297424Y-86131235D01*
X131900611Y-85730078D01*
X131803920Y-85650725D01*
X131693605Y-85591761D01*
X131573907Y-85555451D01*
X131449426Y-85543191D01*
X131324945Y-85555451D01*
X131205246Y-85591761D01*
X131094932Y-85650725D01*
X130998241Y-85730078D01*
X130000387Y-86732276D01*
X128333500Y-86732276D01*
X128333500Y-85548922D01*
X136170943Y-77764435D01*
X138036138Y-79629630D01*
X138084176Y-79691012D01*
X138126400Y-90204873D01*
X138126401Y-104531707D01*
X123048917Y-119609192D01*
X120400759Y-117028934D01*
X122644271Y-117028934D01*
X122708373Y-117297050D01*
X122959489Y-117450002D01*
X123235619Y-117551026D01*
X123526152Y-117596238D01*
X123819923Y-117583902D01*
X124105643Y-117514490D01*
X124372331Y-117390670D01*
X124385350Y-117381397D01*
X124463758Y-117131671D01*
X123502646Y-116170559D01*
X122644271Y-117028934D01*
X120400759Y-117028934D01*
X119311339Y-115967448D01*
X121897362Y-115967448D01*
X121942574Y-116257981D01*
X122043598Y-116534111D01*
X122196550Y-116785227D01*
X122464666Y-116849329D01*
X123323041Y-115990954D01*
X122361929Y-115029842D01*
X122112203Y-115108250D01*
X122102930Y-115121269D01*
X121979110Y-115387957D01*
X121909698Y-115673677D01*
X121897362Y-115967448D01*
X119311339Y-115967448D01*
X119299629Y-115956039D01*
X119280180Y-115940496D01*
X119258073Y-115929046D01*
X119234157Y-115922129D01*
X119211000Y-115920000D01*
X102511000Y-115920000D01*
X102486224Y-115922440D01*
X102462399Y-115929667D01*
X102440443Y-115941403D01*
X102424743Y-115953787D01*
X95866294Y-122022800D01*
X95823492Y-122022800D01*
X84190455Y-110389763D01*
X87356850Y-110389763D01*
X87369110Y-110514245D01*
X87405420Y-110633943D01*
X87464385Y-110744257D01*
X87543737Y-110840948D01*
X88765052Y-112062263D01*
X88861743Y-112141615D01*
X88972057Y-112200580D01*
X89091755Y-112236890D01*
X89216237Y-112249150D01*
X89340719Y-112236890D01*
X89460417Y-112200580D01*
X89517641Y-112169993D01*
X89527103Y-112395328D01*
X89596515Y-112681048D01*
X89720335Y-112947736D01*
X89729608Y-112960755D01*
X89979334Y-113039163D01*
X90940446Y-112078051D01*
X90926304Y-112063909D01*
X91105909Y-111884304D01*
X91120051Y-111898446D01*
X92081163Y-110937334D01*
X92002755Y-110687608D01*
X91989736Y-110678335D01*
X91723048Y-110554515D01*
X91437328Y-110485103D01*
X91211993Y-110475641D01*
X91242580Y-110418417D01*
X91278890Y-110298719D01*
X91291150Y-110174237D01*
X91278890Y-110049755D01*
X91275780Y-110039500D01*
X93030128Y-110039500D01*
X93042388Y-110163982D01*
X93078698Y-110283680D01*
X93137663Y-110393994D01*
X93217015Y-110490685D01*
X93313706Y-110570037D01*
X93424020Y-110629002D01*
X93543718Y-110665312D01*
X93668200Y-110677572D01*
X93782450Y-110674500D01*
X93941200Y-110515750D01*
X93941200Y-109791500D01*
X93191950Y-109791500D01*
X93033200Y-109950250D01*
X93030128Y-110039500D01*
X91275780Y-110039500D01*
X91242580Y-109930057D01*
X91183615Y-109819743D01*
X91104263Y-109723052D01*
X90759762Y-109378551D01*
X90740353Y-109314567D01*
X90663699Y-109171158D01*
X90560540Y-109045460D01*
X90434842Y-108942301D01*
X90291433Y-108865647D01*
X90227449Y-108846238D01*
X89882948Y-108501737D01*
X89786257Y-108422385D01*
X89675943Y-108363420D01*
X89556245Y-108327110D01*
X89431763Y-108314850D01*
X89307281Y-108327110D01*
X89187583Y-108363420D01*
X89077269Y-108422385D01*
X88980578Y-108501737D01*
X87543737Y-109938578D01*
X87464385Y-110035269D01*
X87405420Y-110145583D01*
X87369110Y-110265281D01*
X87356850Y-110389763D01*
X84190455Y-110389763D01*
X80833292Y-107032600D01*
X82676128Y-107032600D01*
X82688388Y-107157082D01*
X82724698Y-107276780D01*
X82783663Y-107387094D01*
X82863015Y-107483785D01*
X82959706Y-107563137D01*
X83070020Y-107622102D01*
X83189718Y-107658412D01*
X83314200Y-107670672D01*
X83553450Y-107667600D01*
X83712200Y-107508850D01*
X83712200Y-106834600D01*
X83966200Y-106834600D01*
X83966200Y-107508850D01*
X84124950Y-107667600D01*
X84364200Y-107670672D01*
X84488682Y-107658412D01*
X84608380Y-107622102D01*
X84718694Y-107563137D01*
X84815385Y-107483785D01*
X84894737Y-107387094D01*
X84953702Y-107276780D01*
X84990012Y-107157082D01*
X85002272Y-107032600D01*
X86826128Y-107032600D01*
X86838388Y-107157082D01*
X86874698Y-107276780D01*
X86933663Y-107387094D01*
X87013015Y-107483785D01*
X87109706Y-107563137D01*
X87220020Y-107622102D01*
X87339718Y-107658412D01*
X87464200Y-107670672D01*
X87703450Y-107667600D01*
X87862200Y-107508850D01*
X87862200Y-106834600D01*
X88116200Y-106834600D01*
X88116200Y-107508850D01*
X88274950Y-107667600D01*
X88514200Y-107670672D01*
X88638682Y-107658412D01*
X88758380Y-107622102D01*
X88868694Y-107563137D01*
X88965385Y-107483785D01*
X89044737Y-107387094D01*
X89103702Y-107276780D01*
X89140012Y-107157082D01*
X89152272Y-107032600D01*
X89149200Y-106993350D01*
X88990450Y-106834600D01*
X88116200Y-106834600D01*
X87862200Y-106834600D01*
X86987950Y-106834600D01*
X86829200Y-106993350D01*
X86826128Y-107032600D01*
X85002272Y-107032600D01*
X84999200Y-106993350D01*
X84840450Y-106834600D01*
X83966200Y-106834600D01*
X83712200Y-106834600D01*
X82837950Y-106834600D01*
X82679200Y-106993350D01*
X82676128Y-107032600D01*
X80833292Y-107032600D01*
X80183292Y-106382600D01*
X82676128Y-106382600D01*
X82679200Y-106421850D01*
X82837950Y-106580600D01*
X83712200Y-106580600D01*
X83712200Y-105906350D01*
X83966200Y-105906350D01*
X83966200Y-106580600D01*
X84840450Y-106580600D01*
X84999200Y-106421850D01*
X85002272Y-106382600D01*
X86826128Y-106382600D01*
X86829200Y-106421850D01*
X86987950Y-106580600D01*
X87862200Y-106580600D01*
X87862200Y-105906350D01*
X88116200Y-105906350D01*
X88116200Y-106580600D01*
X88990450Y-106580600D01*
X89149200Y-106421850D01*
X89152272Y-106382600D01*
X89140012Y-106258118D01*
X89103702Y-106138420D01*
X89044737Y-106028106D01*
X88965385Y-105931415D01*
X88868694Y-105852063D01*
X88758380Y-105793098D01*
X88638682Y-105756788D01*
X88514200Y-105744528D01*
X88274950Y-105747600D01*
X88116200Y-105906350D01*
X87862200Y-105906350D01*
X87703450Y-105747600D01*
X87464200Y-105744528D01*
X87339718Y-105756788D01*
X87220020Y-105793098D01*
X87109706Y-105852063D01*
X87013015Y-105931415D01*
X86933663Y-106028106D01*
X86874698Y-106138420D01*
X86838388Y-106258118D01*
X86826128Y-106382600D01*
X85002272Y-106382600D01*
X84990012Y-106258118D01*
X84953702Y-106138420D01*
X84894737Y-106028106D01*
X84815385Y-105931415D01*
X84718694Y-105852063D01*
X84608380Y-105793098D01*
X84488682Y-105756788D01*
X84364200Y-105744528D01*
X84124950Y-105747600D01*
X83966200Y-105906350D01*
X83712200Y-105906350D01*
X83553450Y-105747600D01*
X83314200Y-105744528D01*
X83189718Y-105756788D01*
X83070020Y-105793098D01*
X82959706Y-105852063D01*
X82863015Y-105931415D01*
X82783663Y-106028106D01*
X82724698Y-106138420D01*
X82688388Y-106258118D01*
X82676128Y-106382600D01*
X80183292Y-106382600D01*
X78332400Y-104531709D01*
X78332400Y-96338500D01*
X79897428Y-96338500D01*
X79909688Y-96462982D01*
X79945998Y-96582680D01*
X80004963Y-96692994D01*
X80084315Y-96789685D01*
X80181006Y-96869037D01*
X80291320Y-96928002D01*
X80411018Y-96964312D01*
X80535500Y-96976572D01*
X80774750Y-96973500D01*
X80933500Y-96814750D01*
X80933500Y-96140500D01*
X81187500Y-96140500D01*
X81187500Y-96814750D01*
X81346250Y-96973500D01*
X81585500Y-96976572D01*
X81709982Y-96964312D01*
X81829680Y-96928002D01*
X81939994Y-96869037D01*
X82036685Y-96789685D01*
X82116037Y-96692994D01*
X82175002Y-96582680D01*
X82211312Y-96462982D01*
X82223572Y-96338500D01*
X84047428Y-96338500D01*
X84059688Y-96462982D01*
X84095998Y-96582680D01*
X84154963Y-96692994D01*
X84234315Y-96789685D01*
X84331006Y-96869037D01*
X84441320Y-96928002D01*
X84561018Y-96964312D01*
X84685500Y-96976572D01*
X84924750Y-96973500D01*
X85083500Y-96814750D01*
X85083500Y-96140500D01*
X84209250Y-96140500D01*
X84050500Y-96299250D01*
X84047428Y-96338500D01*
X82223572Y-96338500D01*
X82220500Y-96299250D01*
X82061750Y-96140500D01*
X81187500Y-96140500D01*
X80933500Y-96140500D01*
X80059250Y-96140500D01*
X79900500Y-96299250D01*
X79897428Y-96338500D01*
X78332400Y-96338500D01*
X78332400Y-95688500D01*
X79897428Y-95688500D01*
X79900500Y-95727750D01*
X80059250Y-95886500D01*
X80933500Y-95886500D01*
X80933500Y-95212250D01*
X81187500Y-95212250D01*
X81187500Y-95886500D01*
X82061750Y-95886500D01*
X82220500Y-95727750D01*
X82223572Y-95688500D01*
X82211312Y-95564018D01*
X82175002Y-95444320D01*
X82116037Y-95334006D01*
X82036685Y-95237315D01*
X81939994Y-95157963D01*
X81829680Y-95098998D01*
X81709982Y-95062688D01*
X81585500Y-95050428D01*
X81346250Y-95053500D01*
X81187500Y-95212250D01*
X80933500Y-95212250D01*
X80774750Y-95053500D01*
X80535500Y-95050428D01*
X80411018Y-95062688D01*
X80291320Y-95098998D01*
X80181006Y-95157963D01*
X80084315Y-95237315D01*
X80004963Y-95334006D01*
X79945998Y-95444320D01*
X79909688Y-95564018D01*
X79897428Y-95688500D01*
X78332400Y-95688500D01*
X78332400Y-93538500D01*
X79897428Y-93538500D01*
X79897428Y-94188500D01*
X79909688Y-94312982D01*
X79945998Y-94432680D01*
X80004963Y-94542994D01*
X80084315Y-94639685D01*
X80181006Y-94719037D01*
X80291320Y-94778002D01*
X80411018Y-94814312D01*
X80535500Y-94826572D01*
X81585500Y-94826572D01*
X81709982Y-94814312D01*
X81829680Y-94778002D01*
X81939994Y-94719037D01*
X82036685Y-94639685D01*
X82049968Y-94623500D01*
X84221032Y-94623500D01*
X84234315Y-94639685D01*
X84331006Y-94719037D01*
X84441320Y-94778002D01*
X84561018Y-94814312D01*
X84640673Y-94822157D01*
X84670499Y-94858501D01*
X84699502Y-94882303D01*
X84850847Y-95033649D01*
X84854617Y-95052599D01*
X84685500Y-95050428D01*
X84561018Y-95062688D01*
X84441320Y-95098998D01*
X84331006Y-95157963D01*
X84234315Y-95237315D01*
X84154963Y-95334006D01*
X84095998Y-95444320D01*
X84059688Y-95564018D01*
X84047428Y-95688500D01*
X84050500Y-95727750D01*
X84209250Y-95886500D01*
X85083500Y-95886500D01*
X85083500Y-95866500D01*
X85337500Y-95866500D01*
X85337500Y-95886500D01*
X85357500Y-95886500D01*
X85357500Y-96140500D01*
X85337500Y-96140500D01*
X85337500Y-96676603D01*
X85305973Y-96735586D01*
X85286854Y-96771354D01*
X85243397Y-96914615D01*
X85232400Y-97026268D01*
X85232400Y-97026278D01*
X85228724Y-97063600D01*
X85232400Y-97100923D01*
X85232400Y-97587916D01*
X85136580Y-97536698D01*
X85016882Y-97500388D01*
X84892400Y-97488128D01*
X84092400Y-97488128D01*
X83967918Y-97500388D01*
X83848220Y-97536698D01*
X83737906Y-97595663D01*
X83641215Y-97675015D01*
X83561863Y-97771706D01*
X83502898Y-97882020D01*
X83466588Y-98001718D01*
X83454328Y-98126200D01*
X83454328Y-98876200D01*
X83466588Y-99000682D01*
X83502898Y-99120380D01*
X83561863Y-99230694D01*
X83621432Y-99303280D01*
X83563783Y-99373526D01*
X83504818Y-99483840D01*
X83468508Y-99603538D01*
X83456248Y-99728020D01*
X83456248Y-100525580D01*
X83468508Y-100650062D01*
X83504818Y-100769760D01*
X83563783Y-100880074D01*
X83621432Y-100950320D01*
X83561863Y-101022906D01*
X83502898Y-101133220D01*
X83466588Y-101252918D01*
X83454328Y-101377400D01*
X83454328Y-102127400D01*
X83466588Y-102251882D01*
X83502898Y-102371580D01*
X83561863Y-102481894D01*
X83641215Y-102578585D01*
X83732401Y-102653419D01*
X83732401Y-102844658D01*
X83728723Y-102882000D01*
X83732400Y-102919333D01*
X83732401Y-103589598D01*
X83727470Y-103594528D01*
X83314200Y-103594528D01*
X83189718Y-103606788D01*
X83070020Y-103643098D01*
X82959706Y-103702063D01*
X82863015Y-103781415D01*
X82783663Y-103878106D01*
X82724698Y-103988420D01*
X82688388Y-104108118D01*
X82676128Y-104232600D01*
X82676128Y-104882600D01*
X82688388Y-105007082D01*
X82724698Y-105126780D01*
X82783663Y-105237094D01*
X82863015Y-105333785D01*
X82959706Y-105413137D01*
X83070020Y-105472102D01*
X83189718Y-105508412D01*
X83314200Y-105520672D01*
X84364200Y-105520672D01*
X84488682Y-105508412D01*
X84608380Y-105472102D01*
X84718694Y-105413137D01*
X84815385Y-105333785D01*
X84828668Y-105317600D01*
X86999732Y-105317600D01*
X87013015Y-105333785D01*
X87109706Y-105413137D01*
X87220020Y-105472102D01*
X87339718Y-105508412D01*
X87464200Y-105520672D01*
X88514200Y-105520672D01*
X88638682Y-105508412D01*
X88758380Y-105472102D01*
X88868694Y-105413137D01*
X88965385Y-105333785D01*
X89044737Y-105237094D01*
X89103702Y-105126780D01*
X89140012Y-105007082D01*
X89152272Y-104882600D01*
X89152272Y-104232600D01*
X89140012Y-104108118D01*
X89103702Y-103988420D01*
X89044737Y-103878106D01*
X88965385Y-103781415D01*
X88868694Y-103702063D01*
X88758380Y-103643098D01*
X88638682Y-103606788D01*
X88514200Y-103594528D01*
X87464200Y-103594528D01*
X87339718Y-103606788D01*
X87220020Y-103643098D01*
X87109706Y-103702063D01*
X87013015Y-103781415D01*
X86999732Y-103797600D01*
X85252400Y-103797600D01*
X85252400Y-103642000D01*
X86861678Y-103642000D01*
X86899000Y-103645676D01*
X86936322Y-103642000D01*
X86936333Y-103642000D01*
X87047986Y-103631003D01*
X87191247Y-103587546D01*
X87323276Y-103516974D01*
X87439001Y-103422001D01*
X87462803Y-103392998D01*
X87660002Y-103195800D01*
X87689001Y-103172001D01*
X87783974Y-103056276D01*
X87854546Y-102924247D01*
X87898003Y-102780986D01*
X87909000Y-102669333D01*
X87909000Y-102669324D01*
X87912676Y-102632001D01*
X87909000Y-102594678D01*
X87909000Y-96818546D01*
X87971729Y-96806068D01*
X88141889Y-96735586D01*
X88295028Y-96633262D01*
X88425262Y-96503028D01*
X88527586Y-96349889D01*
X88598068Y-96179729D01*
X88634000Y-95999089D01*
X88634000Y-95814911D01*
X88598068Y-95634271D01*
X88527586Y-95464111D01*
X88425262Y-95310972D01*
X88295028Y-95180738D01*
X88141889Y-95078414D01*
X87971729Y-95007932D01*
X87791089Y-94972000D01*
X87606911Y-94972000D01*
X87426271Y-95007932D01*
X87409000Y-95015086D01*
X87409000Y-94489951D01*
X87502586Y-94349889D01*
X87573068Y-94179729D01*
X87609000Y-93999089D01*
X87609000Y-93814911D01*
X87573068Y-93634271D01*
X87502586Y-93464111D01*
X87400262Y-93310972D01*
X87270028Y-93180738D01*
X87116889Y-93078414D01*
X86946729Y-93007932D01*
X86766089Y-92972000D01*
X86581911Y-92972000D01*
X86401271Y-93007932D01*
X86231111Y-93078414D01*
X86197701Y-93100738D01*
X86186685Y-93087315D01*
X86089994Y-93007963D01*
X85979680Y-92948998D01*
X85859982Y-92912688D01*
X85735500Y-92900428D01*
X84685500Y-92900428D01*
X84561018Y-92912688D01*
X84441320Y-92948998D01*
X84331006Y-93007963D01*
X84234315Y-93087315D01*
X84221032Y-93103500D01*
X83563164Y-93103500D01*
X83578302Y-93075180D01*
X83614612Y-92955482D01*
X83626872Y-92831000D01*
X83626872Y-92081000D01*
X83614612Y-91956518D01*
X83578302Y-91836820D01*
X83519337Y-91726506D01*
X83439985Y-91629815D01*
X83343294Y-91550463D01*
X83232980Y-91491498D01*
X83113282Y-91455188D01*
X82988800Y-91442928D01*
X82188800Y-91442928D01*
X82064318Y-91455188D01*
X81944620Y-91491498D01*
X81838800Y-91548061D01*
X81732980Y-91491498D01*
X81613282Y-91455188D01*
X81488800Y-91442928D01*
X80688800Y-91442928D01*
X80564318Y-91455188D01*
X80444620Y-91491498D01*
X80334306Y-91550463D01*
X80237615Y-91629815D01*
X80158263Y-91726506D01*
X80099298Y-91836820D01*
X80062988Y-91956518D01*
X80050728Y-92081000D01*
X80050728Y-92831000D01*
X80062988Y-92955482D01*
X80099259Y-93075051D01*
X80084315Y-93087315D01*
X80004963Y-93184006D01*
X79945998Y-93294320D01*
X79909688Y-93414018D01*
X79897428Y-93538500D01*
X78332400Y-93538500D01*
X78332400Y-79719891D01*
X83218067Y-74834224D01*
X100070389Y-91782298D01*
%TA.AperFunction,Conductor*%
D32*
G36*
X100070389Y-91782298D02*
G01*
X100070390Y-93891329D01*
X100066395Y-93931889D01*
X100082334Y-94093715D01*
X100129536Y-94249322D01*
X100206190Y-94392731D01*
X100226930Y-94418002D01*
X100309349Y-94518430D01*
X100340850Y-94544282D01*
X100985500Y-95188933D01*
X100985500Y-95684080D01*
X100927191Y-95574991D01*
X100739919Y-95346799D01*
X100511727Y-95159527D01*
X100251386Y-95020372D01*
X99968898Y-94934680D01*
X99675122Y-94905746D01*
X99381346Y-94934680D01*
X99344943Y-94945723D01*
X99355986Y-94909320D01*
X99384920Y-94615544D01*
X99355986Y-94321768D01*
X99270294Y-94039280D01*
X99131139Y-93778939D01*
X98943867Y-93550747D01*
X98715675Y-93363475D01*
X98455334Y-93224320D01*
X98172846Y-93138628D01*
X97879070Y-93109694D01*
X97585294Y-93138628D01*
X97548893Y-93149670D01*
X97559935Y-93113269D01*
X97588869Y-92819493D01*
X97559935Y-92525717D01*
X97474243Y-92243229D01*
X97335088Y-91982888D01*
X97147816Y-91754696D01*
X96919624Y-91567424D01*
X96659283Y-91428269D01*
X96376795Y-91342577D01*
X96083019Y-91313643D01*
X95789243Y-91342577D01*
X95752842Y-91353619D01*
X95763884Y-91317218D01*
X95792818Y-91023442D01*
X95763884Y-90729666D01*
X95678192Y-90447178D01*
X95539037Y-90186837D01*
X95351765Y-89958645D01*
X95123573Y-89771373D01*
X94863232Y-89632218D01*
X94580744Y-89546526D01*
X94286968Y-89517592D01*
X93993192Y-89546526D01*
X93956791Y-89557568D01*
X93967833Y-89521167D01*
X93996767Y-89227391D01*
X93967833Y-88933615D01*
X93882141Y-88651127D01*
X93742986Y-88390786D01*
X93555714Y-88162594D01*
X93327522Y-87975322D01*
X93067181Y-87836167D01*
X92784693Y-87750475D01*
X92490917Y-87721541D01*
X92197141Y-87750475D01*
X92160738Y-87761518D01*
X92171781Y-87725115D01*
X92200715Y-87431339D01*
X92171781Y-87137563D01*
X92086089Y-86855075D01*
X91946934Y-86594734D01*
X91759662Y-86366542D01*
X91531470Y-86179270D01*
X91271129Y-86040115D01*
X90988641Y-85954423D01*
X90694865Y-85925489D01*
X90401089Y-85954423D01*
X90364688Y-85965465D01*
X90375730Y-85929064D01*
X90404664Y-85635288D01*
X90375730Y-85341512D01*
X90290038Y-85059024D01*
X90150883Y-84798683D01*
X89963611Y-84570491D01*
X89735419Y-84383219D01*
X89475078Y-84244064D01*
X89192590Y-84158372D01*
X88898814Y-84129438D01*
X88888434Y-84130460D01*
X88913580Y-84083417D01*
X88949890Y-83963719D01*
X88962150Y-83839237D01*
X88949890Y-83714755D01*
X88913580Y-83595057D01*
X88854615Y-83484743D01*
X88775263Y-83388052D01*
X87553948Y-82166737D01*
X87457257Y-82087385D01*
X87346943Y-82028420D01*
X87227245Y-81992110D01*
X87102763Y-81979850D01*
X86978281Y-81992110D01*
X86858583Y-82028420D01*
X86748269Y-82087385D01*
X86651578Y-82166737D01*
X85214737Y-83603578D01*
X85135385Y-83700269D01*
X85076420Y-83810583D01*
X85070714Y-83829394D01*
X84978983Y-83857220D01*
X84868669Y-83916185D01*
X84771978Y-83995537D01*
X83335137Y-85432378D01*
X83255785Y-85529069D01*
X83196820Y-85639383D01*
X83160510Y-85759081D01*
X83148250Y-85883563D01*
X83160510Y-86008045D01*
X83196820Y-86127743D01*
X83255785Y-86238057D01*
X83335137Y-86334748D01*
X83420336Y-86419947D01*
X83387445Y-86528374D01*
X83371506Y-86690200D01*
X83375501Y-86730760D01*
X83375500Y-88122849D01*
X83371506Y-88163400D01*
X83375500Y-88203950D01*
X83375500Y-88203952D01*
X83387444Y-88325225D01*
X83426676Y-88454555D01*
X83434647Y-88480833D01*
X83511301Y-88624242D01*
X83523462Y-88639060D01*
X83614459Y-88749941D01*
X83645966Y-88775798D01*
X85713848Y-90843681D01*
X85714932Y-90849129D01*
X85785414Y-91019289D01*
X85887738Y-91172428D01*
X86017972Y-91302662D01*
X86171111Y-91404986D01*
X86341271Y-91475468D01*
X86521911Y-91511400D01*
X86706089Y-91511400D01*
X86886729Y-91475468D01*
X87056889Y-91404986D01*
X87210028Y-91302662D01*
X87340262Y-91172428D01*
X87442586Y-91019289D01*
X87513068Y-90849129D01*
X87549000Y-90668489D01*
X87549000Y-90551999D01*
X87763134Y-90727734D01*
X88023475Y-90866889D01*
X88305963Y-90952581D01*
X88599739Y-90981515D01*
X88893515Y-90952581D01*
X88929918Y-90941538D01*
X88918875Y-90977941D01*
X88889941Y-91271717D01*
X88918875Y-91565493D01*
X89004567Y-91847981D01*
X89143722Y-92108322D01*
X89330994Y-92336514D01*
X89559186Y-92523786D01*
X89819527Y-92662941D01*
X90102015Y-92748633D01*
X90395791Y-92777567D01*
X90689567Y-92748633D01*
X90725968Y-92737591D01*
X90714926Y-92773992D01*
X90685992Y-93067768D01*
X90714926Y-93361544D01*
X90800618Y-93644032D01*
X90939773Y-93904373D01*
X91127045Y-94132565D01*
X91355237Y-94319837D01*
X91615578Y-94458992D01*
X91898066Y-94544684D01*
X92191842Y-94573618D01*
X92485618Y-94544684D01*
X92522019Y-94533642D01*
X92510977Y-94570043D01*
X92482043Y-94863819D01*
X92510977Y-95157595D01*
X92596669Y-95440083D01*
X92735824Y-95700424D01*
X92923096Y-95928616D01*
X93151288Y-96115888D01*
X93411629Y-96255043D01*
X93694117Y-96340735D01*
X93987893Y-96369669D01*
X94281669Y-96340735D01*
X94318070Y-96329693D01*
X94307028Y-96366094D01*
X94278094Y-96659870D01*
X94307028Y-96953646D01*
X94392720Y-97236134D01*
X94531875Y-97496475D01*
X94719147Y-97724667D01*
X94947339Y-97911939D01*
X95207680Y-98051094D01*
X95490168Y-98136786D01*
X95783944Y-98165720D01*
X96077720Y-98136786D01*
X96114123Y-98125743D01*
X96103080Y-98162146D01*
X96074146Y-98455922D01*
X96103080Y-98749698D01*
X96188772Y-99032186D01*
X96327927Y-99292527D01*
X96515199Y-99520719D01*
X96743391Y-99707991D01*
X97003732Y-99847146D01*
X97286220Y-99932838D01*
X97579996Y-99961772D01*
X97873772Y-99932838D01*
X98156260Y-99847146D01*
X98416601Y-99707991D01*
X98587609Y-99567648D01*
X98907248Y-99248009D01*
X99047591Y-99077001D01*
X99186746Y-98816660D01*
X99272438Y-98534172D01*
X99301372Y-98240396D01*
X99289138Y-98116184D01*
X99459596Y-98132972D01*
X99753372Y-98104038D01*
X100035860Y-98018346D01*
X100296201Y-97879191D01*
X100467209Y-97738848D01*
X100786848Y-97419209D01*
X100927191Y-97248201D01*
X100985501Y-97139111D01*
X100985501Y-97305065D01*
X99355966Y-98934602D01*
X99324459Y-98960459D01*
X99275215Y-99020464D01*
X99221301Y-99086158D01*
X99166271Y-99189111D01*
X99144647Y-99229567D01*
X99097444Y-99385175D01*
X99089513Y-99465702D01*
X99081506Y-99547000D01*
X99085500Y-99587551D01*
X99085501Y-104358521D01*
X99081506Y-104399081D01*
X99097445Y-104560907D01*
X99144647Y-104716514D01*
X99221301Y-104859923D01*
X99260756Y-104907998D01*
X99324460Y-104985622D01*
X99355961Y-105011474D01*
X101475077Y-107130592D01*
X101423906Y-107226326D01*
X101356147Y-107449700D01*
X101333267Y-107682000D01*
X101356147Y-107914300D01*
X101423906Y-108137674D01*
X101533942Y-108343536D01*
X101682025Y-108523975D01*
X101862464Y-108672058D01*
X101881064Y-108682000D01*
X101862464Y-108691942D01*
X101682025Y-108840025D01*
X101629112Y-108904500D01*
X99526597Y-108904500D01*
X99452765Y-108814535D01*
X99356074Y-108735183D01*
X99245760Y-108676218D01*
X99126062Y-108639908D01*
X99001580Y-108627648D01*
X98204020Y-108627648D01*
X98079538Y-108639908D01*
X97959840Y-108676218D01*
X97853500Y-108733059D01*
X97747160Y-108676218D01*
X97627462Y-108639908D01*
X97502980Y-108627648D01*
X96705420Y-108627648D01*
X96580938Y-108639908D01*
X96461240Y-108676218D01*
X96350926Y-108735183D01*
X96322243Y-108758722D01*
X96212380Y-108699998D01*
X96092682Y-108663688D01*
X95968200Y-108651428D01*
X95168200Y-108651428D01*
X95043718Y-108663688D01*
X94924020Y-108699998D01*
X94818200Y-108756561D01*
X94800573Y-108747139D01*
X94838502Y-108676180D01*
X94874812Y-108556482D01*
X94887072Y-108432000D01*
X94887072Y-107432000D01*
X94874812Y-107307518D01*
X94838502Y-107187820D01*
X94779537Y-107077506D01*
X94700185Y-106980815D01*
X94603494Y-106901463D01*
X94493180Y-106842498D01*
X94373482Y-106806188D01*
X94249000Y-106793928D01*
X92649000Y-106793928D01*
X92575334Y-106801183D01*
X92587072Y-106682000D01*
X92587072Y-105682000D01*
X92575334Y-105562817D01*
X92649000Y-105570072D01*
X94249000Y-105570072D01*
X94373482Y-105557812D01*
X94493180Y-105521502D01*
X94603494Y-105462537D01*
X94700185Y-105383185D01*
X94779537Y-105286494D01*
X94838502Y-105176180D01*
X94874812Y-105056482D01*
X94887072Y-104932000D01*
X94887072Y-103932000D01*
X94874812Y-103807518D01*
X94838502Y-103687820D01*
X94779537Y-103577506D01*
X94700185Y-103480815D01*
X94603494Y-103401463D01*
X94493180Y-103342498D01*
X94373482Y-103306188D01*
X94274500Y-103296439D01*
X94274500Y-100021983D01*
X94323068Y-99904729D01*
X94359000Y-99724089D01*
X94359000Y-99539911D01*
X94323068Y-99359271D01*
X94252586Y-99189111D01*
X94150262Y-99035972D01*
X94020028Y-98905738D01*
X93866889Y-98803414D01*
X93696729Y-98732932D01*
X93516089Y-98697000D01*
X93331911Y-98697000D01*
X93151271Y-98732932D01*
X92981111Y-98803414D01*
X92827972Y-98905738D01*
X92697738Y-99035972D01*
X92595414Y-99189111D01*
X92524932Y-99359271D01*
X92489000Y-99539911D01*
X92489000Y-99724089D01*
X92524932Y-99904729D01*
X92595414Y-100074889D01*
X92623501Y-100116924D01*
X92623500Y-103296439D01*
X92524518Y-103306188D01*
X92404820Y-103342498D01*
X92294506Y-103401463D01*
X92197815Y-103480815D01*
X92118463Y-103577506D01*
X92059498Y-103687820D01*
X92023188Y-103807518D01*
X92010928Y-103932000D01*
X92010928Y-104932000D01*
X92022666Y-105051183D01*
X91949000Y-105043928D01*
X90349000Y-105043928D01*
X90224518Y-105056188D01*
X90104820Y-105092498D01*
X89994506Y-105151463D01*
X89897815Y-105230815D01*
X89818463Y-105327506D01*
X89759498Y-105437820D01*
X89723188Y-105557518D01*
X89710928Y-105682000D01*
X89710928Y-106682000D01*
X89723188Y-106806482D01*
X89759498Y-106926180D01*
X89818463Y-107036494D01*
X89897815Y-107133185D01*
X89994506Y-107212537D01*
X90104820Y-107271502D01*
X90224518Y-107307812D01*
X90349000Y-107320072D01*
X91949000Y-107320072D01*
X92022666Y-107312817D01*
X92010928Y-107432000D01*
X92010928Y-108432000D01*
X92023188Y-108556482D01*
X92059498Y-108676180D01*
X92118463Y-108786494D01*
X92197815Y-108883185D01*
X92294506Y-108962537D01*
X92404820Y-109021502D01*
X92524518Y-109057812D01*
X92649000Y-109070072D01*
X93071190Y-109070072D01*
X93042388Y-109165018D01*
X93030128Y-109289500D01*
X93033200Y-109378750D01*
X93191950Y-109537500D01*
X93941200Y-109537500D01*
X93941200Y-109517500D01*
X94195200Y-109517500D01*
X94195200Y-109537500D01*
X94215200Y-109537500D01*
X94215200Y-109791500D01*
X94195200Y-109791500D01*
X94195200Y-110515750D01*
X94353950Y-110674500D01*
X94395969Y-110675630D01*
X93621403Y-111450196D01*
X93592399Y-111473999D01*
X93543968Y-111533013D01*
X93497426Y-111589724D01*
X93440819Y-111695628D01*
X93426854Y-111721754D01*
X93383397Y-111865015D01*
X93372400Y-111976668D01*
X93372400Y-111976678D01*
X93368724Y-112014000D01*
X93372400Y-112051322D01*
X93372400Y-112306034D01*
X93317641Y-112289423D01*
X93023865Y-112260489D01*
X92730089Y-112289423D01*
X92686737Y-112302574D01*
X92725335Y-112054545D01*
X92712999Y-111760774D01*
X92643587Y-111475054D01*
X92519767Y-111208366D01*
X92510494Y-111195347D01*
X92260768Y-111116939D01*
X91299656Y-112078051D01*
X91313799Y-112092194D01*
X91134194Y-112271799D01*
X91120051Y-112257656D01*
X90158939Y-113218768D01*
X90237347Y-113468494D01*
X90250366Y-113477767D01*
X90517054Y-113601587D01*
X90802774Y-113670999D01*
X91096545Y-113683335D01*
X91344574Y-113644737D01*
X91331423Y-113688089D01*
X91302489Y-113981865D01*
X91331423Y-114275641D01*
X91417115Y-114558129D01*
X91556270Y-114818470D01*
X91743542Y-115046662D01*
X91971734Y-115233934D01*
X92232075Y-115373089D01*
X92514563Y-115458781D01*
X92808339Y-115487715D01*
X93102115Y-115458781D01*
X93138518Y-115447738D01*
X93127475Y-115484141D01*
X93098541Y-115777917D01*
X93127475Y-116071693D01*
X93213167Y-116354181D01*
X93352322Y-116614522D01*
X93539594Y-116842714D01*
X93767786Y-117029986D01*
X94028127Y-117169141D01*
X94310615Y-117254833D01*
X94604391Y-117283767D01*
X94898167Y-117254833D01*
X95180655Y-117169141D01*
X95440996Y-117029986D01*
X95612004Y-116889643D01*
X95931643Y-116570004D01*
X96071986Y-116398996D01*
X96211141Y-116138655D01*
X96296833Y-115856167D01*
X96325767Y-115562391D01*
X96296833Y-115268615D01*
X96271732Y-115185868D01*
X96298001Y-115164309D01*
X96392974Y-115048584D01*
X96463546Y-114916555D01*
X96507003Y-114773294D01*
X96518000Y-114661641D01*
X96521677Y-114624308D01*
X96518000Y-114586975D01*
X96518000Y-114032533D01*
X96521677Y-113995200D01*
X96507003Y-113846214D01*
X96463546Y-113702953D01*
X96392974Y-113570924D01*
X96321799Y-113484197D01*
X96298001Y-113455199D01*
X96269004Y-113431402D01*
X95908400Y-113070799D01*
X95908400Y-112582801D01*
X96355447Y-112135755D01*
X100436046Y-112135755D01*
X101459683Y-113159392D01*
X101423906Y-113226326D01*
X101356147Y-113449700D01*
X101333267Y-113682000D01*
X101356147Y-113914300D01*
X101423906Y-114137674D01*
X101533942Y-114343536D01*
X101682025Y-114523975D01*
X101862464Y-114672058D01*
X102068326Y-114782094D01*
X102291700Y-114849853D01*
X102465793Y-114867000D01*
X103982207Y-114867000D01*
X104156300Y-114849853D01*
X104379674Y-114782094D01*
X104585536Y-114672058D01*
X104765975Y-114523975D01*
X104914058Y-114343536D01*
X105024094Y-114137674D01*
X105091853Y-113914300D01*
X105114733Y-113682000D01*
X105091853Y-113449700D01*
X105024094Y-113226326D01*
X104914058Y-113020464D01*
X104765975Y-112840025D01*
X104585536Y-112691942D01*
X104566936Y-112682000D01*
X104585536Y-112672058D01*
X104765975Y-112523975D01*
X104914058Y-112343536D01*
X105024094Y-112137674D01*
X105091853Y-111914300D01*
X105114733Y-111682000D01*
X105091853Y-111449700D01*
X105024094Y-111226326D01*
X104914058Y-111020464D01*
X104765975Y-110840025D01*
X104585536Y-110691942D01*
X104566936Y-110682000D01*
X104585536Y-110672058D01*
X104765975Y-110523975D01*
X104914058Y-110343536D01*
X105024094Y-110137674D01*
X105091853Y-109914300D01*
X105114733Y-109682000D01*
X105091853Y-109449700D01*
X105024094Y-109226326D01*
X104914058Y-109020464D01*
X104765975Y-108840025D01*
X104585536Y-108691942D01*
X104566936Y-108682000D01*
X104585536Y-108672058D01*
X104765975Y-108523975D01*
X104914058Y-108343536D01*
X105024094Y-108137674D01*
X105091853Y-107914300D01*
X105114733Y-107682000D01*
X105091853Y-107449700D01*
X105024094Y-107226326D01*
X104914058Y-107020464D01*
X104765975Y-106840025D01*
X104585536Y-106691942D01*
X104566936Y-106682000D01*
X104585536Y-106672058D01*
X104765975Y-106523975D01*
X104786985Y-106498374D01*
X104926271Y-106556068D01*
X105106911Y-106592000D01*
X105291089Y-106592000D01*
X105471729Y-106556068D01*
X105641889Y-106485586D01*
X105795028Y-106383262D01*
X105925262Y-106253028D01*
X106027586Y-106099889D01*
X106098068Y-105929729D01*
X106134000Y-105749089D01*
X106134000Y-105564911D01*
X106098068Y-105384271D01*
X106034996Y-105232000D01*
X106098068Y-105079729D01*
X106134000Y-104899089D01*
X106134000Y-104714911D01*
X106098068Y-104534271D01*
X106027586Y-104364111D01*
X105925262Y-104210972D01*
X105795028Y-104080738D01*
X105690879Y-104011148D01*
X105770028Y-103958262D01*
X105900262Y-103828028D01*
X106002586Y-103674889D01*
X106073068Y-103504729D01*
X106109000Y-103324089D01*
X106109000Y-103139911D01*
X106073068Y-102959271D01*
X106002586Y-102789111D01*
X105900262Y-102635972D01*
X105851416Y-102587126D01*
X105808974Y-102507723D01*
X105737799Y-102420997D01*
X105714001Y-102391999D01*
X105685003Y-102368201D01*
X105195372Y-101878571D01*
X105214733Y-101682000D01*
X105191853Y-101449700D01*
X105124094Y-101226326D01*
X105014058Y-101020464D01*
X104865975Y-100840025D01*
X104685536Y-100691942D01*
X104608539Y-100650786D01*
X104687948Y-100596734D01*
X104851725Y-100430119D01*
X104979850Y-100234754D01*
X105067399Y-100018147D01*
X105067803Y-99991744D01*
X104942361Y-99809000D01*
X103351000Y-99809000D01*
X103351000Y-99829000D01*
X103097000Y-99829000D01*
X103097000Y-99809000D01*
X101505639Y-99809000D01*
X101380197Y-99991744D01*
X101380601Y-100018147D01*
X101468150Y-100234754D01*
X101596275Y-100430119D01*
X101760052Y-100596734D01*
X101934111Y-100715211D01*
X101782025Y-100840025D01*
X101633942Y-101020464D01*
X101523906Y-101226326D01*
X101456147Y-101449700D01*
X101433267Y-101682000D01*
X101456147Y-101914300D01*
X101523906Y-102137674D01*
X101633942Y-102343536D01*
X101782025Y-102523975D01*
X101937695Y-102651730D01*
X101862464Y-102691942D01*
X101682025Y-102840025D01*
X101533942Y-103020464D01*
X101423906Y-103226326D01*
X101356147Y-103449700D01*
X101333267Y-103682000D01*
X101356147Y-103914300D01*
X101423906Y-104137674D01*
X101533942Y-104343536D01*
X101682025Y-104523975D01*
X101862464Y-104672058D01*
X101881064Y-104682000D01*
X101862464Y-104691942D01*
X101682025Y-104840025D01*
X101608710Y-104929359D01*
X100736500Y-104057149D01*
X100736500Y-99888932D01*
X101449131Y-99176302D01*
X101380601Y-99345853D01*
X101380197Y-99372256D01*
X101505639Y-99555000D01*
X103097000Y-99555000D01*
X103097000Y-98497000D01*
X102397000Y-98497000D01*
X102168258Y-98544546D01*
X102016490Y-98608944D01*
X102366045Y-98259389D01*
X102397541Y-98233541D01*
X102423389Y-98202045D01*
X102423392Y-98202042D01*
X102500699Y-98107843D01*
X102577353Y-97964434D01*
X102587192Y-97932000D01*
X102624556Y-97808826D01*
X102636500Y-97687553D01*
X102636500Y-97687551D01*
X102640494Y-97647000D01*
X102636500Y-97606450D01*
X102636500Y-94887542D01*
X102640493Y-94846999D01*
X102636500Y-94806456D01*
X102636500Y-94806447D01*
X102624556Y-94685174D01*
X102577353Y-94529566D01*
X102500699Y-94386158D01*
X102397541Y-94260459D01*
X102366040Y-94234607D01*
X101721389Y-93589957D01*
X101721389Y-92460883D01*
X109185500Y-92353227D01*
X109185501Y-96363312D01*
X109092026Y-96440025D01*
X108943943Y-96620464D01*
X108934000Y-96639065D01*
X108924058Y-96620464D01*
X108775975Y-96440025D01*
X108595536Y-96291942D01*
X108389674Y-96181906D01*
X108166300Y-96114147D01*
X107934000Y-96091267D01*
X107701701Y-96114147D01*
X107478327Y-96181906D01*
X107272465Y-96291942D01*
X107092026Y-96440025D01*
X106943943Y-96620464D01*
X106934000Y-96639065D01*
X106924058Y-96620464D01*
X106775975Y-96440025D01*
X106595536Y-96291942D01*
X106389674Y-96181906D01*
X106166300Y-96114147D01*
X105934000Y-96091267D01*
X105701701Y-96114147D01*
X105478327Y-96181906D01*
X105272465Y-96291942D01*
X105092026Y-96440025D01*
X104943943Y-96620464D01*
X104833906Y-96826326D01*
X104766147Y-97049700D01*
X104749000Y-97223793D01*
X104749000Y-98640206D01*
X104766147Y-98814299D01*
X104780415Y-98861336D01*
X104687948Y-98767266D01*
X104494813Y-98635804D01*
X104279742Y-98544546D01*
X104051000Y-98497000D01*
X103351000Y-98497000D01*
X103351000Y-99555000D01*
X104942361Y-99555000D01*
X105059503Y-99384347D01*
X105092025Y-99423975D01*
X105272464Y-99572058D01*
X105478326Y-99682094D01*
X105701700Y-99749853D01*
X105934000Y-99772733D01*
X106166299Y-99749853D01*
X106389673Y-99682094D01*
X106595535Y-99572058D01*
X106775975Y-99423975D01*
X106924058Y-99243536D01*
X106934000Y-99224935D01*
X106943942Y-99243535D01*
X107092025Y-99423975D01*
X107272464Y-99572058D01*
X107478326Y-99682094D01*
X107701700Y-99749853D01*
X107934000Y-99772733D01*
X108166299Y-99749853D01*
X108389673Y-99682094D01*
X108595535Y-99572058D01*
X108775975Y-99423975D01*
X108924058Y-99243536D01*
X108934000Y-99224935D01*
X108943942Y-99243535D01*
X109092025Y-99423975D01*
X109272464Y-99572058D01*
X109478326Y-99682094D01*
X109701700Y-99749853D01*
X109934000Y-99772733D01*
X110166299Y-99749853D01*
X110389673Y-99682094D01*
X110595535Y-99572058D01*
X110775975Y-99423975D01*
X110924058Y-99243536D01*
X110934000Y-99224935D01*
X110943942Y-99243535D01*
X111092025Y-99423975D01*
X111272464Y-99572058D01*
X111478326Y-99682094D01*
X111701700Y-99749853D01*
X111934000Y-99772733D01*
X112166299Y-99749853D01*
X112389673Y-99682094D01*
X112595535Y-99572058D01*
X112775975Y-99423975D01*
X112924058Y-99243536D01*
X112934000Y-99224935D01*
X112943942Y-99243535D01*
X113092025Y-99423975D01*
X113272464Y-99572058D01*
X113478326Y-99682094D01*
X113701700Y-99749853D01*
X113934000Y-99772733D01*
X114166299Y-99749853D01*
X114389673Y-99682094D01*
X114595535Y-99572058D01*
X114775975Y-99423975D01*
X114924058Y-99243536D01*
X114934000Y-99224935D01*
X114943942Y-99243535D01*
X115092025Y-99423975D01*
X115272464Y-99572058D01*
X115460500Y-99672566D01*
X115460500Y-99787089D01*
X115496432Y-99967729D01*
X115566914Y-100137889D01*
X115669238Y-100291028D01*
X115799472Y-100421262D01*
X115952611Y-100523586D01*
X116122771Y-100594068D01*
X116303411Y-100630000D01*
X116487589Y-100630000D01*
X116668229Y-100594068D01*
X116838389Y-100523586D01*
X116862463Y-100507500D01*
X117068504Y-100507500D01*
X117082025Y-100523975D01*
X117262464Y-100672058D01*
X117281064Y-100682000D01*
X117262464Y-100691942D01*
X117082025Y-100840025D01*
X117056257Y-100871423D01*
X116991889Y-100828414D01*
X116821729Y-100757932D01*
X116641089Y-100722000D01*
X116456911Y-100722000D01*
X116276271Y-100757932D01*
X116106111Y-100828414D01*
X115952972Y-100930738D01*
X115822738Y-101060972D01*
X115720414Y-101214111D01*
X115649932Y-101384271D01*
X115614000Y-101564911D01*
X115614000Y-101749089D01*
X115649932Y-101929729D01*
X115720414Y-102099889D01*
X115822738Y-102253028D01*
X115952972Y-102383262D01*
X116106111Y-102485586D01*
X116276271Y-102556068D01*
X116456911Y-102592000D01*
X116641089Y-102592000D01*
X116821729Y-102556068D01*
X116991889Y-102485586D01*
X117029755Y-102460285D01*
X117082025Y-102523975D01*
X117262464Y-102672058D01*
X117281064Y-102682000D01*
X117262464Y-102691942D01*
X117082025Y-102840025D01*
X117014750Y-102922000D01*
X116288802Y-102922000D01*
X115622153Y-102255351D01*
X115598068Y-102134271D01*
X115527586Y-101964111D01*
X115425262Y-101810972D01*
X115295028Y-101680738D01*
X115141889Y-101578414D01*
X114971729Y-101507932D01*
X114791089Y-101472000D01*
X114606911Y-101472000D01*
X114426271Y-101507932D01*
X114256111Y-101578414D01*
X114102972Y-101680738D01*
X113972738Y-101810972D01*
X113870414Y-101964111D01*
X113799932Y-102134271D01*
X113764000Y-102314911D01*
X113764000Y-102499089D01*
X113799932Y-102679729D01*
X113870414Y-102849889D01*
X113972738Y-103003028D01*
X114102972Y-103133262D01*
X114256111Y-103235586D01*
X114426271Y-103306068D01*
X114547351Y-103330153D01*
X115410200Y-104193002D01*
X115433999Y-104222001D01*
X115549724Y-104316974D01*
X115681753Y-104387546D01*
X115757999Y-104410675D01*
X115727972Y-104430738D01*
X115597738Y-104560972D01*
X115495414Y-104714111D01*
X115424932Y-104884271D01*
X115389000Y-105064911D01*
X115389000Y-105131665D01*
X115352972Y-105155738D01*
X115222738Y-105285972D01*
X115120414Y-105439111D01*
X115049932Y-105609271D01*
X115014000Y-105789911D01*
X115014000Y-105974089D01*
X115049932Y-106154729D01*
X115110617Y-106301236D01*
X114951271Y-106332932D01*
X114781111Y-106403414D01*
X114627972Y-106505738D01*
X114497738Y-106635972D01*
X114395414Y-106789111D01*
X114324932Y-106959271D01*
X114289000Y-107139911D01*
X114289000Y-107324089D01*
X114324932Y-107504729D01*
X114395414Y-107674889D01*
X114464001Y-107777537D01*
X114464000Y-112769677D01*
X114460324Y-112807000D01*
X114464000Y-112844322D01*
X114464000Y-112844332D01*
X114474997Y-112955985D01*
X114515380Y-113089111D01*
X114518454Y-113099246D01*
X114589026Y-113231276D01*
X114616630Y-113264911D01*
X114683999Y-113347001D01*
X114713002Y-113370803D01*
X115088263Y-113746064D01*
X115099932Y-113804729D01*
X115170414Y-113974889D01*
X115272738Y-114128028D01*
X115402972Y-114258262D01*
X115556111Y-114360586D01*
X115726271Y-114431068D01*
X115906911Y-114467000D01*
X116091089Y-114467000D01*
X116271729Y-114431068D01*
X116441889Y-114360586D01*
X116595028Y-114258262D01*
X116725262Y-114128028D01*
X116735928Y-114112065D01*
X116735928Y-114232000D01*
X116748188Y-114356482D01*
X116784498Y-114476180D01*
X116843463Y-114586494D01*
X116922815Y-114683185D01*
X117019506Y-114762537D01*
X117129820Y-114821502D01*
X117249518Y-114857812D01*
X117374000Y-114870072D01*
X119874000Y-114870072D01*
X119998482Y-114857812D01*
X120023453Y-114850237D01*
X122541534Y-114850237D01*
X123502646Y-115811349D01*
X123516789Y-115797207D01*
X123696394Y-115976812D01*
X123682251Y-115990954D01*
X124643363Y-116952066D01*
X124893089Y-116873658D01*
X124902362Y-116860639D01*
X125026182Y-116593951D01*
X125095594Y-116308231D01*
X125107930Y-116014460D01*
X125069332Y-115766430D01*
X125112685Y-115779581D01*
X125406461Y-115808515D01*
X125700237Y-115779581D01*
X125982725Y-115693889D01*
X126243066Y-115554734D01*
X126471258Y-115367462D01*
X126658530Y-115139270D01*
X126797685Y-114878929D01*
X126883377Y-114596441D01*
X126912311Y-114302665D01*
X126883377Y-114008889D01*
X126872335Y-113972488D01*
X126908736Y-113983530D01*
X127202512Y-114012464D01*
X127496288Y-113983530D01*
X127778776Y-113897838D01*
X128039117Y-113758683D01*
X128267309Y-113571411D01*
X128454581Y-113343219D01*
X128593736Y-113082878D01*
X128679428Y-112800390D01*
X128708362Y-112506614D01*
X128707340Y-112496234D01*
X128754383Y-112521380D01*
X128874081Y-112557690D01*
X128998563Y-112569950D01*
X129123045Y-112557690D01*
X129242743Y-112521380D01*
X129353057Y-112462415D01*
X129449748Y-112383063D01*
X130671063Y-111161748D01*
X130750415Y-111065057D01*
X130809380Y-110954743D01*
X130845690Y-110835045D01*
X130857950Y-110710563D01*
X130845690Y-110586081D01*
X130809380Y-110466383D01*
X130750415Y-110356069D01*
X130671063Y-110259378D01*
X129234222Y-108822537D01*
X129137531Y-108743185D01*
X129027217Y-108684220D01*
X128907519Y-108647910D01*
X128783037Y-108635650D01*
X128658555Y-108647910D01*
X128538857Y-108684220D01*
X128428543Y-108743185D01*
X128331852Y-108822537D01*
X127110537Y-110043852D01*
X127031185Y-110140543D01*
X126972220Y-110250857D01*
X126935910Y-110370555D01*
X126923650Y-110495037D01*
X126935910Y-110619519D01*
X126972220Y-110739217D01*
X126997366Y-110786260D01*
X126986986Y-110785238D01*
X126693210Y-110814172D01*
X126410722Y-110899864D01*
X126150381Y-111039019D01*
X125922189Y-111226291D01*
X125734917Y-111454483D01*
X125595762Y-111714824D01*
X125510070Y-111997312D01*
X125481136Y-112291088D01*
X125510070Y-112584864D01*
X125521112Y-112621265D01*
X125484711Y-112610223D01*
X125190935Y-112581289D01*
X124897159Y-112610223D01*
X124614671Y-112695915D01*
X124354330Y-112835070D01*
X124126138Y-113022342D01*
X123938866Y-113250534D01*
X123799711Y-113510875D01*
X123714019Y-113793363D01*
X123685085Y-114087139D01*
X123714019Y-114380915D01*
X123727170Y-114424268D01*
X123479140Y-114385670D01*
X123185369Y-114398006D01*
X122899649Y-114467418D01*
X122632961Y-114591238D01*
X122619942Y-114600511D01*
X122541534Y-114850237D01*
X120023453Y-114850237D01*
X120118180Y-114821502D01*
X120228494Y-114762537D01*
X120325185Y-114683185D01*
X120404537Y-114586494D01*
X120463502Y-114476180D01*
X120473870Y-114442000D01*
X120636678Y-114442000D01*
X120674000Y-114445676D01*
X120711322Y-114442000D01*
X120711333Y-114442000D01*
X120822986Y-114431003D01*
X120966247Y-114387546D01*
X121098276Y-114316974D01*
X121140742Y-114282123D01*
X121271729Y-114256068D01*
X121441889Y-114185586D01*
X121595028Y-114083262D01*
X121725262Y-113953028D01*
X121827586Y-113799889D01*
X121898068Y-113629729D01*
X121934000Y-113449089D01*
X121934000Y-113264911D01*
X121898068Y-113084271D01*
X121827586Y-112914111D01*
X121759000Y-112811465D01*
X121759000Y-111578985D01*
X121783386Y-111542489D01*
X121853868Y-111372329D01*
X121889800Y-111191689D01*
X121889800Y-111007511D01*
X121853868Y-110826871D01*
X121783386Y-110656711D01*
X121681062Y-110503572D01*
X121550828Y-110373338D01*
X121397689Y-110271014D01*
X121363856Y-110257000D01*
X121835928Y-110257000D01*
X121848188Y-110381482D01*
X121884498Y-110501180D01*
X121943463Y-110611494D01*
X122022815Y-110708185D01*
X122119506Y-110787537D01*
X122229820Y-110846502D01*
X122349518Y-110882812D01*
X122474000Y-110895072D01*
X122588250Y-110892000D01*
X122747000Y-110733250D01*
X122747000Y-110009000D01*
X121997750Y-110009000D01*
X121839000Y-110167750D01*
X121835928Y-110257000D01*
X121363856Y-110257000D01*
X121227529Y-110200532D01*
X121046889Y-110164600D01*
X120862711Y-110164600D01*
X120682071Y-110200532D01*
X120511911Y-110271014D01*
X120358772Y-110373338D01*
X120228538Y-110503572D01*
X120126214Y-110656711D01*
X120079634Y-110769166D01*
X119985536Y-110691942D01*
X119966936Y-110682000D01*
X119985536Y-110672058D01*
X120165975Y-110523975D01*
X120314058Y-110343536D01*
X120424094Y-110137674D01*
X120458478Y-110024323D01*
X121468002Y-109014800D01*
X121991699Y-109014800D01*
X122024335Y-109054568D01*
X122022815Y-109055815D01*
X121943463Y-109152506D01*
X121884498Y-109262820D01*
X121848188Y-109382518D01*
X121835928Y-109507000D01*
X121839000Y-109596250D01*
X121997750Y-109755000D01*
X122747000Y-109755000D01*
X122747000Y-109735000D01*
X123001000Y-109735000D01*
X123001000Y-109755000D01*
X123021000Y-109755000D01*
X123021000Y-110009000D01*
X123001000Y-110009000D01*
X123001000Y-110733250D01*
X123159750Y-110892000D01*
X123274000Y-110895072D01*
X123398482Y-110882812D01*
X123518180Y-110846502D01*
X123624000Y-110789939D01*
X123729820Y-110846502D01*
X123849518Y-110882812D01*
X123974000Y-110895072D01*
X124774000Y-110895072D01*
X124898482Y-110882812D01*
X125018180Y-110846502D01*
X125128494Y-110787537D01*
X125206238Y-110723734D01*
X125279471Y-110754068D01*
X125460111Y-110790000D01*
X125644289Y-110790000D01*
X125824929Y-110754068D01*
X125995089Y-110683586D01*
X126148228Y-110581262D01*
X126278462Y-110451028D01*
X126380786Y-110297889D01*
X126451268Y-110127729D01*
X126487200Y-109947089D01*
X126487200Y-109762911D01*
X126451268Y-109582271D01*
X126380786Y-109412111D01*
X126278462Y-109258972D01*
X126148228Y-109128738D01*
X125995089Y-109026414D01*
X125824929Y-108955932D01*
X125644289Y-108920000D01*
X125460111Y-108920000D01*
X125350443Y-108941815D01*
X125386702Y-108873980D01*
X125423012Y-108754282D01*
X125435272Y-108629800D01*
X125435272Y-107879800D01*
X125423012Y-107755318D01*
X125386702Y-107635620D01*
X125327737Y-107525306D01*
X125280215Y-107467400D01*
X125327737Y-107409494D01*
X125386702Y-107299180D01*
X125423012Y-107179482D01*
X125435272Y-107055000D01*
X125435272Y-106305000D01*
X125423012Y-106180518D01*
X125386702Y-106060820D01*
X125327737Y-105950506D01*
X125324835Y-105946970D01*
X125376617Y-105883874D01*
X125386599Y-105865200D01*
X127370999Y-105865200D01*
X129255601Y-107749803D01*
X129279399Y-107778801D01*
X129308397Y-107802599D01*
X129395123Y-107873774D01*
X129527153Y-107944346D01*
X129642596Y-107979365D01*
X129693931Y-108075406D01*
X129881203Y-108303597D01*
X130109394Y-108490869D01*
X130369736Y-108630025D01*
X130652223Y-108715716D01*
X130872381Y-108737400D01*
X131324419Y-108737400D01*
X131544577Y-108715716D01*
X131827064Y-108630025D01*
X132087406Y-108490869D01*
X132315597Y-108303597D01*
X132502869Y-108075406D01*
X132642025Y-107815064D01*
X132727716Y-107532577D01*
X132756651Y-107238800D01*
X132727716Y-106945023D01*
X132642025Y-106662536D01*
X132502869Y-106402194D01*
X132315597Y-106174003D01*
X132087406Y-105986731D01*
X132053860Y-105968800D01*
X132087406Y-105950869D01*
X132315597Y-105763597D01*
X132502869Y-105535406D01*
X132642025Y-105275064D01*
X132727716Y-104992577D01*
X132756651Y-104698800D01*
X132727716Y-104405023D01*
X132642025Y-104122536D01*
X132502869Y-103862194D01*
X132315597Y-103634003D01*
X132087406Y-103446731D01*
X132053860Y-103428800D01*
X132087406Y-103410869D01*
X132315597Y-103223597D01*
X132502869Y-102995406D01*
X132642025Y-102735064D01*
X132727716Y-102452577D01*
X132756651Y-102158800D01*
X132727716Y-101865023D01*
X132642025Y-101582536D01*
X132502869Y-101322194D01*
X132315597Y-101094003D01*
X132307535Y-101087386D01*
X132358580Y-101071902D01*
X132468894Y-101012937D01*
X132565585Y-100933585D01*
X132644937Y-100836894D01*
X132703902Y-100726580D01*
X132740212Y-100606882D01*
X132752472Y-100482400D01*
X132752472Y-98755200D01*
X132740212Y-98630718D01*
X132703902Y-98511020D01*
X132644937Y-98400706D01*
X132565585Y-98304015D01*
X132468894Y-98224663D01*
X132358580Y-98165698D01*
X132238882Y-98129388D01*
X132114400Y-98117128D01*
X130082400Y-98117128D01*
X129957918Y-98129388D01*
X129838220Y-98165698D01*
X129727906Y-98224663D01*
X129631215Y-98304015D01*
X129551863Y-98400706D01*
X129492898Y-98511020D01*
X129456588Y-98630718D01*
X129444328Y-98755200D01*
X129444328Y-100482400D01*
X129456588Y-100606882D01*
X129492898Y-100726580D01*
X129551863Y-100836894D01*
X129631215Y-100933585D01*
X129727906Y-101012937D01*
X129838220Y-101071902D01*
X129889265Y-101087386D01*
X129881203Y-101094003D01*
X129693931Y-101322194D01*
X129554775Y-101582536D01*
X129469084Y-101865023D01*
X129440149Y-102158800D01*
X129469084Y-102452577D01*
X129554775Y-102735064D01*
X129693931Y-102995406D01*
X129881203Y-103223597D01*
X130109394Y-103410869D01*
X130142940Y-103428800D01*
X130109394Y-103446731D01*
X129881203Y-103634003D01*
X129693931Y-103862194D01*
X129554775Y-104122536D01*
X129469084Y-104405023D01*
X129440149Y-104698800D01*
X129469084Y-104992577D01*
X129554775Y-105275064D01*
X129693931Y-105535406D01*
X129881203Y-105763597D01*
X130109394Y-105950869D01*
X130142940Y-105968800D01*
X130109394Y-105986731D01*
X129881203Y-106174003D01*
X129857855Y-106202453D01*
X128249604Y-104594203D01*
X128225801Y-104565199D01*
X128110076Y-104470226D01*
X127978047Y-104399654D01*
X127834786Y-104356197D01*
X127723133Y-104345200D01*
X127723122Y-104345200D01*
X127685800Y-104341524D01*
X127648478Y-104345200D01*
X125350252Y-104345200D01*
X125297265Y-104280635D01*
X125200574Y-104201283D01*
X125090260Y-104142318D01*
X124970562Y-104106008D01*
X124846080Y-104093748D01*
X124048520Y-104093748D01*
X123924038Y-104106008D01*
X123804340Y-104142318D01*
X123698000Y-104199159D01*
X123591660Y-104142318D01*
X123471962Y-104106008D01*
X123347480Y-104093748D01*
X122549920Y-104093748D01*
X122425438Y-104106008D01*
X122305740Y-104142318D01*
X122195426Y-104201283D01*
X122098735Y-104280635D01*
X122019383Y-104377326D01*
X121960418Y-104487640D01*
X121924108Y-104607338D01*
X121911848Y-104731820D01*
X121911848Y-105529380D01*
X121924108Y-105653862D01*
X121960418Y-105773560D01*
X122019383Y-105883874D01*
X122020365Y-105885070D01*
X121966663Y-105950506D01*
X121907698Y-106060820D01*
X121871388Y-106180518D01*
X121859128Y-106305000D01*
X121862200Y-106394250D01*
X122020950Y-106553000D01*
X122770200Y-106553000D01*
X122770200Y-106533000D01*
X123024200Y-106533000D01*
X123024200Y-106553000D01*
X123044200Y-106553000D01*
X123044200Y-106807000D01*
X123024200Y-106807000D01*
X123024200Y-106827000D01*
X122770200Y-106827000D01*
X122770200Y-106807000D01*
X122020950Y-106807000D01*
X121862200Y-106965750D01*
X121859128Y-107055000D01*
X121871388Y-107179482D01*
X121907698Y-107299180D01*
X121966663Y-107409494D01*
X122014185Y-107467400D01*
X121991699Y-107494800D01*
X121190533Y-107494800D01*
X121153200Y-107491123D01*
X121115867Y-107494800D01*
X121004214Y-107505797D01*
X120860953Y-107549254D01*
X120728924Y-107619826D01*
X120613199Y-107714799D01*
X120589401Y-107743797D01*
X120499824Y-107833374D01*
X120514733Y-107682000D01*
X120491853Y-107449700D01*
X120424094Y-107226326D01*
X120314058Y-107020464D01*
X120165975Y-106840025D01*
X119985536Y-106691942D01*
X119966936Y-106682000D01*
X119985536Y-106672058D01*
X120165975Y-106523975D01*
X120314058Y-106343536D01*
X120424094Y-106137674D01*
X120491853Y-105914300D01*
X120514733Y-105682000D01*
X120491853Y-105449700D01*
X120424094Y-105226326D01*
X120314058Y-105020464D01*
X120165975Y-104840025D01*
X119985536Y-104691942D01*
X119966936Y-104682000D01*
X119985536Y-104672058D01*
X120165975Y-104523975D01*
X120314058Y-104343536D01*
X120424094Y-104137674D01*
X120491853Y-103914300D01*
X120514733Y-103682000D01*
X120491853Y-103449700D01*
X120424094Y-103226326D01*
X120314058Y-103020464D01*
X120165975Y-102840025D01*
X119985536Y-102691942D01*
X119966936Y-102682000D01*
X119985536Y-102672058D01*
X120165975Y-102523975D01*
X120314058Y-102343536D01*
X120424094Y-102137674D01*
X120491853Y-101914300D01*
X120514733Y-101682000D01*
X120491853Y-101449700D01*
X120424094Y-101226326D01*
X120314058Y-101020464D01*
X120165975Y-100840025D01*
X119985536Y-100691942D01*
X119966936Y-100682000D01*
X119985536Y-100672058D01*
X120165975Y-100523975D01*
X120254356Y-100416282D01*
X120343111Y-100475586D01*
X120513271Y-100546068D01*
X120693911Y-100582000D01*
X120878089Y-100582000D01*
X121058729Y-100546068D01*
X121228889Y-100475586D01*
X121382028Y-100373262D01*
X121512262Y-100243028D01*
X121614586Y-100089889D01*
X121685068Y-99919729D01*
X121721000Y-99739089D01*
X121721000Y-99554911D01*
X121718017Y-99539911D01*
X122264000Y-99539911D01*
X122264000Y-99724089D01*
X122299932Y-99904729D01*
X122370414Y-100074889D01*
X122472738Y-100228028D01*
X122602972Y-100358262D01*
X122756111Y-100460586D01*
X122926271Y-100531068D01*
X123106911Y-100567000D01*
X123291089Y-100567000D01*
X123471729Y-100531068D01*
X123641889Y-100460586D01*
X123795028Y-100358262D01*
X123925262Y-100228028D01*
X124027586Y-100074889D01*
X124098068Y-99904729D01*
X124134000Y-99724089D01*
X124134000Y-99539911D01*
X124098068Y-99359271D01*
X124027586Y-99189111D01*
X123925262Y-99035972D01*
X123795028Y-98905738D01*
X123641889Y-98803414D01*
X123471729Y-98732932D01*
X123291089Y-98697000D01*
X123106911Y-98697000D01*
X122926271Y-98732932D01*
X122756111Y-98803414D01*
X122602972Y-98905738D01*
X122472738Y-99035972D01*
X122370414Y-99189111D01*
X122299932Y-99359271D01*
X122264000Y-99539911D01*
X121718017Y-99539911D01*
X121685068Y-99374271D01*
X121614586Y-99204111D01*
X121512262Y-99050972D01*
X121382028Y-98920738D01*
X121228889Y-98818414D01*
X121058729Y-98747932D01*
X120878089Y-98712000D01*
X120693911Y-98712000D01*
X120513271Y-98747932D01*
X120343111Y-98818414D01*
X120217254Y-98902509D01*
X120165975Y-98840025D01*
X119985536Y-98691942D01*
X119779674Y-98581906D01*
X119556300Y-98514147D01*
X119382207Y-98497000D01*
X117865793Y-98497000D01*
X117691700Y-98514147D01*
X117468326Y-98581906D01*
X117262464Y-98691942D01*
X117098035Y-98826886D01*
X117101853Y-98814300D01*
X117119000Y-98640207D01*
X117119000Y-97223793D01*
X117101853Y-97049700D01*
X117034094Y-96826326D01*
X116924058Y-96620464D01*
X116775975Y-96440025D01*
X116595536Y-96291942D01*
X116389674Y-96181906D01*
X116166300Y-96114147D01*
X115934000Y-96091267D01*
X115701701Y-96114147D01*
X115478327Y-96181906D01*
X115272465Y-96291942D01*
X115092026Y-96440025D01*
X114943943Y-96620464D01*
X114934000Y-96639065D01*
X114924058Y-96620464D01*
X114775975Y-96440025D01*
X114595536Y-96291942D01*
X114389674Y-96181906D01*
X114166300Y-96114147D01*
X113934000Y-96091267D01*
X113701701Y-96114147D01*
X113478327Y-96181906D01*
X113272465Y-96291942D01*
X113092026Y-96440025D01*
X112943943Y-96620464D01*
X112936500Y-96634389D01*
X112936500Y-92299126D01*
X121612832Y-92173987D01*
X121637570Y-92171189D01*
X121661288Y-92163620D01*
X121683073Y-92151568D01*
X121700498Y-92137106D01*
X126682501Y-87188766D01*
X126682500Y-91909900D01*
X125313350Y-91909900D01*
X125272800Y-91905906D01*
X125232249Y-91909900D01*
X125232247Y-91909900D01*
X125110974Y-91921844D01*
X124996669Y-91956518D01*
X124955366Y-91969047D01*
X124811957Y-92045701D01*
X124717758Y-92123008D01*
X124717755Y-92123011D01*
X124686259Y-92148859D01*
X124660411Y-92180355D01*
X122888966Y-93951802D01*
X122857459Y-93977659D01*
X122806889Y-94039280D01*
X122754301Y-94103358D01*
X122703048Y-94199246D01*
X122677647Y-94246767D01*
X122630444Y-94402375D01*
X122619654Y-94511935D01*
X122614506Y-94564200D01*
X122618500Y-94604751D01*
X122618501Y-95310492D01*
X122615414Y-95315111D01*
X122544932Y-95485271D01*
X122509000Y-95665911D01*
X122509000Y-95850089D01*
X122544932Y-96030729D01*
X122615414Y-96200889D01*
X122717738Y-96354028D01*
X122847972Y-96484262D01*
X123001111Y-96586586D01*
X123171271Y-96657068D01*
X123351911Y-96693000D01*
X123536089Y-96693000D01*
X123716729Y-96657068D01*
X123886889Y-96586586D01*
X124040028Y-96484262D01*
X124170262Y-96354028D01*
X124272586Y-96200889D01*
X124343068Y-96030729D01*
X124360790Y-95941634D01*
X126394142Y-95941634D01*
X126394142Y-96166141D01*
X126543467Y-96319811D01*
X126640158Y-96399164D01*
X126750473Y-96458128D01*
X126870171Y-96494437D01*
X126994652Y-96506698D01*
X127071229Y-96499155D01*
X127063687Y-96575732D01*
X127075947Y-96700214D01*
X127086811Y-96736027D01*
X127042776Y-96789685D01*
X126996101Y-96846558D01*
X126933690Y-96963320D01*
X126919447Y-96989967D01*
X126872244Y-97145575D01*
X126862137Y-97248201D01*
X126856306Y-97307400D01*
X126860300Y-97347950D01*
X126860300Y-97520292D01*
X126857214Y-97524911D01*
X126786732Y-97695071D01*
X126750800Y-97875711D01*
X126750800Y-98059889D01*
X126786732Y-98240529D01*
X126857214Y-98410689D01*
X126959538Y-98563828D01*
X127089772Y-98694062D01*
X127242911Y-98796386D01*
X127413071Y-98866868D01*
X127593711Y-98902800D01*
X127777889Y-98902800D01*
X127958529Y-98866868D01*
X128128689Y-98796386D01*
X128281828Y-98694062D01*
X128412062Y-98563828D01*
X128514386Y-98410689D01*
X128584868Y-98240529D01*
X128620800Y-98059889D01*
X128620800Y-97882123D01*
X128653046Y-97872341D01*
X128763360Y-97813376D01*
X128860051Y-97734024D01*
X129061938Y-97532137D01*
X135871800Y-97532137D01*
X135871800Y-97745863D01*
X135913496Y-97955483D01*
X135995285Y-98152940D01*
X136114025Y-98330647D01*
X136265153Y-98481775D01*
X136442860Y-98600515D01*
X136640317Y-98682304D01*
X136849937Y-98724000D01*
X137063663Y-98724000D01*
X137273283Y-98682304D01*
X137470740Y-98600515D01*
X137648447Y-98481775D01*
X137799575Y-98330647D01*
X137918315Y-98152940D01*
X138000104Y-97955483D01*
X138041800Y-97745863D01*
X138041800Y-97532137D01*
X138000104Y-97322517D01*
X137918315Y-97125060D01*
X137799575Y-96947353D01*
X137648447Y-96796225D01*
X137470740Y-96677485D01*
X137273283Y-96595696D01*
X137063663Y-96554000D01*
X136849937Y-96554000D01*
X136640317Y-96595696D01*
X136442860Y-96677485D01*
X136265153Y-96796225D01*
X136114025Y-96947353D01*
X135995285Y-97125060D01*
X135913496Y-97322517D01*
X135871800Y-97532137D01*
X129061938Y-97532137D01*
X132042032Y-94552043D01*
X132121384Y-94455352D01*
X132177352Y-94350644D01*
X134136961Y-94350644D01*
X134136961Y-94575150D01*
X134533774Y-94976307D01*
X134630465Y-95055660D01*
X134740780Y-95114624D01*
X134860478Y-95150934D01*
X134984959Y-95163194D01*
X135109440Y-95150934D01*
X135229139Y-95114624D01*
X135339453Y-95055660D01*
X135436144Y-94976307D01*
X135871800Y-94538754D01*
X135871800Y-94745863D01*
X135913496Y-94955483D01*
X135995285Y-95152940D01*
X136114025Y-95330647D01*
X136265153Y-95481775D01*
X136442860Y-95600515D01*
X136640317Y-95682304D01*
X136849937Y-95724000D01*
X137063663Y-95724000D01*
X137273283Y-95682304D01*
X137470740Y-95600515D01*
X137648447Y-95481775D01*
X137799575Y-95330647D01*
X137918315Y-95152940D01*
X138000104Y-94955483D01*
X138041800Y-94745863D01*
X138041800Y-94532137D01*
X138000104Y-94322517D01*
X137918315Y-94125060D01*
X137799575Y-93947353D01*
X137648447Y-93796225D01*
X137470740Y-93677485D01*
X137273283Y-93595696D01*
X137063663Y-93554000D01*
X136854177Y-93554000D01*
X137840307Y-92572144D01*
X137919660Y-92475453D01*
X137978624Y-92365139D01*
X138014934Y-92245440D01*
X138027194Y-92120959D01*
X138014934Y-91996478D01*
X137978624Y-91876780D01*
X137919660Y-91766465D01*
X137840307Y-91669774D01*
X137439150Y-91272961D01*
X137214644Y-91272961D01*
X135765605Y-92722000D01*
X135779748Y-92736143D01*
X135600143Y-92915748D01*
X135586000Y-92901605D01*
X134136961Y-94350644D01*
X132177352Y-94350644D01*
X132180349Y-94345038D01*
X132216659Y-94225340D01*
X132228919Y-94100858D01*
X132216659Y-93976376D01*
X132180349Y-93856678D01*
X132121384Y-93746364D01*
X132042032Y-93649673D01*
X131715400Y-93323041D01*
X133144806Y-93323041D01*
X133157066Y-93447522D01*
X133193376Y-93567220D01*
X133252340Y-93677535D01*
X133331693Y-93774226D01*
X133732850Y-94171039D01*
X133957356Y-94171039D01*
X135406395Y-92722000D01*
X134558397Y-91874002D01*
X134333891Y-91874002D01*
X133331693Y-92871856D01*
X133252340Y-92968547D01*
X133193376Y-93078861D01*
X133157066Y-93198560D01*
X133144806Y-93323041D01*
X131715400Y-93323041D01*
X131334925Y-92942566D01*
X131238234Y-92863214D01*
X131127920Y-92804249D01*
X131008222Y-92767939D01*
X130883740Y-92755679D01*
X130807162Y-92763221D01*
X130814705Y-92686645D01*
X130802444Y-92562164D01*
X130766135Y-92442466D01*
X130707171Y-92332151D01*
X130627818Y-92235460D01*
X130474148Y-92086135D01*
X130249641Y-92086135D01*
X128411694Y-93924082D01*
X128425837Y-93938224D01*
X128246231Y-94117830D01*
X128232089Y-94103687D01*
X126394142Y-95941634D01*
X124360790Y-95941634D01*
X124379000Y-95850089D01*
X124379000Y-95665911D01*
X124343068Y-95485271D01*
X124272586Y-95315111D01*
X124269500Y-95310492D01*
X124269500Y-94906132D01*
X125614734Y-93560900D01*
X126989395Y-93560900D01*
X125836360Y-94710334D01*
X125757007Y-94807025D01*
X125698043Y-94917339D01*
X125661734Y-95037038D01*
X125649473Y-95161519D01*
X125661734Y-95286000D01*
X125698043Y-95405698D01*
X125757007Y-95516013D01*
X125836360Y-95612704D01*
X125990030Y-95762029D01*
X126214537Y-95762029D01*
X128052484Y-93924082D01*
X128038342Y-93909940D01*
X128217947Y-93730335D01*
X128232089Y-93744477D01*
X130070036Y-91906530D01*
X130070036Y-91682023D01*
X129920711Y-91528353D01*
X129849476Y-91469891D01*
X134738002Y-91469891D01*
X134738002Y-91694397D01*
X135586000Y-92542395D01*
X137035039Y-91093356D01*
X137035039Y-90868850D01*
X136638226Y-90467693D01*
X136541535Y-90388340D01*
X136431220Y-90329376D01*
X136311522Y-90293066D01*
X136187041Y-90280806D01*
X136062560Y-90293066D01*
X135942861Y-90329376D01*
X135832547Y-90388340D01*
X135735856Y-90467693D01*
X134738002Y-91469891D01*
X129849476Y-91469891D01*
X129824020Y-91449000D01*
X129713705Y-91390036D01*
X129594007Y-91353727D01*
X129469526Y-91341466D01*
X129345045Y-91353727D01*
X129225346Y-91390036D01*
X129115032Y-91449000D01*
X129018341Y-91528353D01*
X128333500Y-92215340D01*
X128333500Y-89613029D01*
X129399346Y-89613029D01*
X129399346Y-89837535D01*
X129796159Y-90238692D01*
X129892850Y-90318045D01*
X130003165Y-90377009D01*
X130122863Y-90413319D01*
X130247344Y-90425579D01*
X130371825Y-90413319D01*
X130491524Y-90377009D01*
X130601838Y-90318045D01*
X130698529Y-90238692D01*
X131696383Y-89236494D01*
X131696383Y-89011988D01*
X130848385Y-88163990D01*
X129399346Y-89613029D01*
X128333500Y-89613029D01*
X128333500Y-88585426D01*
X128407191Y-88585426D01*
X128419451Y-88709907D01*
X128455761Y-88829605D01*
X128514725Y-88939920D01*
X128594078Y-89036611D01*
X128995235Y-89433424D01*
X129219741Y-89433424D01*
X130668780Y-87984385D01*
X131027990Y-87984385D01*
X131875988Y-88832383D01*
X132100494Y-88832383D01*
X133102692Y-87834529D01*
X133182045Y-87737838D01*
X133241009Y-87627524D01*
X133277319Y-87507825D01*
X133289579Y-87383344D01*
X133277319Y-87258863D01*
X133241009Y-87139165D01*
X133182045Y-87028850D01*
X133102692Y-86932159D01*
X132701535Y-86535346D01*
X132477029Y-86535346D01*
X131027990Y-87984385D01*
X130668780Y-87984385D01*
X129820782Y-87136387D01*
X129596276Y-87136387D01*
X128594078Y-88134241D01*
X128514725Y-88230932D01*
X128455761Y-88341246D01*
X128419451Y-88460945D01*
X128407191Y-88585426D01*
X128333500Y-88585426D01*
X128333500Y-86732276D01*
X130000387Y-86732276D01*
X130000387Y-86956782D01*
X130848385Y-87804780D01*
X132297424Y-86355741D01*
X132297424Y-86131235D01*
X131900611Y-85730078D01*
X131803920Y-85650725D01*
X131693605Y-85591761D01*
X131573907Y-85555451D01*
X131449426Y-85543191D01*
X131324945Y-85555451D01*
X131205246Y-85591761D01*
X131094932Y-85650725D01*
X130998241Y-85730078D01*
X130000387Y-86732276D01*
X128333500Y-86732276D01*
X128333500Y-85548922D01*
X136170943Y-77764435D01*
X138036138Y-79629630D01*
X138084176Y-79691012D01*
X138126400Y-90204873D01*
X138126401Y-104531707D01*
X123048917Y-119609192D01*
X120400759Y-117028934D01*
X122644271Y-117028934D01*
X122708373Y-117297050D01*
X122959489Y-117450002D01*
X123235619Y-117551026D01*
X123526152Y-117596238D01*
X123819923Y-117583902D01*
X124105643Y-117514490D01*
X124372331Y-117390670D01*
X124385350Y-117381397D01*
X124463758Y-117131671D01*
X123502646Y-116170559D01*
X122644271Y-117028934D01*
X120400759Y-117028934D01*
X119311339Y-115967448D01*
X121897362Y-115967448D01*
X121942574Y-116257981D01*
X122043598Y-116534111D01*
X122196550Y-116785227D01*
X122464666Y-116849329D01*
X123323041Y-115990954D01*
X122361929Y-115029842D01*
X122112203Y-115108250D01*
X122102930Y-115121269D01*
X121979110Y-115387957D01*
X121909698Y-115673677D01*
X121897362Y-115967448D01*
X119311339Y-115967448D01*
X119299629Y-115956039D01*
X119280180Y-115940496D01*
X119258073Y-115929046D01*
X119234157Y-115922129D01*
X119211000Y-115920000D01*
X102511000Y-115920000D01*
X102486224Y-115922440D01*
X102462399Y-115929667D01*
X102440443Y-115941403D01*
X102424743Y-115953787D01*
X95866294Y-122022800D01*
X95823492Y-122022800D01*
X84190455Y-110389763D01*
X87356850Y-110389763D01*
X87369110Y-110514245D01*
X87405420Y-110633943D01*
X87464385Y-110744257D01*
X87543737Y-110840948D01*
X88765052Y-112062263D01*
X88861743Y-112141615D01*
X88972057Y-112200580D01*
X89091755Y-112236890D01*
X89216237Y-112249150D01*
X89340719Y-112236890D01*
X89460417Y-112200580D01*
X89517641Y-112169993D01*
X89527103Y-112395328D01*
X89596515Y-112681048D01*
X89720335Y-112947736D01*
X89729608Y-112960755D01*
X89979334Y-113039163D01*
X90940446Y-112078051D01*
X90926304Y-112063909D01*
X91105909Y-111884304D01*
X91120051Y-111898446D01*
X92081163Y-110937334D01*
X92002755Y-110687608D01*
X91989736Y-110678335D01*
X91723048Y-110554515D01*
X91437328Y-110485103D01*
X91211993Y-110475641D01*
X91242580Y-110418417D01*
X91278890Y-110298719D01*
X91291150Y-110174237D01*
X91278890Y-110049755D01*
X91275780Y-110039500D01*
X93030128Y-110039500D01*
X93042388Y-110163982D01*
X93078698Y-110283680D01*
X93137663Y-110393994D01*
X93217015Y-110490685D01*
X93313706Y-110570037D01*
X93424020Y-110629002D01*
X93543718Y-110665312D01*
X93668200Y-110677572D01*
X93782450Y-110674500D01*
X93941200Y-110515750D01*
X93941200Y-109791500D01*
X93191950Y-109791500D01*
X93033200Y-109950250D01*
X93030128Y-110039500D01*
X91275780Y-110039500D01*
X91242580Y-109930057D01*
X91183615Y-109819743D01*
X91104263Y-109723052D01*
X90759762Y-109378551D01*
X90740353Y-109314567D01*
X90663699Y-109171158D01*
X90560540Y-109045460D01*
X90434842Y-108942301D01*
X90291433Y-108865647D01*
X90227449Y-108846238D01*
X89882948Y-108501737D01*
X89786257Y-108422385D01*
X89675943Y-108363420D01*
X89556245Y-108327110D01*
X89431763Y-108314850D01*
X89307281Y-108327110D01*
X89187583Y-108363420D01*
X89077269Y-108422385D01*
X88980578Y-108501737D01*
X87543737Y-109938578D01*
X87464385Y-110035269D01*
X87405420Y-110145583D01*
X87369110Y-110265281D01*
X87356850Y-110389763D01*
X84190455Y-110389763D01*
X80833292Y-107032600D01*
X82676128Y-107032600D01*
X82688388Y-107157082D01*
X82724698Y-107276780D01*
X82783663Y-107387094D01*
X82863015Y-107483785D01*
X82959706Y-107563137D01*
X83070020Y-107622102D01*
X83189718Y-107658412D01*
X83314200Y-107670672D01*
X83553450Y-107667600D01*
X83712200Y-107508850D01*
X83712200Y-106834600D01*
X83966200Y-106834600D01*
X83966200Y-107508850D01*
X84124950Y-107667600D01*
X84364200Y-107670672D01*
X84488682Y-107658412D01*
X84608380Y-107622102D01*
X84718694Y-107563137D01*
X84815385Y-107483785D01*
X84894737Y-107387094D01*
X84953702Y-107276780D01*
X84990012Y-107157082D01*
X85002272Y-107032600D01*
X86826128Y-107032600D01*
X86838388Y-107157082D01*
X86874698Y-107276780D01*
X86933663Y-107387094D01*
X87013015Y-107483785D01*
X87109706Y-107563137D01*
X87220020Y-107622102D01*
X87339718Y-107658412D01*
X87464200Y-107670672D01*
X87703450Y-107667600D01*
X87862200Y-107508850D01*
X87862200Y-106834600D01*
X88116200Y-106834600D01*
X88116200Y-107508850D01*
X88274950Y-107667600D01*
X88514200Y-107670672D01*
X88638682Y-107658412D01*
X88758380Y-107622102D01*
X88868694Y-107563137D01*
X88965385Y-107483785D01*
X89044737Y-107387094D01*
X89103702Y-107276780D01*
X89140012Y-107157082D01*
X89152272Y-107032600D01*
X89149200Y-106993350D01*
X88990450Y-106834600D01*
X88116200Y-106834600D01*
X87862200Y-106834600D01*
X86987950Y-106834600D01*
X86829200Y-106993350D01*
X86826128Y-107032600D01*
X85002272Y-107032600D01*
X84999200Y-106993350D01*
X84840450Y-106834600D01*
X83966200Y-106834600D01*
X83712200Y-106834600D01*
X82837950Y-106834600D01*
X82679200Y-106993350D01*
X82676128Y-107032600D01*
X80833292Y-107032600D01*
X80183292Y-106382600D01*
X82676128Y-106382600D01*
X82679200Y-106421850D01*
X82837950Y-106580600D01*
X83712200Y-106580600D01*
X83712200Y-105906350D01*
X83966200Y-105906350D01*
X83966200Y-106580600D01*
X84840450Y-106580600D01*
X84999200Y-106421850D01*
X85002272Y-106382600D01*
X86826128Y-106382600D01*
X86829200Y-106421850D01*
X86987950Y-106580600D01*
X87862200Y-106580600D01*
X87862200Y-105906350D01*
X88116200Y-105906350D01*
X88116200Y-106580600D01*
X88990450Y-106580600D01*
X89149200Y-106421850D01*
X89152272Y-106382600D01*
X89140012Y-106258118D01*
X89103702Y-106138420D01*
X89044737Y-106028106D01*
X88965385Y-105931415D01*
X88868694Y-105852063D01*
X88758380Y-105793098D01*
X88638682Y-105756788D01*
X88514200Y-105744528D01*
X88274950Y-105747600D01*
X88116200Y-105906350D01*
X87862200Y-105906350D01*
X87703450Y-105747600D01*
X87464200Y-105744528D01*
X87339718Y-105756788D01*
X87220020Y-105793098D01*
X87109706Y-105852063D01*
X87013015Y-105931415D01*
X86933663Y-106028106D01*
X86874698Y-106138420D01*
X86838388Y-106258118D01*
X86826128Y-106382600D01*
X85002272Y-106382600D01*
X84990012Y-106258118D01*
X84953702Y-106138420D01*
X84894737Y-106028106D01*
X84815385Y-105931415D01*
X84718694Y-105852063D01*
X84608380Y-105793098D01*
X84488682Y-105756788D01*
X84364200Y-105744528D01*
X84124950Y-105747600D01*
X83966200Y-105906350D01*
X83712200Y-105906350D01*
X83553450Y-105747600D01*
X83314200Y-105744528D01*
X83189718Y-105756788D01*
X83070020Y-105793098D01*
X82959706Y-105852063D01*
X82863015Y-105931415D01*
X82783663Y-106028106D01*
X82724698Y-106138420D01*
X82688388Y-106258118D01*
X82676128Y-106382600D01*
X80183292Y-106382600D01*
X78332400Y-104531709D01*
X78332400Y-96338500D01*
X79897428Y-96338500D01*
X79909688Y-96462982D01*
X79945998Y-96582680D01*
X80004963Y-96692994D01*
X80084315Y-96789685D01*
X80181006Y-96869037D01*
X80291320Y-96928002D01*
X80411018Y-96964312D01*
X80535500Y-96976572D01*
X80774750Y-96973500D01*
X80933500Y-96814750D01*
X80933500Y-96140500D01*
X81187500Y-96140500D01*
X81187500Y-96814750D01*
X81346250Y-96973500D01*
X81585500Y-96976572D01*
X81709982Y-96964312D01*
X81829680Y-96928002D01*
X81939994Y-96869037D01*
X82036685Y-96789685D01*
X82116037Y-96692994D01*
X82175002Y-96582680D01*
X82211312Y-96462982D01*
X82223572Y-96338500D01*
X84047428Y-96338500D01*
X84059688Y-96462982D01*
X84095998Y-96582680D01*
X84154963Y-96692994D01*
X84234315Y-96789685D01*
X84331006Y-96869037D01*
X84441320Y-96928002D01*
X84561018Y-96964312D01*
X84685500Y-96976572D01*
X84924750Y-96973500D01*
X85083500Y-96814750D01*
X85083500Y-96140500D01*
X84209250Y-96140500D01*
X84050500Y-96299250D01*
X84047428Y-96338500D01*
X82223572Y-96338500D01*
X82220500Y-96299250D01*
X82061750Y-96140500D01*
X81187500Y-96140500D01*
X80933500Y-96140500D01*
X80059250Y-96140500D01*
X79900500Y-96299250D01*
X79897428Y-96338500D01*
X78332400Y-96338500D01*
X78332400Y-95688500D01*
X79897428Y-95688500D01*
X79900500Y-95727750D01*
X80059250Y-95886500D01*
X80933500Y-95886500D01*
X80933500Y-95212250D01*
X81187500Y-95212250D01*
X81187500Y-95886500D01*
X82061750Y-95886500D01*
X82220500Y-95727750D01*
X82223572Y-95688500D01*
X82211312Y-95564018D01*
X82175002Y-95444320D01*
X82116037Y-95334006D01*
X82036685Y-95237315D01*
X81939994Y-95157963D01*
X81829680Y-95098998D01*
X81709982Y-95062688D01*
X81585500Y-95050428D01*
X81346250Y-95053500D01*
X81187500Y-95212250D01*
X80933500Y-95212250D01*
X80774750Y-95053500D01*
X80535500Y-95050428D01*
X80411018Y-95062688D01*
X80291320Y-95098998D01*
X80181006Y-95157963D01*
X80084315Y-95237315D01*
X80004963Y-95334006D01*
X79945998Y-95444320D01*
X79909688Y-95564018D01*
X79897428Y-95688500D01*
X78332400Y-95688500D01*
X78332400Y-93538500D01*
X79897428Y-93538500D01*
X79897428Y-94188500D01*
X79909688Y-94312982D01*
X79945998Y-94432680D01*
X80004963Y-94542994D01*
X80084315Y-94639685D01*
X80181006Y-94719037D01*
X80291320Y-94778002D01*
X80411018Y-94814312D01*
X80535500Y-94826572D01*
X81585500Y-94826572D01*
X81709982Y-94814312D01*
X81829680Y-94778002D01*
X81939994Y-94719037D01*
X82036685Y-94639685D01*
X82049968Y-94623500D01*
X84221032Y-94623500D01*
X84234315Y-94639685D01*
X84331006Y-94719037D01*
X84441320Y-94778002D01*
X84561018Y-94814312D01*
X84640673Y-94822157D01*
X84670499Y-94858501D01*
X84699502Y-94882303D01*
X84850847Y-95033649D01*
X84854617Y-95052599D01*
X84685500Y-95050428D01*
X84561018Y-95062688D01*
X84441320Y-95098998D01*
X84331006Y-95157963D01*
X84234315Y-95237315D01*
X84154963Y-95334006D01*
X84095998Y-95444320D01*
X84059688Y-95564018D01*
X84047428Y-95688500D01*
X84050500Y-95727750D01*
X84209250Y-95886500D01*
X85083500Y-95886500D01*
X85083500Y-95866500D01*
X85337500Y-95866500D01*
X85337500Y-95886500D01*
X85357500Y-95886500D01*
X85357500Y-96140500D01*
X85337500Y-96140500D01*
X85337500Y-96676603D01*
X85305973Y-96735586D01*
X85286854Y-96771354D01*
X85243397Y-96914615D01*
X85232400Y-97026268D01*
X85232400Y-97026278D01*
X85228724Y-97063600D01*
X85232400Y-97100923D01*
X85232400Y-97587916D01*
X85136580Y-97536698D01*
X85016882Y-97500388D01*
X84892400Y-97488128D01*
X84092400Y-97488128D01*
X83967918Y-97500388D01*
X83848220Y-97536698D01*
X83737906Y-97595663D01*
X83641215Y-97675015D01*
X83561863Y-97771706D01*
X83502898Y-97882020D01*
X83466588Y-98001718D01*
X83454328Y-98126200D01*
X83454328Y-98876200D01*
X83466588Y-99000682D01*
X83502898Y-99120380D01*
X83561863Y-99230694D01*
X83621432Y-99303280D01*
X83563783Y-99373526D01*
X83504818Y-99483840D01*
X83468508Y-99603538D01*
X83456248Y-99728020D01*
X83456248Y-100525580D01*
X83468508Y-100650062D01*
X83504818Y-100769760D01*
X83563783Y-100880074D01*
X83621432Y-100950320D01*
X83561863Y-101022906D01*
X83502898Y-101133220D01*
X83466588Y-101252918D01*
X83454328Y-101377400D01*
X83454328Y-102127400D01*
X83466588Y-102251882D01*
X83502898Y-102371580D01*
X83561863Y-102481894D01*
X83641215Y-102578585D01*
X83732401Y-102653419D01*
X83732401Y-102844658D01*
X83728723Y-102882000D01*
X83732400Y-102919333D01*
X83732401Y-103589598D01*
X83727470Y-103594528D01*
X83314200Y-103594528D01*
X83189718Y-103606788D01*
X83070020Y-103643098D01*
X82959706Y-103702063D01*
X82863015Y-103781415D01*
X82783663Y-103878106D01*
X82724698Y-103988420D01*
X82688388Y-104108118D01*
X82676128Y-104232600D01*
X82676128Y-104882600D01*
X82688388Y-105007082D01*
X82724698Y-105126780D01*
X82783663Y-105237094D01*
X82863015Y-105333785D01*
X82959706Y-105413137D01*
X83070020Y-105472102D01*
X83189718Y-105508412D01*
X83314200Y-105520672D01*
X84364200Y-105520672D01*
X84488682Y-105508412D01*
X84608380Y-105472102D01*
X84718694Y-105413137D01*
X84815385Y-105333785D01*
X84828668Y-105317600D01*
X86999732Y-105317600D01*
X87013015Y-105333785D01*
X87109706Y-105413137D01*
X87220020Y-105472102D01*
X87339718Y-105508412D01*
X87464200Y-105520672D01*
X88514200Y-105520672D01*
X88638682Y-105508412D01*
X88758380Y-105472102D01*
X88868694Y-105413137D01*
X88965385Y-105333785D01*
X89044737Y-105237094D01*
X89103702Y-105126780D01*
X89140012Y-105007082D01*
X89152272Y-104882600D01*
X89152272Y-104232600D01*
X89140012Y-104108118D01*
X89103702Y-103988420D01*
X89044737Y-103878106D01*
X88965385Y-103781415D01*
X88868694Y-103702063D01*
X88758380Y-103643098D01*
X88638682Y-103606788D01*
X88514200Y-103594528D01*
X87464200Y-103594528D01*
X87339718Y-103606788D01*
X87220020Y-103643098D01*
X87109706Y-103702063D01*
X87013015Y-103781415D01*
X86999732Y-103797600D01*
X85252400Y-103797600D01*
X85252400Y-103642000D01*
X86861678Y-103642000D01*
X86899000Y-103645676D01*
X86936322Y-103642000D01*
X86936333Y-103642000D01*
X87047986Y-103631003D01*
X87191247Y-103587546D01*
X87323276Y-103516974D01*
X87439001Y-103422001D01*
X87462803Y-103392998D01*
X87660002Y-103195800D01*
X87689001Y-103172001D01*
X87783974Y-103056276D01*
X87854546Y-102924247D01*
X87898003Y-102780986D01*
X87909000Y-102669333D01*
X87909000Y-102669324D01*
X87912676Y-102632001D01*
X87909000Y-102594678D01*
X87909000Y-96818546D01*
X87971729Y-96806068D01*
X88141889Y-96735586D01*
X88295028Y-96633262D01*
X88425262Y-96503028D01*
X88527586Y-96349889D01*
X88598068Y-96179729D01*
X88634000Y-95999089D01*
X88634000Y-95814911D01*
X88598068Y-95634271D01*
X88527586Y-95464111D01*
X88425262Y-95310972D01*
X88295028Y-95180738D01*
X88141889Y-95078414D01*
X87971729Y-95007932D01*
X87791089Y-94972000D01*
X87606911Y-94972000D01*
X87426271Y-95007932D01*
X87409000Y-95015086D01*
X87409000Y-94489951D01*
X87502586Y-94349889D01*
X87573068Y-94179729D01*
X87609000Y-93999089D01*
X87609000Y-93814911D01*
X87573068Y-93634271D01*
X87502586Y-93464111D01*
X87400262Y-93310972D01*
X87270028Y-93180738D01*
X87116889Y-93078414D01*
X86946729Y-93007932D01*
X86766089Y-92972000D01*
X86581911Y-92972000D01*
X86401271Y-93007932D01*
X86231111Y-93078414D01*
X86197701Y-93100738D01*
X86186685Y-93087315D01*
X86089994Y-93007963D01*
X85979680Y-92948998D01*
X85859982Y-92912688D01*
X85735500Y-92900428D01*
X84685500Y-92900428D01*
X84561018Y-92912688D01*
X84441320Y-92948998D01*
X84331006Y-93007963D01*
X84234315Y-93087315D01*
X84221032Y-93103500D01*
X83563164Y-93103500D01*
X83578302Y-93075180D01*
X83614612Y-92955482D01*
X83626872Y-92831000D01*
X83626872Y-92081000D01*
X83614612Y-91956518D01*
X83578302Y-91836820D01*
X83519337Y-91726506D01*
X83439985Y-91629815D01*
X83343294Y-91550463D01*
X83232980Y-91491498D01*
X83113282Y-91455188D01*
X82988800Y-91442928D01*
X82188800Y-91442928D01*
X82064318Y-91455188D01*
X81944620Y-91491498D01*
X81838800Y-91548061D01*
X81732980Y-91491498D01*
X81613282Y-91455188D01*
X81488800Y-91442928D01*
X80688800Y-91442928D01*
X80564318Y-91455188D01*
X80444620Y-91491498D01*
X80334306Y-91550463D01*
X80237615Y-91629815D01*
X80158263Y-91726506D01*
X80099298Y-91836820D01*
X80062988Y-91956518D01*
X80050728Y-92081000D01*
X80050728Y-92831000D01*
X80062988Y-92955482D01*
X80099259Y-93075051D01*
X80084315Y-93087315D01*
X80004963Y-93184006D01*
X79945998Y-93294320D01*
X79909688Y-93414018D01*
X79897428Y-93538500D01*
X78332400Y-93538500D01*
X78332400Y-79719891D01*
X83218067Y-74834224D01*
X100070389Y-91782298D01*
G37*
%TD.AperFunction*%
D31*
X87105199Y-87557709D02*
X87091056Y-87571851D01*
X87105199Y-87585994D01*
X86925594Y-87765599D01*
X86911451Y-87751456D01*
X86897309Y-87765599D01*
X86717704Y-87585994D01*
X86731846Y-87571851D01*
X86717704Y-87557709D01*
X86897309Y-87378104D01*
X86911451Y-87392246D01*
X86925594Y-87378104D01*
X87105199Y-87557709D01*
%TA.AperFunction,Conductor*%
D32*
G36*
X87105199Y-87557709D02*
G01*
X87091056Y-87571851D01*
X87105199Y-87585994D01*
X86925594Y-87765599D01*
X86911451Y-87751456D01*
X86897309Y-87765599D01*
X86717704Y-87585994D01*
X86731846Y-87571851D01*
X86717704Y-87557709D01*
X86897309Y-87378104D01*
X86911451Y-87392246D01*
X86925594Y-87378104D01*
X87105199Y-87557709D01*
G37*
%TD.AperFunction*%
%TD*%
M02*
