%TF.GenerationSoftware,KiCad,Pcbnew,(5.1.10)-1*%
%TF.CreationDate,2022-09-07T09:41:17-03:00*%
%TF.ProjectId,OpenBCI_Wifi_Shield,4f70656e-4243-4495-9f57-6966695f5368,v1.0.0*%
%TF.SameCoordinates,Original*%
%TF.FileFunction,OtherDrawing,Comment*%
%FSLAX46Y46*%
G04 Gerber Fmt 4.6, Leading zero omitted, Abs format (unit mm)*
G04 Created by KiCad (PCBNEW (5.1.10)-1) date 2022-09-07 09:41:17*
%MOMM*%
%LPD*%
G01*
G04 APERTURE LIST*
%ADD10C,0.300000*%
%ADD11C,0.200000*%
G04 APERTURE END LIST*
D10*
X94163727Y-69312295D02*
X94166211Y-69169460D01*
X94240113Y-69027866D01*
X94312773Y-68957691D01*
X94456850Y-68888757D01*
X94743763Y-68822307D01*
X95100852Y-68828518D01*
X95385281Y-68904904D01*
X95526875Y-68978805D01*
X95597050Y-69051465D01*
X95665984Y-69195543D01*
X95663500Y-69338378D01*
X95589598Y-69479972D01*
X95516938Y-69550148D01*
X95372861Y-69619081D01*
X95085948Y-69685531D01*
X94728859Y-69679321D01*
X94444430Y-69602935D01*
X94302836Y-69529033D01*
X94232660Y-69456373D01*
X94163727Y-69312295D01*
X95540537Y-68193210D02*
X95613197Y-68123034D01*
X95683373Y-68195694D01*
X95610713Y-68265870D01*
X95540537Y-68193210D01*
X95683373Y-68195694D01*
X94337614Y-67529335D02*
X94267438Y-67456675D01*
X94198504Y-67312598D01*
X94204714Y-66955509D01*
X94278616Y-66813915D01*
X94351276Y-66743740D01*
X94495354Y-66674806D01*
X94638189Y-66677290D01*
X94851201Y-66752434D01*
X95693309Y-67624352D01*
X95709456Y-66695921D01*
X94218377Y-66169913D02*
X94234524Y-65241482D01*
X94797171Y-65751343D01*
X94800898Y-65537090D01*
X94874799Y-65395496D01*
X94947459Y-65325321D01*
X95091537Y-65256387D01*
X95448626Y-65262597D01*
X95590219Y-65336499D01*
X95660395Y-65409159D01*
X95729329Y-65553236D01*
X95721876Y-65981743D01*
X95647974Y-66123337D01*
X95575315Y-66193512D01*
X94250670Y-64313051D02*
X94253154Y-64170216D01*
X94327056Y-64028622D01*
X94399716Y-63958447D01*
X94543794Y-63889513D01*
X94830707Y-63823063D01*
X95187796Y-63829274D01*
X95472225Y-63905659D01*
X95613818Y-63979561D01*
X95683994Y-64052221D01*
X95752928Y-64196299D01*
X95750443Y-64339134D01*
X95676542Y-64480728D01*
X95603882Y-64550904D01*
X95459804Y-64619837D01*
X95172891Y-64686287D01*
X94815802Y-64680077D01*
X94531373Y-64603691D01*
X94389780Y-64529789D01*
X94319604Y-64457129D01*
X94250670Y-64313051D01*
X94275511Y-62884696D02*
X94277995Y-62741860D01*
X94351897Y-62600267D01*
X94424557Y-62530091D01*
X94568635Y-62461157D01*
X94855548Y-62394708D01*
X95212637Y-62400918D01*
X95497066Y-62477304D01*
X95638659Y-62551206D01*
X95708835Y-62623866D01*
X95777768Y-62767943D01*
X95775284Y-62910779D01*
X95701383Y-63052372D01*
X95628723Y-63122548D01*
X95484645Y-63191482D01*
X95197732Y-63257931D01*
X94840643Y-63251721D01*
X94556214Y-63175335D01*
X94414621Y-63101433D01*
X94344445Y-63028773D01*
X94275511Y-62884696D01*
X95815030Y-60625410D02*
X94815181Y-60608021D01*
X94315257Y-60599327D02*
X94385432Y-60671987D01*
X94458092Y-60601811D01*
X94387917Y-60529151D01*
X94315257Y-60599327D01*
X94458092Y-60601811D01*
X94827602Y-59893844D02*
X95827450Y-59911232D01*
X94970437Y-59896328D02*
X94900261Y-59823668D01*
X94831328Y-59679590D01*
X94835054Y-59465337D01*
X94908956Y-59323744D01*
X95053033Y-59254810D01*
X95838629Y-59268473D01*
X93771116Y-61489988D02*
X93669516Y-67331988D01*
X92506800Y-61468000D02*
X96470708Y-61536937D01*
X92405200Y-67310000D02*
X96369108Y-67378937D01*
X93669516Y-67331988D02*
X93102772Y-66195457D01*
X93669516Y-67331988D02*
X94275436Y-66215852D01*
X93771116Y-61489988D02*
X93165196Y-62606124D01*
X93771116Y-61489988D02*
X94337860Y-62626519D01*
X143022571Y-116017857D02*
X143022571Y-115875000D01*
X143094000Y-115732142D01*
X143165428Y-115660714D01*
X143308285Y-115589285D01*
X143594000Y-115517857D01*
X143951142Y-115517857D01*
X144236857Y-115589285D01*
X144379714Y-115660714D01*
X144451142Y-115732142D01*
X144522571Y-115875000D01*
X144522571Y-116017857D01*
X144451142Y-116160714D01*
X144379714Y-116232142D01*
X144236857Y-116303571D01*
X143951142Y-116375000D01*
X143594000Y-116375000D01*
X143308285Y-116303571D01*
X143165428Y-116232142D01*
X143094000Y-116160714D01*
X143022571Y-116017857D01*
X144379714Y-114875000D02*
X144451142Y-114803571D01*
X144522571Y-114875000D01*
X144451142Y-114946428D01*
X144379714Y-114875000D01*
X144522571Y-114875000D01*
X144522571Y-114089285D02*
X144522571Y-113803571D01*
X144451142Y-113660714D01*
X144379714Y-113589285D01*
X144165428Y-113446428D01*
X143879714Y-113375000D01*
X143308285Y-113375000D01*
X143165428Y-113446428D01*
X143094000Y-113517857D01*
X143022571Y-113660714D01*
X143022571Y-113946428D01*
X143094000Y-114089285D01*
X143165428Y-114160714D01*
X143308285Y-114232142D01*
X143665428Y-114232142D01*
X143808285Y-114160714D01*
X143879714Y-114089285D01*
X143951142Y-113946428D01*
X143951142Y-113660714D01*
X143879714Y-113517857D01*
X143808285Y-113446428D01*
X143665428Y-113375000D01*
X144522571Y-111946428D02*
X144522571Y-112803571D01*
X144522571Y-112375000D02*
X143022571Y-112375000D01*
X143236857Y-112517857D01*
X143379714Y-112660714D01*
X143451142Y-112803571D01*
X143022571Y-111017857D02*
X143022571Y-110875000D01*
X143094000Y-110732142D01*
X143165428Y-110660714D01*
X143308285Y-110589285D01*
X143594000Y-110517857D01*
X143951142Y-110517857D01*
X144236857Y-110589285D01*
X144379714Y-110660714D01*
X144451142Y-110732142D01*
X144522571Y-110875000D01*
X144522571Y-111017857D01*
X144451142Y-111160714D01*
X144379714Y-111232142D01*
X144236857Y-111303571D01*
X143951142Y-111375000D01*
X143594000Y-111375000D01*
X143308285Y-111303571D01*
X143165428Y-111232142D01*
X143094000Y-111160714D01*
X143022571Y-111017857D01*
X143022571Y-109589285D02*
X143022571Y-109446428D01*
X143094000Y-109303571D01*
X143165428Y-109232142D01*
X143308285Y-109160714D01*
X143594000Y-109089285D01*
X143951142Y-109089285D01*
X144236857Y-109160714D01*
X144379714Y-109232142D01*
X144451142Y-109303571D01*
X144522571Y-109446428D01*
X144522571Y-109589285D01*
X144451142Y-109732142D01*
X144379714Y-109803571D01*
X144236857Y-109875000D01*
X143951142Y-109946428D01*
X143594000Y-109946428D01*
X143308285Y-109875000D01*
X143165428Y-109803571D01*
X143094000Y-109732142D01*
X143022571Y-109589285D01*
X144522571Y-107303571D02*
X143522571Y-107303571D01*
X143022571Y-107303571D02*
X143094000Y-107375000D01*
X143165428Y-107303571D01*
X143094000Y-107232142D01*
X143022571Y-107303571D01*
X143165428Y-107303571D01*
X143522571Y-106589285D02*
X144522571Y-106589285D01*
X143665428Y-106589285D02*
X143594000Y-106517857D01*
X143522571Y-106375000D01*
X143522571Y-106160714D01*
X143594000Y-106017857D01*
X143736857Y-105946428D01*
X144522571Y-105946428D01*
X142494000Y-122682000D02*
X142494000Y-99568000D01*
X120396000Y-122682000D02*
X145194000Y-122682000D01*
X120396000Y-99568000D02*
X145194000Y-99568000D01*
X142494000Y-99568000D02*
X143080421Y-100694504D01*
X142494000Y-99568000D02*
X141907579Y-100694504D01*
X142494000Y-122682000D02*
X143080421Y-121555496D01*
X142494000Y-122682000D02*
X141907579Y-121555496D01*
X129981142Y-104381571D02*
X130124000Y-104381571D01*
X130266857Y-104453000D01*
X130338285Y-104524428D01*
X130409714Y-104667285D01*
X130481142Y-104953000D01*
X130481142Y-105310142D01*
X130409714Y-105595857D01*
X130338285Y-105738714D01*
X130266857Y-105810142D01*
X130124000Y-105881571D01*
X129981142Y-105881571D01*
X129838285Y-105810142D01*
X129766857Y-105738714D01*
X129695428Y-105595857D01*
X129624000Y-105310142D01*
X129624000Y-104953000D01*
X129695428Y-104667285D01*
X129766857Y-104524428D01*
X129838285Y-104453000D01*
X129981142Y-104381571D01*
X131124000Y-105738714D02*
X131195428Y-105810142D01*
X131124000Y-105881571D01*
X131052571Y-105810142D01*
X131124000Y-105738714D01*
X131124000Y-105881571D01*
X131695428Y-104381571D02*
X132624000Y-104381571D01*
X132124000Y-104953000D01*
X132338285Y-104953000D01*
X132481142Y-105024428D01*
X132552571Y-105095857D01*
X132624000Y-105238714D01*
X132624000Y-105595857D01*
X132552571Y-105738714D01*
X132481142Y-105810142D01*
X132338285Y-105881571D01*
X131909714Y-105881571D01*
X131766857Y-105810142D01*
X131695428Y-105738714D01*
X133195428Y-104524428D02*
X133266857Y-104453000D01*
X133409714Y-104381571D01*
X133766857Y-104381571D01*
X133909714Y-104453000D01*
X133981142Y-104524428D01*
X134052571Y-104667285D01*
X134052571Y-104810142D01*
X133981142Y-105024428D01*
X133124000Y-105881571D01*
X134052571Y-105881571D01*
X134981142Y-104381571D02*
X135124000Y-104381571D01*
X135266857Y-104453000D01*
X135338285Y-104524428D01*
X135409714Y-104667285D01*
X135481142Y-104953000D01*
X135481142Y-105310142D01*
X135409714Y-105595857D01*
X135338285Y-105738714D01*
X135266857Y-105810142D01*
X135124000Y-105881571D01*
X134981142Y-105881571D01*
X134838285Y-105810142D01*
X134766857Y-105738714D01*
X134695428Y-105595857D01*
X134624000Y-105310142D01*
X134624000Y-104953000D01*
X134695428Y-104667285D01*
X134766857Y-104524428D01*
X134838285Y-104453000D01*
X134981142Y-104381571D01*
X136409714Y-104381571D02*
X136552571Y-104381571D01*
X136695428Y-104453000D01*
X136766857Y-104524428D01*
X136838285Y-104667285D01*
X136909714Y-104953000D01*
X136909714Y-105310142D01*
X136838285Y-105595857D01*
X136766857Y-105738714D01*
X136695428Y-105810142D01*
X136552571Y-105881571D01*
X136409714Y-105881571D01*
X136266857Y-105810142D01*
X136195428Y-105738714D01*
X136124000Y-105595857D01*
X136052571Y-105310142D01*
X136052571Y-104953000D01*
X136124000Y-104667285D01*
X136195428Y-104524428D01*
X136266857Y-104453000D01*
X136409714Y-104381571D01*
X138695428Y-105881571D02*
X138695428Y-104881571D01*
X138695428Y-104381571D02*
X138624000Y-104453000D01*
X138695428Y-104524428D01*
X138766857Y-104453000D01*
X138695428Y-104381571D01*
X138695428Y-104524428D01*
X139409714Y-104881571D02*
X139409714Y-105881571D01*
X139409714Y-105024428D02*
X139481142Y-104953000D01*
X139624000Y-104881571D01*
X139838285Y-104881571D01*
X139981142Y-104953000D01*
X140052571Y-105095857D01*
X140052571Y-105881571D01*
X138938000Y-106553000D02*
X130810000Y-106553000D01*
X138938000Y-111379000D02*
X138938000Y-103853000D01*
X130810000Y-111379000D02*
X130810000Y-103853000D01*
X130810000Y-106553000D02*
X131936504Y-105966579D01*
X130810000Y-106553000D02*
X131936504Y-107139421D01*
X138938000Y-106553000D02*
X137811496Y-105966579D01*
X138938000Y-106553000D02*
X137811496Y-107139421D01*
X92316571Y-115382857D02*
X92316571Y-115240000D01*
X92388000Y-115097142D01*
X92459428Y-115025714D01*
X92602285Y-114954285D01*
X92888000Y-114882857D01*
X93245142Y-114882857D01*
X93530857Y-114954285D01*
X93673714Y-115025714D01*
X93745142Y-115097142D01*
X93816571Y-115240000D01*
X93816571Y-115382857D01*
X93745142Y-115525714D01*
X93673714Y-115597142D01*
X93530857Y-115668571D01*
X93245142Y-115740000D01*
X92888000Y-115740000D01*
X92602285Y-115668571D01*
X92459428Y-115597142D01*
X92388000Y-115525714D01*
X92316571Y-115382857D01*
X93673714Y-114240000D02*
X93745142Y-114168571D01*
X93816571Y-114240000D01*
X93745142Y-114311428D01*
X93673714Y-114240000D01*
X93816571Y-114240000D01*
X93816571Y-113454285D02*
X93816571Y-113168571D01*
X93745142Y-113025714D01*
X93673714Y-112954285D01*
X93459428Y-112811428D01*
X93173714Y-112740000D01*
X92602285Y-112740000D01*
X92459428Y-112811428D01*
X92388000Y-112882857D01*
X92316571Y-113025714D01*
X92316571Y-113311428D01*
X92388000Y-113454285D01*
X92459428Y-113525714D01*
X92602285Y-113597142D01*
X92959428Y-113597142D01*
X93102285Y-113525714D01*
X93173714Y-113454285D01*
X93245142Y-113311428D01*
X93245142Y-113025714D01*
X93173714Y-112882857D01*
X93102285Y-112811428D01*
X92959428Y-112740000D01*
X92316571Y-111454285D02*
X92316571Y-111740000D01*
X92388000Y-111882857D01*
X92459428Y-111954285D01*
X92673714Y-112097142D01*
X92959428Y-112168571D01*
X93530857Y-112168571D01*
X93673714Y-112097142D01*
X93745142Y-112025714D01*
X93816571Y-111882857D01*
X93816571Y-111597142D01*
X93745142Y-111454285D01*
X93673714Y-111382857D01*
X93530857Y-111311428D01*
X93173714Y-111311428D01*
X93030857Y-111382857D01*
X92959428Y-111454285D01*
X92888000Y-111597142D01*
X92888000Y-111882857D01*
X92959428Y-112025714D01*
X93030857Y-112097142D01*
X93173714Y-112168571D01*
X92316571Y-110382857D02*
X92316571Y-110240000D01*
X92388000Y-110097142D01*
X92459428Y-110025714D01*
X92602285Y-109954285D01*
X92888000Y-109882857D01*
X93245142Y-109882857D01*
X93530857Y-109954285D01*
X93673714Y-110025714D01*
X93745142Y-110097142D01*
X93816571Y-110240000D01*
X93816571Y-110382857D01*
X93745142Y-110525714D01*
X93673714Y-110597142D01*
X93530857Y-110668571D01*
X93245142Y-110740000D01*
X92888000Y-110740000D01*
X92602285Y-110668571D01*
X92459428Y-110597142D01*
X92388000Y-110525714D01*
X92316571Y-110382857D01*
X92316571Y-108954285D02*
X92316571Y-108811428D01*
X92388000Y-108668571D01*
X92459428Y-108597142D01*
X92602285Y-108525714D01*
X92888000Y-108454285D01*
X93245142Y-108454285D01*
X93530857Y-108525714D01*
X93673714Y-108597142D01*
X93745142Y-108668571D01*
X93816571Y-108811428D01*
X93816571Y-108954285D01*
X93745142Y-109097142D01*
X93673714Y-109168571D01*
X93530857Y-109240000D01*
X93245142Y-109311428D01*
X92888000Y-109311428D01*
X92602285Y-109240000D01*
X92459428Y-109168571D01*
X92388000Y-109097142D01*
X92316571Y-108954285D01*
X93816571Y-106668571D02*
X92816571Y-106668571D01*
X92316571Y-106668571D02*
X92388000Y-106740000D01*
X92459428Y-106668571D01*
X92388000Y-106597142D01*
X92316571Y-106668571D01*
X92459428Y-106668571D01*
X92816571Y-105954285D02*
X93816571Y-105954285D01*
X92959428Y-105954285D02*
X92888000Y-105882857D01*
X92816571Y-105740000D01*
X92816571Y-105525714D01*
X92888000Y-105382857D01*
X93030857Y-105311428D01*
X93816571Y-105311428D01*
X94488000Y-122682000D02*
X94488000Y-98298000D01*
X97790000Y-122682000D02*
X91788000Y-122682000D01*
X97790000Y-98298000D02*
X91788000Y-98298000D01*
X94488000Y-98298000D02*
X95074421Y-99424504D01*
X94488000Y-98298000D02*
X93901579Y-99424504D01*
X94488000Y-122682000D02*
X95074421Y-121555496D01*
X94488000Y-122682000D02*
X93901579Y-121555496D01*
X82864142Y-92316571D02*
X83007000Y-92316571D01*
X83149857Y-92388000D01*
X83221285Y-92459428D01*
X83292714Y-92602285D01*
X83364142Y-92888000D01*
X83364142Y-93245142D01*
X83292714Y-93530857D01*
X83221285Y-93673714D01*
X83149857Y-93745142D01*
X83007000Y-93816571D01*
X82864142Y-93816571D01*
X82721285Y-93745142D01*
X82649857Y-93673714D01*
X82578428Y-93530857D01*
X82507000Y-93245142D01*
X82507000Y-92888000D01*
X82578428Y-92602285D01*
X82649857Y-92459428D01*
X82721285Y-92388000D01*
X82864142Y-92316571D01*
X84007000Y-93673714D02*
X84078428Y-93745142D01*
X84007000Y-93816571D01*
X83935571Y-93745142D01*
X84007000Y-93673714D01*
X84007000Y-93816571D01*
X84578428Y-92316571D02*
X85578428Y-92316571D01*
X84935571Y-93816571D01*
X86221285Y-93816571D02*
X86507000Y-93816571D01*
X86649857Y-93745142D01*
X86721285Y-93673714D01*
X86864142Y-93459428D01*
X86935571Y-93173714D01*
X86935571Y-92602285D01*
X86864142Y-92459428D01*
X86792714Y-92388000D01*
X86649857Y-92316571D01*
X86364142Y-92316571D01*
X86221285Y-92388000D01*
X86149857Y-92459428D01*
X86078428Y-92602285D01*
X86078428Y-92959428D01*
X86149857Y-93102285D01*
X86221285Y-93173714D01*
X86364142Y-93245142D01*
X86649857Y-93245142D01*
X86792714Y-93173714D01*
X86864142Y-93102285D01*
X86935571Y-92959428D01*
X87864142Y-92316571D02*
X88007000Y-92316571D01*
X88149857Y-92388000D01*
X88221285Y-92459428D01*
X88292714Y-92602285D01*
X88364142Y-92888000D01*
X88364142Y-93245142D01*
X88292714Y-93530857D01*
X88221285Y-93673714D01*
X88149857Y-93745142D01*
X88007000Y-93816571D01*
X87864142Y-93816571D01*
X87721285Y-93745142D01*
X87649857Y-93673714D01*
X87578428Y-93530857D01*
X87507000Y-93245142D01*
X87507000Y-92888000D01*
X87578428Y-92602285D01*
X87649857Y-92459428D01*
X87721285Y-92388000D01*
X87864142Y-92316571D01*
X89292714Y-92316571D02*
X89435571Y-92316571D01*
X89578428Y-92388000D01*
X89649857Y-92459428D01*
X89721285Y-92602285D01*
X89792714Y-92888000D01*
X89792714Y-93245142D01*
X89721285Y-93530857D01*
X89649857Y-93673714D01*
X89578428Y-93745142D01*
X89435571Y-93816571D01*
X89292714Y-93816571D01*
X89149857Y-93745142D01*
X89078428Y-93673714D01*
X89007000Y-93530857D01*
X88935571Y-93245142D01*
X88935571Y-92888000D01*
X89007000Y-92602285D01*
X89078428Y-92459428D01*
X89149857Y-92388000D01*
X89292714Y-92316571D01*
X91578428Y-93816571D02*
X91578428Y-92816571D01*
X91578428Y-92316571D02*
X91507000Y-92388000D01*
X91578428Y-92459428D01*
X91649857Y-92388000D01*
X91578428Y-92316571D01*
X91578428Y-92459428D01*
X92292714Y-92816571D02*
X92292714Y-93816571D01*
X92292714Y-92959428D02*
X92364142Y-92888000D01*
X92507000Y-92816571D01*
X92721285Y-92816571D01*
X92864142Y-92888000D01*
X92935571Y-93030857D01*
X92935571Y-93816571D01*
X77724000Y-94488000D02*
X97790000Y-94488000D01*
X77724000Y-96774000D02*
X77724000Y-91788000D01*
X97790000Y-96774000D02*
X97790000Y-91788000D01*
X97790000Y-94488000D02*
X96663496Y-95074421D01*
X97790000Y-94488000D02*
X96663496Y-93901579D01*
X77724000Y-94488000D02*
X78850504Y-95074421D01*
X77724000Y-94488000D02*
X78850504Y-93901579D01*
D11*
X142367000Y-79375000D02*
X142367000Y-79502000D01*
X77724000Y-79375000D02*
X142367000Y-79375000D01*
X77724000Y-104775000D02*
X141859000Y-104775000D01*
X121031000Y-59563000D02*
X120777000Y-59563000D01*
X121031000Y-122682000D02*
X121031000Y-59563000D01*
X141351000Y-61468000D02*
X141351000Y-61595000D01*
X77724000Y-61468000D02*
X141351000Y-61468000D01*
X138938000Y-54483000D02*
X138557000Y-54483000D01*
X138938000Y-122555000D02*
X138938000Y-54483000D01*
D10*
X72758571Y-75314357D02*
X72758571Y-75171500D01*
X72830000Y-75028642D01*
X72901428Y-74957214D01*
X73044285Y-74885785D01*
X73330000Y-74814357D01*
X73687142Y-74814357D01*
X73972857Y-74885785D01*
X74115714Y-74957214D01*
X74187142Y-75028642D01*
X74258571Y-75171500D01*
X74258571Y-75314357D01*
X74187142Y-75457214D01*
X74115714Y-75528642D01*
X73972857Y-75600071D01*
X73687142Y-75671500D01*
X73330000Y-75671500D01*
X73044285Y-75600071D01*
X72901428Y-75528642D01*
X72830000Y-75457214D01*
X72758571Y-75314357D01*
X74115714Y-74171500D02*
X74187142Y-74100071D01*
X74258571Y-74171500D01*
X74187142Y-74242928D01*
X74115714Y-74171500D01*
X74258571Y-74171500D01*
X72758571Y-73600071D02*
X72758571Y-72600071D01*
X74258571Y-73242928D01*
X72758571Y-71742928D02*
X72758571Y-71600071D01*
X72830000Y-71457214D01*
X72901428Y-71385785D01*
X73044285Y-71314357D01*
X73330000Y-71242928D01*
X73687142Y-71242928D01*
X73972857Y-71314357D01*
X74115714Y-71385785D01*
X74187142Y-71457214D01*
X74258571Y-71600071D01*
X74258571Y-71742928D01*
X74187142Y-71885785D01*
X74115714Y-71957214D01*
X73972857Y-72028642D01*
X73687142Y-72100071D01*
X73330000Y-72100071D01*
X73044285Y-72028642D01*
X72901428Y-71957214D01*
X72830000Y-71885785D01*
X72758571Y-71742928D01*
X72758571Y-69885785D02*
X72758571Y-70600071D01*
X73472857Y-70671500D01*
X73401428Y-70600071D01*
X73330000Y-70457214D01*
X73330000Y-70100071D01*
X73401428Y-69957214D01*
X73472857Y-69885785D01*
X73615714Y-69814357D01*
X73972857Y-69814357D01*
X74115714Y-69885785D01*
X74187142Y-69957214D01*
X74258571Y-70100071D01*
X74258571Y-70457214D01*
X74187142Y-70600071D01*
X74115714Y-70671500D01*
X72758571Y-68885785D02*
X72758571Y-68742928D01*
X72830000Y-68600071D01*
X72901428Y-68528642D01*
X73044285Y-68457214D01*
X73330000Y-68385785D01*
X73687142Y-68385785D01*
X73972857Y-68457214D01*
X74115714Y-68528642D01*
X74187142Y-68600071D01*
X74258571Y-68742928D01*
X74258571Y-68885785D01*
X74187142Y-69028642D01*
X74115714Y-69100071D01*
X73972857Y-69171500D01*
X73687142Y-69242928D01*
X73330000Y-69242928D01*
X73044285Y-69171500D01*
X72901428Y-69100071D01*
X72830000Y-69028642D01*
X72758571Y-68885785D01*
X74258571Y-66600071D02*
X73258571Y-66600071D01*
X72758571Y-66600071D02*
X72830000Y-66671500D01*
X72901428Y-66600071D01*
X72830000Y-66528642D01*
X72758571Y-66600071D01*
X72901428Y-66600071D01*
X73258571Y-65885785D02*
X74258571Y-65885785D01*
X73401428Y-65885785D02*
X73330000Y-65814357D01*
X73258571Y-65671500D01*
X73258571Y-65457214D01*
X73330000Y-65314357D01*
X73472857Y-65242928D01*
X74258571Y-65242928D01*
X74930000Y-79375000D02*
X74930000Y-61468000D01*
X77724000Y-79375000D02*
X72230000Y-79375000D01*
X77724000Y-61468000D02*
X72230000Y-61468000D01*
X74930000Y-61468000D02*
X75516421Y-62594504D01*
X74930000Y-61468000D02*
X74343579Y-62594504D01*
X74930000Y-79375000D02*
X75516421Y-78248496D01*
X74930000Y-79375000D02*
X74343579Y-78248496D01*
X74258571Y-96467857D02*
X74258571Y-97325000D01*
X74258571Y-96896428D02*
X72758571Y-96896428D01*
X72972857Y-97039285D01*
X73115714Y-97182142D01*
X73187142Y-97325000D01*
X74115714Y-95825000D02*
X74187142Y-95753571D01*
X74258571Y-95825000D01*
X74187142Y-95896428D01*
X74115714Y-95825000D01*
X74258571Y-95825000D01*
X72758571Y-94825000D02*
X72758571Y-94682142D01*
X72830000Y-94539285D01*
X72901428Y-94467857D01*
X73044285Y-94396428D01*
X73330000Y-94325000D01*
X73687142Y-94325000D01*
X73972857Y-94396428D01*
X74115714Y-94467857D01*
X74187142Y-94539285D01*
X74258571Y-94682142D01*
X74258571Y-94825000D01*
X74187142Y-94967857D01*
X74115714Y-95039285D01*
X73972857Y-95110714D01*
X73687142Y-95182142D01*
X73330000Y-95182142D01*
X73044285Y-95110714D01*
X72901428Y-95039285D01*
X72830000Y-94967857D01*
X72758571Y-94825000D01*
X72758571Y-93396428D02*
X72758571Y-93253571D01*
X72830000Y-93110714D01*
X72901428Y-93039285D01*
X73044285Y-92967857D01*
X73330000Y-92896428D01*
X73687142Y-92896428D01*
X73972857Y-92967857D01*
X74115714Y-93039285D01*
X74187142Y-93110714D01*
X74258571Y-93253571D01*
X74258571Y-93396428D01*
X74187142Y-93539285D01*
X74115714Y-93610714D01*
X73972857Y-93682142D01*
X73687142Y-93753571D01*
X73330000Y-93753571D01*
X73044285Y-93682142D01*
X72901428Y-93610714D01*
X72830000Y-93539285D01*
X72758571Y-93396428D01*
X72758571Y-91967857D02*
X72758571Y-91825000D01*
X72830000Y-91682142D01*
X72901428Y-91610714D01*
X73044285Y-91539285D01*
X73330000Y-91467857D01*
X73687142Y-91467857D01*
X73972857Y-91539285D01*
X74115714Y-91610714D01*
X74187142Y-91682142D01*
X74258571Y-91825000D01*
X74258571Y-91967857D01*
X74187142Y-92110714D01*
X74115714Y-92182142D01*
X73972857Y-92253571D01*
X73687142Y-92325000D01*
X73330000Y-92325000D01*
X73044285Y-92253571D01*
X72901428Y-92182142D01*
X72830000Y-92110714D01*
X72758571Y-91967857D01*
X72758571Y-90539285D02*
X72758571Y-90396428D01*
X72830000Y-90253571D01*
X72901428Y-90182142D01*
X73044285Y-90110714D01*
X73330000Y-90039285D01*
X73687142Y-90039285D01*
X73972857Y-90110714D01*
X74115714Y-90182142D01*
X74187142Y-90253571D01*
X74258571Y-90396428D01*
X74258571Y-90539285D01*
X74187142Y-90682142D01*
X74115714Y-90753571D01*
X73972857Y-90825000D01*
X73687142Y-90896428D01*
X73330000Y-90896428D01*
X73044285Y-90825000D01*
X72901428Y-90753571D01*
X72830000Y-90682142D01*
X72758571Y-90539285D01*
X74258571Y-88253571D02*
X73258571Y-88253571D01*
X72758571Y-88253571D02*
X72830000Y-88325000D01*
X72901428Y-88253571D01*
X72830000Y-88182142D01*
X72758571Y-88253571D01*
X72901428Y-88253571D01*
X73258571Y-87539285D02*
X74258571Y-87539285D01*
X73401428Y-87539285D02*
X73330000Y-87467857D01*
X73258571Y-87325000D01*
X73258571Y-87110714D01*
X73330000Y-86967857D01*
X73472857Y-86896428D01*
X74258571Y-86896428D01*
X74930000Y-104775000D02*
X74930000Y-79375000D01*
X77724000Y-104775000D02*
X72230000Y-104775000D01*
X77724000Y-79375000D02*
X72230000Y-79375000D01*
X74930000Y-79375000D02*
X75516421Y-80501504D01*
X74930000Y-79375000D02*
X74343579Y-80501504D01*
X74930000Y-104775000D02*
X75516421Y-103648496D01*
X74930000Y-104775000D02*
X74343579Y-103648496D01*
X72758571Y-118621357D02*
X72758571Y-118478500D01*
X72830000Y-118335642D01*
X72901428Y-118264214D01*
X73044285Y-118192785D01*
X73330000Y-118121357D01*
X73687142Y-118121357D01*
X73972857Y-118192785D01*
X74115714Y-118264214D01*
X74187142Y-118335642D01*
X74258571Y-118478500D01*
X74258571Y-118621357D01*
X74187142Y-118764214D01*
X74115714Y-118835642D01*
X73972857Y-118907071D01*
X73687142Y-118978500D01*
X73330000Y-118978500D01*
X73044285Y-118907071D01*
X72901428Y-118835642D01*
X72830000Y-118764214D01*
X72758571Y-118621357D01*
X74115714Y-117478500D02*
X74187142Y-117407071D01*
X74258571Y-117478500D01*
X74187142Y-117549928D01*
X74115714Y-117478500D01*
X74258571Y-117478500D01*
X72758571Y-116907071D02*
X72758571Y-115907071D01*
X74258571Y-116549928D01*
X72758571Y-115049928D02*
X72758571Y-114907071D01*
X72830000Y-114764214D01*
X72901428Y-114692785D01*
X73044285Y-114621357D01*
X73330000Y-114549928D01*
X73687142Y-114549928D01*
X73972857Y-114621357D01*
X74115714Y-114692785D01*
X74187142Y-114764214D01*
X74258571Y-114907071D01*
X74258571Y-115049928D01*
X74187142Y-115192785D01*
X74115714Y-115264214D01*
X73972857Y-115335642D01*
X73687142Y-115407071D01*
X73330000Y-115407071D01*
X73044285Y-115335642D01*
X72901428Y-115264214D01*
X72830000Y-115192785D01*
X72758571Y-115049928D01*
X72758571Y-113192785D02*
X72758571Y-113907071D01*
X73472857Y-113978500D01*
X73401428Y-113907071D01*
X73330000Y-113764214D01*
X73330000Y-113407071D01*
X73401428Y-113264214D01*
X73472857Y-113192785D01*
X73615714Y-113121357D01*
X73972857Y-113121357D01*
X74115714Y-113192785D01*
X74187142Y-113264214D01*
X74258571Y-113407071D01*
X74258571Y-113764214D01*
X74187142Y-113907071D01*
X74115714Y-113978500D01*
X72758571Y-112192785D02*
X72758571Y-112049928D01*
X72830000Y-111907071D01*
X72901428Y-111835642D01*
X73044285Y-111764214D01*
X73330000Y-111692785D01*
X73687142Y-111692785D01*
X73972857Y-111764214D01*
X74115714Y-111835642D01*
X74187142Y-111907071D01*
X74258571Y-112049928D01*
X74258571Y-112192785D01*
X74187142Y-112335642D01*
X74115714Y-112407071D01*
X73972857Y-112478500D01*
X73687142Y-112549928D01*
X73330000Y-112549928D01*
X73044285Y-112478500D01*
X72901428Y-112407071D01*
X72830000Y-112335642D01*
X72758571Y-112192785D01*
X74258571Y-109907071D02*
X73258571Y-109907071D01*
X72758571Y-109907071D02*
X72830000Y-109978500D01*
X72901428Y-109907071D01*
X72830000Y-109835642D01*
X72758571Y-109907071D01*
X72901428Y-109907071D01*
X73258571Y-109192785D02*
X74258571Y-109192785D01*
X73401428Y-109192785D02*
X73330000Y-109121357D01*
X73258571Y-108978500D01*
X73258571Y-108764214D01*
X73330000Y-108621357D01*
X73472857Y-108549928D01*
X74258571Y-108549928D01*
X74930000Y-122682000D02*
X74930000Y-104775000D01*
X77724000Y-122682000D02*
X72230000Y-122682000D01*
X77724000Y-104775000D02*
X72230000Y-104775000D01*
X74930000Y-104775000D02*
X75516421Y-105901504D01*
X74930000Y-104775000D02*
X74343579Y-105901504D01*
X74930000Y-122682000D02*
X75516421Y-121555496D01*
X74930000Y-122682000D02*
X74343579Y-121555496D01*
X125091642Y-126131571D02*
X125234500Y-126131571D01*
X125377357Y-126203000D01*
X125448785Y-126274428D01*
X125520214Y-126417285D01*
X125591642Y-126703000D01*
X125591642Y-127060142D01*
X125520214Y-127345857D01*
X125448785Y-127488714D01*
X125377357Y-127560142D01*
X125234500Y-127631571D01*
X125091642Y-127631571D01*
X124948785Y-127560142D01*
X124877357Y-127488714D01*
X124805928Y-127345857D01*
X124734500Y-127060142D01*
X124734500Y-126703000D01*
X124805928Y-126417285D01*
X124877357Y-126274428D01*
X124948785Y-126203000D01*
X125091642Y-126131571D01*
X126234500Y-127488714D02*
X126305928Y-127560142D01*
X126234500Y-127631571D01*
X126163071Y-127560142D01*
X126234500Y-127488714D01*
X126234500Y-127631571D01*
X126805928Y-126131571D02*
X127805928Y-126131571D01*
X127163071Y-127631571D01*
X128663071Y-126131571D02*
X128805928Y-126131571D01*
X128948785Y-126203000D01*
X129020214Y-126274428D01*
X129091642Y-126417285D01*
X129163071Y-126703000D01*
X129163071Y-127060142D01*
X129091642Y-127345857D01*
X129020214Y-127488714D01*
X128948785Y-127560142D01*
X128805928Y-127631571D01*
X128663071Y-127631571D01*
X128520214Y-127560142D01*
X128448785Y-127488714D01*
X128377357Y-127345857D01*
X128305928Y-127060142D01*
X128305928Y-126703000D01*
X128377357Y-126417285D01*
X128448785Y-126274428D01*
X128520214Y-126203000D01*
X128663071Y-126131571D01*
X130520214Y-126131571D02*
X129805928Y-126131571D01*
X129734500Y-126845857D01*
X129805928Y-126774428D01*
X129948785Y-126703000D01*
X130305928Y-126703000D01*
X130448785Y-126774428D01*
X130520214Y-126845857D01*
X130591642Y-126988714D01*
X130591642Y-127345857D01*
X130520214Y-127488714D01*
X130448785Y-127560142D01*
X130305928Y-127631571D01*
X129948785Y-127631571D01*
X129805928Y-127560142D01*
X129734500Y-127488714D01*
X131520214Y-126131571D02*
X131663071Y-126131571D01*
X131805928Y-126203000D01*
X131877357Y-126274428D01*
X131948785Y-126417285D01*
X132020214Y-126703000D01*
X132020214Y-127060142D01*
X131948785Y-127345857D01*
X131877357Y-127488714D01*
X131805928Y-127560142D01*
X131663071Y-127631571D01*
X131520214Y-127631571D01*
X131377357Y-127560142D01*
X131305928Y-127488714D01*
X131234500Y-127345857D01*
X131163071Y-127060142D01*
X131163071Y-126703000D01*
X131234500Y-126417285D01*
X131305928Y-126274428D01*
X131377357Y-126203000D01*
X131520214Y-126131571D01*
X133805928Y-127631571D02*
X133805928Y-126631571D01*
X133805928Y-126131571D02*
X133734500Y-126203000D01*
X133805928Y-126274428D01*
X133877357Y-126203000D01*
X133805928Y-126131571D01*
X133805928Y-126274428D01*
X134520214Y-126631571D02*
X134520214Y-127631571D01*
X134520214Y-126774428D02*
X134591642Y-126703000D01*
X134734500Y-126631571D01*
X134948785Y-126631571D01*
X135091642Y-126703000D01*
X135163071Y-126845857D01*
X135163071Y-127631571D01*
X121031000Y-125603000D02*
X138938000Y-125603000D01*
X121031000Y-122682000D02*
X121031000Y-128303000D01*
X138938000Y-122682000D02*
X138938000Y-128303000D01*
X138938000Y-125603000D02*
X137811496Y-126189421D01*
X138938000Y-125603000D02*
X137811496Y-125016579D01*
X121031000Y-125603000D02*
X122157504Y-126189421D01*
X121031000Y-125603000D02*
X122157504Y-125016579D01*
X103938142Y-127631570D02*
X103081000Y-127631570D01*
X103509571Y-127631570D02*
X103509571Y-126131570D01*
X103366714Y-126345856D01*
X103223857Y-126488713D01*
X103081000Y-126560141D01*
X104581000Y-127488713D02*
X104652428Y-127560141D01*
X104581000Y-127631570D01*
X104509571Y-127560141D01*
X104581000Y-127488713D01*
X104581000Y-127631570D01*
X105581000Y-126131570D02*
X105723857Y-126131570D01*
X105866714Y-126202999D01*
X105938142Y-126274427D01*
X106009571Y-126417284D01*
X106081000Y-126702999D01*
X106081000Y-127060141D01*
X106009571Y-127345856D01*
X105938142Y-127488713D01*
X105866714Y-127560141D01*
X105723857Y-127631570D01*
X105581000Y-127631570D01*
X105438142Y-127560141D01*
X105366714Y-127488713D01*
X105295285Y-127345856D01*
X105223857Y-127060141D01*
X105223857Y-126702999D01*
X105295285Y-126417284D01*
X105366714Y-126274427D01*
X105438142Y-126202999D01*
X105581000Y-126131570D01*
X107009571Y-126131570D02*
X107152428Y-126131570D01*
X107295285Y-126202999D01*
X107366714Y-126274427D01*
X107438142Y-126417284D01*
X107509571Y-126702999D01*
X107509571Y-127060141D01*
X107438142Y-127345856D01*
X107366714Y-127488713D01*
X107295285Y-127560141D01*
X107152428Y-127631570D01*
X107009571Y-127631570D01*
X106866714Y-127560141D01*
X106795285Y-127488713D01*
X106723857Y-127345856D01*
X106652428Y-127060141D01*
X106652428Y-126702999D01*
X106723857Y-126417284D01*
X106795285Y-126274427D01*
X106866714Y-126202999D01*
X107009571Y-126131570D01*
X108438142Y-126131570D02*
X108581000Y-126131570D01*
X108723857Y-126202999D01*
X108795285Y-126274427D01*
X108866714Y-126417284D01*
X108938142Y-126702999D01*
X108938142Y-127060141D01*
X108866714Y-127345856D01*
X108795285Y-127488713D01*
X108723857Y-127560141D01*
X108581000Y-127631570D01*
X108438142Y-127631570D01*
X108295285Y-127560141D01*
X108223857Y-127488713D01*
X108152428Y-127345856D01*
X108081000Y-127060141D01*
X108081000Y-126702999D01*
X108152428Y-126417284D01*
X108223857Y-126274427D01*
X108295285Y-126202999D01*
X108438142Y-126131570D01*
X109866714Y-126131570D02*
X110009571Y-126131570D01*
X110152428Y-126202999D01*
X110223857Y-126274427D01*
X110295285Y-126417284D01*
X110366714Y-126702999D01*
X110366714Y-127060141D01*
X110295285Y-127345856D01*
X110223857Y-127488713D01*
X110152428Y-127560141D01*
X110009571Y-127631570D01*
X109866714Y-127631570D01*
X109723857Y-127560141D01*
X109652428Y-127488713D01*
X109581000Y-127345856D01*
X109509571Y-127060141D01*
X109509571Y-126702999D01*
X109581000Y-126417284D01*
X109652428Y-126274427D01*
X109723857Y-126202999D01*
X109866714Y-126131570D01*
X112152428Y-127631570D02*
X112152428Y-126631570D01*
X112152428Y-126131570D02*
X112081000Y-126202999D01*
X112152428Y-126274427D01*
X112223857Y-126202999D01*
X112152428Y-126131570D01*
X112152428Y-126274427D01*
X112866714Y-126631570D02*
X112866714Y-127631570D01*
X112866714Y-126774427D02*
X112938142Y-126702999D01*
X113081000Y-126631570D01*
X113295285Y-126631570D01*
X113438142Y-126702999D01*
X113509571Y-126845856D01*
X113509571Y-127631570D01*
X95631000Y-125602999D02*
X121031000Y-125602999D01*
X95631000Y-122682000D02*
X95631000Y-128302999D01*
X121031000Y-122682000D02*
X121031000Y-128302999D01*
X121031000Y-125602999D02*
X119904496Y-126189420D01*
X121031000Y-125602999D02*
X119904496Y-125016578D01*
X95631000Y-125602999D02*
X96757504Y-126189420D01*
X95631000Y-125602999D02*
X96757504Y-125016578D01*
X81784642Y-126131571D02*
X81927500Y-126131571D01*
X82070357Y-126203000D01*
X82141785Y-126274428D01*
X82213214Y-126417285D01*
X82284642Y-126703000D01*
X82284642Y-127060142D01*
X82213214Y-127345857D01*
X82141785Y-127488714D01*
X82070357Y-127560142D01*
X81927500Y-127631571D01*
X81784642Y-127631571D01*
X81641785Y-127560142D01*
X81570357Y-127488714D01*
X81498928Y-127345857D01*
X81427500Y-127060142D01*
X81427500Y-126703000D01*
X81498928Y-126417285D01*
X81570357Y-126274428D01*
X81641785Y-126203000D01*
X81784642Y-126131571D01*
X82927500Y-127488714D02*
X82998928Y-127560142D01*
X82927500Y-127631571D01*
X82856071Y-127560142D01*
X82927500Y-127488714D01*
X82927500Y-127631571D01*
X83498928Y-126131571D02*
X84498928Y-126131571D01*
X83856071Y-127631571D01*
X85356071Y-126131571D02*
X85498928Y-126131571D01*
X85641785Y-126203000D01*
X85713214Y-126274428D01*
X85784642Y-126417285D01*
X85856071Y-126703000D01*
X85856071Y-127060142D01*
X85784642Y-127345857D01*
X85713214Y-127488714D01*
X85641785Y-127560142D01*
X85498928Y-127631571D01*
X85356071Y-127631571D01*
X85213214Y-127560142D01*
X85141785Y-127488714D01*
X85070357Y-127345857D01*
X84998928Y-127060142D01*
X84998928Y-126703000D01*
X85070357Y-126417285D01*
X85141785Y-126274428D01*
X85213214Y-126203000D01*
X85356071Y-126131571D01*
X87213214Y-126131571D02*
X86498928Y-126131571D01*
X86427500Y-126845857D01*
X86498928Y-126774428D01*
X86641785Y-126703000D01*
X86998928Y-126703000D01*
X87141785Y-126774428D01*
X87213214Y-126845857D01*
X87284642Y-126988714D01*
X87284642Y-127345857D01*
X87213214Y-127488714D01*
X87141785Y-127560142D01*
X86998928Y-127631571D01*
X86641785Y-127631571D01*
X86498928Y-127560142D01*
X86427500Y-127488714D01*
X88213214Y-126131571D02*
X88356071Y-126131571D01*
X88498928Y-126203000D01*
X88570357Y-126274428D01*
X88641785Y-126417285D01*
X88713214Y-126703000D01*
X88713214Y-127060142D01*
X88641785Y-127345857D01*
X88570357Y-127488714D01*
X88498928Y-127560142D01*
X88356071Y-127631571D01*
X88213214Y-127631571D01*
X88070357Y-127560142D01*
X87998928Y-127488714D01*
X87927500Y-127345857D01*
X87856071Y-127060142D01*
X87856071Y-126703000D01*
X87927500Y-126417285D01*
X87998928Y-126274428D01*
X88070357Y-126203000D01*
X88213214Y-126131571D01*
X90498928Y-127631571D02*
X90498928Y-126631571D01*
X90498928Y-126131571D02*
X90427500Y-126203000D01*
X90498928Y-126274428D01*
X90570357Y-126203000D01*
X90498928Y-126131571D01*
X90498928Y-126274428D01*
X91213214Y-126631571D02*
X91213214Y-127631571D01*
X91213214Y-126774428D02*
X91284642Y-126703000D01*
X91427500Y-126631571D01*
X91641785Y-126631571D01*
X91784642Y-126703000D01*
X91856071Y-126845857D01*
X91856071Y-127631571D01*
X77724000Y-125603000D02*
X95631000Y-125603000D01*
X77724000Y-122682000D02*
X77724000Y-128303000D01*
X95631000Y-122682000D02*
X95631000Y-128303000D01*
X95631000Y-125603000D02*
X94504496Y-126189421D01*
X95631000Y-125603000D02*
X94504496Y-125016579D01*
X77724000Y-125603000D02*
X78850504Y-126189421D01*
X77724000Y-125603000D02*
X78850504Y-125016579D01*
M02*
