M48
; DRILL file {KiCad (5.1.10)-1} date 09/07/22 09:41:34
; FORMAT={-:-/ absolute / inch / decimal}
; #@! TF.CreationDate,2022-09-07T09:41:34-03:00
; #@! TF.GenerationSoftware,Kicad,Pcbnew,(5.1.10)-1
; #@! TF.FileFunction,Plated,1,2,PTH
FMAT,2
INCH
T1C0.0157
T2C0.0287
T3C0.0394
T4C0.0400
%
G90
G05
T1
X3.28Y-3.78
X3.3769Y-3.7355
X3.3907Y-4.2011
X3.41Y-3.566
X3.4124Y-3.6971
X3.4527Y-3.7759
X3.6781Y-3.9225
X3.7037Y-4.3694
X3.9862Y-3.9274
X4.0905Y-3.8772
X4.1407Y-4.0643
X4.1417Y-3.9245
X4.1417Y-4.1263
X4.1417Y-4.1597
X4.3311Y-3.5924
X4.339Y-2.931
X4.4138Y-3.5885
X4.4374Y-3.179
X4.4532Y-2.8877
X4.5157Y-4.0318
X4.5364Y-4.2217
X4.5649Y-4.1686
X4.5669Y-4.4698
X4.5679Y-4.2109
X4.5679Y-4.4353
X4.5797Y-4.14
X4.5825Y-3.925
X4.587Y-2.8798
X4.5885Y-4.0022
X4.599Y-4.406
X4.7406Y-2.9152
X4.7554Y-3.9231
X4.762Y-4.374
X4.7637Y-4.4629
X4.774Y-4.2
X4.7819Y-4.2893
X4.8504Y-3.9225
X4.86Y-3.77
X4.9099Y-3.2105
X4.943Y-4.325
X5.02Y-3.651
X5.027Y-3.857
X5.2032Y-3.6475
X5.2219Y-3.3936
T2
X3.6187Y-3.1483
X3.6894Y-3.219
X3.7601Y-3.2897
X3.8309Y-3.3604
X3.8398Y-2.9272
X3.9016Y-3.4311
X3.9105Y-2.9979
X3.9723Y-3.5018
X3.9812Y-3.0687
X4.043Y-3.5725
X4.0519Y-3.1394
X4.1226Y-3.2101
X4.1933Y-3.2808
X4.264Y-3.3515
T3
X4.063Y-2.742
X4.0634Y-2.5215
X4.163Y-2.742
X4.1634Y-2.5215
X4.263Y-2.742
X4.2634Y-2.5215
X4.363Y-2.742
X4.3634Y-2.5215
X4.463Y-2.742
X4.4634Y-2.5215
T4
X3.351Y-3.377
X3.4217Y-3.4477
X3.425Y-3.305
X3.4924Y-3.5184
X3.4957Y-3.3757
X3.5167Y-4.3418
X3.5631Y-3.5891
X3.5664Y-3.4464
X3.5874Y-4.4125
X3.6338Y-3.6598
X3.6371Y-3.5171
X3.6581Y-4.4832
X3.665Y-2.6782
X3.665Y-2.7782
X3.7046Y-3.7306
X3.7078Y-3.5878
X3.7288Y-4.5539
X3.7753Y-3.8013
X3.7786Y-3.6586
X3.846Y-3.872
X3.8493Y-3.7293
X3.92Y-3.8
X4.6444Y-3.315
X4.6444Y-3.415
X4.85Y-2.6732
X4.85Y-2.7732
X4.8623Y-4.5666
X4.933Y-4.4959
X5.0037Y-4.4252
X5.0744Y-4.3544
X5.1614Y-3.922
X5.1614Y-4.022
X5.1614Y-4.122
X5.1614Y-4.222
T0
M30
