%TF.GenerationSoftware,KiCad,Pcbnew,(5.1.10)-1*%
%TF.CreationDate,2022-09-07T09:41:17-03:00*%
%TF.ProjectId,OpenBCI_Wifi_Shield,4f70656e-4243-4495-9f57-6966695f5368,v1.0.0*%
%TF.SameCoordinates,Original*%
%TF.FileFunction,Legend,Bot*%
%TF.FilePolarity,Positive*%
%FSLAX46Y46*%
G04 Gerber Fmt 4.6, Leading zero omitted, Abs format (unit mm)*
G04 Created by KiCad (PCBNEW (5.1.10)-1) date 2022-09-07 09:41:17*
%MOMM*%
%LPD*%
G01*
G04 APERTURE LIST*
%ADD10C,0.300000*%
%ADD11C,0.120000*%
%ADD12C,0.381000*%
%ADD13C,0.150000*%
%ADD14C,0.074930*%
%ADD15C,0.076200*%
G04 APERTURE END LIST*
D10*
X127275285Y-75450571D02*
X126989571Y-75450571D01*
X126846714Y-75522000D01*
X126703857Y-75664857D01*
X126632428Y-75950571D01*
X126632428Y-76450571D01*
X126703857Y-76736285D01*
X126846714Y-76879142D01*
X126989571Y-76950571D01*
X127275285Y-76950571D01*
X127418142Y-76879142D01*
X127561000Y-76736285D01*
X127632428Y-76450571D01*
X127632428Y-75950571D01*
X127561000Y-75664857D01*
X127418142Y-75522000D01*
X127275285Y-75450571D01*
X125989571Y-76950571D02*
X125989571Y-75450571D01*
X125418142Y-75450571D01*
X125275285Y-75522000D01*
X125203857Y-75593428D01*
X125132428Y-75736285D01*
X125132428Y-75950571D01*
X125203857Y-76093428D01*
X125275285Y-76164857D01*
X125418142Y-76236285D01*
X125989571Y-76236285D01*
X124489571Y-76164857D02*
X123989571Y-76164857D01*
X123775285Y-76950571D02*
X124489571Y-76950571D01*
X124489571Y-75450571D01*
X123775285Y-75450571D01*
X123132428Y-76950571D02*
X123132428Y-75450571D01*
X122275285Y-76950571D01*
X122275285Y-75450571D01*
X121775285Y-75450571D02*
X120918142Y-75450571D01*
X121346714Y-76950571D02*
X121346714Y-75450571D01*
X120418142Y-76950571D02*
X120418142Y-75450571D01*
X120061000Y-75450571D01*
X119846714Y-75522000D01*
X119703857Y-75664857D01*
X119632428Y-75807714D01*
X119561000Y-76093428D01*
X119561000Y-76307714D01*
X119632428Y-76593428D01*
X119703857Y-76736285D01*
X119846714Y-76879142D01*
X120061000Y-76950571D01*
X120418142Y-76950571D01*
X118061000Y-76807714D02*
X118132428Y-76879142D01*
X118346714Y-76950571D01*
X118489571Y-76950571D01*
X118703857Y-76879142D01*
X118846714Y-76736285D01*
X118918142Y-76593428D01*
X118989571Y-76307714D01*
X118989571Y-76093428D01*
X118918142Y-75807714D01*
X118846714Y-75664857D01*
X118703857Y-75522000D01*
X118489571Y-75450571D01*
X118346714Y-75450571D01*
X118132428Y-75522000D01*
X118061000Y-75593428D01*
X117489571Y-76879142D02*
X117275285Y-76950571D01*
X116918142Y-76950571D01*
X116775285Y-76879142D01*
X116703857Y-76807714D01*
X116632428Y-76664857D01*
X116632428Y-76522000D01*
X116703857Y-76379142D01*
X116775285Y-76307714D01*
X116918142Y-76236285D01*
X117203857Y-76164857D01*
X117346714Y-76093428D01*
X117418142Y-76022000D01*
X117489571Y-75879142D01*
X117489571Y-75736285D01*
X117418142Y-75593428D01*
X117346714Y-75522000D01*
X117203857Y-75450571D01*
X116846714Y-75450571D01*
X116632428Y-75522000D01*
X115989571Y-76379142D02*
X114846714Y-76379142D01*
X114203857Y-76879142D02*
X113989571Y-76950571D01*
X113632428Y-76950571D01*
X113489571Y-76879142D01*
X113418142Y-76807714D01*
X113346714Y-76664857D01*
X113346714Y-76522000D01*
X113418142Y-76379142D01*
X113489571Y-76307714D01*
X113632428Y-76236285D01*
X113918142Y-76164857D01*
X114061000Y-76093428D01*
X114132428Y-76022000D01*
X114203857Y-75879142D01*
X114203857Y-75736285D01*
X114132428Y-75593428D01*
X114061000Y-75522000D01*
X113918142Y-75450571D01*
X113561000Y-75450571D01*
X113346714Y-75522000D01*
X112703857Y-76950571D02*
X112703857Y-75450571D01*
X112703857Y-76164857D02*
X111846714Y-76164857D01*
X111846714Y-76950571D02*
X111846714Y-75450571D01*
X111132428Y-76950571D02*
X111132428Y-75450571D01*
X110418142Y-76164857D02*
X109918142Y-76164857D01*
X109703857Y-76950571D02*
X110418142Y-76950571D01*
X110418142Y-75450571D01*
X109703857Y-75450571D01*
X108346714Y-76950571D02*
X109061000Y-76950571D01*
X109061000Y-75450571D01*
X107846714Y-76950571D02*
X107846714Y-75450571D01*
X107489571Y-75450571D01*
X107275285Y-75522000D01*
X107132428Y-75664857D01*
X107061000Y-75807714D01*
X106989571Y-76093428D01*
X106989571Y-76307714D01*
X107061000Y-76593428D01*
X107132428Y-76736285D01*
X107275285Y-76879142D01*
X107489571Y-76950571D01*
X107846714Y-76950571D01*
X122168142Y-79500571D02*
X122668142Y-78786285D01*
X123025285Y-79500571D02*
X123025285Y-78000571D01*
X122453857Y-78000571D01*
X122311000Y-78072000D01*
X122239571Y-78143428D01*
X122168142Y-78286285D01*
X122168142Y-78500571D01*
X122239571Y-78643428D01*
X122311000Y-78714857D01*
X122453857Y-78786285D01*
X123025285Y-78786285D01*
X121525285Y-78714857D02*
X121025285Y-78714857D01*
X120811000Y-79500571D02*
X121525285Y-79500571D01*
X121525285Y-78000571D01*
X120811000Y-78000571D01*
X120382428Y-78000571D02*
X119882428Y-79500571D01*
X119382428Y-78000571D01*
X117882428Y-78500571D02*
X117525285Y-79500571D01*
X117168142Y-78500571D01*
X115811000Y-79500571D02*
X116668142Y-79500571D01*
X116239571Y-79500571D02*
X116239571Y-78000571D01*
X116382428Y-78214857D01*
X116525285Y-78357714D01*
X116668142Y-78429142D01*
X115168142Y-79357714D02*
X115096714Y-79429142D01*
X115168142Y-79500571D01*
X115239571Y-79429142D01*
X115168142Y-79357714D01*
X115168142Y-79500571D01*
X114168142Y-78000571D02*
X114025285Y-78000571D01*
X113882428Y-78072000D01*
X113811000Y-78143428D01*
X113739571Y-78286285D01*
X113668142Y-78572000D01*
X113668142Y-78929142D01*
X113739571Y-79214857D01*
X113811000Y-79357714D01*
X113882428Y-79429142D01*
X114025285Y-79500571D01*
X114168142Y-79500571D01*
X114311000Y-79429142D01*
X114382428Y-79357714D01*
X114453857Y-79214857D01*
X114525285Y-78929142D01*
X114525285Y-78572000D01*
X114453857Y-78286285D01*
X114382428Y-78143428D01*
X114311000Y-78072000D01*
X114168142Y-78000571D01*
X113025285Y-79357714D02*
X112953857Y-79429142D01*
X113025285Y-79500571D01*
X113096714Y-79429142D01*
X113025285Y-79357714D01*
X113025285Y-79500571D01*
X112025285Y-78000571D02*
X111882428Y-78000571D01*
X111739571Y-78072000D01*
X111668142Y-78143428D01*
X111596714Y-78286285D01*
X111525285Y-78572000D01*
X111525285Y-78929142D01*
X111596714Y-79214857D01*
X111668142Y-79357714D01*
X111739571Y-79429142D01*
X111882428Y-79500571D01*
X112025285Y-79500571D01*
X112168142Y-79429142D01*
X112239571Y-79357714D01*
X112311000Y-79214857D01*
X112382428Y-78929142D01*
X112382428Y-78572000D01*
X112311000Y-78286285D01*
X112239571Y-78143428D01*
X112168142Y-78072000D01*
X112025285Y-78000571D01*
D11*
%TO.C,C1*%
X123754400Y-102962000D02*
X124454400Y-102962000D01*
X124454400Y-101762000D02*
X123754400Y-101762000D01*
%TO.C,C2*%
X123754400Y-104536800D02*
X124454400Y-104536800D01*
X124454400Y-103336800D02*
X123754400Y-103336800D01*
%TO.C,C3*%
X123754400Y-106111600D02*
X124454400Y-106111600D01*
X124454400Y-104911600D02*
X123754400Y-104911600D01*
%TO.C,R2*%
X123856000Y-97526400D02*
X124556000Y-97526400D01*
X124556000Y-96326400D02*
X123856000Y-96326400D01*
%TO.C,U2*%
X125765200Y-98718800D02*
X125765200Y-100518800D01*
X122545200Y-100518800D02*
X122545200Y-98068800D01*
%TO.C,C4*%
X120093000Y-97171000D02*
X120093000Y-99171000D01*
X117143000Y-99171000D02*
X117143000Y-97171000D01*
D12*
%TO.C,D1*%
X130902860Y-95976440D02*
X130902860Y-97774760D01*
X131851220Y-97774760D02*
X131851220Y-95976440D01*
X131202580Y-97774760D02*
X131202580Y-95976440D01*
X131553100Y-95976440D02*
X131553100Y-97774760D01*
X130601720Y-97774760D02*
X133202680Y-97774760D01*
X133202680Y-97774760D02*
X133202680Y-95976440D01*
X133202680Y-95976440D02*
X130601720Y-95976440D01*
X130601720Y-95976440D02*
X130601720Y-97774760D01*
D13*
%TO.C,SW3*%
X138366100Y-96014900D02*
X139966100Y-96014900D01*
X139966100Y-96014900D02*
X139966100Y-97414900D01*
X139966100Y-97414900D02*
X138366100Y-97414900D01*
X138366100Y-94614900D02*
X138366100Y-92814900D01*
X138366100Y-92814900D02*
X135566100Y-92814900D01*
X135566100Y-92814900D02*
X135566100Y-99414900D01*
X135566100Y-99414900D02*
X138366100Y-99414900D01*
X138366100Y-99414900D02*
X138366100Y-94614900D01*
%TO.C,C1*%
X121896166Y-102719142D02*
X121943785Y-102766761D01*
X122086642Y-102814380D01*
X122181880Y-102814380D01*
X122324738Y-102766761D01*
X122419976Y-102671523D01*
X122467595Y-102576285D01*
X122515214Y-102385809D01*
X122515214Y-102242952D01*
X122467595Y-102052476D01*
X122419976Y-101957238D01*
X122324738Y-101862000D01*
X122181880Y-101814380D01*
X122086642Y-101814380D01*
X121943785Y-101862000D01*
X121896166Y-101909619D01*
X120943785Y-102814380D02*
X121515214Y-102814380D01*
X121229500Y-102814380D02*
X121229500Y-101814380D01*
X121324738Y-101957238D01*
X121419976Y-102052476D01*
X121515214Y-102100095D01*
%TO.C,C2*%
X121832666Y-104306642D02*
X121880285Y-104354261D01*
X122023142Y-104401880D01*
X122118380Y-104401880D01*
X122261238Y-104354261D01*
X122356476Y-104259023D01*
X122404095Y-104163785D01*
X122451714Y-103973309D01*
X122451714Y-103830452D01*
X122404095Y-103639976D01*
X122356476Y-103544738D01*
X122261238Y-103449500D01*
X122118380Y-103401880D01*
X122023142Y-103401880D01*
X121880285Y-103449500D01*
X121832666Y-103497119D01*
X121451714Y-103497119D02*
X121404095Y-103449500D01*
X121308857Y-103401880D01*
X121070761Y-103401880D01*
X120975523Y-103449500D01*
X120927904Y-103497119D01*
X120880285Y-103592357D01*
X120880285Y-103687595D01*
X120927904Y-103830452D01*
X121499333Y-104401880D01*
X120880285Y-104401880D01*
%TO.C,C3*%
X121832666Y-105894142D02*
X121880285Y-105941761D01*
X122023142Y-105989380D01*
X122118380Y-105989380D01*
X122261238Y-105941761D01*
X122356476Y-105846523D01*
X122404095Y-105751285D01*
X122451714Y-105560809D01*
X122451714Y-105417952D01*
X122404095Y-105227476D01*
X122356476Y-105132238D01*
X122261238Y-105037000D01*
X122118380Y-104989380D01*
X122023142Y-104989380D01*
X121880285Y-105037000D01*
X121832666Y-105084619D01*
X121499333Y-104989380D02*
X120880285Y-104989380D01*
X121213619Y-105370333D01*
X121070761Y-105370333D01*
X120975523Y-105417952D01*
X120927904Y-105465571D01*
X120880285Y-105560809D01*
X120880285Y-105798904D01*
X120927904Y-105894142D01*
X120975523Y-105941761D01*
X121070761Y-105989380D01*
X121356476Y-105989380D01*
X121451714Y-105941761D01*
X121499333Y-105894142D01*
%TO.C,R2*%
X123458266Y-95956380D02*
X123791600Y-95480190D01*
X124029695Y-95956380D02*
X124029695Y-94956380D01*
X123648742Y-94956380D01*
X123553504Y-95004000D01*
X123505885Y-95051619D01*
X123458266Y-95146857D01*
X123458266Y-95289714D01*
X123505885Y-95384952D01*
X123553504Y-95432571D01*
X123648742Y-95480190D01*
X124029695Y-95480190D01*
X123077314Y-95051619D02*
X123029695Y-95004000D01*
X122934457Y-94956380D01*
X122696361Y-94956380D01*
X122601123Y-95004000D01*
X122553504Y-95051619D01*
X122505885Y-95146857D01*
X122505885Y-95242095D01*
X122553504Y-95384952D01*
X123124933Y-95956380D01*
X122505885Y-95956380D01*
%TO.C,U2*%
X121007580Y-97856895D02*
X121817104Y-97856895D01*
X121912342Y-97904514D01*
X121959961Y-97952133D01*
X122007580Y-98047371D01*
X122007580Y-98237847D01*
X121959961Y-98333085D01*
X121912342Y-98380704D01*
X121817104Y-98428323D01*
X121007580Y-98428323D01*
X121102819Y-98856895D02*
X121055200Y-98904514D01*
X121007580Y-98999752D01*
X121007580Y-99237847D01*
X121055200Y-99333085D01*
X121102819Y-99380704D01*
X121198057Y-99428323D01*
X121293295Y-99428323D01*
X121436152Y-99380704D01*
X122007580Y-98809276D01*
X122007580Y-99428323D01*
%TO.C,C4*%
X118848166Y-101639642D02*
X118895785Y-101687261D01*
X119038642Y-101734880D01*
X119133880Y-101734880D01*
X119276738Y-101687261D01*
X119371976Y-101592023D01*
X119419595Y-101496785D01*
X119467214Y-101306309D01*
X119467214Y-101163452D01*
X119419595Y-100972976D01*
X119371976Y-100877738D01*
X119276738Y-100782500D01*
X119133880Y-100734880D01*
X119038642Y-100734880D01*
X118895785Y-100782500D01*
X118848166Y-100830119D01*
X117991023Y-101068214D02*
X117991023Y-101734880D01*
X118229119Y-100687261D02*
X118467214Y-101401547D01*
X117848166Y-101401547D01*
%TO.C,D1*%
D14*
X132023421Y-95611187D02*
X132023421Y-95311467D01*
X131952060Y-95311467D01*
X131909242Y-95325740D01*
X131880698Y-95354284D01*
X131866425Y-95382829D01*
X131852153Y-95439919D01*
X131852153Y-95482736D01*
X131866425Y-95539825D01*
X131880698Y-95568370D01*
X131909242Y-95596915D01*
X131952060Y-95611187D01*
X132023421Y-95611187D01*
X131566705Y-95611187D02*
X131737974Y-95611187D01*
X131652340Y-95611187D02*
X131652340Y-95311467D01*
X131680884Y-95354284D01*
X131709429Y-95382829D01*
X131737974Y-95397101D01*
D15*
%TO.C,SW3*%
D13*
X138290133Y-101776161D02*
X138147276Y-101823780D01*
X137909180Y-101823780D01*
X137813942Y-101776161D01*
X137766323Y-101728542D01*
X137718704Y-101633304D01*
X137718704Y-101538066D01*
X137766323Y-101442828D01*
X137813942Y-101395209D01*
X137909180Y-101347590D01*
X138099657Y-101299971D01*
X138194895Y-101252352D01*
X138242514Y-101204733D01*
X138290133Y-101109495D01*
X138290133Y-101014257D01*
X138242514Y-100919019D01*
X138194895Y-100871400D01*
X138099657Y-100823780D01*
X137861561Y-100823780D01*
X137718704Y-100871400D01*
X137385371Y-100823780D02*
X137147276Y-101823780D01*
X136956800Y-101109495D01*
X136766323Y-101823780D01*
X136528228Y-100823780D01*
X136242514Y-100823780D02*
X135623466Y-100823780D01*
X135956800Y-101204733D01*
X135813942Y-101204733D01*
X135718704Y-101252352D01*
X135671085Y-101299971D01*
X135623466Y-101395209D01*
X135623466Y-101633304D01*
X135671085Y-101728542D01*
X135718704Y-101776161D01*
X135813942Y-101823780D01*
X136099657Y-101823780D01*
X136194895Y-101776161D01*
X136242514Y-101728542D01*
%TD*%
M02*
